<svg width="2000" height="2000" viewBox="0 0 2000 2000" fill="none" xmlns="http://www.w3.org/2000/svg">
<path fill-rule="evenodd" clip-rule="evenodd" d="M372.216 1094.42C372.216 1094.42 218.263 1109.41 195.786 1143.46C173.309 1177.52 176.709 1261.3 182.164 1283.78C187.608 1306.26 200.553 1336.92 201.919 1344.41C203.286 1351.9 195.108 1454.08 189.664 1469.07C184.22 1484.05 176.72 1523.56 176.72 1523.56C176.72 1523.56 75.2214 1549.45 43.8886 1564.44C12.5558 1579.43 1.23378 1592.5 14.6002 1611.45C27.9666 1630.4 149.487 1648.24 196.486 1657.1C243.485 1665.95 312.973 1679.57 321.828 1697.63C330.684 1715.68 319.45 1728.28 316.717 1738.16C313.995 1748.04 325.217 1794.54 483.259 1805.43C641.289 1816.33 783.865 1762.82 838.841 1741.39C893.829 1719.96 989.383 1735.95 1002.33 1746.16C1015.27 1756.37 1014.58 1780.56 1034 1785.67C1053.42 1790.78 1053.08 1797.59 1094.29 1794.53C1135.5 1791.46 1201.88 1790.73 1201.88 1790.73L1251.66 1782.6C1351.94 1770.23 1452.24 1757.85 1552.53 1745.47C1599.62 1751.45 1651.59 1751.73 1698.69 1757.71C1720.28 1732.44 1748.34 1719.71 1758.57 1687.63L1418.93 1381.4L774.476 1174.64L372.216 1094.42Z" fill="#D4EEEF"/>
<path fill-rule="evenodd" clip-rule="evenodd" d="M1544.46 1746.47L1552.51 1745.47C1556.87 1746.03 1561.27 1746.53 1565.71 1746.99C1565.71 1746.99 1566.62 1747.46 1586.5 1720.19C1606.37 1692.94 1615.46 1687.83 1655.79 1688.4C1691.17 1688.9 1735.65 1694.3 1755.68 1695.14C1756.19 1694 1756.67 1692.83 1757.14 1691.64C1713.28 1671.25 1436.67 1570.02 1436.67 1570.02C1436.67 1570.02 1036.13 1552.66 1013.42 1552.66C1003.43 1552.66 889.797 1545.13 765.533 1536.69L760.266 1614.14C760.266 1614.14 723.922 1622.65 696.089 1624.93C668.256 1627.2 621.679 1644.81 601.802 1654.46C581.925 1664.12 545.247 1687.51 505.815 1675.47C466.382 1663.44 361.695 1627.65 361.695 1627.65L336.429 1620.71C336.429 1620.71 213.164 1579.91 198.953 1570.82C194.842 1568.19 192.109 1564.03 190.309 1559.45C175.598 1566.38 161.454 1574.45 161.454 1579.91C161.454 1591.26 246.653 1626.49 314.807 1644.65C382.972 1662.83 449.982 1719.63 537.459 1715.08C624.924 1710.54 665.823 1668.51 711.256 1673.05C756.699 1677.6 774.877 1662.83 814.632 1674.2C854.387 1685.55 948.674 1702.58 1073.63 1709.41C1198.58 1716.23 1334.32 1686.33 1334.32 1686.33L1544.46 1746.47Z" fill="#8EC7DA"/>
<path fill-rule="evenodd" clip-rule="evenodd" d="M1250.57 1796.66C1175.8 1810.99 1071.87 1808.85 1029.06 1793.4C1002.14 1783.69 1012.67 1769.57 1001.48 1755.58C997.184 1750.22 952.251 1742.97 942.54 1741.64C857.986 1730.01 843.442 1746.35 770.543 1773.29C655.568 1815.77 536.692 1823.69 415.538 1804.82C378.817 1799.09 285.974 1772.07 314.118 1727.34C321.618 1718.12 325.118 1710.16 310.918 1698.78C256.73 1654.01 107.91 1665.31 33.9561 1633.2C13.9898 1624.54 -9.19866 1608.26 3.74556 1583.09C13.9787 1563.19 75.5221 1545.26 97.5995 1538.63C109.255 1535.13 166.521 1522.9 170.398 1517.82C176.031 1510.49 175.331 1465.18 178.476 1451.43C184.087 1426.89 192.509 1418.41 190.687 1389.23C189.687 1373.19 186.642 1343.09 184.198 1327.62C182.942 1319.67 176.143 1307.7 174.231 1297.17C168.998 1268.25 164.043 1189.37 169.965 1162.08C179.665 1117.48 225.419 1111.79 262.974 1101.89C275.707 1098.54 342.617 1083.27 371.061 1079.29C369.561 941.797 440.005 834.299 491.959 737.256C504.204 717.712 518.537 698.434 533.325 680.757C538.759 674.257 554.703 661.824 557.203 655.702C562.369 642.991 563.38 620.069 569.391 604.069C584.247 564.559 619.468 535.504 639.968 510.693C650.39 480.416 664.356 458.405 699.833 408.451C770.066 300.286 962.04 262.886 1065.46 339.996C1076.02 347.074 1087.72 360.274 1097.26 365.651C1115.57 375.962 1125.43 375.14 1140.74 394.506C1147.54 403.751 1150.43 410.062 1153.48 429.706C1161.03 446.694 1164 468.027 1160.65 482.138C1166.43 491.371 1162.21 505.882 1162.21 510.46C1168.47 517.604 1187.41 538.682 1195.55 555.659C1220.32 562.048 1235.44 568.137 1251.21 579.27C1227.07 571.303 1214.67 568.137 1200.86 565.514C1205.24 574.07 1208.2 586.781 1210.18 594.458C1226.16 607.458 1251.36 622.914 1252.4 645.591C1240.89 629.236 1225.09 613.514 1212 609.436C1211.39 622.147 1208.81 633.202 1206.92 638.813C1217.01 652.524 1225.69 664.235 1228.99 690.279C1222.3 675.779 1215.89 663.091 1202.58 649.969C1200.11 657.513 1180.89 675.279 1166.15 679.646C1166.15 688.923 1167.85 685.69 1165.69 708.701C1192.69 730.878 1251.85 839.943 1324.38 853.421C1354.19 861.554 1389.23 850.843 1413.92 833.71C1443.07 813.477 1431.72 808.31 1442.87 781.8C1451.71 760.778 1468.22 751.956 1489.28 748.556C1489.51 748.578 1501.1 749.5 1514.23 753.678L1514.12 754.122L1514.75 753.845C1527.32 757.911 1541.16 764.989 1547.74 777.111C1561.37 802.233 1552.85 825.221 1552.85 825.221L1520.5 841.821C1520.5 841.821 1518.79 897.164 1522.2 909.942C1523.86 916.208 1533.21 924.908 1542.31 932.141C1539.72 935.275 1536.25 937.697 1533.27 937.097C1526.95 942.875 1513.23 931.808 1509.02 925.964C1505.14 920.586 1498.72 904.953 1505.62 900.92C1503.74 889.964 1501.24 878.654 1498.48 864.043C1498.48 864.043 1498.73 854.343 1499.23 834.965C1487.09 838.51 1463.99 809.199 1483.88 806.233C1509.95 824.91 1574.7 826.032 1525.93 785.611C1493.58 758.789 1469.21 764.667 1459.06 806.899L1454.54 808.377C1456.19 808.577 1458.66 809.066 1458.8 810.221C1459.33 814.899 1459.49 846.354 1457.38 848.498C1456.68 849.21 1455.65 849.576 1454.54 849.865C1451.36 854.409 1447.2 851.876 1442.08 842.254C1363.84 917.864 1256.99 873.854 1202.91 792.977C1207.99 812.055 1221.1 827.388 1233.84 841.932L1233.27 847.743C1254.07 870.431 1266.77 895.842 1271.37 923.953C1282.77 925.986 1291.36 931.086 1297.1 939.241C1298.33 942.83 1296.15 944.897 1290.57 945.43C1295.13 949.774 1301.57 959.497 1297.1 964.774C1287.11 964.674 1276.95 961.963 1266.63 956.663C1198.27 936.164 1131.74 947.308 1062.97 959.797C1048.51 957.83 1061.86 948.23 1068.1 944.441C1107.23 920.619 1182.07 920.431 1228.02 920.731C1240.37 922.053 1237.46 912.508 1233.89 904.064C1220.64 872.654 1201.85 844.932 1182.96 817.377C1175.48 819.077 1170.86 817.432 1169.09 812.432L1175.4 772.211C1171 751.111 1167.66 748.922 1165.33 765.644C1158.6 800.077 1150.29 835.099 1136.51 868.309C1129.65 884.853 1102.3 933.908 1086.18 900.442C1081.94 891.631 1084.78 848.965 1086.46 837.454L1090.72 834.988C1090.94 819.099 1088.39 802.633 1087.89 785.922C1060.79 814.977 1020.45 824.021 983.029 810.032C982.117 812.71 973.973 837.199 975.306 837.765C994.384 845.743 1053.03 828.032 1070.32 812.21C1094.79 803.555 1078.49 826.221 1067.3 832.865C1068.09 840.354 1047.58 853.476 1041.77 847.754C1028.82 856.832 1013.61 860.421 996.151 858.521L968.84 856.432C968.151 865.243 965.518 870.165 960.929 871.154L964.118 874.865C961.34 886.698 936.496 935.475 924.552 935.764L920.507 932.853C909.874 936.219 903.497 931.364 902.752 920.375C903.474 877.931 903.652 834.165 903.785 790.988C887.175 786.966 838.453 749.089 838.476 734.178C838.487 730.112 844.042 727.112 847.853 729.923C864.553 743.4 882.141 755.511 900.608 766.289C903.908 764.089 894.808 685.724 872.675 735.089C860.731 738.8 871.286 704.868 871.475 704.601C861.964 700.979 852.897 696.868 844.264 692.301C843.442 696.023 829.965 734.534 827.654 731.934L822.787 711.49L832.742 683.612L809.62 661.268C796.276 684.557 774.166 691.69 801.11 648.046C790.843 631.591 783.543 614.869 779.121 595.814L777.121 597.914C770.121 610.591 749.766 628.147 752.666 602.158C754.51 585.681 777.51 566.526 793.165 563.303C821.298 557.515 833.353 577.392 801.754 584.536C801.476 591.681 816.998 631.113 822.009 630.169L836.942 616.925L841.764 617.969C850.231 607.792 893.352 577.47 904.13 587.736C907.063 590.514 906.385 600.025 902.519 602.292C889.275 601.358 829.053 637.48 830.965 644.413C831.776 647.38 844.831 660.424 847.242 659.568C859.675 646.591 872.73 634.291 886.419 622.647C906.53 607.458 912.452 623.858 894.641 637.113L869.242 659.68C857.264 667.379 862.097 672.813 883.719 675.979L898.497 651.902C902.608 641.913 924.518 628.113 922.919 645.38L900.386 679.057C951.162 684.99 1034.76 664.268 1051.53 608.58L1052.72 550.637C1059.74 537.971 1077.15 588.625 1075.7 596.669C1078.5 600.336 1066.17 625.325 1063.99 633.28C1070.49 640.447 1118.04 657.113 1128.39 658.835C1163.18 664.613 1174.2 659.08 1147.08 630.547C1147.2 610.303 1171.24 640.324 1175.78 646.991C1184.04 641.502 1185.48 636.247 1180.1 631.224L1161.25 613.391C1154.38 593.603 1181.31 609.758 1188.13 617.258C1189.39 616.947 1191.34 593.558 1181.5 595.047C1151.26 588.636 1155.96 568.114 1184.07 579.281C1185.88 578.603 1180.64 566.526 1177.19 565.726C1165.09 564.803 1147.24 556.17 1167.79 549.681C1152.83 529.282 1132.81 518.715 1110.63 509.182C1109.82 514.304 1147 540.348 1078.84 525.937C1072.94 555.604 1054.26 550.059 1058.53 522.026C1061.03 505.671 1068.09 488.205 1086.46 498.649C1090.46 519.615 1093.44 502.393 1086.13 494.527C1077.17 484.916 1021.92 486.027 1010.14 491.705C1001.69 495.782 990.195 507.649 1003.84 511.838C1016.13 490.238 1030.87 493.16 1043.89 513.482C1059.52 537.859 1037.11 562.648 1028.25 523.515C1012.42 545.115 967.407 524.104 982.195 500.938C980.929 499.471 979.829 497.427 980.762 495.882C998.573 466.15 1033.36 467.094 1064.12 470.583C1060.8 430.161 1087.58 403.839 1127.89 414.695C1114.07 388.24 1083.17 383.062 1056.39 391.24C1044.03 389.595 1056.66 372.496 1066.29 371.551C975.429 300.23 840.542 319.408 755.066 390.962C737.733 405.473 728.033 423.161 722.655 445.094C689.767 579.303 712.478 724.867 837.875 802.955L850.809 810.588C856.109 812.632 893.375 829.977 894.163 832.299C899.608 848.243 873.664 836.232 867.308 832.854C855.586 834.054 837.787 824.854 827.076 818.299C700.411 740.711 669.067 594.358 699.256 456.516C680.156 490.26 664.767 523.449 652.223 560.715C649.445 589.703 643.912 598.081 643.912 629.836L639.646 632.858C637.79 633.736 635.079 634.891 633.99 633.791C623.579 623.291 625.668 588.292 628.201 573.759C603.735 595.903 583.558 633.891 588.202 668.046C589.113 674.713 590.658 679.935 597.946 681.135C612.046 678.957 681.767 691.69 682.189 703.934C682.556 714.201 670.578 711.445 663.479 708.934C642.668 698.679 624.09 696.79 601.491 700.434C590.624 700.834 580.624 697.668 572.913 689.89C566.858 689.29 523.081 740.034 519.37 748.256C529.481 737.889 592.302 716.534 598.28 727.545C602.035 734.456 587.669 745.189 582.202 739.234C555.536 757.6 529.47 776.755 503.992 796.688C435.727 881.487 396.917 990.718 406.605 1101.29C413.972 1112.17 413.916 1119.33 428.827 1123.77L428.994 1128.58L426.994 1132.97C411.805 1134.22 390.461 1137.14 406.75 1155.35L405.594 1160.49L397.45 1162.94C387.694 1162.07 336.44 1155.05 333.262 1151.87C328.34 1146.95 337.94 1141.63 344.195 1143.12L378.939 1143.74C379.883 1140.97 386.506 1137.63 386.306 1135.96C382.05 1130.88 374.272 1111.04 372.872 1110.18C365.195 1105.49 288.796 1120.14 275.73 1123.18C253.963 1128.25 214.875 1134.64 201.698 1153.4C187.687 1173.35 189.387 1228.17 190.62 1253.14C191.376 1268.54 194.087 1303.07 199.764 1316.32C206.153 1331.26 208.309 1317.2 209.52 1310.16C214.397 1281.52 213.042 1248.45 225.797 1222.18C233.664 1205.99 252.497 1214.41 259.686 1226.61C271.841 1247.26 270.652 1305.69 273.708 1331.73C274.908 1341.9 276.741 1355.49 281.119 1364.7C287.907 1364.48 293.674 1275.28 295.896 1264.62C299.34 1248.08 304.474 1241.36 314.107 1228.57C316.162 1227.56 318.051 1227.6 319.729 1228.98C309.985 1273.29 303.629 1318.43 300.663 1364.41C296.618 1392.43 276.607 1398.82 268.33 1369.14C261.008 1330.89 255.975 1292.42 253.208 1253.74C252.73 1234.23 237.408 1214.9 235.908 1247L231.13 1249.86C226.875 1271.19 227.497 1289.66 224.586 1310.33C222.764 1323.32 215.797 1340.59 214.275 1353.22C211.709 1374.54 216.453 1399.87 214.109 1421.14C210.998 1449.42 198.62 1477.95 196.987 1510.41C196.331 1523.44 194.542 1552.13 204.964 1560.62C228.797 1572.03 315.107 1605.15 336.406 1620.73C313.307 1618.31 280.641 1610.95 258.33 1604.57C245.475 1600.91 184.909 1582.92 180.043 1573.82C176.387 1566.99 176.22 1547.49 175.82 1539.21C166.287 1538.29 157.321 1540.42 148.143 1542.41C124.232 1547.56 33.9228 1571.59 20.4675 1587.06C11.6899 1597.16 11.9343 1601.91 22.8786 1608.11C92.4773 1647.47 218.82 1634.16 296.396 1668.63C315.551 1677.14 337.551 1697.76 334.984 1720.56C333.184 1736.54 312.44 1741.24 332.062 1758.49C345.295 1770.13 394.683 1782.4 413.283 1785.78C505.259 1802.52 615.313 1800.74 705.578 1776.45C770.732 1758.92 823.931 1722.74 893.775 1719.97C920.53 1718.92 985.517 1728.25 1008.24 1741.89C1025.26 1752.12 1014.38 1770.09 1034.55 1779.42C1065.35 1793.66 1178.36 1792.5 1243.04 1782.92C1250.54 1783.34 1261.69 1792.57 1250.57 1796.66Z" fill="black"/>
<path fill-rule="evenodd" clip-rule="evenodd" d="M716.256 888.142C716.811 891.064 717.5 893.276 720.978 893.664C720.856 896.164 720.211 934.864 721 933.053L732.844 893.076L737.533 891.342C731.055 892.831 732.522 860.909 733.278 859.232C733.989 857.654 735.855 856.876 737.533 856.232C744.511 852.043 749.844 862.309 752.577 868.254C766.177 897.82 742.155 946.686 724.178 970.274C739.766 961.685 750.622 947.052 759.244 931.875C779.455 922.819 761.844 965.141 752.155 969.385C756.388 978.263 751.844 984.918 738.522 989.341C780.366 1010.83 816.71 1041.28 844.72 1077.61C848.853 1079.58 859.853 1057.37 864.309 1054.86L934.663 1028.04C941.563 1028.06 948.874 1027.94 946.741 1031.12C953.829 1059.73 874.109 1088.01 854.042 1096.64C899.364 1170.59 901.23 1281.1 858.52 1356.36C849.42 1372.39 843.687 1379.27 823.965 1382.37C822.732 1382.91 821.698 1383.7 821.232 1385C819.298 1390.33 815.91 1448.28 816.098 1457.28C816.132 1458.8 817.521 1471.04 817.732 1470.42L832.787 1408.74C838.22 1405.98 841.142 1406.79 841.554 1411.17C837.676 1446.04 833.631 1469.29 835.676 1504.16C836.92 1484.49 842.098 1476.52 844.931 1456.98C846.52 1445.47 851.909 1424.41 861.164 1439.23L869.831 1464.24L878.875 1512.66C887.908 1541.54 901.041 1572.82 929.474 1587.2C916.363 1577.03 873.886 1500.75 885.497 1491.05C889.519 1487.69 894.497 1488.95 896.453 1494.17C911.152 1523.9 928.408 1551.62 948.196 1577.3C944.718 1571.27 924.841 1505.14 934.919 1508.62C948.274 1527.01 978.362 1585.65 1000.85 1599.93C986.707 1580.2 962.629 1529.96 967.462 1521.31C970.262 1516.26 972.84 1513.94 977.396 1518.19C990.962 1534.42 1038.62 1607.15 1061.07 1606.05C1050.86 1597.73 1012.3 1558.99 1019.28 1545.59C1021.61 1541.15 1024.34 1541.6 1028.26 1544.53C1047.69 1565.12 1071.83 1583.24 1059.79 1567.66C1055.66 1560.33 1051.97 1552.7 1062.87 1551.81C1065.01 1553.62 1130.65 1602.1 1128.95 1597.1C1111.35 1590.36 1085.39 1556.9 1119.64 1571.66L1146.88 1575.03C1142.61 1562.5 1172.48 1579.24 1180.44 1582.24C1193.61 1588.87 1203.98 1602.5 1218.35 1604.91C1212.91 1595.4 1214.36 1590.6 1222.69 1590.52L1244.04 1603.67C1244.21 1594.81 1249.66 1594.12 1260.39 1601.62C1265.59 1604.74 1295.4 1612.74 1297.4 1609.77C1293.37 1597.3 1288.95 1584.91 1284.12 1572.6C1281.1 1564.35 1284.17 1556.66 1292.19 1563.19C1294.1 1569.11 1324.36 1608.05 1329.12 1604.13C1323.32 1593.9 1309.93 1548.93 1320.42 1542.11C1324.1 1539.72 1326.67 1540.95 1328.89 1544.56L1337.55 1566.31C1334.06 1555.26 1341.7 1518.43 1351.56 1542.21C1353.2 1560.64 1356.84 1578.52 1362.48 1595.86C1380.23 1583.79 1398.68 1572.94 1417.79 1563.34C1428.41 1557.9 1435.7 1558.36 1439.67 1564.75L1436.68 1570.03C1422.63 1574.64 1410.02 1582.57 1398.2 1591.34C1400.5 1591.89 1402.09 1593.32 1403.37 1595.31C1407.37 1601.54 1375.58 1642.15 1368.82 1649.41C1316.07 1703.34 1258.82 1768.39 1262.65 1848.3C1263.85 1873.41 1281.36 1902.85 1287.3 1862.86C1291.29 1826.4 1297.36 1789.23 1317.61 1757.07C1338.74 1723.49 1346.17 1738.24 1336.2 1767.37C1327.96 1781.35 1308.15 1857.27 1314.96 1861.46C1320.37 1864.8 1346.84 1846.79 1344.7 1836.69C1348.99 1816.43 1354.4 1796.05 1363.61 1776.67C1368.42 1766.56 1395.9 1713.01 1405.01 1715.73C1413.22 1718.18 1403.93 1748.78 1401.19 1755.47C1396.95 1765.37 1372.5 1825.8 1377.78 1830.93C1380.34 1833.41 1404.78 1825.51 1409.11 1822.67C1423.07 1789.8 1439.57 1758.35 1458.6 1728.33C1466.69 1715.03 1486.03 1697.44 1482.95 1721.83C1471.63 1749.31 1459.02 1776.36 1445.11 1803.02C1544.54 1768.9 1561.62 1642.26 1528.05 1554.22C1478.92 1425.34 1295.29 1401.12 1180.45 1450.14L1169.47 1449.85C1165.19 1451.05 1163.78 1450.35 1165.21 1447.73L1169.21 1440.24C1224.21 1402.86 1287.29 1398.12 1351.74 1400.87L1358.82 1405.17C1420.2 1406.39 1485.54 1436.23 1521.33 1487.32L1530.3 1469.67C1535.41 1464.23 1540.36 1467.72 1539.46 1474.84L1535.72 1496.44C1539.16 1494.82 1541.74 1494.1 1543.74 1497.64C1547.37 1515.14 1553.39 1532.08 1561.76 1548.43C1569.09 1592.44 1591.17 1618.8 1635.15 1628.47C1643.54 1638.54 1630.56 1640.93 1622.11 1639.51C1665.24 1649.37 1710.04 1654.95 1754.45 1657.01C1778.17 1658.12 1821.98 1659.68 1843.66 1651.93C1846.74 1650.82 1827.74 1641.72 1823.7 1639.97L1822.65 1634.96L1821.26 1637.11C1787.69 1628.11 1754.46 1617.66 1721.56 1605.74L1720.53 1600.91C1720.74 1599.27 1721.13 1597 1722.42 1596.65C1724.5 1596.1 1754.02 1596.14 1756.88 1596.65L1759.89 1600.91C1760.49 1599.27 1761.4 1597.55 1763.15 1596.92C1775.33 1592.53 1869.37 1630.74 1884.76 1643.1C1905.96 1644.32 1924.47 1643.93 1898.34 1625.6C1863.45 1607.91 1826.71 1594.36 1788.15 1584.97C1783.67 1583.32 1782.8 1580.77 1786.48 1577.5C1786.69 1575.85 1787.14 1573.44 1788.35 1573.24C1795.81 1572.01 1818.17 1571.27 1821.59 1577.5C1821.79 1576.45 1822.08 1575.46 1822.67 1574.7C1828.3 1567.36 1931.49 1613.75 1938.71 1634.86C1942.08 1641.21 1971.17 1640.1 1971.08 1638.43C1970.48 1627.24 1909.41 1590.31 1902.1 1586.63C1823.29 1546.75 1748.42 1539.82 1661.61 1536.78L1620.7 1524.29C1619.4 1524.82 1624.18 1542.75 1626.08 1544.81C1634.07 1555.69 1631.53 1561.07 1617.51 1557.58C1597.26 1552.51 1593.97 1505.31 1593.12 1488.11C1592.96 1441.39 1591.35 1400.66 1573.2 1356.37C1571.39 1351.95 1557.64 1326.92 1556.43 1330.88C1553.27 1359.67 1549.35 1388.73 1539.45 1416.11L1533.3 1420.07C1540.66 1426.97 1517.33 1451.31 1512.2 1444.59C1508.52 1439.75 1513.82 1415.58 1520.53 1411.54L1517.92 1400.41C1544.24 1254.49 1491.9 1089.35 1360.61 1011.64C1330.71 993.94 1300.75 985.418 1267.82 977.085C1252.87 961.063 1282.58 967.841 1282.2 944.564C1282.18 942.986 1291.32 936.808 1293.95 936.141C1295.85 930.942 1303.63 935.753 1308.02 937.653C1354.33 957.752 1401.83 986.741 1435.3 1024.41C1471.48 1003.41 1503.61 973.085 1527.6 938.419L1533.3 937.097C1535.75 932.653 1539.85 925.219 1546.06 924.331C1550.14 918.731 1569.89 924.075 1571.6 930.719L1573.73 937.086C1562.45 934.864 1563.93 942.297 1560.96 945.619C1544.52 963.985 1528.34 986.207 1511.02 1003.13C1493.79 1019.96 1472.55 1032.42 1454.94 1048.8C1491.25 1094.55 1527.87 1147.52 1543.34 1204.73C1549.36 1227.04 1553.3 1256.36 1555.47 1278.68C1565.05 1286.47 1575.04 1296.64 1581.03 1305.34C1603.86 1338.49 1620.48 1395.97 1622.75 1435.95C1623.58 1450.57 1621.11 1483.68 1623.68 1493.91C1652.12 1519.31 1696.94 1513.29 1725.95 1513.62C1805.49 1514.55 1976.49 1560.42 1998.29 1632.75C2009.31 1669.35 1964.27 1661.48 1943.48 1667.51C1914.79 1675.82 1907.29 1674.15 1879.09 1677.57C1857.17 1680.24 1835.44 1686.93 1813.18 1688.26C1733.39 1693.06 1657.36 1669.17 1577.97 1669.01C1575.11 1692.95 1564.79 1721.89 1553.56 1743.54C1527.6 1793.57 1481.39 1830.63 1430.72 1844.31C1412.7 1854.68 1410.33 1861.91 1389.14 1866.35C1382.07 1867.83 1376.12 1866.18 1368.3 1868.91C1358.64 1872.28 1346.51 1883.68 1334.75 1888.55C1327.79 1891.42 1320.39 1891.56 1314.72 1894.06C1309.57 1896.32 1306.38 1902.7 1300.76 1905.62C1259.61 1926.98 1237.88 1868.56 1235.47 1838.14C1232.16 1796.18 1257.96 1735.68 1281.37 1701.13C1285.19 1695.51 1311.77 1666.52 1307.77 1662.65C1260.5 1663.78 1213.44 1660.3 1166.18 1660.41C1044.51 1660.72 965.607 1660.88 851.02 1611.94L777.999 1575.41C776.355 1597.75 783.521 1627.93 755.099 1630.17C724.978 1633.42 684.056 1637.88 651.401 1646.3C599.658 1659.63 579.391 1693.53 513.126 1688.13C492.36 1686.45 397.383 1653.33 361.729 1627.67C398.75 1637.07 438.938 1651.6 482.904 1663.2C552.947 1681.68 570.758 1652.64 632.857 1633.45C656.801 1626.05 686.923 1621.14 712.034 1615.82C724.967 1613.09 737.066 1609.02 748.333 1603.6L745.822 1542.73C730.3 1488.87 732.8 1431.99 738.111 1377.17C738.044 1371.2 737.833 1364.5 732.711 1360.62C715.245 1350.78 704.156 1335.05 696.678 1316.3C685.445 1284.77 673.345 1253.94 655.446 1226.18C645.957 1227.94 637.324 1223.64 641.257 1212.8C614.157 1201.63 586.913 1202.75 557.536 1205.16C520.492 1196.43 482.904 1192.17 444.76 1192.36C419.094 1186.45 418.15 1188.79 390.061 1183.9C388.539 1181.34 357.117 1176.47 379.462 1168.87L409.305 1166.15C406.85 1165.29 405.917 1163.02 405.639 1160.52C383.284 1136.12 406.261 1129.93 429.05 1128.6L440.005 1129.22C494.693 1155.85 555.981 1168.04 616.624 1162.66C606.769 1138.02 622.735 1142.39 634.468 1156.52L630.668 1143.56C629.379 1137.56 628.468 1132.05 635.424 1130.73L643.313 1136.59C676.479 1187.57 703.478 1239.06 723.544 1296.21C727.444 1304.96 738.878 1325.92 748.2 1329.19C763.51 1334.57 760.455 1260.84 755.199 1251.61C753.944 1246.37 751.9 1221.7 762.11 1226.06C776.366 1232.16 786.243 1314.6 786.288 1335.63C787.899 1375.03 800.943 1345.18 805.488 1325.97C814.187 1289.12 809.943 1250.77 804.176 1213.84C805.421 1208.74 808.61 1209.75 813.221 1211.44C829.765 1217.49 833.998 1307.93 829.265 1327.3C826.576 1358.19 838.109 1338.07 842.709 1322.43C854.942 1280.75 854.52 1241 846.131 1199.63C847.742 1193.79 853.709 1192.61 857.731 1196.99C833.431 1052.7 673.112 953.086 533.248 999.585C519.759 999.363 532.559 987.585 539.014 983.041C568.203 962.508 624.58 962.008 658.357 969.885C638.935 942.341 607.602 934.464 576.136 929.153C565.581 914.053 602.691 914.897 610.68 915.608C641.213 918.375 663.423 934.964 684.656 955.952C697.256 924.031 700.723 889.487 695.034 852.298C696.178 844.376 698.189 844.776 704.689 847.587C707.2 848.643 725.422 884.353 716.256 888.142Z" fill="black"/>
<path fill-rule="evenodd" clip-rule="evenodd" d="M331.14 1213.68C341.929 1216.29 350.951 1221.81 361.362 1219.75C378.395 1213.09 391.072 1216.43 406.45 1223.54L407.739 1228.58L373.695 1224.35C374.717 1227.04 377.806 1230.23 380.228 1231.61C392.872 1238.91 465.049 1257.28 467.282 1261.59C469.393 1265.65 463.782 1264.84 461.938 1264.82C454.816 1264.78 447.305 1261.09 439.66 1262.62C435.494 1266.29 457.138 1292.15 452.016 1299.32C418.805 1333.79 394.572 1364.83 361.362 1399.3C359.084 1397.61 424.061 1310.46 431.105 1304.08C432.172 1299.06 426.838 1300.54 424.205 1301.44C407.105 1307.27 356.251 1374.91 340.74 1392.43C326.662 1408.32 316.718 1430.06 318.518 1451.57C304.952 1471.44 254.652 1533.74 250.153 1536.65C245.641 1543.09 263.452 1534.06 275.83 1526.45C270.919 1538.51 287.841 1528.22 291.418 1526.08C311.174 1514.16 334.74 1489.93 354.362 1476.25C393.694 1448.85 427.461 1412.73 461.949 1379.58C472.371 1369.57 484.826 1362.09 495.037 1350.96C498.748 1346.9 504.593 1333.27 507.859 1338.29C515.159 1349.57 506.259 1375.41 518.381 1383.88L521.359 1387.81C521.737 1441.22 523.237 1494.62 525.826 1548.01L522.648 1556.22L514.148 1551.95C511.17 1571.27 520.27 1632.45 508.748 1645.5C506.059 1648.55 502.459 1649.82 498.426 1649.71C493.893 1649.57 471.46 1643.66 465.582 1642.01C451.171 1637.94 435.016 1629.79 420.572 1625.32C410.305 1622.14 385.995 1619.23 379.439 1615.87C376.539 1614.4 374.317 1604.5 368.506 1600.16C364.339 1597.04 351.929 1598.85 345.684 1596.19C328.884 1589.01 326.251 1582.27 312.718 1573.64C308.052 1570.66 299.952 1570.41 295.274 1566.14C289.074 1560.5 292.274 1550.8 282.074 1546.7C270.974 1542.24 262.852 1545.66 253.375 1547.58C230.253 1552.25 234.453 1528.82 231.064 1512.7L229.02 1329.63L233.264 1332.81C233.242 1316.77 232.553 1300.77 235.608 1284.96L231.153 1249.85C233.642 1237.38 231.053 1222.14 246.697 1226.87C259.008 1230.59 259.363 1279.42 260.952 1291.32C263.052 1307.08 269.419 1370.94 276.974 1379.54C289.863 1394.23 295.652 1371.1 296.852 1361.28C301.896 1319.89 301.84 1278.27 314.196 1238.18C315.062 1235.38 318.229 1230.45 314.14 1228.57C318.774 1221.03 317.974 1216.71 331.14 1213.68Z" fill="#8EC7DA"/>
<path fill-rule="evenodd" clip-rule="evenodd" d="M385.295 1134.55C387.24 1136.86 392.273 1143.54 396.829 1146.36C386.395 1148.43 355.063 1143.29 335.396 1149.82C358.64 1153.38 382.829 1154.58 405.606 1160.48C411.484 1162 421.584 1163.79 424.75 1168.97C410.162 1167.85 395.629 1167.36 377.94 1173.26C413.417 1174.55 430.995 1175.54 458.794 1179.63C452.816 1182.06 446.183 1183.86 441.783 1188.11C461.305 1188.43 488.194 1184.91 507.527 1187.36C524.949 1189.56 542.393 1196.5 560.648 1197.64C575.725 1198.57 586.159 1198.27 600.381 1198.67C605.692 1198.83 636.291 1196.77 648.424 1206.35C653.013 1209.71 655.991 1215.73 659.502 1221.43C661.968 1225.66 679.768 1261.25 682.568 1267.55C693.912 1293.05 700.334 1326.1 720.523 1346.62C725.156 1351.35 735.223 1355.76 738.545 1360.51C746.267 1371.57 749.078 1391.92 749.567 1404.43C751.545 1455.53 752.856 1547.43 752.411 1604.1C750.578 1614.1 721.112 1613.86 711.99 1615.8C719.567 1609.2 729.656 1611.04 737.512 1606.23C732.712 1598.5 724.578 1604.56 723.09 1595.06C722.078 1588.66 724.734 1584.5 724.856 1578.65C725.323 1557.16 727.278 1520.55 718.879 1501.46C717.856 1499.15 714.056 1493.82 710.968 1494.53C705.345 1495.82 697.168 1568.91 693.946 1579.65C691.09 1589.2 685.346 1600.15 673.713 1598.77C672.557 1587.55 674.446 1559.35 668.379 1564.76C655.191 1588.94 675.846 1604.3 645.391 1618.33C604.447 1625.22 564.87 1648.55 556.426 1638.57C544.781 1625.57 552.004 1607.19 552.404 1582.83C545.693 1502.5 545.926 1439.65 551.315 1360.01C554.648 1310.72 557.092 1322.3 573.403 1284.64C576.803 1276.78 587.481 1252.65 573.703 1249.84L577.859 1244.25L610.492 1231.17C607.714 1232.31 605.481 1231.01 603.492 1228.56C600.936 1217.94 615.091 1222.08 620.558 1219.03C623.791 1217.21 621.725 1214.63 619.158 1213.96C603.558 1209.87 580.67 1218.25 564.17 1215.83C549.27 1216.31 527.06 1225.68 513.06 1224.5C489.86 1222.54 441.961 1198.97 415.073 1192.51C403.984 1189.85 392.151 1190 381.695 1187.59C359.774 1182.54 332.063 1164.44 310.797 1154.24C302.341 1150.18 305.841 1145.03 313.152 1143.54C333.918 1139.28 347.674 1140.19 367.973 1140.37C372.018 1140.42 383.94 1139.5 385.295 1134.55Z" fill="#8EC7DA"/>
<path fill-rule="evenodd" clip-rule="evenodd" d="M518.381 1383.89C518.048 1375.09 518.959 1366.11 518.359 1357.32C516.648 1332.2 515.092 1309.52 509.893 1281.77C514.837 1283.76 515.915 1290.07 517.326 1294.52C530.148 1335.15 524.026 1381.66 526.915 1423.23C529.67 1462.91 534.381 1502.26 535.492 1542.32C536.192 1567.64 535.037 1592.81 537.503 1617.94C530.792 1612.21 532.403 1597 530.526 1587.71C528.392 1577.16 524.115 1566.1 522.637 1556.23C515.07 1505.81 520.392 1436.94 518.381 1383.89Z" fill="black"/>
<path fill-rule="evenodd" clip-rule="evenodd" d="M331.14 1213.68C342.817 1210.99 348.739 1216.89 359.861 1215.91C371.106 1214.93 389.739 1205.69 404.161 1210.29C397.75 1211.85 393.983 1212.9 390.083 1215.03C399.405 1215.55 408.016 1219.13 417.316 1220.57C439.049 1223.96 462.815 1237 482.593 1242.01C499.526 1246.3 513.303 1252.96 513.07 1268.98C481.504 1250.85 442.738 1240.04 407.738 1228.56C401.261 1226.44 392.305 1220.65 385.161 1220.13C379.683 1219.74 356.861 1226.86 331.14 1213.68Z" fill="#161318"/>
<path fill-rule="evenodd" clip-rule="evenodd" d="M840.876 1643.81C834.11 1641.97 835.432 1637.45 840.843 1637.76C995.34 1673.33 1078.57 1673.88 1230.13 1677.5C1237.12 1677.46 1235.28 1681.61 1230.7 1681.75C1104.99 1681.87 962.796 1678.62 840.876 1643.81Z" fill="black"/>
<path fill-rule="evenodd" clip-rule="evenodd" d="M603.48 1228.57C611.246 1226.51 631.257 1220.26 637.601 1227.53C617.69 1232.81 593.746 1244.75 573.691 1249.86C564.769 1252.12 555.258 1254.32 546.036 1254.09C559.814 1240.94 584.802 1233.53 603.48 1228.57Z" fill="#19151A"/>
<path fill-rule="evenodd" clip-rule="evenodd" d="M954.962 1679.1C961.417 1680.57 958.551 1684.93 954.517 1684.47C927.162 1681.45 890.518 1674.4 863.808 1669.73C846.386 1666.68 830.775 1664.42 813.02 1660.48C808.264 1659.81 809.22 1655.3 813.375 1655.4C862.186 1662.97 905.074 1671.61 954.962 1679.1Z" fill="black"/>
<path fill-rule="evenodd" clip-rule="evenodd" d="M983.218 1687C977.362 1686.37 978.085 1681.9 983.673 1682.46C1065.32 1693.42 1141.86 1695.44 1221.61 1696.65C1228.08 1696.71 1227.7 1700.99 1221.69 1700.89C1146.67 1700.99 1055.22 1700.83 983.218 1687Z" fill="black"/>
<path fill-rule="evenodd" clip-rule="evenodd" d="M724.489 422.939C727.533 417.117 730.966 411.873 734.566 406.851C745.21 392.006 761.266 379.584 786.61 363.851C876.63 308.586 990.973 305.541 1075.8 372.207C1068.29 376.196 1056.03 377.362 1054.56 388.162C1086.17 375.762 1125.24 387.295 1135.39 422.184C1091.87 405.073 1060.97 429.695 1071.62 474.416C1046.88 471.827 1015.32 469.505 993.151 484.638C986.384 489.26 984.24 494.349 982.195 500.927L980.773 507.86C888.808 555.415 907.685 554.226 858.297 603.036L841.775 617.958C835.731 622.469 825.187 630.113 819.187 635.469C811.209 629.913 795.743 589.336 797.021 580.825C807.143 574.581 817.465 576.559 818.342 573.059C819.309 569.192 811.009 565.192 796.198 567.092C780.154 569.137 756.555 589.381 756.577 606.203C756.577 608.725 755.621 613.258 759.821 611.558C762.543 605.158 772.121 591.703 780.821 588.825C784.154 599.358 787.676 611.892 791.798 622.18C794.354 628.558 802.621 643.302 806.232 647.613C803.598 652.413 794.987 664.602 792.976 676.657C795.098 674.813 804.998 658.235 811.931 654.124C818.409 667.535 831.22 676.735 835.898 681.024C833.809 685.035 820.787 703.734 828.776 723.767C834.342 736.845 843.142 747.8 851.242 759.567C852.497 761.922 851.764 765.9 849.753 767.355C841.775 773.133 815.231 756.689 807.432 751.834C817.931 772.367 833.631 786.044 851.542 799.066C888.419 829.966 878.764 795.088 897.541 847.61C901.574 870.009 903.197 892.853 902.408 916.153C902.374 928.253 907.197 936.819 920.496 932.841C938.318 926.664 954.707 888.676 960.918 871.143L965.684 868.298L986.706 874.909C998.384 878.998 1009.64 880.576 1020.51 879.654L1021.79 876.642C1034.74 873.92 1038.56 871.376 1033.26 869.009C1012.13 865.587 1025.73 857.132 1036.49 851.532C1038.44 850.51 1040.15 849.21 1041.77 847.743C1049.84 844.754 1059.68 837.454 1067.3 832.854C1070.02 828.743 1091.03 811.166 1091.93 815.499L1090.7 834.977C1090.96 851.832 1085.18 886.931 1090.56 900.009C1099.3 921.331 1118 893.509 1123.73 883.942C1138.89 858.576 1147.48 824.521 1154.81 795.888C1155.63 792.711 1161.75 764.578 1163.71 736.956C1176.3 747.356 1177.26 795.333 1188.65 815.466C1195.39 827.388 1203.86 840.11 1214.99 858.554C1223.71 873.02 1234.15 888.742 1238.61 905.131C1246.2 933.041 1217.81 927.297 1192.7 928.775C1164.81 930.408 1131.68 925.186 1096.23 943.486C1146.11 930.819 1242.7 931.553 1311.98 975.374C1301.05 974.196 1294.4 973.652 1285.49 973.174C1282.06 972.985 1270.9 971.607 1269.45 975.374C1370.88 987.696 1454.09 1069.87 1494.66 1159.75C1531.63 1241.65 1534.56 1323.6 1520.5 1411.57C1518.9 1419.24 1511.34 1416.34 1510.01 1409.41C1512.65 1401.72 1508.06 1231.44 1502.04 1237.7C1498.43 1285.58 1503.63 1330.15 1469.58 1364.62C1449.09 1385.37 1449.3 1427.27 1418.94 1421.24C1358.79 1405.19 1327.91 1416.59 1306.9 1421.78C1353.04 1422.19 1398.89 1433.22 1444.65 1456.55C1529.04 1499.56 1552.7 1581.44 1546 1672.18C1541.66 1730.76 1497.69 1797.74 1437.53 1809.44C1443.77 1795.06 1459.46 1743.98 1479.02 1711.58C1446.65 1741.93 1432.6 1787.05 1412.08 1825.5C1400.52 1832.14 1387.02 1836.15 1373.67 1834.99C1372.27 1793.24 1393.24 1747.44 1404.54 1717.97C1384.53 1742.65 1365.42 1777.34 1356.11 1807.84C1346.04 1840.76 1353.13 1858.78 1309.87 1866.89C1308.91 1818.86 1320.74 1779.92 1336.46 1739.25C1316.82 1759.55 1304.62 1790.68 1298.13 1817.95C1294.22 1834.39 1292.73 1868.9 1286.99 1881.26C1283.27 1889.27 1271.91 1886.82 1267.56 1880.48C1246.29 1849.5 1265.98 1783.47 1281.39 1752.26C1304.25 1706.01 1334.69 1684.77 1360.87 1652.03C1368.29 1642.74 1375.4 1633.02 1381.87 1620.93C1382.92 1618.95 1385.73 1614.84 1382.8 1613.35C1377.06 1618.36 1368.57 1623.83 1360.46 1622.93C1378.59 1600.4 1416.87 1570.52 1439.64 1564.77C1443.62 1560.55 1442.89 1558.76 1437.44 1559.39L1382.28 1560.63C1363.79 1562.11 1354.63 1552.48 1349.44 1535.46L1338.87 1520.4C1308.33 1549.48 1266.83 1546.88 1230.38 1530.3L1173.94 1503.94C1146.37 1490.53 1116.09 1487.03 1085.48 1488.09C1073.95 1485.34 1053.52 1492.39 1059.12 1486.11C1056.92 1479.77 1088.48 1456.42 1095.03 1454.91C1098.8 1451.7 1102.75 1447.98 1089.56 1451.22C1075.84 1450.49 1101.25 1425.53 1105.58 1424.36C1105.22 1418.44 1115.03 1414.58 1120.48 1415.84C1121.04 1414.64 1121.44 1413.67 1121.25 1413.54C1110.07 1405.94 1013.72 1442.71 993.217 1450.59C947.885 1462.8 928.129 1447.92 907.496 1408.29C883.264 1361.73 889.741 1338.97 906.674 1290.36C908.585 1245.44 904.508 1200.28 894.441 1154.89C890.375 1115.27 899.008 1071.54 928.974 1043.51C933.141 1040.33 950.807 1010.53 955.607 1007.21C909.196 1040.4 883.23 1048.02 883.919 1047.41C840.475 1069.74 785.299 1009.55 766.243 950.797C775.399 914.386 764.221 860.609 726.933 844.265L724.733 839.243C730.4 839.676 730.155 872.42 728.988 875.587C726.144 877.598 719.944 913.964 716.222 888.176C714.9 877.609 706.833 855.665 699.222 847.754C698.822 884.953 708.356 930.686 685.367 962.608C643.123 921.786 612.513 918.231 577.858 924.075C614.779 928.708 646.857 942.719 667.278 975.385C638.212 963.819 562.347 959.308 528.992 996.663C681.867 942.33 860.42 1065.22 865.153 1226.46L855.608 1202.97C856.108 1200.65 852.375 1196.36 850.286 1198.84C848.931 1200.44 856.242 1233.54 856.642 1240.34C857.964 1263.07 853.642 1304.06 846.109 1325.5C844.053 1331.35 836.709 1346.41 832.231 1349.93C829.765 1351.87 830.564 1352.93 827.965 1349.88C821.287 1342.01 827.842 1295.27 826.965 1280.66C825.731 1260.07 821.62 1226.57 807.743 1211.6C815.198 1250.97 820.742 1312.36 801.409 1348.9C780.532 1388.38 781.376 1316.7 780.032 1306.31C776.632 1279.82 772.299 1252.84 760.888 1228.65C756.977 1230.13 758.577 1241.1 758.799 1244.57C760.355 1268.18 768.388 1290.54 762.421 1314.17C754.099 1347.07 739.522 1332.37 727.289 1312.26C711.9 1286.96 703.811 1254.28 691.078 1227.19C675.256 1193.53 652.223 1163.92 635.39 1130.76C608.468 1121.74 530.825 1117.35 502.415 1110.79C383.017 1065.45 461.715 878.398 529.17 794.022C544.358 769.5 559.502 755.356 582.202 739.267C583.691 738.412 591.713 732.778 598.835 729.189C565.214 730.912 533.136 740.767 507.759 762.678C504.726 758.767 527.292 730.334 531.203 725.49C536.381 719.067 567.314 684.312 572.658 684.368C573.347 684.379 580.324 691.046 583.213 692.512C599.269 700.668 616.002 692.446 634.157 694.757C648.59 696.579 662.934 707.09 677.934 707.345C663.723 700.368 650.312 691.935 634.101 688.435C597.169 682.19 579.613 697.601 584.369 646.758C586.269 626.347 596.324 606.036 608.091 589.636C615.302 579.581 626.846 563.559 635.59 552.048C633.246 565.748 625.057 606.558 639.646 632.891C637.979 545.726 685.9 455.816 724.489 422.939Z" fill="#B78C61"/>
<path fill-rule="evenodd" clip-rule="evenodd" d="M839.075 1340.39C836.698 1344.6 834.198 1348.35 832.242 1349.89C829.776 1351.82 830.576 1352.89 827.976 1349.83C821.298 1341.97 827.853 1295.22 826.976 1280.61C825.831 1261.54 822.231 1231.38 810.665 1215.15C816.831 1223.15 830.842 1243.49 833.164 1265.69C836.153 1294.3 845.542 1293.01 845.542 1293.01C845.542 1293.01 836.198 1294.87 833.164 1308.38C830.553 1320.02 828.687 1337.09 839.075 1340.39ZM801.42 1348.85C780.543 1388.32 781.387 1316.65 780.043 1306.26C776.643 1279.77 772.31 1252.78 760.899 1228.58C760.899 1228.58 781.065 1256.29 786.187 1277.65C791.31 1299 805.398 1301.12 805.398 1301.12C805.398 1301.12 792.587 1298.99 790.454 1312.22C788.332 1325.47 788.465 1345.33 801.42 1348.85ZM760.177 1321.48C751.644 1344.46 738.488 1330.6 727.3 1312.2C711.911 1286.9 703.822 1254.22 691.078 1227.14C688.678 1222.03 686.111 1217.01 683.434 1212.07C683.434 1212.07 700.378 1227.26 708.489 1241.35C716.6 1255.45 723 1278.07 730.255 1281.06C737.522 1284.05 745.199 1281.91 745.199 1281.91C745.199 1281.91 730.677 1289.6 731.111 1298.14C731.555 1306.68 746.121 1329.01 760.177 1321.48Z" fill="#825747"/>
<path fill-rule="evenodd" clip-rule="evenodd" d="M1486.62 1785.73C1472.13 1797.44 1455.56 1805.92 1437.53 1809.42C1443.76 1795.04 1459.46 1743.96 1479.02 1711.56C1479.02 1711.56 1457.89 1772.13 1472.81 1780.97C1476.49 1783.15 1481.36 1784.67 1486.62 1785.73ZM1421.09 1807.54C1418.18 1813.63 1415.21 1819.63 1412.09 1825.47C1400.53 1832.11 1387.03 1836.11 1373.69 1834.96C1372.28 1793.2 1393.27 1747.41 1404.55 1717.94C1404.55 1717.94 1383.87 1787.59 1391.04 1799.19C1398.22 1810.79 1421.08 1807.55 1421.08 1807.55L1421.09 1807.54ZM1351.21 1827.6C1346.72 1848.25 1343.52 1860.56 1309.87 1866.86C1308.92 1818.83 1320.76 1779.88 1336.47 1739.22C1336.47 1739.22 1319.21 1806.38 1329.71 1818.54C1340.15 1830.63 1351.09 1827.64 1351.21 1827.6ZM1295.04 1836.93C1285.78 1833.21 1275.58 1808.05 1286.08 1773.24C1296.58 1738.44 1360.88 1652 1360.88 1652C1333.03 1683.34 1301 1712.58 1281.4 1752.23C1265.99 1783.43 1246.3 1849.46 1267.57 1880.45C1271.92 1886.8 1283.28 1889.25 1287 1881.23C1290.99 1872.66 1292.92 1853.4 1295.04 1836.93Z" fill="#825747"/>
<path fill-rule="evenodd" clip-rule="evenodd" d="M1278.71 976.685C1372.08 992.085 1449 1066.37 1489.8 1149.4C1468.55 1125.99 1447.03 1113.51 1443.33 1111.43C1438.35 1108.66 1411.84 1111.43 1385.88 1105.35C1359.91 1099.27 1346.66 1087.67 1334.49 1065.02C1322.33 1042.36 1331.73 1012.53 1326.76 1004.8C1321.78 997.063 1269.46 975.352 1269.46 975.352L1278.71 976.685Z" fill="#825747"/>
<path fill-rule="evenodd" clip-rule="evenodd" d="M537.624 743.411C526.958 748.367 516.914 754.7 507.747 762.611C504.703 758.7 527.28 730.267 531.191 725.423C536.369 719.001 567.313 684.246 572.646 684.312C573.335 684.312 580.313 690.99 583.201 692.457C591.568 696.701 600.112 696.512 608.957 695.679C602.768 698.168 594.479 701.001 587.601 701.612C574.824 702.756 562.613 703.323 552.958 716.378C547.147 724.256 541.336 735.611 537.624 743.411Z" fill="#825747"/>
<path fill-rule="evenodd" clip-rule="evenodd" d="M584.369 646.691C586.269 626.28 596.324 605.969 608.102 589.558C615.302 579.514 626.846 563.492 635.602 551.981C633.257 565.67 625.068 606.48 639.657 632.813C639.235 610.48 642.024 587.692 647.468 564.948C665.257 490.76 706.7 434.106 734.578 406.828C730.833 412.05 863.909 300.13 970.996 331.774C854.02 340.84 714.411 457.05 710.289 466.105C688.134 496.716 670.768 534.715 657.423 575.081C646.668 607.625 642.524 641.069 642.524 641.069C642.524 641.069 635.213 627.147 626.524 609.836C617.824 592.547 594.347 627.602 584.369 646.691Z" fill="#825747"/>
<path fill-rule="evenodd" clip-rule="evenodd" d="M982.206 500.916C978.773 526.171 1017.08 540.226 1027.94 515.815C1036.67 522.837 1039.65 532.059 1042.86 541.326C1049.67 527.071 1035.53 497.071 1018.29 501.793C1008.97 504.349 1011.31 522.049 998.039 513.804C985.895 506.26 999.006 492.105 1008.43 487.782C1021.31 481.894 1068.9 481.883 1082.23 487.049C1098.68 493.427 1097.14 515.704 1087.54 513.671C1081.69 512.426 1088.8 494.071 1074.25 500.404C1058.46 507.271 1058.99 531.36 1063.04 541.348C1067.03 529.215 1069.35 525.104 1073.47 522.549C1078.92 519.171 1087.56 523.449 1093.9 521.737C1101.02 519.815 1106.03 510.927 1105.62 503.738C1136.31 512.96 1156.54 526.815 1175.78 553.059C1169.33 553.104 1161.13 551.215 1161.44 557.915C1162.55 561.648 1176.39 561.159 1180.13 561.837C1184.09 565.326 1190.37 579.648 1190.8 585.403C1179.7 581.692 1174.35 580.492 1168.15 579.803C1164.06 579.359 1163.47 583.914 1164.99 585.492C1167.66 588.247 1186.13 593.125 1192.32 596.903C1194.58 602.358 1195.07 617.814 1192.79 626.469C1185.51 620.602 1178.14 613.225 1169.95 608.592C1168.08 607.536 1163.99 606.892 1162.36 610.025C1159.9 616.425 1180.7 627.991 1188.48 638.28C1184.65 651.046 1175.59 655.891 1160.93 661.613C1139.43 669.602 1079.2 657.391 1061.62 638.513C1070.97 615.158 1075.53 560.492 1055.75 548.626C1063.67 579.948 1061.78 630.658 1014.73 657.968C980.173 678.024 934.729 689.423 894.941 683.912C905.952 661.446 926.374 646.369 920.474 641.391C907.397 632.747 889.275 671.646 884.375 680.712C881.875 681.79 857.164 672.29 856.642 670.046C868.853 651.502 907.385 626.358 901.308 620.102C893.719 611.758 854.897 654.124 846.031 665.268C837.042 661.291 827.176 649.269 823.676 642.88C841.775 627.647 860.475 615.636 883.03 604.569C885.775 603.547 899.33 600.514 891.597 592.347C885.264 585.692 854.797 606.547 841.742 617.958C853.053 604.214 863.842 586.525 875.842 572.281C930.096 507.838 967.651 517.904 982.206 500.916Z" fill="#825747"/>
<path fill-rule="evenodd" clip-rule="evenodd" d="M598.835 729.134C552.558 773.433 397.149 941.808 488.126 1076.76C522.036 1121.18 579.024 1104.93 623.79 1122.09C628.69 1123.97 633.134 1125.5 635.401 1130.7C630.401 1141.73 641.712 1154.99 639.634 1166.87C631.056 1161.42 626.09 1151.37 616.268 1147.73C617.446 1154.5 622.223 1159.29 620.512 1166.87C549.658 1172.19 491.626 1159.97 429.016 1128.57C341.15 1098.19 444.86 846.176 502.37 792.355C539.247 759.622 567.98 746.445 598.835 729.134Z" fill="#825747"/>
<path fill-rule="evenodd" clip-rule="evenodd" d="M1491.4 985.485C1474.08 1004.51 1458.89 1017.08 1434.3 1027.98C1387.71 978.252 1329.69 951.119 1268.39 926.419C1264.78 896.931 1247.09 872.976 1233.26 847.71C1258.56 876.465 1302.95 923.197 1337.55 938.108C1371.36 952.686 1427.2 948.319 1451.98 916.431C1464.87 899.842 1465.74 901.32 1469.86 887.509C1471.06 883.453 1473.25 874.365 1473.25 870.487L1480.18 835.488C1485.4 834.51 1490.31 841.043 1502.55 835.765C1507.34 882.042 1498.96 940.364 1491.4 985.485Z" fill="#825747"/>
<path fill-rule="evenodd" clip-rule="evenodd" d="M832.676 706.279C838.121 717.901 848.121 724.212 861.198 719.412C864.987 707.623 869.143 704.312 873.687 709.434C872.787 714.179 870.298 724.034 871.409 730.278C874.287 721.645 880.565 708.112 884.298 703.646C889.364 701.957 896.12 708.234 898.82 713.012C906.097 725.901 907.097 761.322 906.908 771.411C884.276 765.6 858.198 748.078 841.776 733.878C861.087 764.933 872.809 764.533 907.386 789.555C907.52 824.188 908.353 858.921 907.82 893.553C907.62 906.331 898.064 936.175 920.497 932.83C915.108 934.697 911.075 936.853 904.897 932.986C894.42 926.419 899.398 864.232 894.587 850.221C884.531 846.365 867.898 833.677 857.709 828.01C869.554 832.799 879.92 835.921 890.587 838.921C865.42 804.066 810.499 784.622 791.077 734.823C799.944 740.067 821.254 760.622 848.143 764.744C850.132 762.822 836.865 745.923 834.976 742.823C828.577 733.178 827.232 722.912 832.676 706.279Z" fill="#825747"/>
<path fill-rule="evenodd" clip-rule="evenodd" d="M934.329 702.879L973.706 696.646C973.828 746.811 967.284 799.444 953.484 847.721C948.629 864.687 938.029 897.753 927.407 910.997C915.129 926.297 917.885 901.831 918.296 893.375C921.474 826.977 924.618 772.389 914.141 705.179C919.452 705.345 925.518 704.223 929.174 704.556C931.151 711.445 932.896 735.934 934.418 756.922C935.962 745.211 937.874 711.756 934.329 702.879Z" fill="white"/>
<path fill-rule="evenodd" clip-rule="evenodd" d="M934.329 702.879L973.706 696.646C973.728 706.534 973.495 716.523 972.995 726.556C967.784 727.934 962.462 730.423 957.962 734.756C943.207 748.945 934.685 764.844 934.118 815.932C933.662 856.765 923.418 899.386 919.329 914.875C916.763 911.22 918.041 898.898 918.296 893.375C921.474 826.977 924.618 772.389 914.141 705.179C919.452 705.356 925.518 704.223 929.174 704.556C931.151 711.434 932.907 735.934 934.418 756.922C935.962 745.211 937.874 711.756 934.329 702.879Z" fill="#CDCCCC"/>
<path fill-rule="evenodd" clip-rule="evenodd" d="M1114.11 677.513C1115.19 678.557 1118.9 737.134 1119.61 756.622C1122.15 742.067 1125.08 693.19 1125.11 680.057C1134.46 681.646 1140.68 682.624 1150.3 681.757C1152.6 733.956 1146.75 785.455 1129.99 834.877C1125.16 849.154 1116.34 873.243 1108.15 885.365C1106.3 888.098 1105.74 891.176 1101.37 890.265C1104.96 844.599 1109.49 799.055 1107.84 752.956C1107.38 740.567 1106.58 725.023 1105.59 712.634C1104.95 704.468 1098.9 681.213 1099.33 676.402C1099.76 671.446 1110.59 676.768 1114.11 677.513Z" fill="white"/>
<path fill-rule="evenodd" clip-rule="evenodd" d="M1114.11 677.513C1115.19 678.557 1118.9 737.134 1119.61 756.622C1122.15 742.067 1125.08 693.19 1125.11 680.057C1134.46 681.646 1140.68 682.624 1150.3 681.757C1151.2 702.257 1150.86 722.656 1149.07 742.856C1141.66 744.967 1135.2 748 1131.65 752.356C1119.16 767.689 1115.35 871.487 1101.36 890.265C1104.95 844.599 1109.48 799.055 1107.83 752.956C1107.37 740.567 1106.57 725.023 1105.58 712.634C1104.94 704.468 1098.89 681.213 1099.32 676.402C1099.76 671.446 1110.59 676.768 1114.11 677.513Z" fill="#CDCCCC"/>
<path fill-rule="evenodd" clip-rule="evenodd" d="M1090.72 834.954C1090.63 829.288 1088.78 818.677 1085.27 821.621C1078.07 827.532 1069.87 832.565 1058.04 838.754C1070.19 829.632 1073.85 824.721 1076.13 816.332C1042.85 843.676 1002.37 845.987 969.439 841.332C972.473 828.688 978.017 816.255 977.95 803.055C1023.93 825.132 1075.2 800.377 1092.82 777.511C1094.79 792.444 1093.17 815.021 1090.72 834.954Z" fill="#825747"/>
<path fill-rule="evenodd" clip-rule="evenodd" d="M1082.2 758.356C1059.37 783.755 1015.86 783.489 985.995 771.978L986.462 754.1C987.128 748.967 987.728 740.445 988.284 736.1C1007.63 759.956 1087.12 755.145 1090.69 715.823C1092.29 724.667 1093.98 734.767 1092.84 742.234C1092.06 747.345 1085.23 753.989 1082.2 758.356Z" fill="#B78C61"/>
<path fill-rule="evenodd" clip-rule="evenodd" d="M1038.75 711.79C1029.26 705.39 1024.36 701.401 1020.67 697.268C1059.13 692.168 1090.27 728.489 1042.66 734.767C1031.03 736.3 995.129 731.334 989.529 720.045C988.118 717.201 990.507 698.512 990.718 694.523C1009.62 692.846 1023.32 708.923 1038.75 711.79Z" fill="#BD5959"/>
<path fill-rule="evenodd" clip-rule="evenodd" d="M986.462 754.1C986.406 757.545 987.195 767.367 989.562 768.989C1024.01 778.833 1067.9 769.756 1092.84 742.223C1087.89 785.889 1021.33 803.655 982.429 792.177L986.462 754.1Z" fill="#825747"/>
<path fill-rule="evenodd" clip-rule="evenodd" d="M1041.77 847.721C1039.46 857.532 1016.45 858.543 1033.26 868.998C1033.62 870.798 1033.14 872.22 1031.92 873.542C1030.61 874.954 1017.44 877.765 1014.36 878.187C995.472 880.798 1014.47 875.331 1020.48 879.642C1001.13 885.787 979.15 877.52 960.906 871.131C962.051 867.909 965.273 856.921 966.439 851.832C990.872 854.987 1018.39 856.365 1041.77 847.721Z" fill="#825747"/>
<path fill-rule="evenodd" clip-rule="evenodd" d="M832.675 706.279C833.386 701.745 841.719 685.957 842.886 685.979C851.541 691.912 861.997 696.401 875.763 701.012C875.052 703.957 874.008 707.79 873.697 709.423C866.775 708.901 868.23 720.39 863.03 723.234C853.175 728.634 827.609 725.745 832.675 706.279Z" fill="#B78C61"/>
<path fill-rule="evenodd" clip-rule="evenodd" d="M982.173 982.085C956.218 1021.67 893.464 1113.62 899.486 1161.29C904.819 1203.56 915.874 1238.38 912.074 1282.9C909.919 1308.21 893.008 1334.16 894.997 1359.4C896.708 1380.96 918.396 1426.34 935.596 1440.08C967.685 1465.69 1009.06 1438.39 1041.87 1427.6C1068.56 1418.82 1096.33 1409.73 1124.75 1411.56C1124.97 1414.41 1124.28 1414.77 1122.03 1415.77C1100 1428.32 1090.25 1443.44 1098.46 1447.58C1095.18 1456.04 1074.19 1476.95 1066.51 1483.52C1087.36 1483.02 1123.99 1483.84 1144.35 1488.78C1200.31 1502.35 1263.25 1562.2 1321.19 1528.19C1341.63 1516.19 1336.17 1506.29 1352.82 1533.49C1357.24 1540.71 1358.14 1550.71 1367.87 1554.63C1381.74 1560.21 1442.55 1549.62 1448.07 1558.51C1453.14 1566.72 1442.92 1563.92 1439.65 1564.74C1420.22 1562.16 1373.09 1584.52 1362.13 1600.89C1350.19 1582.73 1350.3 1562.82 1346.01 1537.1C1338.3 1571.35 1345.4 1594.86 1348.17 1602.47C1338.28 1592.94 1328.39 1561.98 1323.7 1543.48C1321.87 1579.72 1331.79 1600.19 1336.54 1613.59C1339.51 1621.95 1332.76 1618.21 1328.27 1615.73C1310.31 1605.87 1298.26 1578.17 1286.48 1562.61C1288.43 1581.17 1299.65 1612.03 1305.79 1624.79C1285.86 1622.07 1263.96 1610.8 1247.08 1598.79L1263.95 1626.9C1262.32 1628.07 1229.39 1607.56 1217.78 1598.86C1220.68 1605.21 1235.29 1624.57 1240.08 1627.11C1236.54 1627.35 1192.39 1606.2 1153.27 1582.23L1196.9 1625.13C1180.35 1623.64 1117.82 1579.22 1105.63 1572.16C1118.86 1589.73 1144.48 1614.16 1165.49 1623.54C1128.4 1618.89 1088.3 1575.67 1058.82 1554.1C1093.87 1599.69 1105.04 1603.39 1131.14 1623.22C1078.77 1609.59 1050.24 1575.2 1024.38 1551.69C1042.61 1590.04 1064.03 1602.49 1084.32 1619C1027.57 1610.57 1007.18 1568.77 978.162 1533.11C984.918 1561.42 1002.66 1596.39 1016.24 1606.23C985.54 1607.19 956.351 1546.54 938.329 1525.68C937.118 1539.74 959.229 1586.11 965.173 1597.73C926.93 1568.14 907.541 1514.44 896.452 1494.15C903.441 1545.79 931.907 1586.1 937.041 1592.87C875.919 1580.42 871.775 1474.64 870.453 1467.57C859.409 1527.59 872.675 1554.95 884.342 1579.62C842.142 1545.71 851.12 1483.49 854.598 1437.09C839.965 1467.33 838.231 1503.91 837.576 1534.94C828.631 1492.65 835.265 1449.87 837.531 1407.29C825.643 1434.69 819.054 1463.92 816.254 1494.5C811.809 1457.59 810.776 1425.1 817.232 1383.77C820.22 1374.77 834.176 1378.13 842.931 1371.16C854.575 1361.89 871.008 1318.77 875.242 1303.48C894.508 1234.09 877.342 1130 843.253 1081.45C868.008 1060.34 948.785 990.54 982.173 982.085Z" fill="#825747"/>
<path fill-rule="evenodd" clip-rule="evenodd" d="M1533.28 1420.07C1544.57 1393.46 1549.47 1356.36 1552.49 1327.55C1552.72 1325.29 1551.09 1320.39 1555.59 1322.21C1559.49 1323.79 1570.17 1340.89 1572.67 1345.56C1584.1 1366.92 1592.37 1399.21 1594.94 1423.29C1597.01 1442.59 1596.93 1481.5 1601.55 1512.54C1605.8 1539.98 1618.92 1552.8 1630.55 1554.15C1626.05 1549.72 1609.69 1520.04 1619.47 1519.99C1628.32 1519.93 1649.07 1530.56 1662.25 1532.59C1694.37 1537.52 1729.53 1535.59 1761.98 1539.24C1821.58 1545.95 1891.97 1566 1944.91 1603.7C1958.33 1613.25 1977.2 1633.45 1975.83 1640.24C1974.91 1644.93 1951.82 1644.05 1947.25 1643.34C1933.36 1641.2 1929.1 1628.16 1919.07 1620.45C1879.16 1589.72 1830.84 1578.94 1786.47 1577.52C1817.46 1583.71 1910.47 1610.55 1915.75 1638.67C1919.12 1650.91 1891.7 1648.91 1883.76 1647.25C1874.2 1645.25 1857.44 1629.86 1842.34 1624.85C1791.17 1607.84 1749.48 1599.41 1720.51 1600.93L1822.64 1634.97C1828.09 1637.51 1827.94 1639.03 1823.4 1642.77C1815.77 1649.05 1729.25 1635.52 1715.07 1632.61C1666.94 1622.71 1609.69 1609.86 1577.82 1571.1C1567.31 1558.31 1535.89 1513.65 1571.72 1517.56C1563.17 1497.85 1553.62 1478.53 1543.02 1459.61L1537.35 1433.23C1534.16 1428.42 1532.81 1424.03 1533.28 1420.07Z" fill="#B78C61"/>
<path fill-rule="evenodd" clip-rule="evenodd" d="M1356.61 1413.04C1372.3 1409.48 1381.77 1408.77 1394.11 1403.3C1401.28 1405.41 1408.31 1409.39 1413.3 1406.52C1428.58 1390.13 1462.52 1372.31 1453.08 1360.57C1485.65 1333.61 1503.54 1286.61 1499.05 1220.36C1523.93 1272.47 1504.16 1354.12 1521 1408.38C1519.27 1419.13 1515.95 1432.76 1514.14 1443.47C1521.63 1438.58 1529.83 1428.17 1533.26 1420.07C1539.2 1437.04 1576.36 1518.79 1575.63 1519.86C1571.06 1526.58 1553.44 1512.88 1560.23 1534.6C1562.53 1541.95 1584.83 1575.16 1590.83 1580.59C1628.03 1614.26 1792.71 1649.56 1822.62 1634.96C1826.06 1635.92 1853.46 1646.22 1854.54 1654.08C1842.26 1656.53 1829.77 1659.22 1817.28 1660.46C1764.64 1665.73 1676.65 1656.44 1624.64 1644.64C1621.36 1643.9 1589 1639.16 1582.38 1623.13C1589.54 1628.21 1609.04 1635.93 1635.37 1632.86C1600.75 1621.81 1580.63 1614.96 1566.31 1579.56C1562.06 1569.05 1561.07 1559.14 1557.71 1549.86C1551.52 1532.76 1540.46 1516.45 1539.62 1496.68L1533.29 1509.41C1530.65 1499.1 1530.56 1490.03 1534.09 1478.67C1527.86 1485.47 1525.59 1486.68 1524.27 1496.95C1485.33 1442.45 1416.45 1412.62 1356.61 1413.04Z" fill="#825747"/>
<path fill-rule="evenodd" clip-rule="evenodd" d="M716.256 888.153C724.856 905.009 731.411 857.443 724.767 839.21C760.733 847.543 776.021 901.698 773.666 933.853C772.532 949.452 766.366 949.897 775.01 966.63C812.187 1038.56 864.131 1077.16 953.552 992.463C963.296 987.985 970.218 984.452 982.207 977.519C988.251 983.463 936.418 1017.87 933.285 1021.15C919.741 1033.74 931.352 1029.31 941.796 1032.83C893.697 1076.85 869.253 1090.35 843.242 1081.46C838.509 1074.99 820.843 1055.33 816.332 1050.84C791.443 1026.13 760.233 1005.03 729.044 989.196C728.5 988.085 751.4 981.596 753.677 975.996C746.089 977.507 743.7 977.785 737.311 977.452C754.344 964.552 764.266 950.875 765.199 934.964C758.055 945.264 740.2 970.241 712.022 979.619C735.011 949.308 763.922 907.609 737.555 856.243C741.466 874.743 737.389 923.731 713.5 947.652C717.333 931.819 718.367 905.02 716.256 888.153Z" fill="#825747"/>
<path fill-rule="evenodd" clip-rule="evenodd" d="M243.93 1537.08C243.064 1520.14 245.93 1497.88 258.775 1486.02C255.108 1495.03 249.608 1512.4 243.93 1537.08Z" fill="black"/>
<path fill-rule="evenodd" clip-rule="evenodd" d="M618.401 1305.18C621.89 1306.66 624.379 1314.91 625.401 1318.36C638.534 1362.52 631.323 1413.42 644.123 1461.32C648.045 1476.02 653.401 1479.28 654.645 1461.64C658.045 1413.23 648.779 1362.42 669.4 1316.83L680.056 1294.55C672.812 1319.88 665.545 1343.7 663.056 1368.46C660.278 1396.13 666.667 1451.12 657.756 1473.28C652.079 1487.42 641.634 1475.49 638.934 1465.6C630.368 1434.21 630.301 1397.82 626.857 1365.83C624.679 1345.62 622.568 1323.87 618.401 1305.18Z" fill="black"/>
<path fill-rule="evenodd" clip-rule="evenodd" d="M716.055 1444.4C714.555 1438.33 714.233 1434.38 714.122 1431.79C713.733 1422.56 714.444 1413.26 714.211 1404.02C713.855 1390.43 711.566 1368.31 714.188 1363.28C719.011 1356.5 718.488 1374.07 718.388 1378.6C717.966 1398.88 718.299 1424.22 716.055 1444.4Z" fill="black"/>
<path fill-rule="evenodd" clip-rule="evenodd" d="M654.524 1513.68C650.402 1534.06 642.302 1554.7 627.946 1573.21C636.813 1553.36 645.668 1533.52 654.524 1513.68Z" fill="black"/>
<path fill-rule="evenodd" clip-rule="evenodd" d="M653.946 1546.03C653.779 1557.82 642.068 1581.06 630.302 1589.42C640.513 1574.14 647.179 1557.56 653.946 1546.03Z" fill="black"/>
<path fill-rule="evenodd" clip-rule="evenodd" d="M699.222 1349.85C709.421 1339.82 700.055 1390.41 699.222 1396.66C699.222 1381.06 697.266 1352.59 699.222 1349.85Z" fill="black"/>
<path fill-rule="evenodd" clip-rule="evenodd" d="M1128.34 1412.91C1125.04 1414.36 1100.36 1425.64 1097.26 1427.6C1068.12 1446.08 1048.78 1473.54 1023.68 1496.64C1020.27 1494.66 1024.48 1491.87 1025.61 1490.05C1045.46 1458.18 1072.57 1425.69 1110.3 1415.16C1113.4 1414.29 1125.74 1409.34 1128.34 1412.91Z" fill="black"/>
<path fill-rule="evenodd" clip-rule="evenodd" d="M1308.22 1380.41C1259.79 1373.86 1227.44 1369.33 1211.36 1368.28C1244.1 1363.96 1274 1369.06 1308.22 1380.41Z" fill="black"/>
<path fill-rule="evenodd" clip-rule="evenodd" d="M1020.51 879.631C1017.06 879.998 1005.2 881.242 1003.5 877.531C1020.73 876.298 1055.17 861.354 1064.91 853.865C1060.15 868.92 1030.89 878.542 1020.51 879.631Z" fill="black"/>
<path fill-rule="evenodd" clip-rule="evenodd" d="M1133.27 1349.82C1112.56 1347.69 1093.58 1356.79 1073.69 1360.46C1081.32 1352.82 1100.69 1347.53 1111.47 1346.13C1117.68 1345.33 1129.99 1343.06 1133.27 1349.82Z" fill="black"/>
<path fill-rule="evenodd" clip-rule="evenodd" d="M1109.85 1439.21C1104.25 1449.78 1079.06 1474.8 1069.69 1480.94C1067.88 1482.13 1064.96 1486.18 1063.07 1482.83C1071.96 1474.88 1103.53 1439.88 1109.85 1439.21Z" fill="black"/>
<path fill-rule="evenodd" clip-rule="evenodd" d="M923.875 575.081C926.908 575.081 929.363 577.537 929.363 580.57C929.363 583.603 926.908 586.059 923.875 586.059C920.852 586.059 918.386 583.603 918.386 580.57C918.397 577.537 920.852 575.081 923.875 575.081Z" fill="black"/>
<path d="M919.274 616.458C922.305 616.458 924.763 614.001 924.763 610.969C924.763 607.938 922.305 605.48 919.274 605.48C916.243 605.48 913.785 607.938 913.785 610.969C913.785 614.001 916.243 616.458 919.274 616.458Z" fill="black"/>
<path fill-rule="evenodd" clip-rule="evenodd" d="M945.83 627.947C948.852 627.947 951.318 630.402 951.318 633.436C951.318 636.469 948.863 638.924 945.83 638.924C942.796 638.924 940.341 636.469 940.341 633.436C940.341 630.402 942.807 627.947 945.83 627.947Z" fill="black"/>
<path fill-rule="evenodd" clip-rule="evenodd" d="M1142.38 554.581C1145.41 554.581 1147.87 557.037 1147.87 560.07C1147.87 563.103 1145.41 565.559 1142.38 565.559C1139.35 565.559 1136.89 563.103 1136.89 560.07C1136.89 557.037 1139.35 554.581 1142.38 554.581Z" fill="black"/>
<path fill-rule="evenodd" clip-rule="evenodd" d="M1149.89 575.937C1152.92 575.937 1155.38 578.392 1155.38 581.425C1155.38 584.459 1152.93 586.914 1149.89 586.914C1146.86 586.914 1144.4 584.459 1144.4 581.425C1144.4 578.392 1146.86 575.937 1149.89 575.937Z" fill="black"/>
<path fill-rule="evenodd" clip-rule="evenodd" d="M1147.36 601.947C1150.39 601.947 1152.85 604.403 1152.85 607.436C1152.85 610.458 1150.39 612.925 1147.36 612.925C1144.33 612.925 1141.87 610.469 1141.87 607.436C1141.88 604.403 1144.34 601.947 1147.36 601.947Z" fill="black"/>
<path fill-rule="evenodd" clip-rule="evenodd" d="M1437.88 842.932L1442.31 855.887C1442.31 855.887 1469.38 865.498 1485.98 858.676C1502.59 851.865 1516.21 834.832 1503.43 813.977C1490.66 793.122 1452.43 768.989 1432.8 769.344C1413.17 769.7 1404.65 791.833 1404.65 791.833L1437.88 842.932Z" fill="black"/>
<path fill-rule="evenodd" clip-rule="evenodd" d="M1233.27 847.721C1215.95 824.154 1200.64 804.855 1194.85 774.666C1211.57 798.022 1222.74 812.255 1236.68 826.221C1286.1 875.72 1356.68 895.653 1419.07 855.854C1424.76 852.221 1439.16 837.588 1442.85 837.01C1447.9 836.221 1448.42 849.554 1454.55 849.843C1454.55 826.788 1451.6 808.766 1461.21 787.344C1467.01 774.422 1479.11 763.811 1493.84 764.644C1512.49 765.7 1568.43 805.533 1539.5 820.932C1521.52 830.51 1497.16 814.855 1480.1 809.432C1479.18 824.066 1495.79 832.343 1502.56 835.765C1496.41 841.143 1492.34 843.032 1482.22 837.088C1489.13 929.175 1402.78 981.363 1325.24 936.675C1288.97 915.775 1256.52 882.153 1233.27 847.721Z" fill="#B78C61"/>
<path fill-rule="evenodd" clip-rule="evenodd" d="M936.729 389.94C897.107 372.707 863.775 392.484 834.986 418.328C841.308 390.329 881.197 366.485 908.752 370.062C915.285 370.907 937.651 376.396 936.729 389.94Z" fill="black"/>
<path fill-rule="evenodd" clip-rule="evenodd" d="M1375.23 1231.38C1375.23 1231.38 1387.33 1220.03 1403.01 1211.6C1418.68 1203.17 1436.92 1206.13 1439.55 1204.1C1442.18 1202.08 1421.99 1197.08 1409.14 1201.51C1396.29 1205.95 1379.83 1222.28 1375.23 1231.38Z" fill="black"/>
<path fill-rule="evenodd" clip-rule="evenodd" d="M1374.72 1200.07C1374.72 1200.07 1382.33 1192.94 1392.18 1187.64C1402.02 1182.34 1413.49 1184.19 1415.14 1182.93C1416.79 1181.65 1404.11 1178.52 1396.03 1181.3C1387.96 1184.09 1377.61 1194.36 1374.72 1200.07Z" fill="black"/>
<path fill-rule="evenodd" clip-rule="evenodd" d="M993.884 461.683C1017.06 447.094 1051.73 444.294 1066.37 461.294C1066.37 461.294 1030.58 449.783 993.884 461.683Z" fill="black"/>
<path fill-rule="evenodd" clip-rule="evenodd" d="M1524.12 1756.1C1524.26 1756.04 1578.02 1730.35 1617.41 1740.19C1703.32 1761.67 1724.59 1732.44 1743.48 1706.51C1753.8 1692.33 1763.53 1678.97 1780.88 1672.34L1787.08 1688.64C1774.46 1693.46 1766.24 1704.75 1757.52 1716.73C1735.38 1747.15 1710.44 1781.42 1613.17 1757.1C1579.86 1748.78 1531.67 1771.79 1531.53 1771.86L1524.12 1756.1Z" fill="black"/>
<path fill-rule="evenodd" clip-rule="evenodd" d="M481.47 1431.56C473.804 1447.38 408.616 1518.54 398.794 1516.05C423.849 1486.92 451.315 1458.73 481.47 1431.56Z" fill="black"/>
<path fill-rule="evenodd" clip-rule="evenodd" d="M477.949 1464.77C479.249 1465.7 437.227 1515.08 431.139 1513.66C441.816 1491.57 469.738 1469.53 477.949 1464.77Z" fill="black"/>
<path fill-rule="evenodd" clip-rule="evenodd" d="M256.687 1532.83C257.887 1525.41 329.363 1465.09 337.796 1459.95C333.507 1469.2 273.331 1534.6 256.687 1532.83Z" fill="black"/>
<path fill-rule="evenodd" clip-rule="evenodd" d="M458.803 1515.83C452.281 1524.89 429.171 1547.65 416.26 1556.22C422.971 1541.46 448.959 1518.04 458.803 1515.83Z" fill="black"/>
<path fill-rule="evenodd" clip-rule="evenodd" d="M1146.44 473.25C1139.45 471.25 1131.64 470.394 1128.86 470.205C1128.34 467.305 1128.47 458.705 1123.8 455.694C1120.95 462.172 1115.59 463.961 1109.66 461.461C1102.6 458.494 1102.94 448.028 1108.12 445.594C1097.64 445.55 1085.67 450.828 1085.06 470.127C1078.53 445.817 1090.87 436.283 1096.9 433.295C1121.03 421.361 1147.93 449.417 1146.44 473.25Z" fill="#F5F4EE"/>
<path fill-rule="evenodd" clip-rule="evenodd" d="M970.384 498.482C958.117 495.438 946.662 489.916 933.84 488.682C905.696 485.994 877.018 493.538 852.597 507.327C849.33 509.171 840.941 519.637 840.975 511.96C841.008 504.949 848.363 504.338 849.341 499.427C850.652 492.738 847.852 480.516 848.541 472.883C853.419 419.35 919.484 393.74 953.717 437.906C967.017 455.016 967.017 477.794 970.384 498.482Z" fill="black"/>
<path fill-rule="evenodd" clip-rule="evenodd" d="M944.951 522.204C915.574 512.327 879.197 517.282 852.108 531.171C871.486 505.282 919.952 502.327 944.951 522.204Z" fill="black"/>
<path fill-rule="evenodd" clip-rule="evenodd" d="M956.786 481.272C952.041 479.638 931.797 475.016 924.119 474.761C926.342 471.205 923.731 460.027 921.475 458.45C913.797 476.849 888.72 462.739 904.375 448.905C875.909 448.861 876.076 474.061 877.92 481.427C876.676 482.638 861.609 488.794 860.876 488.238C857.176 412.162 947.619 404.095 956.786 481.272Z" fill="white"/>
<path fill-rule="evenodd" clip-rule="evenodd" d="M1088.73 478.849C1095.15 480.216 1102.04 484.783 1103.98 491.571C1120.4 493.649 1134.08 498.494 1146.25 503.849C1146.25 503.849 1151.23 494.905 1145.11 487.805C1139.85 482.127 1112.16 476.449 1088.73 478.849Z" fill="#B78C61"/>
<path fill-rule="evenodd" clip-rule="evenodd" d="M753.389 180.921C756.922 178.866 760.711 177.066 764.711 175.533L779.744 168.388L779.81 171.033C807.01 164.977 839.376 167.388 863.164 173.277C888.786 179.621 929.474 202.199 945.83 223.043C953.03 232.22 957.552 237.987 965.252 247.809L934.141 252.553C900.875 257.631 869.42 261.52 837.532 270.942C801.777 282.997 766.888 298.875 735.011 319.108L733.478 320.086L725.522 325.674C719.567 329.863 713.611 334.052 707.645 338.23L682.645 355.807L678.856 325.486C671.934 270.153 702.334 205.71 753.389 180.921Z" fill="black"/>
<path fill-rule="evenodd" clip-rule="evenodd" d="M762.099 197.11C760.921 204.843 764.476 215.087 767.81 221.743C777.643 241.376 780.576 249.276 801.242 252.509C817.975 255.12 798.465 258.775 816.753 258.342C856.986 244.198 891.907 240.409 931.362 234.387C916.229 215.087 877.119 195.665 858.741 191.11C831.164 184.288 786.909 182.221 762.099 197.11Z" fill="#DE2525"/>
<path fill-rule="evenodd" clip-rule="evenodd" d="M702.522 95.0893C710.978 91.8116 719.222 92.8227 727.522 96.4004C730.322 97.6004 732.444 99.1004 734.344 100.611C739.333 92.7783 746.544 87.0895 757.532 89.6006C762.843 90.8116 765.454 92.0894 768.999 96.0227C772.865 100.289 774.888 103.745 776.343 107.378C780.832 106.045 785.643 106.122 790.721 108.545C802.609 114.233 805.532 125.889 804.954 137.6C809.976 142.6 812.054 149.933 810.254 158.755C808.198 168.888 803.832 177.788 795.432 184.121C785.821 191.354 774.665 192.377 763.666 195.999C750.155 200.454 739.744 208.165 729.911 218.376C720.711 227.931 710.233 237.965 695.967 237.809C688.356 237.731 681.511 234.654 675.956 229.543L674.234 227.965L672.967 226.009C671.289 223.409 670.189 220.954 669.567 218.554C667.19 218.254 664.745 217.532 662.09 216.176C656.712 213.432 652.856 208.776 650.856 203.121L650.168 201.165L649.923 199.121C649.101 192.021 650.768 185.11 654.99 179.321C655.834 178.166 656.667 177.155 657.479 176.277C652.89 170.232 650.745 162.91 652.912 154.255L653.068 153.699C654.568 148.433 657.701 143.9 662.223 140.777C661.912 137.744 662.178 134.4 663.112 130.633L663.656 128.411L664.734 126.389C667.09 121.978 670.745 118.489 675.345 116.478C679.545 114.633 683.678 114.278 687.856 114.833C687.923 114.222 688.023 113.567 688.145 112.878C689.2 107.011 692.311 101.967 696.933 98.2226L699.745 95.9449L702.522 95.0893Z" fill="black"/>
<path fill-rule="evenodd" clip-rule="evenodd" d="M733.388 122.5C727.832 119.633 724.532 115.133 720.244 113.278C712.599 109.978 709.566 112.156 708.499 112.478C702.088 117.678 711.31 124.689 705.977 132.7C696.711 141.944 684.733 127.955 680.933 135.044C678.333 145.499 691.455 147.577 689.033 151.899C684.766 157.821 672.933 150.999 670.733 158.721C668.233 168.643 685.611 172.366 687.055 178.143C686.255 184.532 666.667 184.01 668.178 196.987C671.011 204.998 682.078 195.543 689.089 199.987C694.355 204.965 684.3 209.698 688.377 216.009C697.655 224.543 707.022 215.654 716.677 205.632C758.343 162.344 785.965 186.043 792.253 155.088C794.053 146.244 785.754 151.322 785.154 146.688C788.142 133.3 786.72 127 782.798 125.122C778.976 123.3 770.654 135.777 767.576 133.411C759.754 126.089 763.776 117.644 755.376 108.345C753.176 107.589 751.499 104.211 745.921 118.655C742.721 126.911 739.121 125.455 733.388 122.5Z" fill="#DE2525"/>
<path fill-rule="evenodd" clip-rule="evenodd" d="M705.977 132.7C696.711 141.944 684.733 127.956 680.933 135.044C678.333 145.5 691.455 147.577 689.033 151.9C684.767 157.822 672.933 151 670.734 158.722C668.234 168.644 685.611 172.366 687.055 178.144C686.244 184.532 666.667 184.01 668.167 196.988C671 204.999 682.078 195.543 689.078 199.988C694.344 204.965 684.289 209.699 688.367 216.01C697.644 224.543 707.011 215.654 716.666 205.632C730.288 191.477 742.41 184.488 752.777 180.399C740.199 182.177 727.877 179.755 724.633 174.933C721.388 170.11 723.788 162.622 721.077 158.644C718.366 154.666 704.166 152.122 702.9 146.222C701.633 140.333 705.977 132.7 705.977 132.7Z" fill="#C20F0F"/>
<path fill-rule="evenodd" clip-rule="evenodd" d="M832.709 253.176C802.709 253.887 762.932 229.332 762.11 197.11C723.266 215.565 690.322 269.031 697.089 323.208C703.056 319.019 709 314.83 714.966 310.652C711.667 277.186 722.322 245.109 742.055 222.632C725.444 255.353 723.666 281.575 725.189 303.608C761.777 280.364 799.709 264.231 832.709 253.176Z" fill="#C20F0F"/>
<path fill-rule="evenodd" clip-rule="evenodd" d="M710.522 438.717C700.366 445.35 688.978 448.139 679.078 438.928C671.034 431.439 659.678 394.073 658.278 382.673C655.945 363.796 667.734 346.34 682.433 335.652L692.122 328.596C701.6 319.419 713.666 309.797 724.899 303.619L739.966 295.341C753.21 286.33 771.432 278.019 783.243 276.475L784.509 275.675C797.787 267.342 814.353 260.753 830.564 255.731L830.164 255.131L855.408 248.853C886.052 241.242 917.14 234.454 948.784 233.109C957.229 232.754 989.75 235.087 995.283 237.387C1007.38 242.398 1019.15 262.309 1025.41 273.419C1032.95 286.83 1041.85 308.508 1039.5 327.185C1030.94 339.485 1011.18 334.474 998.617 331.196C939.362 331.707 897.607 338.774 840.975 361.285C820.075 369.607 809.42 376.007 789.62 386.54C760.899 401.828 738.41 420.517 710.522 438.717Z" fill="black"/>
<path fill-rule="evenodd" clip-rule="evenodd" d="M859.831 266.686C870.12 280.086 879.52 314.497 884.264 326.985C904.052 321.052 917.863 317.585 937.23 314.53C936.008 290.675 927.874 271.775 919.086 257.131C936.896 272.364 942.463 293.33 948.218 313.508C965.029 311.541 978.851 311.597 991.295 312.719C991.784 299.586 980.107 268.153 970.818 255.22C987.384 268.653 995.407 292.286 1000.77 313.363C1010.82 314.719 1017.24 316.23 1021.99 317.263C1021.78 299.119 998.051 260.853 990.351 255.709C959.752 243.042 884.153 260.642 859.831 266.686Z" fill="#DE2525"/>
<path fill-rule="evenodd" clip-rule="evenodd" d="M794.276 291.241C792.498 308.174 805.642 341.974 813.531 351.663C821.364 348.185 851.897 335.663 875.53 329.519C873.985 321.93 857.652 273.586 854.586 268.12C833.097 273.42 809.509 281.675 794.276 291.241Z" fill="#DE2525"/>
<path fill-rule="evenodd" clip-rule="evenodd" d="M759.099 382.496C774.11 372.673 799.698 359.218 803.831 356.674C793.898 334.763 789.221 317.73 785.898 294.653C780.754 295.23 753.943 305.663 741.244 317.13C740.144 332.119 751.277 369.274 759.099 382.496Z" fill="#C20F0F"/>
<path fill-rule="evenodd" clip-rule="evenodd" d="M733.766 320.263C734.644 342.185 741.066 368.129 751.588 387.429C752.61 389.318 738.566 396.929 731.022 401.651C723.466 406.373 721.566 407.728 719.055 405.351C716.544 402.973 707.533 389.029 703.278 370.996C699.011 352.963 702.944 343.741 702.944 343.741C702.944 343.741 718.677 328.541 733.766 320.263Z" fill="#C20F0F"/>
<path fill-rule="evenodd" clip-rule="evenodd" d="M693.233 350.507C693.233 350.507 693.1 367.274 697.422 382.273C701.755 397.273 710.544 410.273 711.388 414.251C712.233 418.228 704.966 420.406 700.477 423.328C695.988 426.262 693.633 427.362 691.577 425.462C689.522 423.55 677.878 391.629 676.5 380.418C675.122 369.207 683.289 357.741 693.233 350.507Z" fill="#C20F0F"/>
<path fill-rule="evenodd" clip-rule="evenodd" d="M1617.98 923.075C1630.78 936.475 1645.02 956.697 1644.43 974.763C1643.85 991.807 1636.67 1004.61 1624.22 1016.02C1604.58 1034.01 1572.66 1047.6 1548.13 1057.1C1508.28 1072.54 1416.65 1102.76 1376.08 1078.49C1352.74 1064.55 1349.74 1031.11 1353.88 1006.15L1268.92 721.056L1287.3 717.234C1306.63 712.812 1327.37 704.057 1344.14 720.457C1348.37 724.59 1352.04 729.156 1355.08 734.079C1356.67 722.601 1359.92 706.823 1365.91 698.246L1378.26 680.546L1392.69 696.012C1397.18 700.335 1402.9 699.879 1407.98 696.824C1415.88 692.068 1423.09 682.735 1424.84 673.535L1428.09 653.48L1447.38 659.835C1456.22 662.602 1471.08 663.491 1476.48 654.18L1482.96 642.98L1495.38 645.902C1502.22 647.391 1512.96 647.902 1519.63 645.691L1536.9 639.947L1617.98 923.075ZM1363.92 778.455C1362.69 790.233 1361.01 804.466 1367.76 812.444C1369.18 814.122 1372.67 816.477 1374.97 815.355C1376.37 814.666 1375.97 809.722 1375.82 808.699C1374.21 796.922 1368.89 787.833 1363.92 778.455Z" fill="black"/>
<path fill-rule="evenodd" clip-rule="evenodd" d="M1525.12 662.235L1602.44 932.164C1602.44 932.164 1627.57 956.575 1626.98 974.163C1626.39 991.763 1617.13 1011.63 1541.82 1040.82C1466.52 1070.01 1407.47 1076.93 1385.02 1063.51C1362.58 1050.08 1371.79 1005.17 1371.79 1005.17L1291.04 734.234L1291.17 734.212C1307.62 730.445 1322.57 723.756 1331.93 732.901C1341.29 742.045 1347.59 754.4 1347.22 768.6C1346.86 782.8 1340.16 806.822 1354.41 823.688C1368.67 840.543 1396.94 834.443 1393.1 806.322C1389.27 778.189 1369.08 764.922 1371.82 740.634C1374.55 716.357 1380.21 708.19 1380.21 708.19C1380.21 708.19 1395.63 724.568 1416.95 711.746C1438.28 698.924 1442.03 676.413 1442.03 676.413C1442.03 676.413 1477.12 687.824 1491.55 662.891C1491.56 662.913 1510.39 667.146 1525.12 662.235Z" fill="white"/>
<path fill-rule="evenodd" clip-rule="evenodd" d="M1618.88 996.274C1609.05 1008.73 1587.68 1023.05 1541.83 1040.82C1484.56 1063.02 1436.7 1072.34 1407.19 1069.63C1407.19 1069.63 1406.38 1065.77 1418.03 1049.91C1429.7 1034.04 1505.1 1000.61 1534.11 995.074C1563.11 989.552 1578.61 987.552 1590.88 988.685C1603.17 989.84 1614.98 987.541 1618.88 996.274Z" fill="#E8CB8B"/>
<path fill-rule="evenodd" clip-rule="evenodd" d="M1528.04 739.545C1528.04 739.545 1516.5 738.889 1500.12 738.956L1560.62 957.297C1579.72 952.563 1590.24 957.386 1590.24 957.386C1570.42 886.676 1547.85 810.244 1528.04 739.545ZM1480.45 739.4L1546.08 961.074C1535.09 964.041 1521.6 967.93 1505.31 972.996C1444.91 991.785 1395.64 1027.23 1395.64 1027.23C1395.64 1027.23 1391.45 1008.75 1389.33 997.796C1387.21 986.852 1318.23 763.867 1318.23 763.867C1318.23 763.867 1322.13 765.256 1331.79 765.322C1341.46 765.389 1379.93 759.956 1419.98 747.789C1437.46 742.489 1460.29 740.245 1480.45 739.4Z" fill="#F4AB20"/>
<path fill-rule="evenodd" clip-rule="evenodd" d="M1555.32 901.209C1559.6 918.197 1558.46 928.542 1554.7 933.497C1553.4 935.208 1551.75 936.186 1549.93 936.486C1547.92 936.819 1545.6 936.397 1543.2 935.286C1535.61 931.786 1527.76 922.031 1524.63 907.775C1520.64 889.665 1474.44 752.334 1474.33 751.934C1483.23 790.211 1513.12 890.865 1517.21 909.409C1520.9 926.175 1530.56 937.864 1540.03 942.219C1543.81 943.952 1547.64 944.597 1551.16 944.008C1554.89 943.386 1558.21 941.464 1560.75 938.108C1565.77 931.486 1567.61 918.897 1562.7 899.364C1558.19 881.431 1514.63 748.7 1514.52 748.323C1518.95 779.289 1550.83 883.365 1555.32 901.209Z" fill="black"/>
<path fill-rule="evenodd" clip-rule="evenodd" d="M1491.95 922.842C1496.22 939.83 1495.1 950.174 1491.33 955.13C1488.38 959.03 1475.79 961.396 1471.7 959.519C1464.1 956.03 1456.27 946.263 1453.13 932.008C1449.14 913.886 1402.94 776.566 1402.82 776.166C1411.72 814.443 1441.61 915.086 1445.7 933.641C1449.4 950.408 1459.05 962.085 1468.52 966.441C1475.93 969.852 1492.21 966.563 1497.39 959.741C1502.42 953.119 1504.24 940.541 1499.33 920.997C1494.82 903.064 1451.27 770.344 1451.15 769.955C1455.59 800.91 1487.45 904.986 1491.95 922.842Z" fill="black"/>
<path fill-rule="evenodd" clip-rule="evenodd" d="M1421.85 947.452C1426.12 964.441 1425 974.785 1421.23 979.741C1419.93 981.452 1418.29 982.429 1416.46 982.729C1414.45 983.063 1412.13 982.629 1409.73 981.529C1402.14 978.041 1394.3 968.274 1391.17 954.019C1387.18 935.908 1340.98 798.577 1340.87 798.177C1349.77 836.454 1379.65 937.097 1383.74 955.652C1387.43 972.419 1397.1 984.107 1406.57 988.463C1410.34 990.196 1414.18 990.84 1417.71 990.252C1421.43 989.64 1424.75 987.707 1427.29 984.352C1432.32 977.73 1434.14 965.141 1429.23 945.608C1424.72 927.664 1381.17 794.944 1381.05 794.555C1385.49 825.532 1417.36 929.597 1421.85 947.452Z" fill="black"/>
<path fill-rule="evenodd" clip-rule="evenodd" d="M1272.65 654.935C1272.19 639.513 1278.47 624.036 1290.62 614.069C1302.19 604.592 1317.43 601.903 1331.97 604.114C1332.05 603.858 1332.12 603.614 1332.2 603.369C1337.66 586.003 1351 574.37 1367.73 568.037C1387.99 560.359 1410.67 563.67 1427.52 576.203C1451.92 558.803 1486.11 562.937 1504.42 587.581C1515.83 587.236 1527.5 590.559 1536.82 596.858C1552.85 607.703 1559.75 625.313 1557.29 644.302C1553.37 674.379 1523.81 682.29 1498.09 679.446C1486.41 691.457 1469.05 695.79 1452.29 694.101C1446.33 706.745 1436.11 718.067 1424.85 724.845C1413.87 731.445 1400.72 733.456 1388.86 730.356C1387.97 734.934 1387.36 739.445 1387.03 742.345C1386.59 746.222 1387.09 749.722 1388.31 753.422C1390.51 760.089 1394.67 766.889 1397.87 773.178C1402.99 783.233 1406.73 792.999 1408.27 804.266C1413.99 846.199 1367.78 863.12 1342.8 833.554C1333.52 822.577 1330.21 809.344 1330.11 795.255C1330.06 785.944 1331.77 777.244 1332 768.222C1332.25 758.778 1327.97 750.345 1321.23 743.767C1318.22 742.367 1298.43 748.222 1294.61 749.1C1286.28 751.011 1277.77 750.178 1270.09 746.367C1252.09 737.423 1244.17 715.412 1245.81 696.323C1247.38 677.846 1257.22 662.857 1272.65 654.935Z" fill="black"/>
<path fill-rule="evenodd" clip-rule="evenodd" d="M1491.56 662.913C1491.56 662.913 1538.1 673.368 1542.13 642.346C1546.16 611.325 1516.28 598.547 1496.58 604.081C1482.41 574.17 1445.39 574.525 1427.33 597.247C1427.33 597.247 1406.39 569.703 1373.13 582.314C1339.88 594.925 1345.35 624.291 1345.35 624.291C1345.35 624.291 1318.93 610.614 1300.3 625.88C1281.66 641.158 1289.77 665.013 1289.77 665.013C1245.01 674.113 1257.51 741.934 1291.19 734.234C1307.65 730.467 1322.59 723.778 1331.96 732.923C1341.31 742.067 1347.61 754.422 1347.25 768.622C1346.88 782.822 1340.18 806.844 1354.43 823.71C1368.69 840.565 1396.97 834.465 1393.12 806.344C1389.29 778.211 1369.1 764.944 1371.84 740.656C1374.58 716.379 1380.23 708.212 1380.23 708.212C1380.23 708.212 1395.66 724.59 1416.98 711.768C1438.3 698.946 1442.05 676.435 1442.05 676.435C1442.05 676.435 1477.13 687.846 1491.56 662.913Z" fill="white"/>
<path fill-rule="evenodd" clip-rule="evenodd" d="M1491.56 662.913C1491.56 662.913 1538.1 673.368 1542.13 642.346C1543.8 629.491 1539.65 619.769 1532.81 613.191L1528.97 614.98C1528.97 614.98 1532.69 632.002 1518.99 641.347C1505.29 650.691 1475.5 645.313 1475.5 645.313C1475.5 645.313 1470.03 659.168 1450.63 660.18C1431.22 661.18 1426.73 660.313 1426.73 660.313C1426.73 660.313 1427.65 680.846 1409.17 685.324C1390.67 689.801 1374.58 683.624 1374.58 683.624C1374.58 683.624 1370.21 698.134 1352.7 704.945C1335.19 711.756 1317.69 700.934 1306.52 706.468C1296.84 711.256 1279.29 724.934 1262.45 713.201C1266.29 727.023 1276.8 737.523 1291.2 734.234C1307.66 730.467 1322.6 723.778 1331.97 732.923C1341.32 742.067 1347.62 754.422 1347.26 768.622C1346.89 782.822 1340.19 806.844 1354.44 823.71C1368.7 840.565 1396.98 834.465 1393.13 806.344C1389.3 778.211 1369.11 764.944 1371.85 740.656C1374.59 716.379 1380.24 708.212 1380.24 708.212C1380.24 708.212 1395.67 724.59 1416.99 711.768C1438.31 698.946 1442.06 676.435 1442.06 676.435C1442.06 676.435 1477.13 687.846 1491.56 662.913Z" fill="#E8CB8B"/>
<path fill-rule="evenodd" clip-rule="evenodd" d="M1494.15 971.73C1475.61 977.818 1397.9 1004.04 1389.5 1034.7C1417.17 1016.27 1458.31 994.918 1497.53 982.063C1533.52 970.263 1571.45 959.341 1601.94 959.452C1568.89 946.319 1526.7 961.052 1494.15 971.73Z" fill="black"/>
<path fill-rule="evenodd" clip-rule="evenodd" d="M1503.19 998.685C1488.1 1003.64 1424.87 1024.97 1418.04 1049.92C1440.55 1034.93 1474.02 1017.56 1505.94 1007.1C1535.23 997.485 1566.08 988.607 1590.9 988.696C1563.98 978.007 1529.65 990.007 1503.19 998.685Z" fill="black"/>
<path fill-rule="evenodd" clip-rule="evenodd" d="M1473.26 623.147C1474.31 624.225 1476.03 624.258 1477.11 623.225C1478.19 622.18 1478.22 620.458 1477.18 619.38C1477.14 619.347 1466.91 608.669 1454.06 610.38C1441.15 612.092 1437.24 620.225 1437.23 620.247C1436.54 621.58 1437.06 623.225 1438.4 623.902C1439.73 624.591 1441.36 624.069 1442.05 622.725C1442.05 622.714 1444.73 617.091 1454.76 615.758C1464.9 614.436 1473.24 623.125 1473.26 623.147Z" fill="black"/>
<path fill-rule="evenodd" clip-rule="evenodd" d="M1340.99 677.179C1342.44 677.524 1343.91 676.613 1344.26 675.157C1344.6 673.702 1343.69 672.235 1342.23 671.891C1342.2 671.88 1327.83 668.402 1317.92 676.746C1307.96 685.157 1309.06 694.135 1309.06 694.168C1309.22 695.657 1310.56 696.746 1312.06 696.579C1313.55 696.424 1314.63 695.079 1314.48 693.579C1314.48 693.557 1313.71 687.413 1321.43 680.902C1329.21 674.335 1340.94 677.168 1340.99 677.179Z" fill="black"/>
<path fill-rule="evenodd" clip-rule="evenodd" d="M1403.24 648.835C1404.49 649.658 1406.18 649.324 1407 648.08C1407.83 646.836 1407.5 645.147 1406.24 644.324C1406.21 644.302 1393.78 636.202 1381.68 640.769C1369.47 645.369 1367.51 654.191 1367.5 654.224C1367.14 655.68 1368.04 657.158 1369.5 657.513C1370.97 657.869 1372.43 656.969 1372.79 655.513C1372.79 655.491 1374.12 649.435 1383.58 645.869C1393.14 642.258 1403.22 648.813 1403.24 648.835Z" fill="black"/>
<path fill-rule="evenodd" clip-rule="evenodd" d="M1600.28 876.754C1600.45 856.409 1579.15 759.345 1569.66 740.812C1568.62 740.434 1567.5 740.3 1566.43 740.678L1550.13 749.567L1529.05 675.99L1541.02 672.102C1551.05 668.835 1563.26 666.624 1573.71 665.768C1598.83 663.724 1620.48 677.479 1632.95 698.768C1638.26 707.834 1642.32 724.123 1645.02 734.367C1649.67 752.045 1653.75 769.944 1657.63 787.8C1661.63 806.221 1665.42 824.732 1668.87 843.265C1670.78 853.487 1673.72 866.854 1674.18 877.165C1675.22 900.098 1672.76 917.142 1653.86 933.03C1644.8 940.652 1632.67 949.141 1621.71 953.93L1620.33 954.53C1613.06 942.475 1602.44 932.164 1602.44 932.164L1588.01 881.787L1593.76 880.465C1595.41 880.02 1598.91 878.442 1600.28 876.754Z" fill="black"/>
<path fill-rule="evenodd" clip-rule="evenodd" d="M1561 724.123C1564.86 722.878 1572.8 721.545 1581.33 727.367C1593.31 735.545 1621.5 869.387 1617.27 881.62C1615.66 886.298 1612.46 889.698 1609.12 892.12L1617.98 923.075C1620.56 925.775 1623.2 928.753 1625.76 931.93C1630.5 928.997 1636.37 924.953 1642.64 919.686C1657.69 907.02 1657.45 893.353 1656.76 877.953C1656.07 862.554 1628.64 725.923 1617.9 707.579C1607.16 689.235 1590.57 681.89 1575.13 683.157C1564.89 683.99 1555.6 686.157 1550.51 687.512L1561 724.123Z" fill="white"/>
<path fill-rule="evenodd" clip-rule="evenodd" d="M1561 724.123C1564.86 722.879 1572.8 721.545 1581.33 727.367C1583.98 729.178 1587.42 737.145 1591.14 748.6C1593.53 738.501 1596.02 723.034 1591.03 716.079C1583.3 705.301 1562.57 706.679 1562.57 706.679L1557.33 685.868C1554.63 686.457 1552.32 687.035 1550.52 687.513L1561 724.123Z" fill="#E8CB8B"/>
<path fill-rule="evenodd" clip-rule="evenodd" d="M1609.85 824.21C1615.44 852.265 1618.96 876.72 1617.27 881.62C1615.66 886.298 1612.46 889.698 1609.12 892.12L1617.98 923.075C1620.56 925.775 1623.2 928.753 1625.76 931.93C1630.5 928.997 1636.37 924.953 1642.64 919.686C1657.7 907.02 1657.45 893.353 1656.76 877.954C1656.61 874.331 1654.95 864.009 1652.4 850.098C1636.03 850.454 1620.41 846.454 1618.1 840.676C1614.68 832.154 1626.31 818.621 1626.31 818.621L1620.07 816.543L1609.85 824.21Z" fill="#E8CB8B"/>
<path fill-rule="evenodd" clip-rule="evenodd" d="M1559.19 798.333C1558.64 797.877 1558.13 797.41 1557.62 796.933C1545.5 785.233 1546.06 768.633 1551.83 753.956C1557.73 738.945 1570.03 726.367 1583 717.145C1598.21 706.323 1621.76 695.257 1640.88 697.612C1730.15 703.734 1760.28 842.821 1664.18 922.208L1634.42 926.119C1646.84 915.719 1646.69 908.153 1648.72 892.775C1627.61 892.475 1594.2 886.431 1582.67 870.631C1575.6 860.943 1571.54 848.387 1573.21 836.787C1570.66 834.188 1568.46 831.41 1566.74 828.765C1560.64 819.321 1558.25 808.855 1559.19 798.333Z" fill="black"/>
<path fill-rule="evenodd" clip-rule="evenodd" d="M1579.27 788.944C1579.27 788.944 1557.82 786.4 1568.07 760.333C1578.32 734.267 1619.01 712.479 1638.75 714.912C1712.26 723.979 1721.82 829.566 1666.02 893.164C1667.59 882.831 1671.12 877.098 1669.35 868.232C1655.82 870.032 1610.15 878.687 1596.77 860.343C1583.4 841.999 1594.74 830.621 1594.74 830.621C1590.22 830.054 1568.82 814.81 1579.27 788.944Z" fill="#B78C61"/>
<path fill-rule="evenodd" clip-rule="evenodd" d="M1693.19 847.032C1687.22 863.443 1678.17 879.309 1666.01 893.175C1667.58 882.842 1671.11 877.109 1669.34 868.243C1655.81 870.043 1610.14 878.698 1596.76 860.354C1590.03 851.132 1589.56 843.665 1590.75 838.532L1620.07 816.543L1626.31 818.621C1626.31 818.621 1614.68 832.165 1618.09 840.676C1621.49 849.198 1653.87 853.854 1674.89 846.354C1681.79 843.899 1687.98 844.765 1693.19 847.032Z" fill="#825747"/>
<path fill-rule="evenodd" clip-rule="evenodd" d="M1576.26 788.211C1591.62 770.033 1615.44 756.645 1636.32 760.456C1612.54 767.478 1573.33 802.777 1577.49 810.599C1568.55 813.877 1563.64 805.277 1576.26 788.211Z" fill="black"/>
<path fill-rule="evenodd" clip-rule="evenodd" d="M1591.03 828.977C1603.84 815.055 1633.45 806.177 1652.62 807.433C1628.84 814.444 1589.61 836.154 1595.6 858.665C1587.76 858.065 1583.24 838.099 1591.03 828.977Z" fill="black"/>
<path fill-rule="evenodd" clip-rule="evenodd" d="M1405.86 750.867C1408.64 751.045 1411.1 752.345 1412.81 754.289C1414.53 756.256 1415.5 758.845 1415.31 761.633C1415.12 764.422 1413.83 766.878 1411.88 768.589C1409.92 770.289 1407.32 771.267 1404.53 771.078C1401.74 770.889 1399.29 769.589 1397.58 767.644C1395.88 765.689 1394.91 763.089 1395.09 760.3C1395.27 757.511 1396.57 755.067 1398.52 753.356C1400.48 751.645 1403.08 750.678 1405.86 750.867ZM1409.55 757.167C1408.58 756.056 1407.18 755.311 1405.59 755.211C1404 755.111 1402.52 755.656 1401.41 756.633C1400.3 757.6 1399.55 759 1399.45 760.589C1399.35 762.178 1399.9 763.656 1400.88 764.767C1401.85 765.878 1403.25 766.611 1404.83 766.711C1406.42 766.822 1407.91 766.267 1409.02 765.3C1410.12 764.322 1410.86 762.922 1410.96 761.333C1411.06 759.756 1410.52 758.267 1409.55 757.167Z" fill="black"/>
<path fill-rule="evenodd" clip-rule="evenodd" d="M1438.79 795.655C1441.58 795.833 1444.02 797.133 1445.73 799.088C1447.45 801.044 1448.41 803.644 1448.23 806.433C1448.04 809.221 1446.74 811.677 1444.8 813.377C1442.84 815.088 1440.24 816.055 1437.45 815.866C1434.66 815.677 1432.21 814.388 1430.5 812.432C1428.8 810.488 1427.82 807.888 1428.01 805.099C1428.2 802.31 1429.49 799.866 1431.43 798.155C1433.4 796.433 1436 795.466 1438.79 795.655ZM1442.46 801.955C1441.49 800.844 1440.09 800.11 1438.5 799.999C1436.91 799.899 1435.42 800.444 1434.32 801.422C1433.21 802.388 1432.47 803.788 1432.37 805.377C1432.27 806.966 1432.81 808.455 1433.79 809.555C1434.77 810.666 1436.15 811.41 1437.74 811.51C1439.33 811.61 1440.82 811.066 1441.93 810.099C1443.03 809.121 1443.78 807.721 1443.88 806.133C1443.99 804.544 1443.43 803.066 1442.46 801.955Z" fill="black"/>
<path fill-rule="evenodd" clip-rule="evenodd" d="M1456.91 731.167C1459.69 731.345 1462.14 732.645 1463.85 734.589C1465.56 736.545 1466.53 739.145 1466.35 741.923C1466.16 744.711 1464.88 747.167 1462.92 748.878C1460.96 750.589 1458.36 751.556 1455.59 751.367C1452.8 751.189 1450.34 749.889 1448.63 747.934C1446.92 745.989 1445.95 743.389 1446.14 740.589C1446.33 737.812 1447.62 735.356 1449.58 733.645C1451.52 731.945 1454.12 730.989 1456.91 731.167ZM1460.6 737.467C1459.62 736.356 1458.22 735.623 1456.63 735.512C1455.04 735.412 1453.56 735.956 1452.45 736.934C1451.34 737.9 1450.61 739.3 1450.5 740.889C1450.4 742.478 1450.94 743.967 1451.92 745.067C1452.89 746.178 1454.29 746.911 1455.88 747.023C1457.48 747.123 1458.95 746.578 1460.06 745.611C1461.18 744.634 1461.91 743.234 1462.01 741.645C1462.11 740.056 1461.56 738.578 1460.6 737.467Z" fill="black"/>
<path fill-rule="evenodd" clip-rule="evenodd" d="M1367.04 768.5C1376.34 786.933 1387.96 811.644 1368.07 824.388C1368.07 824.388 1382.18 826.321 1385.06 812.888C1387.93 799.444 1376.07 777.089 1367.04 768.5Z" fill="white"/>
<path fill-rule="evenodd" clip-rule="evenodd" d="M1023.96 960.541C918.119 998.274 948.252 1084.13 847.642 1093.56C836.009 1094.65 843.042 1084.86 825.998 1082.65C946.029 1079.78 901.886 976.041 1023.96 960.541Z" fill="black"/>
<path fill-rule="evenodd" clip-rule="evenodd" d="M870.864 1005.17C878.342 1005.17 884.397 1010 884.397 1015.94C884.397 1021.88 878.342 1026.71 870.864 1026.71C863.386 1026.71 857.331 1021.88 857.331 1015.94C857.331 1010 863.386 1005.17 870.864 1005.17Z" fill="#825747"/>
<path fill-rule="evenodd" clip-rule="evenodd" d="M1200.11 899.842C1205.89 899.842 1210.58 903.575 1210.58 908.164C1210.58 912.753 1205.89 916.486 1200.11 916.486C1194.34 916.486 1189.65 912.753 1189.65 908.164C1189.65 903.575 1194.34 899.842 1200.11 899.842Z" fill="#825747"/>
<path fill-rule="evenodd" clip-rule="evenodd" d="M1551.14 1538.3C1562.97 1531.09 1574.8 1522.15 1585.03 1511.18C1623.34 1470.1 1641.43 1423.11 1641.43 1423.11C1641.43 1423.11 1652.75 1416.01 1647.47 1408.84C1642.22 1401.67 1632.72 1411.29 1631.36 1409.62C1630.01 1407.96 1641.96 1398.62 1638.25 1393C1634.16 1386.81 1630.06 1384.4 1622.52 1388.53C1622.52 1388.53 1566.35 1366.76 1519.35 1372.36C1514.78 1372.9 1510.1 1376.1 1506.25 1374.34C1494.41 1368.95 1445.89 1351.72 1436.21 1353.99C1421.37 1369.43 1398.73 1402.1 1385.03 1415.02C1381.78 1418.1 1407.79 1422.2 1419.67 1423.19C1468.39 1439.01 1517.52 1475.02 1551.14 1538.3Z" fill="#D4EEEF"/>
<path fill-rule="evenodd" clip-rule="evenodd" d="M1496.98 1370.56C1487.12 1366.78 1472.75 1361.79 1460.29 1358.23L1454.63 1360.8C1454.63 1360.8 1460.83 1368.21 1449.31 1378.26C1437.78 1388.29 1420.75 1402.4 1409.63 1407.51C1398.5 1412.62 1387.33 1412.76 1387.33 1412.76C1386.54 1413.57 1385.78 1414.32 1385.03 1415.02C1382.1 1417.79 1402.83 1421.39 1415.68 1422.8C1423.68 1414.07 1437.18 1400.12 1446.95 1394.27C1461.71 1385.42 1497.33 1371 1497.33 1371L1496.98 1370.56Z" fill="#8EC7DA"/>
<path fill-rule="evenodd" clip-rule="evenodd" d="M1551.14 1538.3C1562.97 1531.09 1574.8 1522.15 1585.03 1511.18C1617.26 1476.61 1635.18 1437.87 1640.05 1426.44L1614.4 1431.33C1614.4 1431.33 1615.23 1436.76 1612.46 1444.77C1609.7 1452.78 1599.58 1461.6 1592.87 1466.89C1586.16 1472.18 1559.79 1450.23 1559.79 1450.23L1546.94 1450.79C1546.94 1450.79 1557.15 1470.83 1551.82 1483.63C1548.81 1490.84 1540.65 1501.96 1534.1 1510.31C1540.12 1518.98 1545.82 1528.29 1551.14 1538.3Z" fill="#8EC7DA"/>
<path fill-rule="evenodd" clip-rule="evenodd" d="M1548.91 1535.34C1560.41 1528.31 1572.33 1519.28 1582.27 1508.62C1620.12 1468.04 1637.88 1421.89 1637.94 1421.77C1638.23 1421 1638.75 1420.39 1639.39 1419.97C1639.41 1419.96 1647.31 1414.94 1644.46 1411.07C1642.81 1408.82 1639.07 1410.71 1636.61 1411.96C1633.3 1413.63 1630.82 1414.89 1628.46 1411.99C1626.08 1409.08 1628.15 1406.4 1630.84 1402.99C1632.98 1400.23 1635.05 1396.29 1634.18 1394.98C1635.63 1389.93 1627 1388.16 1624.33 1391.86C1623.24 1392.46 1621.98 1392.46 1620.93 1391.97C1617.04 1390.48 1564.2 1370.8 1519.81 1376.09C1496.81 1378.83 1479.3 1384.69 1465.22 1392.08C1451.14 1399.46 1440.4 1408.39 1431.02 1417.24C1428.37 1419.76 1425.15 1422.89 1423.11 1424.96C1420.43 1424.06 1416.71 1423.73 1414.03 1422.97C1416.77 1420.09 1421.97 1415.47 1425.88 1411.78C1435.67 1402.56 1446.89 1393.21 1461.72 1385.43C1476.56 1377.67 1482.31 1371.84 1500.41 1367.27C1563.31 1355.06 1613.9 1377.64 1623.4 1381.13C1633.03 1376.64 1651.13 1384.62 1642.84 1400.23C1656.43 1397.41 1661.17 1418.52 1649.61 1428.34C1635.9 1462.07 1602.11 1526.23 1555.53 1557.52C1554.36 1555.26 1550.11 1537.52 1548.91 1535.34Z" fill="black"/>
<path fill-rule="evenodd" clip-rule="evenodd" d="M1568.22 1394.69C1572.31 1392.46 1576.94 1392.09 1581.12 1393.3C1585.3 1394.53 1589.01 1397.34 1591.24 1401.43C1593.49 1405.53 1593.85 1410.17 1592.63 1414.33C1591.41 1418.51 1588.6 1422.22 1584.51 1424.47C1580.41 1426.71 1575.77 1427.07 1571.61 1425.86C1567.43 1424.63 1563.73 1421.82 1561.49 1417.73C1559.25 1413.64 1558.87 1409 1560.1 1404.83C1561.32 1400.64 1564.12 1396.94 1568.22 1394.69ZM1579.71 1398.13C1576.8 1397.28 1573.53 1397.54 1570.64 1399.12C1567.74 1400.71 1565.77 1403.31 1564.92 1406.22C1564.06 1409.16 1564.33 1412.42 1565.91 1415.31C1567.49 1418.2 1570.09 1420.18 1573 1421.02C1575.93 1421.89 1579.19 1421.62 1582.07 1420.03C1584.96 1418.44 1586.95 1415.86 1587.8 1412.93C1588.65 1410 1588.4 1406.74 1586.81 1403.86C1585.23 1400.97 1582.63 1398.98 1579.71 1398.13Z" fill="black"/>
<path fill-rule="evenodd" clip-rule="evenodd" d="M1606.92 1432.92C1606.4 1418.77 1616.11 1403.1 1624.13 1391.88L1616.08 1386.24C1608.05 1402.28 1602.6 1414.72 1606.92 1432.92Z" fill="black"/>
<path fill-rule="evenodd" clip-rule="evenodd" d="M1640.59 1420.53L1638.48 1420.57C1638.48 1420.57 1632.84 1424.32 1624.9 1427.78C1616.95 1431.23 1613.41 1431.49 1613.41 1431.49C1621.76 1432.65 1636.09 1431.28 1643.42 1427.23L1640.59 1420.53Z" fill="black"/>
<path fill-rule="evenodd" clip-rule="evenodd" d="M1612.28 1425.97C1612.28 1425.97 1617.8 1415.81 1624.3 1406.66C1630.8 1397.5 1634.71 1393.81 1635.94 1394.24C1637.18 1394.68 1635.39 1404.27 1635.39 1404.27L1638.96 1410.58C1638.95 1410.59 1628.16 1415.47 1612.28 1425.97Z" fill="black"/>
<path fill-rule="evenodd" clip-rule="evenodd" d="M1573.39 1404.21L1573.55 1404.12C1573.52 1404.61 1573.63 1405.14 1573.89 1405.6C1574.62 1406.94 1576.3 1407.44 1577.63 1406.7C1578.63 1406.17 1579.16 1405.1 1579.06 1404.03C1580.22 1404.58 1581.23 1405.49 1581.9 1406.69C1583.56 1409.73 1582.44 1413.53 1579.41 1415.2C1576.37 1416.86 1572.56 1415.73 1570.91 1412.71C1569.23 1409.68 1570.35 1405.88 1573.39 1404.21Z" fill="black"/>
<path fill-rule="evenodd" clip-rule="evenodd" d="M1485.73 1369.91C1475.67 1366.39 1461.31 1361.7 1453.09 1360.57C1444.7 1359.41 1439.23 1359.13 1436.27 1359.1C1431.85 1372.31 1414.38 1390.24 1401.03 1403.96C1398.27 1406.79 1389.53 1416.08 1387.28 1418.47C1382.33 1422.19 1371.68 1416.92 1373.42 1413.7C1385.99 1402.02 1423.07 1369.33 1426.91 1348.11C1449.95 1347.47 1489.55 1359.8 1504.48 1366.51L1511.31 1371.26L1499.25 1374.16C1481.04 1378.53 1466.53 1384.24 1452.32 1392.33C1440.27 1399.19 1425.35 1411.51 1413.48 1424C1410.82 1423.11 1408.17 1422.29 1405.5 1421.53C1418.82 1407.09 1434.29 1392.98 1447.87 1385.26C1459.58 1378.58 1471.88 1373.83 1485.73 1369.91Z" fill="black"/>
<path fill-rule="evenodd" clip-rule="evenodd" d="M1542.74 1460.98C1542.74 1460.98 1516.4 1458.23 1492.58 1467.41C1494.02 1468.83 1499.2 1471.14 1500.63 1472.61C1512.92 1468.17 1527.11 1464.02 1542.74 1460.98ZM1534.8 1516.99C1541.95 1507.41 1547.86 1493.95 1551.82 1483.63C1551.82 1483.63 1541.26 1498.49 1531.37 1509.74L1534.8 1516.99Z" fill="black"/>
<path fill-rule="evenodd" clip-rule="evenodd" d="M1527.29 1504.1C1530.73 1499.89 1534.15 1495.64 1537.4 1491.28C1533.26 1494.71 1529.27 1498.13 1525.4 1501.56L1527.29 1504.1Z" fill="black"/>
<path fill-rule="evenodd" clip-rule="evenodd" d="M1521.27 1496.22C1525.6 1492.83 1530 1489.4 1534.33 1485.91C1529.72 1488.55 1524.82 1491.44 1519.9 1494.48L1521.27 1496.22Z" fill="black"/>
<path fill-rule="evenodd" clip-rule="evenodd" d="M1515.4 1489C1521.64 1485.47 1527.7 1482.01 1533.01 1478.77C1527.43 1481.02 1520.76 1483.88 1513.76 1487.08L1515.4 1489Z" fill="black"/>
<path fill-rule="evenodd" clip-rule="evenodd" d="M1508.32 1480.83C1516.57 1477.34 1524.9 1474.07 1532.63 1471.23C1524.81 1472.52 1515.59 1475.13 1506.14 1478.44L1508.32 1480.83Z" fill="black"/>
<path fill-rule="evenodd" clip-rule="evenodd" d="M1469.46 1378.82C1459.62 1375.05 1448.13 1371.61 1436.09 1368.12C1449.43 1369.79 1465.61 1372.35 1477.63 1376.02C1474.88 1376.83 1472.14 1377.77 1469.46 1378.82Z" fill="black"/>
<path fill-rule="evenodd" clip-rule="evenodd" d="M1450.68 1388.23C1443.91 1386.02 1436.67 1383.88 1429.21 1381.72C1437.27 1382.72 1446.34 1384.06 1454.93 1385.77C1453.5 1386.57 1452.08 1387.39 1450.68 1388.23Z" fill="black"/>
<path fill-rule="evenodd" clip-rule="evenodd" d="M1436.34 1397.92C1430.11 1395.93 1423.51 1393.98 1416.73 1392.02C1423.91 1392.91 1431.91 1394.07 1439.64 1395.51C1438.52 1396.32 1437.42 1397.12 1436.34 1397.92Z" fill="black"/>
<path fill-rule="evenodd" clip-rule="evenodd" d="M1424.98 1407.08C1419.39 1405.32 1413.53 1403.6 1407.53 1401.86C1413.84 1402.64 1420.79 1403.63 1427.62 1404.84C1426.71 1405.59 1425.82 1406.34 1424.98 1407.08Z" fill="black"/>
<path fill-rule="evenodd" clip-rule="evenodd" d="M1416.51 1414.79C1411.65 1413.29 1406.61 1411.8 1401.47 1410.32C1406.88 1410.99 1412.74 1411.81 1418.61 1412.79L1416.51 1414.79Z" fill="black"/>
<path fill-rule="evenodd" clip-rule="evenodd" d="M1539.09 1435.78C1548.25 1459.57 1573.53 1483.5 1597.44 1490.81C1604.88 1494.72 1606.12 1485.53 1609.42 1480.91C1560.96 1469 1541.01 1431.23 1536.43 1384.61C1531.36 1400.81 1532.79 1419.43 1539.09 1435.78Z" fill="black"/>
</svg>
