<svg width="996" height="866" viewBox="0 0 996 866" fill="none" xmlns="http://www.w3.org/2000/svg">
<path d="M176.992 11.6142C185.889 19.5749 188.119 30.6001 189 42.0556C189.009 47.7569 188.483 53.4414 188 59.1181C186.038 82.255 190.974 99.555 205.313 118.036C211.628 125.4 218.979 130.727 227 136.056C226.84 135.157 226.681 134.259 226.516 133.333C224.027 117.511 228.497 102.697 237.625 89.7509C249.189 75.4627 268.11 67.3481 286 65.0556C288.595 64.9197 291.187 64.8383 293.784 64.7661C311.356 64.2703 328.546 62.0805 345.895 59.372C347.355 59.1441 347.355 59.1441 348.845 58.9115C349.834 58.7571 350.823 58.6027 351.842 58.4436C370.241 55.5729 388.39 53.0434 407 52.0556C443.659 51.1562 443.659 51.1562 473.883 33.1103C488.284 18.384 488.284 18.384 498.571 17.9463C510.391 18.4784 518.581 29.5405 526.25 37.4931C540.52 51.7852 563.915 50.7098 582.893 51.7009C609.434 53.0921 635.517 56.8577 661.743 61.0371C672.728 62.7795 683.505 64.0521 694.638 64.2949C710.092 64.6738 724.212 66.5981 738 74.0556C738.861 74.5197 739.722 74.9838 740.61 75.4619C750.36 81.0165 757.058 87.5358 763 97.0556C763.402 97.6795 763.805 98.3034 764.219 98.9463C770.508 109.904 771.165 123.886 769 136.056C787.06 123.455 802.951 107.289 808 85.0556C809.559 74.5331 808.525 64.2564 807.584 53.7197C806.442 39.0539 807.64 26.1262 816.528 13.9658C824.806 4.71567 836.549 1.76154 848.414 0.770469C858.209 0.387697 867.667 1.72303 877.313 3.30563C878.576 3.51002 879.839 3.71442 881.14 3.92501C896.845 6.65084 908.914 10.5458 918.563 23.8134C926.199 35.7243 924.102 51.3101 923.785 64.8349C923.673 74.7883 924.511 84.9835 929 94.0556C931.787 94.9846 933.852 95.2672 936.754 95.4502C937.692 95.5191 938.63 95.5881 939.596 95.6591C941.546 95.7965 943.496 95.9244 945.448 96.042C961.659 97.289 972.601 106.1 983 118.056C990.329 127.254 996.185 135.912 995 148.056C994.409 151.444 993.546 154.698 992.563 157.993C992.164 159.346 992.164 159.346 991.757 160.726C985.563 180.801 975.876 199.558 957.336 210.649C944.456 217.036 930.206 214.687 916.867 211.028C894.131 205.31 867.926 209.696 845.438 214.493C844.529 214.686 843.621 214.879 842.685 215.078C836.52 216.484 830.803 218.554 825 221.056C825.614 221.875 825.614 221.875 826.241 222.712C836.596 236.799 838.779 254.752 840.355 271.711C840.426 272.478 840.497 273.245 840.571 274.036C840.63 274.716 840.69 275.395 840.751 276.095C841.011 278.14 841.462 280.068 842 282.056C842.908 281.416 843.815 280.777 844.75 280.118C849.64 277.015 853.192 276.587 859 277.056C870.553 279.659 879.406 288.912 885.75 298.493C903.705 327.399 909.129 367.098 901.492 400.059C895.655 423.765 885.258 452.516 863.36 465.806C852.069 471.788 840.986 472.758 828.5 469.806C820.861 467.394 814.013 463.51 806.988 459.71C800.229 456.094 793.424 453.006 786.25 450.306C785.363 449.971 784.476 449.636 783.563 449.291C778.904 447.557 778.904 447.557 774 447.056C774.647 447.396 775.293 447.736 775.959 448.087C795.523 458.423 814.586 469.448 833.461 481.005C834.49 481.635 835.519 482.264 836.58 482.913C838.495 484.088 840.408 485.267 842.317 486.452C855.215 494.391 867.548 501.074 883.161 497.571C890.147 495.613 896.887 492.944 903.582 490.169C915.854 485.112 930.527 480.228 943.879 483.833C958.398 490.11 976.227 498.875 983 514.056C986.887 524.542 990.544 536.752 989 548.056C987.563 551.118 987.563 551.118 985 554.056C984.437 554.731 983.874 555.407 983.293 556.102C977.173 562.89 969.941 566.795 961.976 571.008C959.042 572.564 956.142 574.17 953.25 575.806C951.866 576.571 951.866 576.571 950.453 577.352C946.663 579.984 943.509 583.657 942 588.056C941.366 595.347 943.411 600.919 946 607.681C946.403 608.765 946.806 609.849 947.221 610.966C948.057 613.215 948.897 615.462 949.742 617.706C951.698 622.914 953.599 628.141 955.5 633.368C955.838 634.286 956.176 635.204 956.524 636.15C956.836 637.002 957.148 637.854 957.469 638.731C957.742 639.473 958.014 640.215 958.295 640.979C963.046 654.973 959.293 670.421 953.213 683.418C948.074 693.818 941.874 704.418 930.657 709.017C919.94 712.442 909.264 713.419 898.063 713.368C896.792 713.364 895.522 713.36 894.213 713.355C855.741 712.899 855.741 712.899 843.766 701.024C842.892 700.05 842.892 700.05 842 699.056C841.095 698.05 841.095 698.05 840.172 697.024C832.456 687.765 826.509 676.403 826.797 664.118C827.084 661.202 827.769 658.439 828.563 655.622C829.731 648.771 828.892 642.164 827.426 635.435C827.26 634.65 827.095 633.865 826.924 633.056C826.573 631.409 826.217 629.763 825.857 628.118C825.316 625.631 824.799 623.14 824.284 620.647C821.288 606.543 817.325 595.14 805.028 586.567C804.432 586.151 803.835 585.734 803.221 585.304C794.118 578.988 784.827 572.943 775.563 566.868C773.586 565.57 771.609 564.271 769.632 562.972C766.717 561.058 763.801 559.144 760.885 557.231C755.796 553.894 750.715 550.547 745.645 547.181C734.696 539.932 723.603 533.212 712 527.056C712.364 528.053 712.727 529.051 713.102 530.079C723.289 558.86 734.65 599.527 721.278 628.97C716.878 638.178 716.878 638.178 715 640.056C714.888 642.544 714.838 645.008 714.825 647.497C714.805 649.108 714.784 650.718 714.762 652.329C714.745 653.618 714.745 653.618 714.728 654.934C714.011 703.076 706.211 750.604 697.875 797.931C697.67 799.112 697.464 800.293 697.252 801.51C688.658 850.593 688.658 850.593 675.95 861.845C672.186 864.183 668.405 865.02 664 865.056C656.191 862.879 652.12 857.745 648 851.056C636.014 822.91 634.049 790.641 630.318 760.611C628.045 742.329 625.122 724.772 620 707.056C619.575 705.544 619.15 704.033 618.727 702.52C617.838 699.36 616.928 696.205 616 693.056C611.788 700.163 607.828 707.309 604.216 714.74C595.397 732.875 595.397 732.875 588.063 738.181C584.054 739.326 580.871 739.598 577 738.056C569.48 732.482 565.32 722.127 561 714.056C560.42 714.875 559.84 715.695 559.242 716.54C558.454 717.629 557.665 718.717 556.875 719.806C556.11 720.873 555.344 721.94 554.555 723.04C551.369 726.8 548.378 729.595 543.438 730.552C535.589 730.363 531.008 728.18 525 723.056C524.299 724.149 523.598 725.242 522.875 726.368C520.343 729.881 518.184 731.633 514 733.056C509.659 733.598 507.576 733.36 503.688 731.306C501.225 729.244 500.063 728.03 499 725.056C498.34 725.056 497.68 725.056 497 725.056C496.691 725.922 496.691 725.922 496.375 726.806C494.416 730.012 492.309 731.308 489 733.056C484.033 733.778 480.736 732.948 476.578 730.345C474.029 728.262 472.62 725.907 471 723.056C470.458 723.477 469.915 723.899 469.356 724.333C468.64 724.881 467.925 725.429 467.188 725.993C466.126 726.811 466.126 726.811 465.043 727.645C461.824 729.867 459.007 730.257 455.188 730.368C453.941 730.424 453.941 730.424 452.668 730.481C447.631 729.678 444.666 726.841 441.446 723.04C440.68 721.973 439.914 720.905 439.125 719.806C438.723 719.251 438.321 718.697 437.907 718.126C436.929 716.776 435.963 715.417 435 714.056C434.729 714.569 434.457 715.083 434.178 715.613C432.921 717.975 431.648 720.328 430.375 722.681C429.949 723.489 429.522 724.297 429.082 725.13C422.763 736.73 422.763 736.73 416.978 738.768C413.25 739.571 411.052 739.075 407.438 737.743C399.25 732.31 394.969 721.474 390.875 712.931C387.556 706.06 384.183 699.445 380 693.056C371.782 720.605 367.165 747.483 363.671 776.001C354.996 846.622 354.996 846.622 341 861.056C337.146 863.973 333.813 864.807 329 865.056C322.432 864.117 318.878 861.203 315 856.056C310.122 848.497 307.36 840.581 305.129 831.942C304.873 830.952 304.617 829.962 304.353 828.942C301.208 816.387 299.017 803.654 296.847 790.901C296.495 788.835 296.139 786.77 295.783 784.705C291.622 760.564 287.873 736.387 285 712.056C284.914 711.334 284.828 710.613 284.738 709.87C283.138 696.442 281.974 683.073 281.813 669.548C281.8 668.646 281.787 667.744 281.774 666.815C281.715 662.384 281.691 657.958 281.73 653.527C281.722 643.943 280.88 637.956 275 630.056C273.574 626.7 273.574 626.7 272.688 623.868C272.382 622.926 272.077 621.983 271.762 621.013C264.123 591.359 273.036 554.816 284 527.056C280.474 529.003 276.955 530.966 273.438 532.931C271.981 533.735 271.981 533.735 270.494 534.556C263.537 538.454 256.885 542.712 250.282 547.173C245.353 550.503 240.377 553.762 235.403 557.024C233.51 558.268 231.617 559.511 229.725 560.755C226.828 562.658 223.93 564.56 221.031 566.46C190.353 584.245 190.353 584.245 173.491 613.47C173.267 614.571 173.043 615.671 172.813 616.806C172.442 618.525 172.442 618.525 172.064 620.28C171.58 622.532 171.104 624.786 170.635 627.041C170.106 629.551 169.548 632.048 168.957 634.544C167.038 642.787 166.168 649.65 168.063 657.931C170.664 670.038 166.758 681.066 160.25 691.243C150.672 704.844 141.892 708.313 125.774 711.442C105.712 714.703 77.9004 717.377 59.7503 706.306C57.7698 704.72 57.7698 704.72 56.0003 703.056C55.406 702.527 54.8118 701.999 54.1995 701.454C42.8676 690.047 36.3759 670.868 35.4378 655.181C35.5325 643.909 40.1275 633.494 44.0003 623.056C44.4115 621.939 44.8227 620.823 45.2464 619.673C47.5236 613.508 49.8346 607.356 52.1875 601.218C54.1348 596.037 55.1634 591.327 53.2698 586.001C49.1982 578.446 41.69 574.919 34.3011 571.157C23.773 565.786 12.4973 559.05 7.00029 548.056C5.52667 534.85 9.11102 518.737 16.7503 507.868C25.8594 496.622 40.9955 486.837 55.0003 483.056C57.7128 482.959 60.3007 482.944 63.0003 483.056C64.0767 483.072 65.153 483.089 66.262 483.106C79.898 484.148 92.2534 489.751 104.797 494.851C110.619 497.041 115.895 498.379 122.125 498.493C123.303 498.533 124.482 498.573 125.696 498.614C136.577 497.832 146.39 491.349 155.313 485.618C157.601 484.176 159.895 482.743 162.188 481.31C162.761 480.949 163.335 480.589 163.926 480.218C182.816 468.376 202.442 457.743 222 447.056C218.254 447.056 215.267 448.251 211.813 449.556C211.105 449.822 210.398 450.088 209.669 450.363C202.526 453.124 195.779 456.553 188.975 460.049C174.252 467.556 159.89 474.168 142.914 470.364C126.213 464.774 115.413 451.688 107.657 436.409C101.741 424.038 96.9313 411.46 94.0003 398.056C93.6348 396.435 93.6348 396.435 93.262 394.782C87.5101 363.088 92.9658 323.959 111.5 296.993C117.859 288.308 125.82 279.122 137 277.056C142.596 276.625 147.025 277.562 152 280.056C152.66 280.716 153.32 281.376 154 282.056C154.11 281.193 154.219 280.331 154.332 279.442C154.769 276.079 155.22 272.718 155.684 269.357C155.895 267.818 156.104 266.278 156.309 264.738C158.25 250.34 160.6 236.156 168.864 223.876C170.177 222.131 170.177 222.131 170 220.056C138.405 209.831 102.586 204.255 70.0628 213.13C59.8238 215.713 48.1744 215.347 38.6722 210.661C17.366 197.859 7.88012 174.928 1.87138 151.825C-0.170476 142.989 0.725654 137.073 5.10966 129.063C8.30455 123.981 11.9713 119.497 16.0003 115.056C16.8704 114.091 17.7405 113.127 18.637 112.134C31.2409 98.8286 43.1234 96.1898 60.8128 95.3017C64.0203 95.1836 64.0203 95.1836 67.0003 94.0556C72.4603 82.9785 72.3544 70.9397 72.0628 58.9306C71.7022 42.357 71.9742 28.7602 83.8128 16.0947C104.726 -3.39924 155.068 -5.53858 176.992 11.6142ZM217 251.056C217 256.336 217 261.616 217 267.056C218.114 266.148 219.228 265.241 220.375 264.306C221.002 263.795 221.628 263.285 222.274 262.759C224.35 260.894 224.35 260.894 226 257.056C223.03 255.076 220.06 253.096 217 251.056ZM773.938 254.056C772.838 254.891 772.838 254.891 771.715 255.743C771.149 256.176 770.583 256.609 770 257.056C772.474 261.865 774.436 263.252 779 267.056C779 261.776 779 256.496 779 251.056C777.049 251.056 775.42 252.927 773.938 254.056Z" fill="#FDFDFD"/>
<path d="M176.992 11.6142C185.889 19.5749 188.119 30.6001 189 42.0556C189.009 47.7569 188.483 53.4414 188 59.1181C186.038 82.255 190.974 99.555 205.313 118.036C211.628 125.4 218.979 130.727 227 136.056C226.84 135.157 226.681 134.259 226.516 133.333C224.027 117.511 228.497 102.697 237.625 89.7509C249.189 75.4627 268.11 67.3481 286 65.0556C288.595 64.9197 291.187 64.8383 293.784 64.7661C311.356 64.2703 328.546 62.0805 345.895 59.372C347.355 59.1441 347.355 59.1441 348.845 58.9115C349.834 58.7571 350.823 58.6027 351.842 58.4436C370.241 55.5729 388.39 53.0434 407 52.0556C443.659 51.1562 443.659 51.1562 473.883 33.1103C488.284 18.384 488.284 18.384 498.571 17.9463C510.391 18.4784 518.581 29.5405 526.25 37.4931C540.52 51.7852 563.915 50.7098 582.893 51.7009C609.434 53.0921 635.517 56.8577 661.743 61.0371C672.728 62.7795 683.505 64.0521 694.638 64.2949C710.092 64.6738 724.212 66.5981 738 74.0556C738.861 74.5197 739.722 74.9838 740.61 75.4619C750.36 81.0165 757.058 87.5358 763 97.0556C763.402 97.6795 763.805 98.3034 764.219 98.9463C770.508 109.904 771.165 123.886 769 136.056C787.06 123.455 802.951 107.289 808 85.0556C809.559 74.5331 808.525 64.2564 807.584 53.7197C806.442 39.0539 807.64 26.1262 816.528 13.9658C824.806 4.71567 836.549 1.76154 848.414 0.770469C858.209 0.387697 867.667 1.72303 877.313 3.30563C878.576 3.51002 879.839 3.71442 881.14 3.92501C896.845 6.65084 908.914 10.5458 918.563 23.8134C926.199 35.7243 924.102 51.3101 923.785 64.8349C923.673 74.7883 924.511 84.9835 929 94.0556C931.787 94.9846 933.852 95.2672 936.754 95.4502C937.692 95.5191 938.63 95.5881 939.596 95.6591C941.546 95.7965 943.496 95.9244 945.448 96.042C961.659 97.289 972.601 106.1 983 118.056C990.329 127.254 996.185 135.912 995 148.056C994.409 151.444 993.546 154.698 992.563 157.993C992.164 159.346 992.164 159.346 991.757 160.726C985.563 180.801 975.876 199.558 957.336 210.649C944.456 217.036 930.206 214.687 916.867 211.028C894.131 205.31 867.926 209.696 845.438 214.493C844.529 214.686 843.621 214.879 842.685 215.078C836.52 216.484 830.803 218.554 825 221.056C825.614 221.875 825.614 221.875 826.241 222.712C836.596 236.799 838.779 254.752 840.355 271.711C840.426 272.478 840.497 273.245 840.571 274.036C840.63 274.716 840.69 275.395 840.751 276.095C841.011 278.14 841.462 280.068 842 282.056C842.908 281.416 843.815 280.777 844.75 280.118C849.64 277.015 853.192 276.587 859 277.056C870.553 279.659 879.406 288.912 885.75 298.493C903.705 327.399 909.129 367.098 901.492 400.059C895.655 423.765 885.258 452.516 863.36 465.806C852.069 471.788 840.986 472.758 828.5 469.806C820.861 467.394 814.013 463.51 806.988 459.71C800.229 456.094 793.424 453.006 786.25 450.306C785.363 449.971 784.476 449.636 783.563 449.291C778.904 447.557 778.904 447.557 774 447.056C774.647 447.396 775.293 447.736 775.959 448.087C795.523 458.423 814.586 469.448 833.461 481.005C834.49 481.635 835.519 482.264 836.58 482.913C838.495 484.088 840.408 485.267 842.317 486.452C855.215 494.391 867.548 501.074 883.161 497.571C890.147 495.613 896.887 492.944 903.582 490.169C915.854 485.112 930.527 480.228 943.879 483.833C958.398 490.11 976.227 498.875 983 514.056C986.887 524.542 990.544 536.752 989 548.056C987.563 551.118 987.563 551.118 985 554.056C984.437 554.731 983.874 555.407 983.293 556.102C977.173 562.89 969.941 566.795 961.976 571.008C959.042 572.564 956.142 574.17 953.25 575.806C951.866 576.571 951.866 576.571 950.453 577.352C946.663 579.984 943.509 583.657 942 588.056C941.366 595.347 943.411 600.919 946 607.681C946.403 608.765 946.806 609.849 947.221 610.966C948.057 613.215 948.897 615.462 949.742 617.706C951.698 622.914 953.599 628.141 955.5 633.368C955.838 634.286 956.176 635.204 956.524 636.15C956.836 637.002 957.148 637.854 957.469 638.731C957.742 639.473 958.014 640.215 958.295 640.979C963.046 654.973 959.293 670.421 953.213 683.418C948.074 693.818 941.874 704.418 930.657 709.017C919.94 712.442 909.264 713.419 898.063 713.368C896.792 713.364 895.522 713.36 894.213 713.355C855.741 712.899 855.741 712.899 843.766 701.024C842.892 700.05 842.892 700.05 842 699.056C841.095 698.05 841.095 698.05 840.172 697.024C832.456 687.765 826.509 676.403 826.797 664.118C827.084 661.202 827.769 658.439 828.563 655.622C829.731 648.771 828.892 642.164 827.426 635.435C827.26 634.65 827.095 633.865 826.924 633.056C826.573 631.409 826.217 629.763 825.857 628.118C825.316 625.631 824.799 623.14 824.284 620.647C821.288 606.543 817.325 595.14 805.028 586.567C804.432 586.151 803.835 585.734 803.221 585.304C794.118 578.988 784.827 572.943 775.563 566.868C773.586 565.57 771.609 564.271 769.632 562.972C766.717 561.058 763.801 559.144 760.885 557.231C755.796 553.894 750.715 550.547 745.645 547.181C734.696 539.932 723.603 533.212 712 527.056C712.364 528.053 712.727 529.051 713.102 530.079C723.289 558.86 734.65 599.527 721.278 628.97C716.878 638.178 716.878 638.178 715 640.056C714.888 642.544 714.838 645.008 714.825 647.497C714.805 649.108 714.784 650.718 714.762 652.329C714.745 653.618 714.745 653.618 714.728 654.934C714.011 703.076 706.211 750.604 697.875 797.931C697.67 799.112 697.464 800.293 697.252 801.51C688.658 850.593 688.658 850.593 675.95 861.845C672.186 864.183 668.405 865.02 664 865.056C656.191 862.879 652.12 857.745 648 851.056C636.014 822.91 634.049 790.641 630.318 760.611C628.045 742.329 625.122 724.772 620 707.056C619.575 705.544 619.15 704.033 618.727 702.52C617.838 699.36 616.928 696.205 616 693.056C611.788 700.163 607.828 707.309 604.216 714.74C595.397 732.875 595.397 732.875 588.063 738.181C584.054 739.326 580.871 739.598 577 738.056C569.48 732.482 565.32 722.127 561 714.056C560.42 714.875 559.84 715.695 559.242 716.54C558.454 717.629 557.665 718.717 556.875 719.806C556.11 720.873 555.344 721.94 554.555 723.04C551.369 726.8 548.378 729.595 543.438 730.552C535.589 730.363 531.008 728.18 525 723.056C524.299 724.149 523.598 725.242 522.875 726.368C520.343 729.881 518.184 731.633 514 733.056C509.659 733.598 507.576 733.36 503.688 731.306C501.225 729.244 500.063 728.03 499 725.056C498.34 725.056 497.68 725.056 497 725.056C496.691 725.922 496.691 725.922 496.375 726.806C494.416 730.012 492.309 731.308 489 733.056C484.033 733.778 480.736 732.948 476.578 730.345C474.029 728.262 472.62 725.907 471 723.056C470.458 723.477 469.915 723.899 469.356 724.333C468.64 724.881 467.925 725.429 467.188 725.993C466.126 726.811 466.126 726.811 465.043 727.645C461.824 729.867 459.007 730.257 455.188 730.368C453.941 730.424 453.941 730.424 452.668 730.481C447.631 729.678 444.666 726.841 441.446 723.04C440.68 721.973 439.914 720.905 439.125 719.806C438.723 719.251 438.321 718.697 437.907 718.126C436.929 716.776 435.963 715.417 435 714.056C434.729 714.569 434.457 715.083 434.178 715.613C432.921 717.975 431.648 720.328 430.375 722.681C429.949 723.489 429.522 724.297 429.082 725.13C422.763 736.73 422.763 736.73 416.978 738.768C413.25 739.571 411.052 739.075 407.438 737.743C399.25 732.31 394.969 721.474 390.875 712.931C387.556 706.06 384.183 699.445 380 693.056C371.782 720.605 367.165 747.483 363.671 776.001C354.996 846.622 354.996 846.622 341 861.056C337.146 863.973 333.813 864.807 329 865.056C322.432 864.117 318.878 861.203 315 856.056C310.122 848.497 307.36 840.581 305.129 831.942C304.873 830.952 304.617 829.962 304.353 828.942C301.208 816.387 299.017 803.654 296.847 790.901C296.495 788.835 296.139 786.77 295.783 784.705C291.622 760.564 287.873 736.387 285 712.056C284.914 711.334 284.828 710.613 284.738 709.87C283.138 696.442 281.974 683.073 281.813 669.548C281.8 668.646 281.787 667.744 281.774 666.815C281.715 662.384 281.691 657.958 281.73 653.527C281.722 643.943 280.88 637.956 275 630.056C273.574 626.7 273.574 626.7 272.688 623.868C272.382 622.926 272.077 621.983 271.762 621.013C264.123 591.359 273.036 554.816 284 527.056C280.474 529.003 276.955 530.966 273.438 532.931C271.981 533.735 271.981 533.735 270.494 534.556C263.537 538.454 256.885 542.712 250.282 547.173C245.353 550.503 240.377 553.762 235.403 557.024C233.51 558.268 231.617 559.511 229.725 560.755C226.828 562.658 223.93 564.56 221.031 566.46C190.353 584.245 190.353 584.245 173.491 613.47C173.267 614.571 173.043 615.671 172.813 616.806C172.442 618.525 172.442 618.525 172.064 620.28C171.58 622.532 171.104 624.786 170.635 627.041C170.106 629.551 169.548 632.048 168.957 634.544C167.038 642.787 166.168 649.65 168.063 657.931C170.664 670.038 166.758 681.066 160.25 691.243C150.672 704.844 141.892 708.313 125.774 711.442C105.712 714.703 77.9004 717.377 59.7503 706.306C57.7698 704.72 57.7698 704.72 56.0003 703.056C55.406 702.527 54.8118 701.999 54.1995 701.454C42.8676 690.047 36.3759 670.868 35.4378 655.181C35.5325 643.909 40.1275 633.494 44.0003 623.056C44.4115 621.939 44.8227 620.823 45.2464 619.673C47.5236 613.508 49.8346 607.356 52.1875 601.218C54.1348 596.037 55.1634 591.327 53.2698 586.001C49.1982 578.446 41.69 574.919 34.3011 571.157C23.773 565.786 12.4973 559.05 7.00029 548.056C5.52667 534.85 9.11102 518.737 16.7503 507.868C25.8594 496.622 40.9955 486.837 55.0003 483.056C57.7128 482.959 60.3007 482.944 63.0003 483.056C64.0767 483.072 65.153 483.089 66.262 483.106C79.898 484.148 92.2534 489.751 104.797 494.851C110.619 497.041 115.895 498.379 122.125 498.493C123.303 498.533 124.482 498.573 125.696 498.614C136.577 497.832 146.39 491.349 155.313 485.618C157.601 484.176 159.895 482.743 162.188 481.31C162.761 480.949 163.335 480.589 163.926 480.218C182.816 468.376 202.442 457.743 222 447.056C218.254 447.056 215.267 448.251 211.813 449.556C211.105 449.822 210.398 450.088 209.669 450.363C202.526 453.124 195.779 456.553 188.975 460.049C174.252 467.556 159.89 474.168 142.914 470.364C126.213 464.774 115.413 451.688 107.657 436.409C101.741 424.038 96.9313 411.46 94.0003 398.056C93.6348 396.435 93.6348 396.435 93.262 394.782C87.5101 363.088 92.9658 323.959 111.5 296.993C117.859 288.308 125.82 279.122 137 277.056C142.596 276.625 147.025 277.562 152 280.056C152.66 280.716 153.32 281.376 154 282.056C154.11 281.193 154.219 280.331 154.332 279.442C154.769 276.079 155.22 272.718 155.684 269.357C155.895 267.818 156.104 266.278 156.309 264.738C158.25 250.34 160.6 236.156 168.864 223.876C170.177 222.131 170.177 222.131 170 220.056C138.405 209.831 102.586 204.255 70.0628 213.13C59.8238 215.713 48.1744 215.347 38.6722 210.661C17.366 197.859 7.88012 174.928 1.87138 151.825C-0.170476 142.989 0.725654 137.073 5.10966 129.063C8.30455 123.981 11.9713 119.497 16.0003 115.056C16.8704 114.091 17.7405 113.127 18.637 112.134C31.2409 98.8286 43.1234 96.1898 60.8128 95.3017C64.0203 95.1836 64.0203 95.1836 67.0003 94.0556C72.4603 82.9785 72.3544 70.9397 72.0628 58.9306C71.7022 42.357 71.9742 28.7602 83.8128 16.0947C104.726 -3.39924 155.068 -5.53858 176.992 11.6142ZM490.125 36.6181C485.945 41.0618 481.649 45.1142 477 49.0556C476.49 49.5171 475.979 49.9786 475.453 50.4541C456.963 66.8572 424.642 64.6527 401.438 65.9931C382.387 67.11 363.648 69.8179 344.875 73.1806C331.527 75.5653 318.43 77.0096 304.867 77.3405C284.423 77.8587 266.65 80.7948 251.16 95.5283C243.59 104.386 240.794 114.79 240.735 126.188C241.01 129.16 241.755 131.358 243 134.056C244.96 134.114 244.96 134.114 247 133.056C247.981 130.643 248.705 128.427 249.375 125.931C251.654 118.465 253.694 113.434 260.688 109.571C269.535 105.383 278.077 103.298 287.832 105.774C294.965 108.427 300.031 112.441 303.27 119.435C306.851 132.285 302.865 144.606 297 156.056C292.03 176.112 295.323 200.856 305.133 218.981C307.388 222.693 309.874 226.183 312.422 229.696C317.028 236.582 319.293 243.785 318 252.056C315.477 261.147 307.677 266.657 299.824 271.107C298.607 271.782 297.388 272.454 296.168 273.124C290.998 275.979 286.498 279.25 282 283.056C281.338 283.585 280.675 284.115 279.992 284.661C273.349 290.145 268.292 296.897 262.969 303.622C258.639 308.837 254.761 312.586 248 314.056C240.148 314.769 233.999 314.919 227 311.056C226.34 311.056 225.68 311.056 225 311.056C225 310.396 225 309.736 225 309.056C230.28 309.056 235.56 309.056 241 309.056C238.343 307.284 236.402 306.449 233.438 305.431C222.607 301.133 213.457 292.125 207.844 281.962C203.338 270.966 203.652 258.743 203.619 247.073C203.61 245.028 203.576 242.984 203.539 240.938C203.531 239.736 203.523 238.533 203.514 237.294C202.76 232.542 200.409 230.191 196.75 227.243C193.085 225.66 189.884 225.29 186 226.056C178.827 230.073 175.492 238.053 173.213 245.696C171.3 252.916 170.211 260.073 169.438 267.493C169.313 268.615 169.189 269.736 169.061 270.892C168.374 277.176 167.777 283.464 167.233 289.762C164.846 317.086 164.846 317.086 154.875 325.993C150.287 329.794 147.356 330.449 141.418 330.415C139 330.056 139 330.056 136.438 327.681C134.324 323.821 133.767 321.349 133.438 316.931C133.312 315.287 133.312 315.287 133.184 313.61C133.123 312.767 133.063 311.924 133 311.056C133.99 311.056 134.98 311.056 136 311.056C136.182 311.671 136.364 312.285 136.551 312.919C136.928 314.131 136.928 314.131 137.313 315.368C137.556 316.169 137.8 316.969 138.051 317.794C139.061 320.201 139.935 321.472 142 323.056C145.832 323.056 147.606 322.365 150.625 319.993C153.309 316.673 155.973 313.26 157 309.056C155.143 302.471 150.125 297.287 145.5 292.431C142.991 290.807 142.991 290.807 139.688 290.931C129.634 293.998 123.516 302.241 118.739 311.192C113.17 322.122 109.549 333.082 107 345.056C106.755 346.124 106.51 347.193 106.258 348.294C100.154 379.859 108.884 414.233 126 441.056C128.911 445.176 132.211 448.723 136 452.056C136.659 452.64 137.318 453.224 137.996 453.825C145.045 458.813 154.79 458.264 163 457.056C167.994 455.645 172.46 453.532 177 451.056C177.632 450.713 178.264 450.37 178.914 450.017C179.9 449.481 179.9 449.481 180.907 448.935C182.292 448.183 183.677 447.431 185.063 446.681C185.763 446.3 186.464 445.918 187.185 445.526C200.308 438.54 214.622 433.729 229 430.056C221.352 422.325 213.272 415.144 204.797 408.333C202.907 406.794 201.042 405.222 199.203 403.622C183.452 389.978 165.793 378.557 144.414 378.782C137.843 379.308 133.948 381.758 129.563 386.556C125.96 390.875 125.533 395.453 125.59 400.946C127.162 412.861 133.576 427.505 143.055 435.071C146.585 436.858 150.159 436.526 154 436.056C152.263 438.583 150.821 439.879 147.789 440.532C141.981 440.872 138.226 439.813 133.809 436.009C127.538 429.237 124.31 420.533 121 412.056C120.632 411.285 120.263 410.514 119.883 409.72C117.608 402.853 117.524 392.071 120.563 385.368C124.918 378.562 131.478 374.613 139 372.056C142.211 371.486 145.307 371.387 148.563 371.431C149.43 371.439 150.298 371.447 151.192 371.456C159.954 371.758 167.211 374.174 175 378.056C175.606 378.355 176.211 378.655 176.835 378.964C185.997 383.621 194.08 389.546 202 396.056C202.546 396.503 203.091 396.951 203.653 397.413C209.411 402.166 215.022 407.044 220.5 412.118C238.785 428.767 258.668 440.006 284.063 440.368C285.085 440.412 285.085 440.412 286.127 440.456C291.226 440.52 294.159 439.385 298 436.056C299.057 430.861 298.324 428.056 295.5 423.618C294.36 422.077 293.192 420.557 292 419.056C291.455 418.335 290.91 417.614 290.348 416.872C278.436 402.249 260.647 394.074 243.934 386.276C235.07 382.135 226.851 377.955 219 372.056C218.134 371.41 217.268 370.764 216.375 370.099C202.284 359.208 190.147 345.478 186.25 327.618C185.766 320.711 185.529 313.861 187 307.056C187.66 307.056 188.32 307.056 189 307.056C189.098 307.855 189.196 308.654 189.297 309.478C191.907 328.647 199.334 343.545 213 357.056C214.062 358.133 214.062 358.133 215.145 359.231C226.915 370.461 241.948 377.211 256.533 383.97C266.106 388.452 275.132 393.427 283.313 400.181C284.131 400.856 284.95 401.532 285.793 402.228C286.522 402.831 287.25 403.434 288 404.056C289.032 404.839 290.063 405.623 291.125 406.431C295.275 410.22 298.592 414.601 302 419.056C304.518 415.279 305.471 411.581 306.688 407.243C307.045 406.051 307.045 406.051 307.408 404.835C308.722 400.176 309.252 396.843 308 392.056C307.763 391.017 307.526 389.978 307.282 388.907C306.762 386.761 306.241 384.615 305.719 382.47C302.745 368.344 301.365 351.205 308 338.056C308.678 336.394 309.348 334.728 310 333.056C304.971 334.492 303.043 336.998 300 341.056C299.67 341.716 299.34 342.376 299 343.056C299.423 337.413 301.546 333.42 305 329.056C308.081 326.433 310.019 325.219 314 324.556C318.074 325.235 319.929 326.252 323 329.056C327.118 336.295 327.565 343.268 327.375 351.431C327.373 353.001 327.373 353.001 327.371 354.603C327.242 366.203 325.343 376.111 320.75 386.743C311.907 408.425 308.597 430.898 306 454.056C305.887 455.057 305.774 456.058 305.657 457.089C304.714 465.625 304.002 474.126 303.715 482.709C303.103 500.495 300.496 518.105 295 535.056C286.158 563.416 275.655 597.808 288.188 626.431C292.385 634.203 298.807 637.34 306.899 640.196C326.303 645.573 346.149 644.669 364.145 635.204C366.144 634.065 366.144 634.065 368 632.056C367.272 621.2 358.152 612.514 351 605.056C350.391 604.394 349.781 603.733 349.153 603.052C345.634 599.341 342.056 596.618 337.602 594.099C336 593.056 336 593.056 335 591.056C350.309 594.755 361.153 602.867 369.938 615.938C372.932 620.881 375.338 625.776 377.375 631.181C382.406 643.758 393.782 652.481 405.836 657.915C414.654 661.094 422.633 662.471 432 662.556C439.259 662.621 445.617 663.2 452.57 665.386C457.976 666.875 462.995 666.347 468.375 665.056C473.489 663.92 478.474 663.864 483.688 663.868C484.496 663.867 485.304 663.867 486.137 663.866C489.812 663.899 493.248 664.092 496.895 664.63C500.027 665.292 500.027 665.292 503 664.056C505.514 663.932 507.986 663.866 510.5 663.868C511.218 663.867 511.935 663.867 512.675 663.866C517.749 663.916 522.455 664.566 527.426 665.599C533.908 666.749 539.875 666.547 546.149 664.56C551.891 662.929 557.189 662.704 563.125 662.681C580.789 662.226 596.154 657.627 609.375 645.368C614.305 640.163 617.14 634.569 620 628.056C627.493 611.745 637.873 598.735 655 592.056C656.99 591.665 658.989 591.315 661 591.056C658.991 593.162 656.955 594.842 654.563 596.493C645.988 602.908 638.652 610.46 632.813 619.431C632.438 620.001 632.064 620.571 631.678 621.159C629.451 624.758 628.426 627.854 628 632.056C641.834 642.779 659.045 644.318 676 643.056C686.457 641.603 698.637 638.752 705.438 630.181C717.534 611.917 713.769 587.753 709.745 567.459C707.923 559.133 705.574 550.948 703.196 542.767C702.668 540.91 702.141 539.053 701.616 537.196C701.178 535.674 700.73 534.154 700.274 532.637C695.796 517.647 693.773 503.117 692.697 487.529C692.253 481.151 691.733 474.78 691.215 468.407C691.115 467.16 691.015 465.913 690.911 464.628C688.648 437.061 685.051 409.862 674.122 384.268C669.633 373.529 668.64 362.991 668.625 351.431C668.601 350.376 668.576 349.322 668.551 348.235C668.525 341.195 669.48 335.244 673 329.056C676.071 326.252 677.927 325.235 682 324.556C686.62 325.326 689.536 327.206 692.453 330.892C695.103 334.866 696.636 338.204 697 343.056C696.625 342.501 696.25 341.947 695.864 341.376C695.352 340.651 694.84 339.927 694.313 339.181C693.814 338.461 693.315 337.742 692.801 337.001C690.71 334.742 688.901 333.994 686 333.056C686.35 333.875 686.699 334.695 687.059 335.54C687.514 336.618 687.969 337.695 688.438 338.806C688.89 339.873 689.343 340.94 689.809 342.04C695.522 356.5 692.544 376.199 687.836 390.622C686.241 397.174 688.85 403.56 690.563 409.931C690.797 410.81 691.031 411.689 691.272 412.595C691.845 414.749 692.422 416.903 693 419.056C695.8 416.312 698.411 413.587 700.813 410.493C714.129 395.217 733.896 386.46 751.833 378.007C774.498 367.244 794.031 351.119 803 327.056C806.218 317.249 806.218 317.249 807 307.056C807.66 307.056 808.32 307.056 809 307.056C812.116 321.467 808.934 335.803 801.024 348.138C785.395 369.648 763.741 381.337 740.063 392.181C732.876 395.49 726.376 399.337 720 404.056C719.067 404.731 718.134 405.407 717.172 406.103C709.603 411.896 702.318 419.419 698 428.056C697.453 433.326 697.453 433.326 699.313 437.993C706.53 442.537 719.255 440.446 727.188 438.868C748.644 433.638 763.65 422.589 779.5 407.993C791.717 396.816 805.18 386.573 819.75 378.681C820.34 378.359 820.93 378.037 821.537 377.705C829.638 373.457 837.147 371.468 846.313 371.493C847.231 371.496 848.15 371.498 849.096 371.5C857.716 371.733 864.13 373.749 870.723 379.579C875.625 384.982 877.588 390.813 877.563 397.993C877.56 398.734 877.558 399.475 877.555 400.238C877.291 408.351 874.558 414.866 871 422.056C870.509 423.101 870.018 424.146 869.512 425.224C866.164 431.911 862.337 437.61 855 440.056C850.472 440.564 847.125 440.933 843.438 438.056C842.963 437.396 842.489 436.736 842 436.056C843.197 436.138 844.393 436.221 845.625 436.306C850.188 436.274 852.499 435.1 856 432.056C863.551 424.189 870.26 410.071 870.313 399.118C870.155 392.918 868.703 388.759 864.25 384.306C855.949 378.558 849.064 378.139 839 379.056C835.063 379.928 831.627 381.307 828 383.056C826.986 383.542 825.971 384.028 824.926 384.528C807.728 393.304 793.585 406.052 779.399 418.942C775.393 422.472 771.207 425.771 767 429.056C770.221 431.203 773.275 432.121 776.938 433.181C792.02 437.763 806.186 443.828 820.023 451.374C830.249 456.939 839.413 458.556 851 457.056C855.068 455.746 857.831 453.892 861 451.056C861.742 450.41 862.483 449.764 863.246 449.099C882.899 429.65 891.098 396.054 891.313 369.306C891.373 344.591 884.763 314.946 866.903 296.731C862.987 293.282 859.935 291.232 854.563 290.743C849.147 292.738 846.472 296.589 843 301.056C842.505 301.588 842.01 302.12 841.5 302.669C840.08 304.191 840.08 304.191 839 307.056C839.713 313.115 842.37 317.137 847 321.056C847.66 321.716 848.32 322.376 849 323.056C851.966 323.202 851.966 323.202 855 322.056C857.933 318.569 859.468 315.584 860 311.056C860.66 311.386 861.32 311.716 862 312.056C862.689 322.807 862.689 322.807 860.125 326.681C857.304 329.834 855.556 330.315 851.438 330.618C845.742 330.544 842.894 328.411 838.973 324.435C827.205 310.243 828.208 288.111 826.803 270.596C825.658 256.707 824.092 239.61 814 229.056C810.003 226.308 806.818 225.269 802 226.056C798.119 228.18 795.462 230.363 793 234.056C792.679 237.124 792.679 237.124 792.692 240.638C792.666 241.977 792.641 243.316 792.616 244.655C792.587 246.743 792.563 248.831 792.544 250.92C792.354 268.293 790.083 282.421 777.774 295.435C770.453 302.354 762.827 306.06 753 308.056C753 308.386 753 308.716 753 309.056C758.94 309.056 764.88 309.056 771 309.056C771 309.716 771 310.376 771 311.056C769.577 311.52 769.577 311.52 768.125 311.993C765.14 312.93 765.14 312.93 763 314.056C745.125 315.303 745.125 315.303 739 310.056C735.47 306.547 732.22 302.848 729 299.056C727.71 297.596 726.419 296.137 725.125 294.681C723.369 292.677 721.691 290.657 720.055 288.552C714.035 281.238 705.957 276.792 697.875 272.118C689.131 267.027 681.357 262.078 678 252.056C676.5 242.944 679.774 234.694 684.938 227.27C685.618 226.375 686.299 225.479 687 224.556C698.03 209.98 700.339 192.27 700.438 174.493C700.448 173.304 700.458 172.115 700.468 170.89C700.4 164.042 699.662 158.371 697 152.056C696.626 151.09 696.253 150.125 695.867 149.13C695.376 147.948 695.376 147.948 694.875 146.743C691.279 138.087 690.307 128.078 692.871 118.958C695.993 112.173 700.158 108.889 706.75 105.743C717.414 103.487 727.166 105.488 736.672 110.532C743.987 115.319 745.97 122.201 747.946 130.395C748.294 131.273 748.642 132.151 749 133.056C751.027 134.031 751.027 134.031 753 134.056C756.915 125.428 755.49 116.519 752.254 107.872C746.97 96.0021 738.373 88.3659 726.453 83.372C725.314 82.9376 724.174 82.5032 723 82.0556C721.985 81.6521 720.969 81.2487 719.922 80.833C711.283 77.9771 703.092 77.8088 694.063 77.6806C681.393 77.4938 669.142 76.2027 656.625 74.2431C655.759 74.1085 654.894 73.9738 654.002 73.8351C646.19 72.612 638.392 71.3364 630.621 69.8759C614.032 66.825 597.382 65.9723 580.557 65.094C531.432 62.5045 531.432 62.5045 515.391 45.5556C512.637 42.6757 509.711 40.0994 506.672 37.5283C505 36.0556 505 36.0556 502.875 33.6181C501.04 31.8076 501.04 31.8076 498.188 31.6728C494.033 32.1718 492.91 33.5549 490.125 36.6181ZM217 251.056C217 256.336 217 261.616 217 267.056C218.114 266.148 219.228 265.241 220.375 264.306C221.002 263.795 221.628 263.285 222.274 262.759C224.35 260.894 224.35 260.894 226 257.056C223.03 255.076 220.06 253.096 217 251.056ZM773.938 254.056C772.838 254.891 772.838 254.891 771.715 255.743C771.149 256.176 770.583 256.609 770 257.056C772.474 261.865 774.436 263.252 779 267.056C779 261.776 779 256.496 779 251.056C777.049 251.056 775.42 252.927 773.938 254.056Z" fill="#020202"/>
<path d="M486.75 285.306C487.364 285.766 487.978 286.227 488.61 286.702C491.629 288.88 493.674 289.995 497.39 290.684C502.383 289.814 505.823 287.522 510 284.743C519.833 278.35 526.913 274.822 539 276.056C555.928 279.764 569.265 291.073 579 305.056C594.719 329.74 602.101 357.21 604.425 386.223C605.953 405.189 609.607 423.295 614.388 441.691C615.366 445.473 616.307 449.264 617.25 453.056C617.564 454.314 617.879 455.572 618.203 456.868C618.466 457.92 618.729 458.972 619 460.056C619.196 460.74 619.392 461.424 619.593 462.13C622.899 477.8 617.311 496.437 609.265 509.973C607.595 512.417 605.847 514.744 604 517.056C603.529 517.688 603.059 518.321 602.574 518.973C595.649 527.81 584.072 534.958 573 537.056C562.724 538.03 555.907 536.519 547.699 530.317C529.145 513.814 522.5 481.383 518 458.056C517.34 458.056 516.68 458.056 516 458.056C515.925 458.969 515.925 458.969 515.848 459.9C512.987 494.188 512.987 494.188 505.875 502.556C502.392 505.342 499.608 505.464 495.25 505.388C493 505.056 493 505.056 490.187 503.118C480.854 490.052 481.269 473.482 480 458.056C479.34 458.056 478.68 458.056 478 458.056C477.82 458.86 477.82 458.86 477.636 459.682C464.728 516.87 464.728 516.87 446 532.056C438.628 536.679 431.641 537.854 423 537.056C407.257 533.229 395.59 523.405 387 510.056C375.376 490.309 373.856 469.934 379.431 448.176C380.491 444.224 381.684 440.321 382.972 436.438C385.7 427.455 387.614 418.387 389.062 409.118C389.318 407.503 389.318 407.503 389.579 405.855C391.036 396.378 391.958 386.888 392.795 377.341C395.614 345.86 406.871 309.095 432 288.056C450.498 274.67 467.522 271.77 486.75 285.306Z" fill="black"/>
<path d="M754.152 451.669C754.84 452.034 755.527 452.399 756.236 452.776C758.473 453.967 760.705 455.167 762.937 456.368C764.491 457.199 766.046 458.03 767.6 458.86C771.402 460.893 775.199 462.934 778.995 464.978C781.699 466.432 784.408 467.876 787.117 469.321C799.367 475.894 811.363 482.88 823.329 489.953C828.695 493.123 834.069 496.276 839.469 499.388C840.566 500.022 841.664 500.655 842.795 501.309C856.304 508.671 868.279 510.644 883.262 507.341C884.514 507.078 884.514 507.078 885.791 506.81C888.426 506.255 891.056 505.687 893.687 505.118C896.329 504.555 898.972 503.995 901.615 503.437C903.25 503.091 904.884 502.742 906.517 502.389C926.777 498.052 941.421 501.769 959 512.056C959 513.046 959 514.036 959 515.056C957.038 516.441 954.979 517.474 952.847 518.579C950.747 519.964 950.747 519.964 950.246 522.72C950.124 523.876 950.124 523.876 950 525.056C950.736 524.839 951.472 524.622 952.23 524.399C953.206 524.121 954.182 523.842 955.187 523.556C956.15 523.277 957.113 522.999 958.105 522.712C960.853 522.089 963.196 521.932 966 522.056C966.859 526.581 967.223 530.951 967.312 535.556C967.35 536.824 967.387 538.092 967.426 539.399C966.769 545.038 963.723 548.626 959.75 552.493C959.145 553.082 958.541 553.671 957.918 554.278C956.007 556.049 954.047 557.742 952.062 559.431C948.278 562.685 945.017 566.263 941.762 570.04C940.234 571.788 938.664 573.438 937 575.056C933.506 564.573 937.369 554.052 940.449 543.962C941.108 541.683 941.595 539.393 942 537.056C939.636 537.43 938.335 537.69 936.691 539.481C925.649 557.936 923.841 575.534 928.777 596.331C930.627 603.383 932.687 610.317 935.015 617.227C935.278 618.01 935.541 618.793 935.812 619.599C936.896 622.817 937.982 626.033 939.093 629.242C943.376 641.666 945.689 651.639 942.125 664.618C941.951 665.315 941.777 666.011 941.597 666.729C940.278 671.777 940.278 671.777 938 674.056C938.021 673.416 938.042 672.777 938.063 672.119C939.012 651.404 939.012 651.404 929.215 633.848C924.953 630.398 920.004 628.225 915 626.056C915 627.046 915 628.036 915 629.056C915.588 629.331 916.175 629.607 916.781 629.891C924.224 633.796 927.919 639.228 930.683 646.97C933.088 655.559 934.108 669.07 930.238 677.231C927.281 681.587 923.71 685.339 920 689.056C919.385 689.682 918.77 690.308 918.137 690.954C911.329 697.37 903.196 697.42 894.25 697.368C892.752 697.362 892.752 697.362 891.224 697.355C884.437 697.254 877.781 696.765 871.062 695.806C869.867 695.642 869.867 695.642 868.647 695.475C860.267 694.118 854.033 691.025 848.676 684.388C844.147 678.085 839.852 671.883 840.426 663.841C844.024 646.386 854.713 633.274 868 622.056C863.179 622.521 860.027 623.234 856.125 626.118C855.283 626.739 854.441 627.361 853.574 628.001C850.165 630.722 846.914 633.588 843.715 636.552C842 638.056 842 638.056 841 638.056C840.88 637.403 840.76 636.75 840.636 636.078C836.672 608.318 836.672 608.318 824 584.056C823.35 583.3 822.7 582.545 822.031 581.766C809.971 568.757 793.903 559.45 779 550.056C778.11 549.491 777.221 548.927 776.305 548.345C759.182 537.481 741.753 527.211 724.156 517.138C723.042 516.496 721.929 515.855 720.781 515.194C718.629 513.955 716.472 512.722 714.312 511.497C713.353 510.944 712.394 510.391 711.406 509.821C710.553 509.334 709.701 508.847 708.822 508.346C708.221 507.92 707.619 507.494 707 507.056C707 506.396 707 505.736 707 505.056C707.845 505.386 708.691 505.716 709.562 506.056C713.21 507.117 716.223 507.207 720 507.056C716.819 503.409 712.674 501.757 708.398 499.653C706 498.056 706 498.056 705.374 496.191C704.768 492.733 704.519 489.244 704.246 485.747C704.181 484.943 704.116 484.139 704.048 483.311C703.912 481.614 703.776 479.917 703.643 478.22C703.438 475.631 703.228 473.041 703.017 470.452C702.885 468.8 702.753 467.149 702.621 465.497C702.558 464.726 702.496 463.955 702.432 463.161C702.142 459.45 701.927 455.778 702 452.056C716.954 451.13 728.741 452.433 742.588 458.152C746.959 459.79 751.479 460.911 756 462.056C755.339 461.763 754.677 461.471 753.996 461.169C751.015 459.846 748.039 458.514 745.062 457.181C744.021 456.72 742.98 456.26 741.908 455.786C740.919 455.341 739.929 454.897 738.91 454.438C737.993 454.03 737.077 453.621 736.133 453.201C734 452.056 734 452.056 733 450.056C734.39 449.519 735.787 449.002 737.187 448.493C737.965 448.203 738.742 447.913 739.543 447.614C745.04 446.364 749.425 449.113 754.152 451.669Z" fill="#FDFDFD"/>
<path d="M258.195 448.177C260 449.056 260 449.056 263 451.056C251 457.056 251 457.056 239 463.056C239.849 462.723 240.698 462.39 241.573 462.046C259.49 455.132 274.539 450.497 294 452.056C293.596 458.125 293.187 464.194 292.773 470.263C292.633 472.328 292.494 474.393 292.357 476.458C292.16 479.425 291.957 482.391 291.754 485.357C291.693 486.282 291.633 487.207 291.571 488.16C291.481 489.451 291.481 489.451 291.389 490.768C291.338 491.525 291.287 492.283 291.234 493.063C291 495.056 291 495.056 290 498.056C287.664 499.566 285.376 500.925 282.938 502.244C282.274 502.612 281.611 502.98 280.928 503.359C279.29 504.266 277.645 505.162 276 506.056C276 506.386 276 506.716 276 507.056C280.824 507.249 284.496 506.814 289 505.056C287.706 508.937 286.43 509.201 282.875 511.103C281.245 511.988 281.245 511.988 279.582 512.891C278.999 513.202 278.416 513.514 277.815 513.835C274.719 515.492 271.641 517.183 268.562 518.873C267.93 519.219 267.298 519.565 266.647 519.922C205.382 550.134 205.382 550.134 163.68 599.604C163.456 600.393 163.231 601.181 163 601.994C162.754 602.832 162.507 603.671 162.253 604.536C159.136 615.547 157.069 626.81 155 638.056C153.738 637.123 152.478 636.188 151.219 635.251C150.517 634.731 149.815 634.21 149.092 633.674C147.144 632.167 145.317 630.591 143.5 628.931C138.822 624.864 134.273 622.056 128 622.056C129.178 623.073 129.178 623.073 130.379 624.111C142.179 634.484 154.524 649.095 155.625 665.556C155.439 674.333 149.281 683.314 143.125 689.244C131.709 697.981 113.645 697.209 99.875 697.369C99.0109 697.386 98.1469 697.404 97.2566 697.422C85.9278 697.41 79.8249 692.881 72.0469 685.103C64.3342 676.872 63.3736 669.248 63.7188 658.326C64.2827 647.753 66.9977 639.86 74.6523 632.458C78.5286 629.056 78.5286 629.056 81 629.056C81 628.066 81 627.076 81 626.056C71.1212 630.339 64.213 634.674 59.5625 644.619C56.4723 653.85 57.6852 664.452 58 674.056C55.2318 670.581 54.2367 667.87 53.3125 663.494C53.0611 662.358 52.8098 661.222 52.5508 660.052C51.0439 650.781 52.2011 642.837 55.2109 634.017C55.7032 632.508 55.7032 632.508 56.2055 630.968C57.2469 627.784 58.3098 624.607 59.375 621.431C60.4288 618.247 61.4779 615.061 62.5231 611.873C63.1716 609.9 63.8257 607.929 64.4864 605.96C67.7826 596.024 69.3443 587.227 69.3125 576.744C69.3367 575.167 69.3367 575.167 69.3613 573.558C69.3677 563.272 67.546 553.912 62.4375 544.931C61.5384 543.318 61.5384 543.318 60.6211 541.673C59.1146 539.018 59.1146 539.018 57 537.056C56.01 537.056 55.02 537.056 54 537.056C54.532 540.132 55.2816 543.079 56.1914 546.06C61.4206 563.308 61.4206 563.308 60 572.056C59.34 573.046 58.68 574.036 58 575.056C57.4315 574.343 56.863 573.63 56.2773 572.896C50.5486 565.79 44.7281 559.377 37.8125 553.431C34.2658 550.372 31.118 547.292 29 543.056C28.9018 540.641 28.8703 538.223 28.875 535.806C28.8724 534.502 28.8698 533.197 28.8672 531.853C28.9851 528.482 29.3535 525.36 30 522.056C35.5081 522.646 40.6488 523.623 46 525.056C45.2004 521.226 43.9978 519.638 41 517.056C39.3602 516.013 37.6991 515 36 514.056C39.1999 510.398 42.7567 508.452 47.125 506.494C47.793 506.191 48.461 505.888 49.1492 505.575C66.6708 497.776 81.519 500.38 99.7461 504.591C101.513 504.998 101.513 504.998 103.315 505.413C105.632 505.954 107.947 506.507 110.258 507.074C136.409 513.22 155.152 500.43 176.805 487.617C187.375 481.371 198.102 475.463 208.938 469.69C213.395 467.312 217.841 464.912 222.288 462.514C226.488 460.25 230.688 457.985 234.896 455.738C237.108 454.54 239.297 453.321 241.479 452.071C243.197 451.103 243.197 451.103 244.949 450.115C245.985 449.52 247.021 448.925 248.089 448.312C251.88 446.677 254.346 446.906 258.195 448.177Z" fill="#FDFDFD"/>
<path d="M168.383 19.6733C173.057 23.6697 175.656 29.1201 176.188 35.2007C176.309 39.8735 175.841 44.2136 175.001 48.8061C172.477 64.2918 173.341 79.1233 178.001 94.0561C178.345 95.3866 178.684 96.7186 179.001 98.0561C173.451 93.8333 169.482 89.0393 165.378 83.4636C163.13 80.2706 163.13 80.2706 160.001 78.0561C162.871 94.3815 172.403 106.481 182.471 119.132C183.823 120.832 185.157 122.545 186.485 124.263C204.823 147.511 232.298 157.802 258.501 169.806C259.961 170.48 259.961 170.48 261.452 171.166C266.169 173.334 270.898 175.447 275.684 177.458C276.572 177.845 277.46 178.231 278.376 178.629C280.032 179.35 281.7 180.046 283.379 180.713C285.54 181.671 287.241 182.476 289.001 184.056C289.993 186.9 290.004 188.986 290.001 192.056C289.253 191.851 288.505 191.646 287.735 191.435C286.75 191.166 285.765 190.896 284.751 190.619C283.776 190.352 282.801 190.085 281.797 189.81C279.537 189.201 277.274 188.614 275.001 188.056C277.897 192.185 280.291 193.823 284.876 195.806C291.123 199.324 292.692 203.165 294.552 209.718C297.569 219.919 303.368 228.793 308.789 237.874C311.161 242.147 311.622 246.257 311.001 251.056C308.494 256.506 303.65 260.935 298.001 263.056C292.959 262.135 289.897 259.504 286.251 256.119C273.195 244.694 257.864 237.413 242.399 229.841C232.125 224.798 222.217 219.416 212.501 213.369C174.808 189.563 174.808 189.563 132.001 179.056C130.963 178.992 129.925 178.927 128.856 178.861C118.746 178.52 109.821 180.705 100.334 183.975C61.2147 197.406 61.2147 197.406 45.5083 192.236C31.4736 184.662 24.738 163.289 20.0005 149.056C18.6422 143.106 17.9712 138.294 21.188 132.869C25.3122 126.89 30.5603 124.061 37.0005 121.056C35.5155 120.066 35.5155 120.066 34.0005 119.056C34.0005 118.066 34.0005 117.076 34.0005 116.056C40.9081 110.211 49.6724 109.862 58.3755 109.119C75.0771 107.494 87.8889 103.24 99.0005 90.0561C101.3 86.8466 103.236 83.5858 105.001 80.0561C105.328 79.4013 105.655 78.7464 105.993 78.0718C108.494 72.3068 108.7 66.2693 109.001 60.0561C108.66 60.8064 108.32 61.5566 107.969 62.3296C102.857 73.1261 96.9251 82.4805 86.0005 88.0561C85.3405 88.0561 84.6805 88.0561 84.0005 88.0561C84.1333 87.4039 84.2661 86.7516 84.4029 86.0796C84.5795 85.2056 84.7561 84.3316 84.938 83.4311C85.199 82.1434 85.199 82.1434 85.4654 80.8296C85.642 79.9143 85.8186 78.9991 86.0005 78.0561C86.2591 76.7587 86.2591 76.7587 86.523 75.435C87.1018 71.3394 87.1547 67.3505 87.1763 63.2202C87.1995 61.4988 87.2236 59.7775 87.2486 58.0561C87.2836 55.3682 87.313 52.6808 87.3264 49.9927C87.342 47.3805 87.3823 44.7695 87.4263 42.1577C87.4244 41.3647 87.4225 40.5718 87.4205 39.7548C87.5616 33.2442 89.3194 27.7372 94.0005 23.0561C98.5878 22.8324 101.295 24.739 104.751 27.4936C109.422 31.8196 110.604 35.8139 111.001 42.0561C112.283 36.0422 113.194 31.2375 110.188 25.7436C108.149 23.1446 108.149 23.1446 106.251 21.3061C105.838 20.8936 105.426 20.4811 105.001 20.0561C105.001 19.3961 105.001 18.7361 105.001 18.0561C107.541 17.4073 110.083 16.762 112.626 16.1186C113.338 15.9362 114.051 15.7538 114.786 15.5659C131.363 11.3835 153.644 9.45954 168.383 19.6733Z" fill="#FDFDFD"/>
<path d="M855.25 12.6804C856.825 12.6796 856.825 12.6796 858.431 12.6787C868.314 12.8156 877.474 14.5532 887 17.0554C888.333 17.3904 889.667 17.7242 891 18.0554C889.471 21.4971 887.373 24.1469 885 27.0554C882.749 31.5579 883.957 37.309 885 42.0554C885.04 41.4264 885.08 40.7973 885.122 40.1492C885.966 33.2281 888.257 29.8966 893.668 25.5515C896.439 23.7738 898.699 23.0554 902 23.0554C902.818 24.1561 903.629 25.2611 904.438 26.3679C904.89 26.9828 905.343 27.5977 905.809 28.2312C908.513 32.3708 908.168 36.6686 908.211 41.4226C908.239 43.1309 908.268 44.8393 908.297 46.5476C908.338 49.224 908.375 51.9003 908.402 54.5769C908.506 64.246 908.784 73.2542 911.366 82.6262C912 85.0554 912 85.0554 912 88.0554C902.133 85.8353 897.085 78.1377 891.97 70.1189C889.959 66.8645 888.292 63.6571 887 60.0554C887.534 75.5949 893.219 87.2374 904.469 97.9812C916.401 107.758 931.647 109.137 946.479 110.234C952.648 110.759 956.818 112.601 962 116.055C962 117.045 962 118.035 962 119.055C960.515 120.045 960.515 120.045 959 121.055C959.736 121.419 960.473 121.782 961.231 122.157C967.059 125.16 971.317 127.589 975 133.055C975.434 133.695 975.867 134.334 976.313 134.993C980.448 147.399 970.409 163.95 965.129 174.846C960.93 183.068 956.015 190.029 947 193.055C937.351 193.965 928.149 192.496 918.75 190.43C917.49 190.163 916.229 189.895 914.931 189.619C906.281 187.72 897.999 185.271 889.664 182.313C868.475 175.039 847.866 180.678 828 189.055C827.028 189.464 827.028 189.464 826.036 189.882C810.55 196.521 796.172 205.418 781.84 214.216C773.427 219.341 764.942 224.154 756.11 228.52C755.322 228.91 754.534 229.3 753.722 229.701C749.797 231.636 745.862 233.55 741.913 235.437C729.098 241.63 718.14 249.269 707.184 258.364C704.872 260.155 702.588 261.689 700 263.055C694.792 262.07 688.881 257.63 685.762 253.36C684.12 248.392 684.387 243.899 686.504 239.196C687.174 237.89 687.86 236.594 688.563 235.305C689.105 234.262 689.105 234.262 689.658 233.198C691.849 229.03 694.223 225.005 696.688 220.993C699.045 217.145 700.469 213.654 701.604 209.285C703.174 203.326 704.642 199.65 709.84 196.361C711.545 195.412 713.292 194.538 715.039 193.669C717.971 192.072 719.277 190.861 721 188.055C715.887 189.124 710.928 190.286 706 192.055C706.084 189.117 706.165 186.831 707 184.055C709.683 181.885 709.683 181.885 713.297 180.231C713.95 179.923 714.602 179.614 715.275 179.296C717.421 178.29 719.584 177.329 721.75 176.368C723.248 175.676 724.745 174.981 726.24 174.284C730.808 172.166 735.402 170.107 740 168.055C741.388 167.433 742.776 166.809 744.163 166.186C749.193 163.927 754.227 161.676 759.267 159.439C780.578 149.949 798.638 138.802 813 120.055C813.544 119.354 814.088 118.653 814.648 117.93C828.816 99.7062 828.816 99.7062 836 78.0554C832.676 81.1717 829.862 84.4556 827.063 88.0554C823.99 91.9618 820.969 95.0792 817 98.0554C817.194 97.4496 817.387 96.8437 817.586 96.2195C817.847 95.3816 818.107 94.5437 818.375 93.6804C818.631 92.8683 818.886 92.0562 819.149 91.2195C821.372 82.9589 822.33 75.2388 822.25 66.6804C822.247 65.6689 822.243 64.6574 822.239 63.6152C822.167 57.4489 821.673 51.6042 820.461 45.5476C818.98 37.5382 819.756 31.0689 824 24.0554C831.768 14.3463 843.553 12.6646 855.25 12.6804Z" fill="#FDFDFD"/>
<path d="M623 640.056C627.781 641.44 631.97 643.506 636.34 645.837C642.168 648.507 648.134 649.477 654.438 650.181C655.169 650.267 655.901 650.353 656.655 650.442C658.436 650.652 660.218 650.855 662 651.056C664.479 679.934 664.241 708.815 664.138 737.777C664.117 744.255 664.108 750.732 664.098 757.21C664.077 769.825 664.043 782.44 664 795.056C666.42 783.037 668.646 771.126 669.735 758.903C669.826 757.912 669.826 757.912 669.918 756.901C671.335 741.168 671.388 725.461 671.265 709.677C671.245 706.745 671.241 703.814 671.238 700.883C671.215 684.254 670.905 667.663 670 651.056C670.87 650.935 670.87 650.935 671.758 650.811C684.858 649.113 684.858 649.113 697.285 644.825C699 644.056 699 644.056 701 644.056C701.404 671.102 699.467 697.432 696.063 724.243C695.936 725.248 695.809 726.252 695.678 727.287C694.311 738.001 692.815 748.663 690.864 759.287C689.968 764.176 689.141 769.075 688.313 773.976C687.476 778.923 686.626 783.867 685.776 788.812C685.342 791.351 684.912 793.89 684.485 796.429C677.196 839.768 677.196 839.768 667 851.056C662.328 849.204 661.266 846.39 659.223 841.997C650.576 821.194 648.457 797.6 645.864 775.41C642.746 748.763 639.186 722.385 631 696.743C625.416 679.015 620.841 659.713 622 641.056C622.33 640.726 622.66 640.396 623 640.056Z" fill="#FBFBFB"/>
<path d="M371 640.056C371.99 640.386 372.98 640.716 374 641.056C375.38 663.177 368.437 684.553 362.276 705.52C355.527 728.759 352.845 752.705 350.188 776.68C348.553 791.346 346.369 805.672 343 820.056C342.657 821.6 342.314 823.144 341.972 824.688C337.184 845.66 337.184 845.66 331 851.056C326.74 849.534 325.286 846.839 323 843.056C316.081 827.297 313.864 809.903 311 793.056C310.854 792.202 310.709 791.348 310.559 790.468C308.741 779.775 306.955 769.078 305.204 758.374C304.548 754.368 303.885 750.364 303.199 746.364C301.525 736.576 300.1 726.793 298.937 716.931C298.853 716.222 298.769 715.514 298.683 714.784C298.104 709.877 297.546 704.967 297 700.056C296.877 698.959 296.754 697.862 296.627 696.732C294.726 679.174 294.781 661.692 295 644.056C296.471 644.562 296.471 644.562 297.972 645.079C307.308 648.197 316.193 650.112 326 651.056C326.105 657.252 326.006 663.373 325.512 669.552C324.676 681.648 324.776 693.784 324.76 705.904C324.755 708.687 324.741 711.469 324.719 714.252C324.097 755.224 324.097 755.224 332 795.056C331.995 793.738 331.991 792.421 331.986 791.064C331.945 778.492 331.916 765.92 331.896 753.348C331.886 746.888 331.872 740.429 331.849 733.969C331.656 678.361 331.656 678.361 334 651.056C334.604 650.98 335.207 650.903 335.829 650.825C353.038 648.654 353.038 648.654 368.629 641.337C369.411 640.914 370.194 640.491 371 640.056Z" fill="#FBFBFB"/>
<path d="M564 180.056C564.66 180.056 565.32 180.056 566 180.056C566.094 180.706 566.188 181.356 566.284 182.026C572.864 225.787 591.611 267.969 616.059 304.618C632.077 328.633 639.938 354.787 643.134 383.303C645.344 402.889 647.619 422.283 653.504 441.157C655.343 447.086 656.995 453.067 658.649 459.049C659.174 460.944 659.704 462.837 660.233 464.73C663.372 476.073 665.361 486.252 665.375 498.056C665.412 499.722 665.412 499.722 665.449 501.423C665.48 510.038 664.463 517.412 658.357 523.837C657.579 524.569 656.801 525.301 656 526.056C656.016 525.115 656.031 524.174 656.048 523.204C656.662 498.938 656.662 498.938 653 475.056C652.71 473.795 652.42 472.534 652.121 471.235C650.331 463.587 648.165 456.043 646 448.493C645.741 447.589 645.483 446.684 645.216 445.753C644.12 441.928 643.016 438.108 641.867 434.298C637.374 418.768 635.408 402.498 633.937 386.431C633.147 377.829 631.882 369.492 630 361.056C629.842 360.326 629.684 359.595 629.521 358.843C624.756 337.331 614.89 319.428 603 301.056C590.393 281.538 580.402 260.69 572 239.056C571.534 237.873 571.534 237.873 571.059 236.667C564.561 220.011 559.205 201.095 562 183.056C562.66 182.066 563.32 181.076 564 180.056Z" fill="#090909"/>
<path d="M430 180.056C433 181.056 433 181.056 434 183.056C436.638 226.257 413.551 271.755 389.655 306.584C369.709 335.847 364.21 366.123 360.223 400.767C358.895 412.187 357.075 422.975 354 434.056C353.531 435.982 353.061 437.908 352.599 439.835C350.949 446.696 349.009 453.436 346.938 460.181C342.909 473.344 339.801 486.439 339.903 500.274C339.905 501.389 339.905 501.389 339.907 502.527C339.913 504.87 339.925 507.213 339.938 509.556C339.943 511.157 339.947 512.759 339.952 514.36C339.962 518.259 339.98 522.157 340 526.056C333.605 520.048 330.977 514.031 330.399 505.271C330.36 503.178 330.354 501.086 330.375 498.993C330.382 497.866 330.389 496.739 330.396 495.578C330.707 483.249 333.594 471.845 337 460.056C337.521 458.2 338.04 456.345 338.559 454.489C339.543 451.001 340.542 447.517 341.555 444.036C346.59 426.711 349.942 409.882 351.895 391.935C355.91 355.226 365.731 326.053 385.922 295.11C398.732 275.019 408.659 253.324 417 231.056C417.577 229.531 417.577 229.531 418.164 227.975C423.997 212.306 427.389 196.551 430 180.056Z" fill="#090909"/>
<path d="M219.617 223.317C226.718 228.059 233.106 233.473 239.531 239.067C254.239 251.818 270.168 260.454 288 268.056C286.5 270.118 286.5 270.118 284 272.056C278.024 272.006 273.491 270.288 268.25 267.556C267.551 267.197 266.852 266.838 266.132 266.468C260.236 263.351 255.017 259.636 249.806 255.476C245.965 252.454 242.036 249.548 238.125 246.618C236.833 245.643 236.833 245.643 235.514 244.649C231.67 241.758 227.82 238.898 223.848 236.184C213.923 229.404 213.923 229.404 210.375 224.306C206.527 218.875 201.372 215.843 195 214.056C193.131 214.052 191.262 214.09 189.395 214.157C182.433 214.296 176.835 212.421 170.375 209.993C169.243 209.586 168.112 209.179 166.946 208.76C161.093 206.639 155.295 204.398 149.522 202.07C134.874 196.174 120.675 194.545 105 194.056C129.183 167.802 197.293 209.16 219.617 223.317Z" fill="#F6F6F6"/>
<path d="M890 192.056C890.33 192.716 890.66 193.376 891 194.056C890.448 194.065 889.895 194.075 889.326 194.084C868.43 194.526 851.249 199.87 831.953 207.4C827.482 209.123 823.005 210.819 818.484 212.408C817.569 212.731 816.653 213.054 815.71 213.387C812.679 214.135 810.107 214.118 807 213.931C799.924 213.718 794.699 215.916 789 220.056C786.693 222.646 784.659 225.364 782.578 228.138C778.483 232.774 773.467 235.799 768.324 239.165C763.816 242.125 759.566 245.371 755.312 248.681C726.916 270.605 726.916 270.605 714.438 272.431C711.209 271.934 710.183 270.391 708 268.056C708.913 267.654 708.913 267.654 709.844 267.244C728.005 259.124 743.494 250.119 758.547 237.037C769.287 227.73 780.407 220.613 793 214.056C793.674 213.703 794.349 213.35 795.043 212.986C799.654 210.587 804.313 208.302 809 206.056C809.728 205.702 810.456 205.348 811.207 204.983C836.209 192.9 862.837 180.907 890 192.056Z" fill="#F6F6F6"/>
<path d="M605 658.056C605.99 658.386 606.98 658.716 608 659.056C608.084 660.638 608.14 662.222 608.187 663.806C608.239 665.128 608.239 665.128 608.293 666.478C607.506 676.09 604.209 684.564 599.937 693.118C599.46 694.095 598.983 695.073 598.491 696.079C593.854 705.506 588.976 714.805 584 724.056C583.34 724.056 582.68 724.056 582 724.056C577.651 716.373 573.644 708.718 570.562 700.431C570.316 699.769 570.07 699.107 569.816 698.425C567.373 691.641 566.864 685.878 566.937 678.743C566.942 677.907 566.946 677.071 566.951 676.21C566.963 674.158 566.981 672.107 567 670.056C572.94 669.561 572.94 669.561 579 669.056C579.037 670.663 579.075 672.271 579.113 673.927C579.474 686.566 580.296 698.693 583 711.056C584.728 709.327 584.191 706.972 584.246 704.614C584.276 703.48 584.307 702.346 584.339 701.177C584.371 699.962 584.404 698.746 584.437 697.493C584.578 693.802 584.729 690.112 584.88 686.421C584.981 683.583 585.026 680.754 585.051 677.915C585.178 674.037 585.484 670.682 587 667.056C591.046 663.947 595.187 662.594 600 661.056C600.901 660.495 601.802 659.934 602.73 659.356C603.479 658.927 604.228 658.498 605 658.056Z" fill="#F8F8F8"/>
<path d="M388 658.056C392.028 658.782 395.465 660.695 399.063 662.556C403.917 665.063 403.917 665.063 409 667.056C410.792 678.418 411.36 689.683 411.658 701.176C411.706 702.878 411.706 702.878 411.754 704.614C411.778 705.638 411.802 706.662 411.826 707.718C411.741 710.014 411.741 710.014 413 711.056C416.053 697.098 416.668 683.313 417 669.056C420.96 669.386 424.92 669.716 429 670.056C429.448 690.335 424.148 706.522 414 724.056C413.34 724.056 412.68 724.056 412 724.056C387.199 676.727 387.199 676.727 388 658.056Z" fill="#F8F8F8"/>
<path d="M523.219 553.294C541.559 558.657 559.893 561.61 579 562.056C578.67 563.046 578.34 564.036 578 565.056C559.391 574.028 531.844 566.124 513.328 560.107C501.879 556.492 491.411 557.303 480.125 560.806C462.187 566.361 435.987 573.728 418 565.056C417.67 564.066 417.34 563.076 417 562.056C418.105 562.03 419.209 562.004 420.348 561.978C442.509 561.259 463.072 556.278 484.227 549.84C497.915 545.968 510.005 549.402 523.219 553.294Z" fill="#0A0A0A"/>
<path d="M441 671.056C443.64 671.386 446.28 671.716 449 672.056C449.037 673.265 449.075 674.474 449.113 675.72C449.495 685.833 450.45 695.225 453 705.056C453.33 705.056 453.66 705.056 454 705.056C454.083 703.967 454.083 703.967 454.168 702.856C454.421 699.547 454.679 696.239 454.937 692.931C455.024 691.789 455.111 690.646 455.201 689.47C455.288 688.361 455.375 687.253 455.465 686.11C455.583 684.586 455.583 684.586 455.703 683.032C456.005 680.009 456.468 677.046 457 674.056C459.64 674.056 462.28 674.056 465 674.056C468.083 686.842 466.593 700.236 461 712.056C458.828 714.974 458.828 714.974 457 717.056C454.597 716.671 453.298 716.358 451.568 714.6C450.157 712.572 448.751 710.545 447.375 708.493C446.885 707.802 446.395 707.11 445.891 706.397C440.518 698.522 439.674 691.567 439.812 682.181C439.813 681.327 439.814 680.474 439.814 679.595C439.859 673.338 439.859 673.338 441 671.056Z" fill="#F5F5F5"/>
<path d="M555 671.056C558.269 677.593 556.789 690.331 555.188 697.306C552.548 704.65 546.768 710.985 542 717.056C538.951 716.471 538.155 716.229 536 713.806C529.152 702.283 527.841 687 531 674.056C533.64 674.056 536.28 674.056 539 674.056C540.671 685.05 541.517 695.95 542 707.056C546.682 695.968 546.534 683.906 547 672.056C549.893 671.229 551.888 671.056 555 671.056Z" fill="#F5F5F5"/>
<path d="M311 96.0557C315.837 96.9976 318.745 99.4358 322 103.056C327.082 111.144 329.392 119.372 329.375 128.868C329.376 130.092 329.376 130.092 329.377 131.341C329.219 140.292 328.053 150.95 324 159.056C323.601 168.132 323.201 177.329 326 186.056C326.391 187.517 326.391 187.517 326.789 189.009C330.728 202.419 337.591 214.694 344 227.056C341 227.056 341 227.056 339.422 225.728C331.705 216.856 326.89 207.314 322.688 196.431C322.35 195.56 322.012 194.69 321.664 193.793C315.537 177.355 315.941 162.892 320.809 146.271C324.395 133.927 324.615 120.87 318.57 109.325C315.865 104.569 315.865 104.569 312.312 100.458C311 99.0557 311 99.0557 311 96.0557Z" fill="#111111"/>
<path d="M685 96.0557C684.394 99.3789 683.235 101.316 681.125 103.931C673.722 113.529 671.465 124.087 673 136.056C674.11 141.752 675.436 147.398 676.865 153.022C679.75 164.776 679.95 175.105 676.312 186.681C675.901 188.043 675.901 188.043 675.482 189.432C673.481 195.902 671.229 202.087 668 208.056C667.465 209.059 666.93 210.061 666.379 211.095C662.866 217.4 659.021 222.867 654 228.056C653.34 227.726 652.68 227.396 652 227.056C652.362 226.357 652.725 225.658 653.098 224.939C661.72 208.51 661.72 208.51 668.75 191.368C669.091 190.393 669.091 190.393 669.438 189.398C673.918 175.759 673.172 160.837 668.973 147.29C665.25 134.91 665.196 119.735 671 108.056C674.13 102.859 678.432 96.0557 685 96.0557Z" fill="#101010"/>
<path d="M198 236.056C197.527 238.738 196.962 241.155 195.984 243.704C192.006 257.25 195.55 272.405 201.562 284.743C205.271 291.182 210.578 296.068 216 301.056C215.67 301.716 215.34 302.376 215 303.056C207.461 302.735 202.164 299.447 197.047 293.962C187.383 281.357 184.534 264.589 186 249.056C187.513 243.34 191.579 236.056 198 236.056Z" fill="#0B0B0B"/>
<path d="M798 236.056C802.889 237.453 805.054 239.996 808 244.056C813.004 253.907 810.241 267.595 807.203 277.673C803.674 287.597 799.328 295.596 790.07 301.087C787.015 302.516 784.353 302.846 781 303.056C781 300.056 781 300.056 782.977 297.962C783.851 297.168 784.725 296.374 785.625 295.556C795.959 285.456 801.014 272.415 801.415 257.999C801.422 257.214 801.43 256.428 801.438 255.618C801.453 254.5 801.453 254.5 801.468 253.36C801.386 248.201 800.14 244.726 798 240.056C798 238.736 798 237.416 798 236.056Z" fill="#0B0B0B"/>
<path d="M476 672.056C477.32 672.056 478.64 672.056 480 672.056C480.085 672.832 480.171 673.608 480.259 674.407C480.651 677.957 481.044 681.506 481.437 685.056C481.572 686.276 481.707 687.497 481.845 688.755C482.522 694.861 483.215 700.962 484 707.056C484.66 707.056 485.32 707.056 486 707.056C485.989 706.422 485.979 705.788 485.968 705.135C485.634 681.876 485.634 681.876 488 672.056C489.32 672.056 490.64 672.056 492 672.056C496.928 686.839 492.102 705.383 486 719.056C485.34 719.056 484.68 719.056 484 719.056C483.031 716.914 482.075 714.768 481.125 712.618C480.324 710.826 480.324 710.826 479.508 708.997C476.095 700.539 475.733 692.548 475.875 683.493C475.884 682.389 475.893 681.285 475.902 680.147C475.925 677.45 475.958 674.753 476 672.056Z" fill="#F3F3F3"/>
<path d="M504 672.056C505.32 672.056 506.64 672.056 508 672.056C510.776 683.58 510.195 695.287 510 707.056C510.66 707.056 511.32 707.056 512 707.056C512.086 706.209 512.172 705.362 512.26 704.489C512.581 701.324 512.904 698.16 513.227 694.995C513.367 693.63 513.505 692.264 513.643 690.898C513.843 688.927 514.045 686.956 514.247 684.985C514.367 683.802 514.487 682.618 514.612 681.399C514.977 678.261 515.452 675.166 516 672.056C517.32 672.056 518.64 672.056 520 672.056C520.318 689.426 519.454 703.21 512 719.056C511.34 719.056 510.68 719.056 510 719.056C503.928 705.401 499.073 686.839 504 672.056Z" fill="#F5F5F5"/>
<path d="M768 469.056C772.374 469.596 775.555 470.633 779.387 472.794C780.398 473.361 781.409 473.927 782.451 474.511C783.519 475.124 784.587 475.737 785.688 476.368C787.353 477.314 787.353 477.314 789.053 478.28C840.569 507.763 840.569 507.763 844 518.056C839.326 516.657 835.183 514.711 830.957 512.31C830.273 511.922 829.588 511.534 828.883 511.135C820.154 506.103 811.809 500.475 803.453 494.853C800.678 492.987 797.897 491.129 795.115 489.272C769.566 472.188 769.566 472.188 768 469.056Z" fill="#0A0A0A"/>
<path d="M228 470.055C219.441 477.455 210.003 483.519 200.552 489.7C197.832 491.48 195.118 493.268 192.404 495.057C163.973 513.753 163.973 513.753 154 518.055C153.34 517.725 152.68 517.395 152 517.055C156.039 511.895 160.28 508.044 165.688 504.368C166.425 503.858 167.163 503.348 167.923 502.823C182.366 492.927 197.313 483.912 212.61 475.403C214.246 474.481 215.867 473.532 217.476 472.563C218.265 472.095 219.054 471.627 219.867 471.145C220.917 470.507 220.917 470.507 221.988 469.856C224.42 468.888 225.579 469.179 228 470.055Z" fill="#0A0A0A"/>
<path d="M341 272.056C341.66 272.056 342.32 272.056 343 272.056C342.929 275.022 342.702 277.251 340.702 279.544C336.067 283.535 331.34 286.011 325.75 288.431C313.834 293.85 301.204 301.186 294.375 312.825C293.921 313.561 293.468 314.297 293 315.056C292.34 315.056 291.68 315.056 291 315.056C291.376 307.911 295.181 301.89 300.129 296.915C309.827 288.798 321.399 283.167 332.758 277.757C336.013 276.182 338.551 274.717 341 272.056Z" fill="#101010"/>
<path d="M653 272.056C655.569 273.293 657.797 274.587 660.188 276.181C664.377 278.856 668.795 280.827 673.312 282.868C686.39 288.844 699.174 297.365 705 311.056C705 312.376 705 313.696 705 315.056C704.34 315.056 703.68 315.056 703 315.056C701.773 313.587 701.773 313.587 700.375 311.556C691.298 299.192 679.226 292.308 665.557 285.933C661.109 283.81 657.576 281.475 654 278.056C653.125 274.743 653.125 274.743 653 272.056Z" fill="#0F0F0F"/>
<path d="M45 122.056C52.6856 123.93 57.163 128.355 61.25 134.931C65.8405 142.745 67.4645 149.27 67.25 158.306C67.2448 159.19 67.2397 160.074 67.2344 160.985C67.1876 164.854 67.0599 168.315 66 172.056C64.515 171.561 64.515 171.561 63 171.056C62.8904 170.184 62.7809 169.313 62.668 168.415C60.5639 152.609 57.8879 133.808 45 123.056C45 122.726 45 122.396 45 122.056Z" fill="#0C0C0C"/>
<path d="M641 558.056C641.66 558.056 642.32 558.056 643 558.056C643.81 565.512 640.959 571.278 636.391 577.11C630.397 583.516 622.207 587.782 613.34 588.173C610.889 588.18 608.449 588.144 606 588.056C606 587.066 606 586.076 606 585.056C606.883 584.788 607.766 584.519 608.676 584.243C622.853 579.614 631.794 572.459 640 560.056C640.33 559.396 640.66 558.736 641 558.056Z" fill="#0C0C0C"/>
<path d="M949 122.056C949.66 122.386 950.32 122.716 951 123.056C950.565 123.387 950.129 123.718 949.68 124.06C937.136 134.893 934.937 155.652 933 171.056C931.515 171.551 931.515 171.551 930 172.056C928.156 160.617 927.06 148.428 933 138.056C933.448 137.267 933.895 136.478 934.356 135.665C937.969 129.814 942.306 124.287 949 122.056Z" fill="#0A0A0A"/>
<path d="M353 558.056C353.66 558.056 354.32 558.056 355 558.056C356.397 560.031 357.703 562.016 359 564.056C365.981 574.504 374.253 579.769 386 584.056C387.669 584.718 389.336 585.383 391 586.056C388.658 588.397 388.18 588.351 385 588.368C374.874 588.092 367.407 584.389 360.277 577.356C355.846 572.511 353.132 567.825 352.812 561.118C352.874 560.108 352.936 559.097 353 558.056Z" fill="#0A0A0A"/>
<path d="M153 47.0557C153.66 47.0557 154.32 47.0557 155 47.0557C156.777 50.1172 157.241 52.296 157.196 55.8213C157.189 56.7107 157.183 57.6002 157.176 58.5166C157.159 59.437 157.143 60.3574 157.125 61.3057C157.116 62.2415 157.107 63.1774 157.098 64.1416C157.075 66.4466 157.042 68.751 157 71.0557C156.34 71.0557 155.68 71.0557 155 71.0557C152.028 66.0807 151.586 62.4161 151.75 56.8057C151.756 56.0864 151.761 55.3671 151.766 54.626C151.845 49.3668 151.845 49.3668 153 47.0557Z" fill="#060606"/>
<path d="M841 47.0557C841.66 47.0557 842.32 47.0557 843 47.0557C845.517 52.0894 844.753 61.2024 843.329 66.6025C842.5 68.4932 842.5 68.4932 841 71.0557C840.34 71.0557 839.68 71.0557 839 71.0557C838.942 67.8057 838.907 64.5559 838.875 61.3057C838.859 60.3853 838.842 59.4649 838.825 58.5166C838.818 57.6271 838.812 56.7377 838.805 55.8213C838.795 55.0043 838.784 54.1874 838.773 53.3457C839.022 50.8368 839.743 49.2217 841 47.0557Z" fill="#050505"/>
<path d="M748 172.056C747.678 175.057 747.018 176.038 744.812 178.181C739.941 181.428 735.817 182.333 730 182.056C734.387 176.024 740.025 171.059 748 172.056Z" fill="#080808"/>
<path d="M248 172.056C254.018 172.432 258.286 174.254 263 178.056C264.041 179.357 265.053 180.684 266 182.056C258.142 181.745 253.657 180.713 248 175.056C248 174.066 248 173.076 248 172.056Z" fill="#070707"/>
<path d="M308 333.056C308.66 333.386 309.32 333.716 310 334.056C308.625 336.056 308.625 336.056 307 338.056C306.34 338.056 305.68 338.056 305 338.056C303.638 339.017 302.301 340.015 301 341.056C302.491 337.26 304.757 335.445 308 333.056Z" fill="#D9D9D9"/>
<path d="M485 695.056C485.33 695.056 485.66 695.056 486 695.056C486 699.016 486 702.976 486 707.056C485.34 707.056 484.68 707.056 484 707.056C483.67 705.406 483.34 703.756 483 702.056C483.66 702.056 484.32 702.056 485 702.056C485 699.746 485 697.436 485 695.056Z" fill="#3B3B3B"/>
</svg>
