<?xml version="1.0" encoding="utf-8"?>
<!-- Generator: Adobe Illustrator 24.0.1, SVG Export Plug-In . SVG Version: 6.00 Build 0)  -->
<svg version="1.1" id="Layer_1" xmlns="http://www.w3.org/2000/svg" xmlns:xlink="http://www.w3.org/1999/xlink" x="0px" y="0px"
	 viewBox="0 0 2000 2000" style="enable-background:new 0 0 2000 2000;" xml:space="preserve">
<style type="text/css">
	.st0{fill-rule:evenodd;clip-rule:evenodd;fill:#D4EEEF;}
	.st1{fill-rule:evenodd;clip-rule:evenodd;fill:#8EC7DA;}
	.st2{fill-rule:evenodd;clip-rule:evenodd;}
	.st3{fill-rule:evenodd;clip-rule:evenodd;fill:#161318;}
	.st4{fill-rule:evenodd;clip-rule:evenodd;fill:#19151A;}
	.st5{fill-rule:evenodd;clip-rule:evenodd;fill:#B78C61;}
	.st6{fill-rule:evenodd;clip-rule:evenodd;fill:#825747;}
	.st7{fill-rule:evenodd;clip-rule:evenodd;fill:#FFFFFF;}
	.st8{fill-rule:evenodd;clip-rule:evenodd;fill:#CDCCCC;}
	.st9{fill-rule:evenodd;clip-rule:evenodd;fill:#BD5959;}
	.st10{fill-rule:evenodd;clip-rule:evenodd;fill:#F5F4EE;}
	.st11{fill-rule:evenodd;clip-rule:evenodd;fill:#DE2525;}
	.st12{fill-rule:evenodd;clip-rule:evenodd;fill:#C20F0F;}
	.st13{fill-rule:evenodd;clip-rule:evenodd;fill:#E8CB8B;}
	.st14{fill-rule:evenodd;clip-rule:evenodd;fill:#F4AB20;}
</style>
<g>
	<path class="st0" d="M550.12,1149.62c0,0-114.54,11.15-131.26,36.49c-16.73,25.34-14.19,87.68-10.14,104.4
		c4.05,16.72,13.68,39.53,14.69,45.11c1.02,5.57-5.07,81.6-9.12,92.75c-4.05,11.15-9.63,40.54-9.63,40.54s-75.52,19.26-98.83,30.41
		c-23.31,11.15-31.73,20.88-21.8,34.97c9.94,14.09,100.35,27.37,135.32,33.96c34.97,6.59,86.67,16.72,93.25,30.15
		c6.59,13.43-1.77,22.81-3.8,30.16c-2.03,7.35,6.32,41.94,123.91,50.05c117.58,8.11,223.65-31.7,264.56-47.64
		c40.91-15.95,112.01-4.05,121.64,3.55c9.63,7.6,9.12,25.59,23.57,29.39c14.44,3.8,14.19,8.87,44.85,6.59
		c30.66-2.28,80.04-2.83,80.04-2.83l37.03-6.04c74.62-9.21,149.24-18.42,223.85-27.62c35.04,4.45,73.71,4.65,108.74,9.1
		c16.06-18.8,36.94-28.27,44.55-52.14l-252.7-227.84L849.39,1209.3L550.12,1149.62z"/>
	<path class="st1" d="M1422.29,1634.75l5.98-0.74c3.24,0.41,6.52,0.79,9.82,1.13l0,0c0,0,0.68,0.35,15.47-19.94
		c14.79-20.28,21.56-24.08,51.56-23.66c26.32,0.37,59.42,4.39,74.32,5.02c0.38-0.85,0.74-1.72,1.08-2.61
		c-32.63-15.17-238.43-90.49-238.43-90.49s-298-12.91-314.91-12.91c-7.43,0-91.98-5.6-184.43-11.89l-3.92,57.63
		c0,0-27.04,6.34-47.75,8.03c-20.71,1.69-55.36,14.79-70.15,21.97c-14.79,7.18-42.08,24.58-71.42,15.63
		c-29.34-8.95-107.22-35.58-107.22-35.58l-18.8-5.16c0,0-91.71-30.35-102.28-37.11c-3.06-1.96-5.09-5.05-6.43-8.46
		c-10.94,5.15-21.47,11.16-21.47,15.22c0,8.45,63.39,34.65,114.1,48.17c50.71,13.53,100.57,55.78,165.65,52.4
		c65.08-3.38,95.5-34.65,129.3-31.27c33.81,3.38,47.33-7.6,76.91,0.85c29.58,8.45,99.73,21.13,192.7,26.2
		c92.97,5.07,193.96-17.17,193.96-17.17L1422.29,1634.75z"/>
	<path class="st2" d="M1203.63,1672.1c-55.62,10.67-132.96,9.07-164.8-2.42c-20.03-7.23-12.19-17.73-20.52-28.14
		c-3.2-4-36.63-9.38-43.86-10.38c-62.91-8.66-73.73,3.51-127.97,23.55c-85.55,31.6-173.99,37.5-264.13,23.45
		c-27.32-4.26-96.4-24.36-75.45-57.64c5.58-6.86,8.19-12.78-2.38-21.24c-40.32-33.32-151.04-24.91-206.07-48.8
		c-14.85-6.44-32.11-18.55-22.47-37.28c7.62-14.81,53.4-28.14,69.83-33.07c8.67-2.61,51.28-11.71,54.17-15.48
		c4.19-5.46,3.67-39.17,6.01-49.4c4.18-18.26,10.44-24.57,9.08-46.28c-0.75-11.94-3.01-34.33-4.82-45.83
		c-0.94-5.92-6-14.82-7.42-22.66c-3.9-21.52-7.58-80.2-3.17-100.51c7.22-33.18,41.26-37.42,69.2-44.78
		c9.47-2.5,59.26-13.85,80.42-16.81c-1.11-102.3,51.29-182.29,89.95-254.48c9.11-14.54,19.78-28.88,30.78-42.04
		c4.04-4.84,15.91-14.08,17.76-18.64c3.85-9.46,4.59-26.51,9.07-38.42c11.05-29.4,37.26-51.01,52.51-69.47
		c7.75-22.53,18.15-38.9,44.54-76.07c52.26-80.48,195.09-108.3,272.03-50.93c7.85,5.26,16.56,15.08,23.66,19.09
		c13.62,7.67,20.95,7.06,32.35,21.47c5.06,6.87,7.21,11.57,9.48,26.19c5.61,12.64,7.83,28.51,5.33,39.01
		c4.3,6.87,1.16,17.67,1.16,21.07c4.65,5.32,18.75,21,24.8,33.63c18.44,4.75,29.67,9.28,41.42,17.57
		c-17.96-5.93-27.19-8.28-37.46-10.23c3.26,6.36,5.47,15.82,6.94,21.54c11.89,9.67,30.63,21.17,31.41,38.05
		c-8.57-12.17-20.32-23.87-30.06-26.9c-0.45,9.46-2.37,17.68-3.77,21.86c7.51,10.2,13.96,18.91,16.42,38.29
		c-4.98-10.79-9.75-20.23-19.65-29.99c-1.83,5.62-16.13,18.83-27.1,22.08c0,6.9,1.26,4.5-0.34,21.62
		c20.09,16.5,64.1,97.65,118.07,107.67c22.18,6.05,48.26-1.92,66.62-14.67c21.68-15.05,13.24-18.9,21.53-38.62
		c6.58-15.65,18.86-22.2,34.53-24.73c0.17,0.01,8.8,0.7,18.56,3.81l-0.08,0.33l0.47-0.21c9.35,3.03,19.65,8.29,24.54,17.31
		c10.14,18.69,3.8,35.8,3.8,35.8l-24.07,12.35c0,0-1.27,41.18,1.26,50.68c1.24,4.66,8.2,11.13,14.96,16.52
		c-1.92,2.33-4.51,4.13-6.72,3.69c-4.71,4.3-14.92-3.93-18.04-8.28c-2.89-4-7.66-15.63-2.53-18.63c-1.4-8.15-3.26-16.56-5.31-27.44
		c0,0,0.19-7.22,0.56-21.63c-9.03,2.64-26.22-19.17-11.42-21.38c19.4,13.9,67.57,14.73,31.29-15.35
		c-24.08-19.96-42.2-15.58-49.75,15.84l-3.37,1.1c1.22,0.15,3.07,0.51,3.16,1.37c0.4,3.48,0.51,26.88-1.06,28.48
		c-0.52,0.53-1.28,0.81-2.11,1.02c-2.36,3.38-5.46,1.5-9.28-5.67c-58.21,56.25-137.71,23.51-177.94-36.66
		c3.77,14.19,13.53,25.6,23.01,36.43l-0.42,4.32c15.47,16.88,24.92,35.78,28.35,56.69c8.48,1.51,14.87,5.31,19.14,11.37
		c0.91,2.67-0.71,4.21-4.86,4.6c3.4,3.23,8.18,10.47,4.86,14.39c-7.44-0.07-14.99-2.09-22.67-6.03
		c-50.87-15.25-100.37-6.96-151.53,2.33c-10.76-1.47-0.83-8.6,3.82-11.42c29.1-17.72,84.79-17.86,118.99-17.64
		c9.18,0.99,7.01-6.11,4.36-12.4c-9.86-23.37-23.84-43.99-37.89-64.5c-5.57,1.26-9.01,0.04-10.32-3.68l4.7-29.93
		c-3.27-15.7-5.76-17.33-7.5-4.89c-5,25.62-11.19,51.68-21.44,76.39c-5.11,12.31-25.46,48.81-37.45,23.9
		c-3.16-6.56-1.04-38.3,0.2-46.87l3.17-1.84c0.17-11.82-1.73-24.08-2.1-36.5c-20.16,21.62-50.18,28.35-78.02,17.94
		c-0.68,2-6.74,20.21-5.74,20.63c14.2,5.94,57.83-7.24,70.69-19.01c18.21-6.44,6.08,10.42-2.24,15.36
		c0.59,5.57-14.67,15.33-19,11.08c-9.64,6.75-20.96,9.42-33.95,8.01l-20.32-1.55c-0.51,6.56-2.47,10.21-5.88,10.96l2.37,2.76
		c-2.07,8.8-20.55,45.1-29.44,45.31l-3.01-2.17c-7.91,2.5-12.66-1.11-13.21-9.29c0.54-31.58,0.67-64.14,0.77-96.27
		c-12.35-2.99-48.61-31.17-48.59-42.27c0.01-3.02,4.14-5.26,6.98-3.16c12.43,10.02,25.51,19.04,39.25,27.05
		c2.46-1.64-4.31-59.94-20.78-23.21c-8.89,2.76-1.04-22.48-0.89-22.68c-7.08-2.7-13.82-5.75-20.24-9.15
		c-0.61,2.77-10.64,31.42-12.35,29.49l-3.62-15.21l7.41-20.74l-17.2-16.63c-9.93,17.33-26.38,22.63-6.34-9.84
		c-7.64-12.25-13.07-24.69-16.36-38.86l-1.49,1.56c-5.2,9.44-20.35,22.49-18.19,3.16c1.37-12.26,18.48-26.51,30.13-28.91
		c20.93-4.3,29.9,10.48,6.39,15.8c-0.21,5.31,11.34,34.66,15.07,33.95l11.11-9.86l3.59,0.78c6.3-7.58,38.38-30.13,46.4-22.49
		c2.18,2.07,1.68,9.15-1.2,10.83c-9.85-0.69-54.66,26.18-53.23,31.34c0.61,2.21,10.32,11.91,12.11,11.28
		c9.25-9.66,18.96-18.81,29.15-27.47c14.96-11.3,19.37,0.9,6.11,10.76l-18.9,16.79c-8.91,5.73-5.32,9.77,10.77,12.13l11-17.92
		c3.06-7.44,19.36-17.69,18.17-4.85l-16.77,25.05c37.78,4.41,99.98-11,112.46-52.44l0.88-43.11c5.22-9.43,18.18,28.27,17.11,34.25
		c2.08,2.73-7.1,21.32-8.71,27.24c4.83,5.33,40.21,17.73,47.92,19.01c25.88,4.3,34.08,0.18,13.91-21.05
		c0.09-15.06,17.98,7.27,21.35,12.24c6.14-4.08,7.22-7.99,3.22-11.73l-14.03-13.26c-5.11-14.72,14.93-2.71,20,2.88
		c0.94-0.23,2.39-17.63-4.93-16.52c-22.51-4.77-19-20.04,1.91-11.73c1.35-0.5-2.55-9.49-5.12-10.08c-9-0.68-22.29-7.11-7-11.93
		c-11.14-15.18-26.03-23.04-42.53-30.13c-0.61,3.81,27.07,23.19-23.65,12.46c-4.39,22.07-18.28,17.94-15.11-2.91
		c1.86-12.17,7.11-25.17,20.78-17.39c2.98,15.6,5.19,2.78-0.25-3.06c-6.66-7.15-47.78-6.33-56.54-2.1
		c-6.29,3.03-14.84,11.86-4.69,14.98c9.14-16.07,20.12-13.89,29.8,1.23c11.62,18.14-5.05,36.59-11.64,7.47
		c-11.78,16.07-45.27,0.44-34.26-16.79c-0.95-1.09-1.76-2.61-1.07-3.76c13.25-22.12,39.13-21.42,62.02-18.82
		c-2.46-30.07,17.46-49.65,47.45-41.58c-10.28-19.69-33.28-23.54-53.2-17.45c-9.2-1.22,0.2-13.95,7.37-14.65
		c-67.61-53.06-167.97-38.8-231.56,14.44c-12.9,10.79-20.12,23.96-24.11,40.27c-24.47,99.85-7.57,208.16,85.72,266.26l9.62,5.68
		c3.94,1.52,31.67,14.43,32.26,16.15c4.05,11.86-15.25,2.93-19.98,0.41c-8.72,0.89-21.97-5.95-29.94-10.83
		c-94.24-57.73-117.56-166.61-95.1-269.17c-14.21,25.11-25.66,49.8-34.99,77.53c-2.07,21.57-6.18,27.8-6.18,51.42l-3.17,2.25
		c-1.38,0.65-3.4,1.51-4.21,0.7c-7.74-7.81-6.19-33.85-4.3-44.66c-18.2,16.47-33.21,44.74-29.76,70.15
		c0.68,4.96,1.83,8.84,7.25,9.74c10.49-1.62,62.37,7.86,62.67,16.96c0.27,7.64-8.64,5.59-13.92,3.72
		c-15.49-7.64-29.3-9.04-46.12-6.32c-8.09,0.3-15.53-2.06-21.26-7.85c-4.51-0.45-37.08,37.31-39.84,43.43
		c7.52-7.72,54.26-23.6,58.71-15.41c2.79,5.14-7.89,13.13-11.96,8.69c-19.84,13.67-39.24,27.92-58.19,42.75
		c-50.79,63.1-79.67,144.36-72.45,226.63c5.48,8.09,5.44,13.42,16.53,16.72l0.13,3.58l-1.49,3.27c-11.3,0.92-27.18,3.1-15.06,16.65
		l-0.86,3.83l-6.06,1.81c-7.26-0.65-45.39-5.87-47.75-8.23c-3.66-3.66,3.48-7.62,8.13-6.52l25.85,0.47c0.7-2.06,5.63-4.55,5.48-5.79
		c-3.17-3.78-8.95-18.55-10-19.18c-5.71-3.49-62.55,7.41-72.28,9.67c-16.19,3.77-45.27,8.52-55.08,22.49
		c-10.42,14.84-9.16,55.63-8.24,74.2c0.56,11.46,2.58,37.15,6.8,47.02c4.76,11.11,6.36,0.66,7.26-4.59
		c3.63-21.31,2.62-45.91,12.11-65.45c5.85-12.05,19.87-5.78,25.21,3.3c9.04,15.36,8.16,58.83,10.44,78.21
		c0.89,7.56,2.26,17.67,5.52,24.53c5.05-0.16,9.35-66.53,11-74.46c2.56-12.31,6.38-17.31,13.55-26.82c1.53-0.75,2.93-0.72,4.18,0.3
		c-7.25,32.97-11.98,66.56-14.18,100.76c-3.01,20.85-17.89,25.6-24.06,3.52c-5.45-28.46-9.2-57.08-11.25-85.86
		c-0.36-14.51-11.75-28.89-12.87-5.01l-3.56,2.12c-3.17,15.87-2.7,29.61-4.87,45c-1.36,9.66-6.54,22.51-7.67,31.91
		c-1.91,15.87,1.62,34.71-0.12,50.54c-2.31,21.04-11.52,42.27-12.74,66.41c-0.49,9.7-1.82,31.04,5.93,37.36
		c17.73,8.49,81.95,33.13,97.79,44.72c-17.19-1.8-41.49-7.27-58.09-12.02c-9.57-2.73-54.63-16.11-58.25-22.88
		c-2.72-5.09-2.84-19.59-3.14-25.75c-7.1-0.68-13.76,0.9-20.59,2.38c-17.79,3.84-84.99,21.71-95,33.22
		c-6.53,7.52-6.35,11.05,1.8,15.66c51.78,29.29,145.78,19.39,203.5,45.03c14.25,6.33,30.62,21.68,28.71,38.64
		c-1.34,11.89-16.77,15.38-2.18,28.22c9.84,8.66,46.6,17.79,60.43,20.31c68.43,12.45,150.31,11.13,217.48-6.94
		c48.47-13.04,88.06-39.96,140.02-42.02c19.9-0.79,68.26,6.16,85.16,16.31c12.67,7.61,4.57,20.98,19.57,27.92
		c22.91,10.6,107,9.74,155.12,2.6C1203.61,1662.19,1211.9,1669.05,1203.63,1672.1z"/>
	<path class="st2" d="M806.09,996.15c0.41,2.18,0.93,3.82,3.51,4.11c-0.09,1.86-0.57,30.66,0.02,29.31l8.81-29.75l3.49-1.29
		c-4.82,1.11-3.73-22.64-3.17-23.89c0.53-1.17,1.92-1.76,3.17-2.23c5.19-3.12,9.16,4.52,11.19,8.94
		c10.12,21.99-7.75,58.35-21.13,75.91c11.59-6.39,19.68-17.27,26.09-28.57c15.04-6.74,1.94,24.76-5.27,27.91
		c3.15,6.61-0.23,11.56-10.14,14.85c31.13,15.99,58.18,38.65,79.01,65.67c3.08,1.47,11.26-15.05,14.58-16.92l52.35-19.96
		c5.13,0.01,10.57-0.07,8.98,2.29c5.27,21.28-54.04,42.33-68.97,48.75c33.72,55.02,35.11,137.24,3.33,193.24
		c-6.77,11.92-11.03,17.04-25.71,19.35c-0.92,0.41-1.68,1-2.03,1.96c-1.44,3.97-3.96,47.07-3.82,53.77
		c0.02,1.13,1.05,10.24,1.22,9.78l11.2-45.88c4.04-2.06,6.21-1.46,6.52,1.79c-2.89,25.95-5.9,43.24-4.38,69.19
		c0.93-14.64,4.78-20.57,6.89-35.11c1.18-8.56,5.19-24.23,12.08-13.2l6.45,18.61l6.73,36.02c6.72,21.49,16.49,44.75,37.65,55.45
		c-9.76-7.56-41.36-64.32-32.72-71.53c2.99-2.51,6.7-1.57,8.15,2.32c10.94,22.12,23.77,42.74,38.5,61.85
		c-2.59-4.48-17.38-53.68-9.88-51.1c9.94,13.68,32.32,57.31,49.05,67.93c-10.53-14.69-28.43-52.06-24.84-58.5
		c2.08-3.76,4-5.48,7.39-2.32c10.09,12.07,45.55,66.19,62.26,65.37c-7.6-6.19-36.29-35.02-31.09-44.98c1.72-3.3,3.76-2.97,6.68-0.78
		c14.46,15.32,32.41,28.8,23.46,17.21c-3.08-5.46-5.82-11.13,2.29-11.79c1.59,1.34,50.42,37.41,49.16,33.69
		c-13.1-5.02-32.4-29.91-6.93-18.92l20.27,2.5c-3.17-9.33,19.05,3.13,24.97,5.37c9.8,4.94,17.52,15.07,28.2,16.87
		c-4.04-7.07-2.96-10.64,3.23-10.7l15.88,9.79c0.13-6.6,4.18-7.11,12.17-1.53c3.87,2.33,26.04,8.27,27.54,6.07
		c-3-9.29-6.29-18.5-9.88-27.66c-2.25-6.13,0.03-11.85,6-7c1.42,4.41,23.93,33.38,27.48,30.46c-4.31-7.62-14.27-41.07-6.47-46.14
		c2.73-1.78,4.65-0.86,6.3,1.83l6.44,16.17c-2.6-8.22,3.09-35.62,10.42-17.93c1.22,13.71,3.93,27.02,8.12,39.92
		c13.21-8.99,26.93-17.05,41.15-24.2c7.9-4.05,13.33-3.7,16.28,1.05l-2.22,3.92c-10.45,3.43-19.84,9.34-28.62,15.85
		c1.71,0.4,2.89,1.47,3.84,2.96c2.98,4.64-20.67,34.85-25.7,40.24c-39.25,40.13-81.84,88.53-79,147.98
		c0.89,18.68,13.92,40.58,18.34,10.83c2.97-27.12,7.48-54.78,22.55-78.71c15.73-24.98,21.24-14.01,13.83,7.67
		c-6.13,10.4-20.88,66.88-15.81,70c4.02,2.48,23.73-10.91,22.13-18.43c3.19-15.08,7.22-30.24,14.07-44.66
		c3.58-7.52,24.02-47.37,30.8-45.34c6.11,1.83-0.81,24.59-2.84,29.57c-3.15,7.37-21.35,52.33-17.42,56.14
		c1.91,1.85,20.09-4.02,23.31-6.14c10.39-24.45,22.66-47.85,36.82-70.2c6.02-9.89,20.41-22.98,18.12-4.83
		c-8.42,20.44-17.81,40.58-28.16,60.41c73.98-25.38,86.68-119.61,61.71-185.11c-36.56-95.89-173.18-113.91-258.63-77.43l-8.16-0.21
		c-3.18,0.89-4.24,0.37-3.17-1.58l2.98-5.57c40.92-27.82,87.85-31.34,135.81-29.3l5.26,3.2c45.67,0.91,94.28,23.11,120.91,61.12
		l6.67-13.14c3.81-4.04,7.49-1.44,6.82,3.85l-2.79,16.07c2.56-1.21,4.48-1.75,5.97,0.89c2.71,13.02,7.18,25.62,13.41,37.79
		c5.45,32.74,21.88,52.35,54.6,59.56c6.24,7.49-3.41,9.26-9.71,8.21c32.09,7.34,65.42,11.49,98.47,13.02
		c17.65,0.82,50.25,1.99,66.38-3.78c2.29-0.82-11.84-7.6-14.84-8.9l-0.78-3.73l-1.04,1.6c-24.97-6.69-49.7-14.47-74.18-23.33
		l-0.77-3.59c0.16-1.22,0.45-2.91,1.4-3.17c1.55-0.41,23.51-0.38,25.64,0l2.24,3.17c0.45-1.22,1.12-2.5,2.42-2.97
		c9.06-3.26,79.03,25.16,90.48,34.35c15.77,0.91,29.55,0.62,10.11-13.02c-25.95-13.16-53.28-23.24-81.98-30.22
		c-3.33-1.23-3.97-3.12-1.24-5.56c0.16-1.22,0.49-3.02,1.39-3.16c5.55-0.92,22.19-1.46,24.73,3.16c0.15-0.78,0.36-1.51,0.8-2.08
		c4.19-5.45,80.96,29.05,86.34,44.76c2.51,4.72,24.15,3.89,24.08,2.66c-0.44-8.32-45.88-35.8-51.32-38.54
		c-58.63-29.67-114.34-34.83-178.93-37.1l-30.44-9.29c-0.97,0.4,2.6,13.74,4.01,15.27c5.94,8.09,4.05,12.11-6.38,9.5
		c-15.06-3.77-17.51-38.89-18.14-51.69c-0.11-34.76-1.31-65.06-14.82-98.02c-1.35-3.29-11.58-21.91-12.48-18.97
		c-2.35,21.42-5.27,43.05-12.63,63.42l-4.58,2.95c5.48,5.14-11.88,23.25-15.7,18.25c-2.74-3.59,1.21-21.58,6.2-24.58l-1.94-8.29
		c19.58-108.56-19.36-231.44-117.04-289.25c-22.25-13.17-44.54-19.51-69.04-25.71c-11.13-11.92,10.97-6.88,10.7-24.2
		c-0.01-1.18,6.79-5.77,8.74-6.26c1.41-3.86,7.21-0.29,10.47,1.12c34.45,14.96,69.79,36.52,94.7,64.55
		c26.91-15.62,50.83-38.19,68.67-63.98l4.24-0.99c1.83-3.31,4.88-8.84,9.5-9.5c3.03-4.17,17.73-0.19,18.99,4.75l1.59,4.73
		c-8.39-1.65-7.29,3.88-9.5,6.34c-12.23,13.67-24.27,30.2-37.16,42.79c-12.82,12.53-28.62,21.79-41.72,33.98
		c27.01,34.04,54.26,73.45,65.77,116.02c4.48,16.6,7.41,38.42,9.03,55.02c7.12,5.79,14.56,13.36,19.02,19.83
		c16.98,24.67,29.35,67.43,31.04,97.19c0.62,10.87-1.22,35.51,0.69,43.12c21.16,18.9,54.5,14.41,76.09,14.66
		c59.18,0.69,186.41,34.82,202.63,88.64c8.2,27.23-25.32,21.38-40.78,25.85c-21.35,6.18-26.92,4.94-47.91,7.49
		c-16.31,1.98-32.48,6.96-49.04,7.95c-59.36,3.57-115.93-14.21-175-14.32c-2.13,17.82-9.81,39.35-18.16,55.45
		c-19.32,37.22-53.7,64.79-91.4,74.98c-13.41,7.71-15.17,13.1-30.93,16.4c-5.26,1.1-9.69-0.12-15.51,1.91
		c-7.19,2.5-16.21,10.99-24.97,14.6c-5.17,2.14-10.68,2.24-14.9,4.1c-3.83,1.69-6.21,6.43-10.39,8.61
		c-30.61,15.89-46.78-27.58-48.57-50.21c-2.47-31.21,16.73-76.23,34.15-101.93c2.84-4.18,22.62-25.75,19.64-28.63
		c-35.16,0.84-70.19-1.76-105.35-1.67c-90.53,0.23-149.23,0.36-234.48-36.06L852,1507.47c-1.23,16.62,4.11,39.08-17.04,40.74
		c-22.41,2.41-52.86,5.74-77.15,12c-38.5,9.92-53.57,35.14-102.88,31.12c-15.45-1.25-86.11-25.89-112.64-44.98
		c27.54,6.99,57.45,17.8,90.16,26.43c52.11,13.76,65.36-7.86,111.57-22.13c17.81-5.5,40.23-9.15,58.91-13.12
		c9.62-2.04,18.62-5.06,27.01-9.1l-1.87-45.28c-11.55-40.08-9.69-82.39-5.74-123.18c-0.05-4.44-0.2-9.42-4.02-12.31
		c-12.99-7.32-21.25-19.03-26.81-32.98c-8.36-23.46-17.36-46.4-30.67-67.05c-7.06,1.3-13.49-1.89-10.56-9.95
		c-20.17-8.32-40.44-7.48-62.29-5.69c-27.56-6.5-55.53-9.67-83.9-9.52c-19.1-4.39-19.8-2.66-40.7-6.29
		c-1.13-1.91-24.51-5.53-7.89-11.19l22.2-2.03c-1.83-0.63-2.52-2.33-2.73-4.19c-16.63-18.16,0.46-22.76,17.41-23.74l8.15,0.45
		c40.69,19.82,86.29,28.89,131.41,24.89c-7.33-18.33,4.55-15.08,13.28-4.57l-2.82-9.64c-0.96-4.47-1.64-8.56,3.54-9.55l5.87,4.36
		c24.68,37.93,44.76,76.24,59.7,118.76c2.9,6.5,11.41,22.1,18.34,24.54c11.39,4,9.12-50.86,5.21-57.72
		c-0.93-3.9-2.45-22.26,5.14-19.01c10.6,4.54,17.96,65.87,17.99,81.53c1.2,29.31,10.9,7.1,14.28-7.19
		c6.48-27.41,3.32-55.95-0.98-83.43c0.93-3.8,3.3-3.04,6.73-1.79c12.31,4.51,15.46,71.8,11.93,86.2c-2,22.98,6.58,8.01,10-3.62
		c9.1-31.02,8.79-60.58,2.55-91.37c1.2-4.34,5.64-5.21,8.63-1.96c-18.08-107.36-137.36-181.47-241.42-146.88
		c-10.04-0.16-0.51-8.93,4.29-12.31c21.71-15.27,63.67-15.65,88.79-9.79c-14.45-20.49-37.76-26.36-61.17-30.3
		c-7.85-11.24,19.76-10.61,25.7-10.07c22.72,2.06,39.24,14.4,55.04,30.02c9.38-23.75,11.96-49.45,7.72-77.12
		c0.85-5.89,2.34-5.6,7.19-3.5C799.36,966.76,812.92,993.33,806.09,996.15z"/>
	<path class="st1" d="M519.57,1238.35c8.03,1.94,14.74,6.05,22.48,4.51c12.67-4.96,22.11-2.47,33.54,2.82l0.96,3.75l-25.33-3.15
		c0.76,2,3.06,4.37,4.86,5.41c9.4,5.43,63.11,19.1,64.77,22.3c1.57,3.02-2.6,2.41-3.98,2.41c-5.3-0.03-10.89-2.78-16.58-1.63
		c-3.1,2.73,13.01,21.96,9.2,27.31c-24.71,25.64-42.74,48.74-67.44,74.38c-1.7-1.25,46.65-66.1,51.89-70.85
		c0.79-3.74-3.18-2.64-5.14-1.97c-12.72,4.34-50.56,54.67-62.1,67.71c-10.47,11.82-17.87,27.99-16.54,43.99
		c-10.09,14.79-47.52,61.14-50.87,63.3c-3.35,4.79,9.9-1.93,19.1-7.59c-3.66,8.97,8.94,1.32,11.59-0.28
		c14.7-8.86,32.23-26.89,46.83-37.06c29.26-20.39,54.39-47.26,80.04-71.92c7.75-7.45,17.02-13.01,24.62-21.29
		c2.76-3.01,7.11-13.16,9.54-9.42c5.44,8.39-1.19,27.62,7.83,33.92l2.21,2.93c0.28,39.73,1.4,79.47,3.32,119.19l-2.37,6.11
		l-6.33-3.17c-2.22,14.38,4.56,59.89-4.02,69.6c-2,2.27-4.68,3.22-7.68,3.13c-3.37-0.1-20.06-4.5-24.44-5.73
		c-10.72-3.02-22.74-9.09-33.49-12.42c-7.64-2.36-25.72-4.53-30.61-7.02c-2.16-1.1-3.81-8.46-8.13-11.69
		c-3.1-2.32-12.33-0.97-16.98-2.96c-12.5-5.34-14.46-10.35-24.53-16.78c-3.47-2.22-9.5-2.41-12.98-5.58
		c-4.61-4.2-2.23-11.42-9.82-14.46c-8.25-3.31-14.3-0.77-21.35,0.66c-17.2,3.48-14.08-13.95-16.6-25.95l-1.52-136.2l3.16,2.36
		c-0.01-11.94-0.53-23.84,1.75-35.61l-3.31-26.12c1.85-9.28-0.07-20.61,11.56-17.1c9.16,2.77,9.43,39.1,10.61,47.96
		c1.56,11.72,6.3,59.24,11.92,65.64c9.59,10.92,13.89-6.28,14.79-13.59c3.75-30.79,3.71-61.76,12.9-91.59
		c0.64-2.08,3-5.75-0.04-7.15C510.36,1243.82,509.77,1240.61,519.57,1238.35z"/>
	<path class="st1" d="M559.86,1179.48c1.45,1.72,5.19,6.69,8.58,8.79c-7.77,1.54-31.08-2.28-45.71,2.58
		c17.3,2.66,35.29,3.55,52.24,7.93c4.37,1.13,11.89,2.46,14.25,6.32c-10.85-0.83-21.67-1.19-34.83,3.19
		c26.4,0.96,39.47,1.7,60.16,4.74c-4.44,1.81-9.38,3.15-12.65,6.32c14.53,0.23,34.53-2.38,48.91-0.56
		c12.96,1.64,25.94,6.8,39.53,7.65c11.22,0.69,18.98,0.47,29.56,0.77c3.95,0.12,26.72-1.41,35.74,5.71
		c3.41,2.51,5.63,6.98,8.24,11.22c1.84,3.15,15.08,29.63,17.16,34.31c8.44,18.97,13.22,43.56,28.24,58.83
		c3.45,3.51,10.94,6.8,13.41,10.33c5.74,8.23,7.84,23.37,8.2,32.67c1.47,38.02,2.45,106.39,2.12,148.55
		c-1.37,7.44-23.29,7.27-30.08,8.7c5.63-4.91,13.15-3.54,18.99-7.12c-3.57-5.75-9.62-1.24-10.73-8.31
		c-0.75-4.76,1.22-7.86,1.31-12.21c0.34-15.99,1.8-43.23-4.45-57.43c-0.76-1.72-3.59-5.69-5.89-5.16
		c-4.18,0.96-10.27,55.34-12.66,63.33c-2.13,7.1-6.4,15.25-15.06,14.23c-0.86-8.35,0.54-29.33-3.97-25.3
		c-9.81,17.99,5.55,29.41-17.11,39.85c-30.47,5.12-59.91,22.48-66.19,15.06c-8.66-9.67-3.29-23.35-2.99-41.48
		c-4.99-59.77-4.82-106.52-0.81-165.78c2.48-36.67,4.3-28.06,16.43-56.08c2.53-5.84,10.47-23.8,0.22-25.89l3.09-4.16l24.28-9.73
		c-2.07,0.85-3.73-0.11-5.21-1.94c-1.9-7.9,8.63-4.82,12.69-7.1c2.4-1.35,0.87-3.27-1.04-3.77c-11.61-3.04-28.64,3.19-40.91,1.39
		c-11.09,0.37-27.61,7.33-38.03,6.45c-17.26-1.46-52.9-18.99-72.9-23.8c-8.25-1.98-17.05-1.87-24.83-3.66
		c-16.31-3.76-36.93-17.23-52.75-24.81c-6.29-3.02-3.69-6.85,1.75-7.96c15.45-3.16,25.68-2.49,40.79-2.36
		C549.98,1183.84,558.85,1183.17,559.86,1179.48z"/>
	<path class="st2" d="M658.87,1364.99c-0.25-6.55,0.43-13.22-0.02-19.77c-1.27-18.69-2.43-35.56-6.3-56.21
		c3.67,1.48,4.48,6.17,5.53,9.49c9.54,30.23,4.98,64.83,7.13,95.76c2.05,29.52,5.55,58.8,6.38,88.6c0.52,18.84-0.34,37.57,1.5,56.26
		c-4.99-4.27-3.79-15.58-5.19-22.49c-1.59-7.84-4.77-16.08-5.87-23.42C656.41,1455.7,660.37,1404.47,658.87,1364.99z"/>
	<path class="st3" d="M519.57,1238.35c8.69-2.01,13.1,2.39,21.37,1.66c8.36-0.74,22.23-7.61,32.96-4.18
		c-4.77,1.15-7.57,1.95-10.48,3.52c6.94,0.39,13.34,3.05,20.26,4.13c16.17,2.52,33.86,12.23,48.57,15.95
		c12.6,3.19,22.85,8.14,22.67,20.07c-23.49-13.49-52.33-21.54-78.37-30.07c-4.82-1.58-11.48-5.88-16.8-6.27
		C555.68,1242.86,538.7,1248.16,519.57,1238.35z"/>
	<path class="st2" d="M898.81,1558.38c-5.04-1.36-4.05-4.73-0.03-4.5c114.95,26.46,176.88,26.88,289.64,29.56
		c5.21-0.02,3.84,3.06,0.43,3.16C1095.32,1586.69,989.52,1584.27,898.81,1558.38z"/>
	<path class="st4" d="M722.19,1249.43c5.78-1.53,20.67-6.18,25.39-0.78c-14.82,3.93-32.63,12.82-47.55,16.61
		c-6.64,1.69-13.71,3.32-20.58,3.15C689.7,1258.63,708.29,1253.11,722.19,1249.43z"/>
	<path class="st2" d="M983.7,1584.63c4.8,1.1,2.67,4.34-0.33,4.01c-20.35-2.25-47.61-7.49-67.49-10.97
		c-12.97-2.26-24.58-3.95-37.79-6.88c-3.54-0.5-2.82-3.86,0.27-3.78C914.67,1572.63,946.58,1579.05,983.7,1584.63z"/>
	<path class="st2" d="M1004.72,1590.51c-4.36-0.47-3.82-3.79,0.34-3.37c60.75,8.15,117.69,9.66,177.03,10.56
		c4.81,0.04,4.53,3.23,0.06,3.16C1126.33,1600.92,1058.29,1600.8,1004.72,1590.51z"/>
	<path class="st5" d="M812.22,650.03c2.26-4.33,4.82-8.23,7.5-11.97c7.92-11.05,19.86-20.29,38.72-31.99
		c66.98-41.12,152.05-43.39,215.16,6.22c-5.59,2.97-14.72,3.83-15.81,11.87c23.52-9.23,52.59-0.65,60.14,25.31
		c-32.38-12.73-55.37,5.59-47.45,38.86c-18.41-1.93-41.89-3.65-58.38,7.61c-5.04,3.44-6.63,7.23-8.15,12.12l-1.06,5.15
		c-68.42,35.38-54.38,34.5-91.12,70.81l-12.29,11.1c-4.5,3.35-12.34,9.05-16.8,13.03c-5.93-4.13-17.44-34.32-16.49-40.66
		c7.53-4.64,15.21-3.17,15.87-5.78c0.72-2.88-5.45-5.85-16.47-4.44c-11.93,1.52-29.5,16.58-29.48,29.1c0,1.88-0.71,5.25,2.42,3.98
		c2.02-4.77,9.15-14.77,15.62-16.92c2.48,7.84,5.1,17.16,8.17,24.82c1.9,4.74,8.05,15.71,10.74,18.92
		c-1.96,3.57-8.37,12.64-9.86,21.61c1.58-1.37,8.95-13.7,14.1-16.76c4.82,9.98,14.35,16.83,17.83,20.01
		c-1.55,2.99-11.24,16.9-5.3,31.8c4.14,9.73,10.69,17.88,16.72,26.63c0.93,1.76,0.39,4.71-1.11,5.8
		c-5.94,4.3-25.68-7.94-31.48-11.55c7.81,15.28,19.49,25.46,32.82,35.14c27.44,22.99,20.25-2.96,34.23,36.12
		c3,16.67,4.21,33.67,3.62,51c-0.02,9,3.57,15.37,13.46,12.42c13.26-4.6,25.45-32.86,30.07-45.91l3.54-2.11l15.64,4.92
		c8.69,3.04,17.06,4.22,25.15,3.53l0.96-2.24c9.63-2.03,12.47-3.92,8.53-5.68c-15.72-2.55-5.6-8.83,2.41-13.01
		c1.44-0.76,2.72-1.73,3.92-2.82c6-2.22,13.33-7.66,18.99-11.08c2.02-3.06,17.65-16.14,18.32-12.92l-0.91,14.49
		c0.19,12.54-4.11,38.66-0.11,48.39c6.51,15.87,20.42-4.84,24.67-11.95c11.28-18.88,17.67-44.21,23.13-65.51
		c0.6-2.36,5.15-23.29,6.62-43.85c9.37,7.74,10.07,43.43,18.55,58.41c5.02,8.87,11.32,18.33,19.6,32.06
		c6.49,10.76,14.25,22.46,17.58,34.65c5.65,20.76-15.48,16.49-34.16,17.59c-20.75,1.22-45.4-2.67-71.78,10.94
		c37.12-9.42,108.98-8.88,160.52,23.72c-8.14-0.88-13.08-1.28-19.71-1.64c-2.55-0.14-10.85-1.16-11.94,1.64
		c75.47,9.17,137.38,70.31,167.56,137.18c27.51,60.93,29.69,121.91,19.22,187.36c-1.19,5.71-6.81,3.55-7.81-1.6
		c1.97-5.73-1.45-132.42-5.93-127.76c-2.68,35.62,1.18,68.77-24.16,94.43c-15.24,15.43-15.09,46.61-37.67,42.13
		c-44.76-11.95-67.73-3.47-83.36,0.4c34.33,0.3,68.44,8.52,102.49,25.87c62.79,32,80.39,92.92,75.4,160.43
		c-3.22,43.59-35.94,93.42-80.7,102.11c4.64-10.69,16.32-48.7,30.87-72.8c-24.08,22.57-34.54,56.15-49.8,84.76
		c-8.6,4.94-18.64,7.92-28.58,7.06c-1.04-31.07,14.56-65.14,22.97-87.06c-14.89,18.36-29.1,44.17-36.03,66.86
		c-7.49,24.49-2.21,37.91-34.41,43.94c-0.71-35.74,8.1-64.71,19.78-94.97c-14.6,15.1-23.68,38.26-28.51,58.55
		c-2.91,12.23-4.02,37.91-8.29,47.11c-2.77,5.96-11.22,4.15-14.46-0.58c-15.82-23.05-1.17-72.18,10.29-95.39
		c17.01-34.42,39.65-50.21,59.13-74.58c5.52-6.91,10.81-14.14,15.62-23.14c0.79-1.48,2.88-4.53,0.7-5.63
		c-4.27,3.73-10.59,7.8-16.62,7.12c13.49-16.77,41.97-38.99,58.92-43.27c2.96-3.14,2.42-4.47-1.64-4.01l-41.04,0.92
		c-13.76,1.1-20.57-6.07-24.43-18.72l-7.87-11.21c-22.72,21.63-53.6,19.69-80.72,7.36l-41.99-19.61
		c-20.51-9.98-43.04-12.59-65.81-11.79c-8.58-2.04-23.78,3.2-19.61-1.47c-1.64-4.72,21.85-22.09,26.72-23.22
		c2.81-2.39,5.74-5.16-4.07-2.74c-10.21-0.55,8.7-19.11,11.92-19.99c-0.27-4.4,7.03-7.28,11.08-6.33c0.41-0.9,0.71-1.62,0.57-1.71
		c-8.32-5.66-80.01,21.7-95.25,27.57c-33.73,9.09-48.43-1.99-63.78-31.48c-18.03-34.63-13.21-51.57-0.61-87.74
		c1.42-33.42-1.61-67.02-9.1-100.79c-3.03-29.48,3.4-62.01,25.69-82.87c3.1-2.36,16.24-24.54,19.81-27.01
		c-34.53,24.7-53.85,30.36-53.34,29.91c-32.32,16.62-73.37-28.17-87.55-71.88c6.81-27.09-1.5-67.1-29.25-79.26l-1.64-3.74
		c4.21,0.33,4.04,24.68,3.16,27.04c-2.11,1.5-6.73,28.55-9.5,9.37c-0.98-7.86-6.99-24.19-12.65-30.07
		c-0.3,27.67,6.79,61.7-10.31,85.45c-31.43-30.37-54.2-33.02-79.99-28.67c27.47,3.45,51.34,13.87,66.53,38.18
		c-21.63-8.6-78.07-11.96-102.89,15.83c113.74-40.42,246.59,51.01,250.1,170.97l-7.1-17.48c0.37-1.73-2.4-4.92-3.96-3.08
		c-1.01,1.19,4.43,25.82,4.73,30.87c0.98,16.91-2.23,47.41-7.84,63.36c-1.53,4.35-6.99,15.56-10.33,18.17
		c-1.84,1.44-1.24,2.24-3.17-0.04c-4.97-5.85-0.09-40.63-0.74-51.5c-0.91-15.31-3.97-40.24-14.3-51.38
		c5.55,29.29,9.67,74.96-4.71,102.15c-15.53,29.37-14.91-23.96-15.9-31.69c-2.53-19.71-5.75-39.79-14.24-57.79
		c-2.91,1.1-1.72,9.27-1.56,11.85c1.16,17.56,7.14,34.19,2.69,51.78c-6.2,24.47-17.04,13.54-26.14-1.42
		c-11.45-18.82-17.47-43.13-26.94-63.29c-11.77-25.05-28.91-47.07-41.43-71.75c-20.03-6.71-77.8-9.98-98.94-14.86
		c-88.84-33.74-30.28-172.9,19.91-235.69c11.3-18.24,22.57-28.77,39.45-40.74c1.1-0.64,7.08-4.83,12.37-7.5
		c-25.02,1.28-48.88,8.61-67.76,24.91c-2.26-2.91,14.53-24.07,17.44-27.67c3.85-4.78,26.87-30.63,30.84-30.59
		c0.52,0.01,5.7,4.97,7.86,6.06c11.95,6.07,24.4-0.05,37.9,1.67c10.74,1.36,21.41,9.17,32.57,9.36
		c-10.57-5.19-20.55-11.46-32.61-14.07c-27.48-4.64-40.54,6.82-37-31.01c1.42-15.19,8.89-30.3,17.65-42.5
		c5.36-7.48,13.95-19.4,20.46-27.97c-1.74,10.19-7.84,40.55,3.02,60.15C747.86,741.38,783.51,674.49,812.22,650.03z"/>
	<path class="st6" d="M897.48,1332.63c-1.77,3.14-3.63,5.92-5.08,7.06c-1.83,1.44-1.24,2.24-3.17-0.04
		c-4.97-5.85-0.09-40.63-0.74-51.5c-0.85-14.19-3.53-36.63-12.14-48.71c4.59,5.95,15.01,21.09,16.74,37.61
		c2.23,21.28,9.21,20.33,9.21,20.33s-6.96,1.38-9.21,11.44C891.13,1317.47,889.75,1330.17,897.48,1332.63L897.48,1332.63z
		 M869.46,1338.92c-15.53,29.37-14.91-23.96-15.9-31.69c-2.53-19.71-5.76-39.79-14.24-57.79c0,0,15,20.62,18.82,36.5
		c3.81,15.89,14.29,17.47,14.29,17.47s-9.53-1.59-11.12,8.26C859.72,1321.52,859.82,1336.31,869.46,1338.92L869.46,1338.92z
		 M838.78,1318.56c-6.35,17.1-16.14,6.78-24.46-6.91c-11.45-18.82-17.47-43.13-26.95-63.29c-1.78-3.8-3.69-7.53-5.69-11.21
		c0,0,12.61,11.3,18.65,21.79c6.03,10.49,10.8,27.32,16.2,29.54c5.4,2.22,11.12,0.64,11.12,0.64s-10.8,5.72-10.48,12.07
		C817.48,1307.55,828.32,1324.16,838.78,1318.56z"/>
	<path class="st6" d="M1379.26,1663.96c-10.78,8.71-23.11,15.02-36.52,17.62c4.64-10.69,16.32-48.7,30.87-72.8
		c0,0-15.72,45.06-4.62,51.64C1371.72,1662.05,1375.35,1663.18,1379.26,1663.96L1379.26,1663.96z M1330.5,1680.19
		c-2.17,4.53-4.38,8.99-6.7,13.35c-8.6,4.94-18.64,7.92-28.57,7.06c-1.05-31.07,14.56-65.14,22.97-87.06c0,0-15.4,51.83-10.05,60.46
		c5.34,8.63,22.34,6.22,22.34,6.22L1330.5,1680.19L1330.5,1680.19z M1278.51,1695.12c-3.34,15.36-5.72,24.52-30.76,29.21
		c-0.7-35.74,8.1-64.71,19.79-94.97c0,0-12.83,49.97-5.02,59.02C1270.29,1697.37,1278.42,1695.15,1278.51,1695.12L1278.51,1695.12z
		 M1236.72,1702.06c-6.9-2.76-14.49-21.49-6.67-47.39c7.81-25.89,55.65-90.21,55.65-90.21c-20.71,23.32-44.55,45.08-59.13,74.58
		c-11.47,23.21-26.12,72.34-10.29,95.39c3.24,4.73,11.69,6.55,14.46,0.58C1233.7,1728.64,1235.14,1714.31,1236.72,1702.06z"/>
	<path class="st6" d="M1224.57,1062.02c69.47,11.46,126.7,66.73,157.05,128.5c-15.81-17.42-31.82-26.71-34.57-28.25
		c-3.7-2.06-23.43,0-42.75-4.52c-19.32-4.52-29.18-13.15-38.23-30.01c-9.04-16.85-2.05-39.05-5.75-44.8
		c-3.7-5.75-42.63-21.91-42.63-21.91L1224.57,1062.02z"/>
	<path class="st6" d="M673.2,888.47c-7.94,3.69-15.41,8.4-22.23,14.29c-2.26-2.91,14.53-24.07,17.44-27.67
		c3.85-4.78,26.87-30.63,30.84-30.59c0.51,0,5.7,4.97,7.86,6.06c6.22,3.16,12.58,3.02,19.16,2.4c-4.6,1.85-10.77,3.96-15.89,4.42
		c-9.51,0.85-18.59,1.27-25.78,10.99C680.28,874.21,675.95,882.67,673.2,888.47z"/>
	<path class="st6" d="M707.97,816.51c1.42-15.19,8.89-30.29,17.66-42.5c5.36-7.47,13.95-19.4,20.46-27.96
		c-1.75,10.19-7.84,40.55,3.01,60.15c-0.32-16.61,1.76-33.57,5.81-50.49c13.23-55.2,44.07-97.35,64.81-117.65
		c-2.78,3.88,96.22-79.38,175.9-55.84c-87.03,6.74-190.9,93.2-193.97,99.94c-16.48,22.78-29.4,51.05-39.33,81.08
		c-8,24.22-11.09,49.1-11.09,49.1s-5.44-10.35-11.91-23.24C732.86,776.22,715.39,802.3,707.97,816.51z"/>
	<path class="st6" d="M1003.97,708.04c-2.55,18.79,25.95,29.25,34.03,11.09c6.5,5.22,8.71,12.09,11.1,18.98
		c5.07-10.6-5.45-32.93-18.28-29.42c-6.94,1.9-5.2,15.07-15.07,8.94c-9.04-5.62,0.72-16.15,7.73-19.36
		c9.58-4.38,44.99-4.39,54.91-0.55c12.24,4.75,11.09,21.32,3.96,19.81c-4.35-0.93,0.94-14.59-9.88-9.87
		c-11.75,5.11-11.35,23.03-8.34,30.46c2.97-9.03,4.7-12.09,7.76-13.99c4.05-2.51,10.48,0.67,15.2-0.61
		c5.29-1.43,9.02-8.04,8.71-13.39c22.84,6.86,37.89,17.17,52.2,36.7c-4.8,0.03-10.91-1.37-10.67,3.61
		c0.82,2.78,11.13,2.41,13.91,2.92c2.95,2.59,7.62,13.25,7.95,17.53c-8.26-2.76-12.25-3.65-16.86-4.17
		c-3.05-0.33-3.48,3.06-2.35,4.23c1.98,2.05,15.72,5.68,20.34,8.49c1.68,4.06,2.05,15.56,0.35,21.99c-5.42-4.36-10.9-9.86-17-13.3
		c-1.39-0.78-4.43-1.27-5.65,1.06c-1.83,4.76,13.64,13.37,19.44,21.02c-2.85,9.5-9.59,13.11-20.5,17.36
		c-16,5.94-60.8-3.14-73.88-17.18c6.96-17.38,10.35-58.05-4.37-66.88c5.9,23.3,4.49,61.04-30.52,81.35
		c-25.71,14.92-59.52,23.41-89.13,19.3c8.19-16.72,23.39-27.93,19-31.64c-9.73-6.43-23.21,22.51-26.86,29.26
		c-1.86,0.8-20.25-6.26-20.63-7.93c9.09-13.79,37.75-32.51,33.23-37.16c-5.64-6.21-34.53,25.31-41.13,33.61
		c-6.69-2.96-14.03-11.91-16.63-16.66c13.46-11.34,27.38-20.27,44.16-28.5c2.04-0.76,12.12-3.02,6.37-9.09
		c-4.72-4.95-27.38,10.56-37.09,19.05c8.41-10.23,16.44-23.38,25.37-33.99C965.19,713.19,993.14,720.68,1003.97,708.04z"/>
	<path class="st6" d="M718.73,877.84c-34.43,32.96-150.06,158.23-82.37,258.64c25.23,33.05,67.63,20.96,100.94,33.72
		c3.64,1.4,6.95,2.54,8.64,6.41c-3.72,8.2,4.69,18.07,3.15,26.91c-6.38-4.06-10.08-11.53-17.38-14.25c0.88,5.04,4.43,8.6,3.16,14.25
		c-52.71,3.96-95.89-5.14-142.48-28.49c-65.38-22.6,11.79-210.11,54.58-250.15C674.4,900.53,695.77,890.72,718.73,877.84z"/>
	<path class="st6" d="M1382.82,1068.58c-12.88,14.15-24.19,23.51-42.48,31.62c-34.66-37-77.83-57.19-123.44-75.57
		c-2.69-21.94-15.84-39.77-26.14-58.55c18.83,21.39,51.85,56.16,77.59,67.25c25.15,10.84,66.71,7.59,85.14-16.13
		c9.59-12.34,10.24-11.24,13.31-21.52c0.9-3.02,2.52-9.78,2.52-12.67l5.15-26.04c3.89-0.73,7.54,4.13,16.65,0.21
		C1394.68,991.61,1388.44,1035,1382.82,1068.58z"/>
	<path class="st6" d="M892.71,860.83c4.05,8.64,11.49,13.34,21.22,9.77c2.82-8.77,5.91-11.24,9.3-7.43
		c-0.67,3.53-2.52,10.86-1.69,15.51c2.14-6.42,6.81-16.49,9.59-19.81c3.77-1.26,8.8,3.41,10.8,6.97c5.41,9.59,6.16,35.94,6.02,43.45
		c-16.84-4.33-36.24-17.36-48.46-27.92c14.37,23.1,23.09,22.81,48.81,41.42c0.1,25.76,0.72,51.61,0.32,77.38
		c-0.15,9.5-7.26,31.71,9.43,29.22c-4.01,1.39-7.01,2.99-11.61,0.11c-7.8-4.89-4.09-51.15-7.67-61.58
		c-7.48-2.87-19.86-12.31-27.44-16.53c8.81,3.57,16.53,5.88,24.46,8.12c-18.72-25.93-59.59-40.4-74.03-77.45
		c6.6,3.9,22.45,19.19,42.46,22.26c1.48-1.43-8.39-14-9.79-16.31C889.66,880.85,888.66,873.22,892.71,860.83z"/>
	<path class="st7" d="M968.34,858.31l29.3-4.64c0.09,37.33-4.78,76.48-15.04,112.4c-3.61,12.62-11.5,37.23-19.4,47.08
		c-9.14,11.38-7.08-6.82-6.78-13.11c2.36-49.4,4.7-90.02-3.09-140.02c3.95,0.13,8.46-0.71,11.19-0.46
		c1.47,5.12,2.77,23.34,3.9,38.96C969.56,889.81,970.98,864.91,968.34,858.31z"/>
	<path class="st8" d="M968.34,858.31l29.3-4.64c0.02,7.36-0.16,14.79-0.53,22.25c-3.88,1.02-7.84,2.88-11.19,6.1
		c-10.98,10.56-17.32,22.38-17.74,60.39c-0.34,30.37-7.96,62.09-11,73.61c-1.91-2.72-0.96-11.89-0.77-16
		c2.36-49.4,4.7-90.02-3.09-140.02c3.95,0.13,8.46-0.71,11.18-0.46c1.47,5.12,2.78,23.34,3.9,38.96
		C969.56,889.81,970.98,864.91,968.34,858.31z"/>
	<path class="st7" d="M1102.11,839.43c0.8,0.78,3.56,44.36,4.09,58.86c1.88-10.83,4.07-47.2,4.09-56.97
		c6.95,1.19,11.58,1.91,18.74,1.26c1.71,38.84-2.64,77.15-15.11,113.93c-3.6,10.62-10.16,28.55-16.25,37.57
		c-1.37,2.03-1.79,4.32-5.04,3.64c2.67-33.98,6.04-67.86,4.81-102.16c-0.34-9.22-0.93-20.78-1.67-30
		c-0.48-6.08-4.98-23.38-4.66-26.96C1091.42,834.92,1099.49,838.88,1102.11,839.43z"/>
	<path class="st8" d="M1102.11,839.43c0.8,0.78,3.56,44.36,4.09,58.86c1.88-10.83,4.07-47.19,4.09-56.96
		c6.95,1.19,11.58,1.91,18.74,1.26c0.67,15.26,0.41,30.43-0.91,45.46c-5.51,1.57-10.32,3.83-12.96,7.07
		c-9.29,11.41-12.13,88.64-22.53,102.61c2.67-33.98,6.04-67.86,4.81-102.16c-0.34-9.22-0.93-20.78-1.67-30
		c-0.48-6.08-4.98-23.38-4.66-26.96C1091.42,834.92,1099.49,838.88,1102.11,839.43z"/>
	<path class="st6" d="M1084.7,956.58c-0.06-4.21-1.44-12.11-4.05-9.92c-5.36,4.4-11.46,8.14-20.26,12.75
		c9.04-6.79,11.77-10.44,13.46-16.68c-24.76,20.35-54.87,22.06-79.38,18.59c2.26-9.41,6.38-18.65,6.34-28.48
		c34.21,16.42,72.36-1.99,85.46-19C1087.73,924.95,1086.53,941.75,1084.7,956.58z"/>
	<path class="st5" d="M1078.37,899.59c-16.99,18.9-49.36,18.7-71.58,10.14l0.35-13.3c0.49-3.82,0.94-10.16,1.36-13.39
		c14.39,17.75,73.53,14.17,76.19-15.09c1.19,6.58,2.45,14.09,1.6,19.65C1085.7,891.39,1080.61,896.34,1078.37,899.59z"/>
	<path class="st9" d="M1046.03,864.94c-7.06-4.77-10.7-7.73-13.45-10.8c28.61-3.79,51.78,23.23,16.36,27.9
		c-8.66,1.14-35.37-2.55-39.53-10.95c-1.05-2.12,0.73-16.02,0.88-18.99C1024.36,850.84,1034.56,862.81,1046.03,864.94z"/>
	<path class="st6" d="M1007.13,896.42c-0.04,2.56,0.54,9.87,2.31,11.08c25.62,7.32,58.29,0.57,76.84-19.91
		c-3.68,32.48-53.2,45.71-82.15,37.17L1007.13,896.42z"/>
	<path class="st6" d="M1048.29,966.07c-1.72,7.3-18.84,8.05-6.33,15.83c0.27,1.34-0.09,2.4-1,3.38c-0.97,1.05-10.77,3.14-13.06,3.45
		c-14.05,1.94,0.08-2.12,4.56,1.08c-14.4,4.57-30.75-1.58-44.32-6.33c0.85-2.4,3.25-10.57,4.11-14.36
		C1010.41,971.48,1030.89,972.5,1048.29,966.07z"/>
	<path class="st5" d="M892.71,860.83c0.53-3.37,6.73-15.12,7.6-15.1c6.44,4.41,14.22,7.75,24.46,11.18
		c-0.53,2.19-1.3,5.04-1.54,6.26c-5.15-0.39-4.06,8.16-7.93,10.28C907.96,877.47,888.94,875.32,892.71,860.83z"/>
	<path class="st6" d="M1003.94,1066.04c-19.31,29.45-66,97.87-61.52,133.34c3.97,31.45,12.2,57.36,9.36,90.48
		c-1.6,18.83-14.19,38.14-12.7,56.92c1.27,16.04,17.41,49.81,30.21,60.03c23.87,19.05,54.66-1.25,79.07-9.28
		c19.86-6.53,40.51-13.29,61.66-11.93c0.16,2.13-0.34,2.39-2.03,3.13c-16.39,9.34-23.64,20.59-17.54,23.67
		c-2.44,6.3-18.05,21.86-23.77,26.74c15.52-0.37,42.77,0.24,57.91,3.91c41.64,10.1,88.46,54.63,131.58,29.32
		c15.21-8.92,11.14-16.3,23.54,3.94c3.29,5.37,3.96,12.81,11.19,15.73c10.32,4.15,55.57-3.73,59.67,2.89
		c3.77,6.11-3.83,4.03-6.25,4.64c-14.46-1.92-49.52,14.71-57.67,26.89c-8.88-13.5-8.81-28.32-12-47.46
		c-5.74,25.48-0.46,42.98,1.6,48.64c-7.36-7.09-14.71-30.13-18.2-43.9c-1.37,26.97,6.02,42.2,9.56,52.16
		c2.2,6.22-2.82,3.44-6.16,1.6c-13.36-7.33-22.33-27.94-31.09-39.52c1.45,13.82,9.8,36.77,14.37,46.26
		c-14.83-2.02-31.12-10.41-43.68-19.35l12.55,20.91c-1.21,0.88-25.71-14.38-34.35-20.86c2.15,4.72,13.03,19.13,16.59,21.02
		c-2.64,0.18-35.48-15.56-64.59-33.39l32.46,31.92c-12.32-1.1-58.84-34.16-67.91-39.41c9.84,13.07,28.91,31.25,44.54,38.23
		c-27.6-3.47-57.43-35.61-79.37-51.67c26.08,33.91,34.39,36.67,53.81,51.43c-38.96-10.14-60.19-35.73-79.42-53.23
		c13.56,28.54,29.5,37.79,44.59,50.08c-42.22-6.26-57.39-37.37-78.98-63.9c5.02,21.06,18.23,47.07,28.33,54.4
		c-22.84,0.71-44.56-44.41-57.97-59.94c-0.9,10.46,15.55,44.96,19.97,53.61c-28.45-22.02-42.88-61.97-51.13-77.07
		c5.2,38.41,26.38,68.41,30.2,73.45c-45.47-9.27-48.56-87.96-49.55-93.23c-8.21,44.66,1.65,65.02,10.33,83.37
		c-31.4-25.23-24.72-71.53-22.13-106.04c-10.88,22.51-12.18,49.72-12.67,72.81c-6.65-31.46-1.72-63.3-0.03-94.97
		c-8.85,20.38-13.75,42.14-15.83,64.89c-3.31-27.46-4.08-51.63,0.73-82.39c2.22-6.7,12.61-4.19,19.12-9.38
		c8.67-6.89,20.89-38.97,24.04-50.36c14.33-51.63,1.57-129.07-23.8-165.19C919,1124.26,979.1,1072.33,1003.94,1066.04z"/>
	<path class="st5" d="M1413.97,1391.9c8.41-19.8,12.05-47.4,14.29-68.84c0.17-1.68-1.04-5.33,2.31-3.96
		c2.9,1.17,10.85,13.89,12.72,17.36c8.5,15.89,14.65,39.92,16.57,57.83c1.53,14.36,1.48,43.31,4.92,66.4
		c3.16,20.41,12.92,29.95,21.58,30.96c-3.35-3.3-15.52-25.38-8.24-25.42c6.58-0.04,22.02,7.87,31.82,9.37
		c23.9,3.67,50.06,2.23,74.2,4.95c44.34,4.99,96.71,19.9,136.1,47.95c9.99,7.11,24.02,22.14,23.01,27.19
		c-0.69,3.49-17.86,2.84-21.27,2.31c-10.34-1.6-13.5-11.29-20.96-17.03c-29.7-22.86-65.65-30.88-98.66-31.94
		c23.06,4.6,92.25,24.58,96.18,45.5c2.51,9.1-17.89,7.62-23.8,6.38c-7.11-1.49-19.58-12.93-30.82-16.67
		c-38.07-12.66-69.08-18.94-90.64-17.8l75.99,25.33c4.06,1.89,3.95,3.02,0.57,5.8c-5.68,4.67-70.05-5.4-80.6-7.57
		c-35.81-7.37-78.41-16.92-102.12-45.77c-7.82-9.51-31.19-42.74-4.54-39.83c-6.35-14.67-13.47-29.04-21.35-43.12l-4.22-19.63
		C1414.63,1398.12,1413.63,1394.86,1413.97,1391.9z"/>
	<path class="st6" d="M1282.53,1386.68c11.67-2.65,18.71-3.18,27.9-7.25c5.33,1.57,10.56,4.53,14.28,2.4
		c11.36-12.2,36.62-25.45,29.6-34.19c24.24-20.05,37.55-55.02,34.21-104.32c18.51,38.77,3.8,99.52,16.33,139.89
		c-1.28,8-3.75,18.14-5.1,26.11c5.57-3.64,11.67-11.39,14.23-17.41c4.41,12.64,32.06,73.45,31.52,74.25
		c-3.39,5-16.51-5.2-11.46,10.96c1.71,5.47,18.3,30.18,22.77,34.22c27.68,25.05,150.2,51.32,172.46,40.46
		c2.56,0.71,22.94,8.37,23.74,14.23c-9.13,1.81-18.43,3.82-27.72,4.75c-39.16,3.92-104.63-3-143.33-11.77
		c-2.44-0.55-26.52-4.08-31.44-16c5.33,3.78,19.84,9.52,39.42,7.24c-25.76-8.22-40.73-13.32-51.38-39.65
		c-3.16-7.82-3.9-15.2-6.4-22.1c-4.61-12.72-12.83-24.86-13.46-39.57l-4.71,9.47c-1.96-7.67-2.03-14.42,0.59-22.87
		c-4.63,5.06-6.32,5.96-7.3,13.6C1378.3,1408.56,1327.06,1386.37,1282.53,1386.68z"/>
	<path class="st6" d="M806.09,996.15c6.4,12.54,11.27-22.85,6.33-36.41c26.76,6.2,38.13,46.49,36.38,70.42
		c-0.84,11.61-5.43,11.94,1,24.38c27.66,53.51,66.31,82.24,132.84,19.22c7.25-3.33,12.4-5.96,21.32-11.12
		c4.5,4.42-34.07,30.03-36.4,32.46c-10.08,9.37-1.44,6.07,6.33,8.69c-35.78,32.75-53.97,42.79-73.32,36.18
		c-3.52-4.81-16.66-19.44-20.02-22.78c-18.51-18.38-41.74-34.08-64.95-45.87c-0.4-0.83,16.63-5.65,18.33-9.82
		c-5.65,1.13-7.43,1.33-12.18,1.08c12.67-9.6,20.05-19.78,20.75-31.61c-5.31,7.66-18.6,26.24-39.57,33.22
		c17.1-22.55,38.62-53.58,18.99-91.8c2.91,13.76-0.12,50.21-17.9,68.01C806.89,1028.64,807.67,1008.71,806.09,996.15z"/>
	<path class="st2" d="M454.68,1478.97c-0.64-12.6,1.49-29.17,11.05-37.99C463,1447.68,458.9,1460.6,454.68,1478.97z"/>
	<path class="st2" d="M733.29,1306.43c2.6,1.1,4.45,7.24,5.21,9.81c9.77,32.86,4.4,70.73,13.93,106.37
		c2.92,10.94,6.91,13.36,7.83,0.24c2.53-36.02-4.37-73.82,10.98-107.74l7.93-16.58c-5.39,18.85-10.79,36.58-12.65,54.99
		c-2.07,20.59,2.69,61.5-3.94,77.99c-4.23,10.52-11.99,1.65-14.01-5.71c-6.38-23.35-6.42-50.43-8.98-74.22
		C737.96,1336.52,736.39,1320.33,733.29,1306.43z"/>
	<path class="st2" d="M805.94,1410.01c-1.11-4.51-1.36-7.46-1.44-9.38c-0.29-6.87,0.24-13.79,0.06-20.66
		c-0.26-10.11-1.97-26.57-0.02-30.31c3.59-5.04,3.2,8.03,3.12,11.4C807.37,1376.14,807.61,1395,805.94,1410.01z"/>
	<path class="st2" d="M760.17,1461.55c-3.07,15.17-9.09,30.52-19.77,44.29C746.98,1491.08,753.58,1476.32,760.17,1461.55z"/>
	<path class="st2" d="M759.73,1485.62c-0.13,8.77-8.83,26.07-17.59,32.28C749.74,1506.54,754.7,1494.21,759.73,1485.62z"/>
	<path class="st2" d="M793.43,1339.66c7.59-7.45,0.62,30.19,0,34.82C793.43,1362.88,791.97,1341.71,793.43,1339.66z"/>
	<path class="st2" d="M1112.69,1386.58c-2.46,1.08-20.82,9.47-23.12,10.93c-21.68,13.75-36.07,34.18-54.75,51.37
		c-2.54-1.47,0.6-3.55,1.43-4.9c14.77-23.72,34.94-47.89,63.02-55.73C1101.58,1387.61,1110.76,1383.93,1112.69,1386.58z"/>
	<path class="st2" d="M1246.53,1362.4c-36.03-4.88-60.11-8.24-72.07-9.03C1198.82,1350.16,1221.07,1353.96,1246.53,1362.4z"/>
	<path class="st2" d="M1032.46,989.82c-2.56,0.27-11.39,1.2-12.66-1.57c12.82-0.91,38.45-12.04,45.69-17.61
		C1061.96,981.85,1040.19,989.01,1032.46,989.82z"/>
	<path class="st2" d="M1116.36,1339.65c-15.41-1.58-29.53,5.18-44.32,7.92c5.67-5.68,20.09-9.61,28.11-10.66
		C1104.76,1336.3,1113.92,1334.61,1116.36,1339.65z"/>
	<path class="st2" d="M1098.93,1406.15c-4.17,7.86-22.91,26.48-29.88,31.05c-1.35,0.88-3.52,3.89-4.92,1.4
		C1070.74,1432.68,1094.23,1406.65,1098.93,1406.15z"/>
	<path class="st2" d="M960.57,763.22c2.26,0,4.08,1.83,4.08,4.08c0,2.25-1.83,4.08-4.08,4.08c-2.25,0-4.08-1.83-4.08-4.08
		C956.49,765.05,958.32,763.22,960.57,763.22z"/>
	<path class="st2" d="M957.14,785.84c2.25,0,4.08,1.83,4.08,4.08c0,2.26-1.83,4.08-4.08,4.08c-2.26,0-4.08-1.83-4.08-4.08
		C953.06,787.67,954.89,785.84,957.14,785.84z"/>
	<path class="st2" d="M976.9,802.56c2.25,0,4.08,1.83,4.08,4.08c0,2.26-1.83,4.08-4.08,4.08c-2.25,0-4.09-1.83-4.09-4.08
		C972.82,804.39,974.65,802.56,976.9,802.56z"/>
	<path class="st2" d="M1123.14,747.97c2.26,0,4.08,1.83,4.08,4.08c0,2.26-1.83,4.09-4.08,4.09c-2.25,0-4.08-1.83-4.08-4.09
		C1119.05,749.8,1120.88,747.97,1123.14,747.97z"/>
	<path class="st2" d="M1128.73,763.86c2.25,0,4.08,1.83,4.08,4.08c0,2.26-1.83,4.08-4.08,4.08c-2.26,0-4.09-1.83-4.09-4.08
		C1124.64,765.69,1126.47,763.86,1128.73,763.86z"/>
	<path class="st2" d="M1126.85,783.21c2.26,0,4.08,1.83,4.08,4.09c0,2.25-1.83,4.08-4.08,4.08c-2.25,0-4.08-1.83-4.08-4.08
		C1122.76,785.04,1124.59,783.21,1126.85,783.21z"/>
	<path class="st2" d="M1342.99,962.51l3.3,9.64c0,0,20.14,7.15,32.49,2.08c12.35-5.07,22.49-17.74,12.99-33.26
		c-9.5-15.52-37.94-33.47-52.55-33.21c-14.6,0.27-20.94,16.73-20.94,16.73L1342.99,962.51z"/>
	<path class="st5" d="M1190.76,966.07c-12.89-17.54-24.28-31.89-28.59-54.36c12.44,17.37,20.75,27.97,31.13,38.36
		c36.77,36.83,89.28,51.66,135.69,22.04c4.24-2.7,14.96-13.59,17.69-14.02c3.75-0.59,4.14,9.33,8.7,9.55
		c0-17.15-2.2-30.57,4.95-46.5c4.32-9.61,13.32-17.51,24.28-16.89c13.88,0.78,55.5,30.42,33.97,41.88
		c-13.38,7.12-31.49-4.52-44.2-8.56c-0.69,10.89,11.68,17.04,16.71,19.59c-4.58,4-7.61,5.41-15.14,0.98
		c5.14,68.51-59.11,107.34-116.79,74.1C1232.2,1016.71,1208.06,991.69,1190.76,966.07z"/>
	<path class="st2" d="M970.13,625.47c-29.48-12.82-54.28,1.89-75.7,21.13c4.7-20.83,34.38-38.57,54.89-35.91
		C954.18,611.32,970.82,615.4,970.13,625.47z"/>
	<path class="st2" d="M1296.38,1251.52c0,0,9.01-8.44,20.67-14.72c11.66-6.27,25.23-4.08,27.19-5.58c1.95-1.5-13.07-5.22-22.63-1.92
		C1312.05,1232.6,1299.81,1244.75,1296.38,1251.52z"/>
	<path class="st2" d="M1296,1228.23c0,0,5.66-5.3,12.99-9.25c7.33-3.94,15.86-2.56,17.09-3.51c1.23-0.95-8.21-3.28-14.22-1.21
		C1305.85,1216.34,1298.16,1223.97,1296,1228.23z"/>
	<path class="st2" d="M1012.66,678.86c17.25-10.86,43.04-12.94,53.93-0.29C1066.58,678.57,1039.96,670,1012.66,678.86z"/>
	<path class="st2" d="M1407.15,1641.93c0.11-0.05,40.11-19.16,69.41-11.84c63.92,15.98,79.75-5.77,93.8-25.07
		c7.68-10.55,14.91-20.48,27.83-25.42l4.61,12.12c-9.39,3.58-15.5,11.98-22,20.9c-16.47,22.63-35.03,48.13-107.39,30.04
		c-24.78-6.19-60.64,10.93-60.74,10.98L1407.15,1641.93z"/>
	<path class="st2" d="M631.41,1400.46c-5.7,11.77-54.21,64.72-61.51,62.86C588.54,1441.65,608.97,1420.67,631.41,1400.46z"/>
	<path class="st2" d="M628.79,1425.16c0.96,0.69-30.3,37.43-34.82,36.38C601.9,1445.1,622.69,1428.71,628.79,1425.16z"/>
	<path class="st2" d="M464.17,1475.8c0.89-5.52,54.07-50.4,60.34-54.22C521.32,1428.46,476.55,1477.12,464.17,1475.8z"/>
	<path class="st2" d="M614.55,1463.15c-4.86,6.74-22.05,23.68-31.65,30.05C587.89,1482.22,607.22,1464.8,614.55,1463.15z"/>
	<path class="st10" d="M1126.16,687.46c-5.2-1.49-11.01-2.13-13.08-2.27c-0.39-2.16-0.29-8.55-3.76-10.8
		c-2.12,4.82-6.11,6.15-10.52,4.29c-5.25-2.21-5-10-1.15-11.8c-7.8-0.04-16.7,3.89-17.15,18.25c-4.86-18.09,4.32-25.18,8.81-27.4
		C1107.25,648.85,1127.27,669.73,1126.16,687.46z"/>
	<path class="st2" d="M995.17,706.23c-9.12-2.27-17.65-6.38-27.19-7.29c-20.94-1.99-42.28,3.61-60.45,13.87
		c-2.43,1.37-8.67,9.16-8.64,3.45c0.03-5.22,5.5-5.67,6.22-9.33c0.98-4.98-1.11-14.07-0.59-19.75
		c3.63-39.83,52.78-58.89,78.25-26.02C992.66,673.9,992.66,690.84,995.17,706.23z"/>
	<path class="st2" d="M976.25,723.88c-21.86-7.35-48.93-3.66-69.07,6.67C921.59,711.29,957.65,709.1,976.25,723.88z"/>
	<path class="st7" d="M985.06,693.43c-3.53-1.22-18.59-4.65-24.3-4.84c1.65-2.65-0.29-10.96-1.97-12.14
		c-5.71,13.69-24.37,3.19-12.72-7.1c-21.18-0.03-21.05,18.72-19.68,24.2c-0.93,0.9-12.13,5.48-12.68,5.07
		C910.94,642.01,978.23,636.01,985.06,693.43z"/>
	<path class="st5" d="M1083.22,691.63c4.78,1.02,9.9,4.41,11.35,9.46c12.22,1.55,22.39,5.15,31.44,9.13c0,0,3.7-6.66-0.84-11.94
		C1121.26,694.06,1100.65,689.84,1083.22,691.63z"/>
	<path class="st2" d="M833.72,469.97c2.63-1.54,5.45-2.87,8.42-4.02l11.18-5.31l0.05,1.97c20.24-4.51,44.31-2.72,62.02,1.67
		c19.06,4.72,49.34,21.52,61.51,37.03c5.35,6.82,8.72,11.12,14.45,18.42l-23.14,3.53c-24.75,3.78-48.16,6.67-71.88,13.68
		c-26.61,8.97-52.56,20.79-76.28,35.84l-1.14,0.73l-5.92,4.16c-4.43,3.12-8.86,6.23-13.3,9.34l-18.6,13.07l-2.82-22.56
		C773.12,536.35,795.74,488.41,833.72,469.97z"/>
	<path class="st11" d="M840.21,482.01c-0.88,5.76,1.77,13.38,4.25,18.33c7.31,14.61,9.5,20.48,24.88,22.89
		c12.45,1.94-2.06,4.67,11.54,4.34c29.93-10.53,55.92-13.34,85.27-17.82c-11.26-14.35-40.36-28.81-54.03-32.2
		C891.59,472.47,858.66,470.93,840.21,482.01z"/>
	<path class="st2" d="M795.87,406.1c6.29-2.44,12.43-1.68,18.6,0.98c2.08,0.9,3.67,2.01,5.07,3.14c3.71-5.83,9.08-10.06,17.25-8.2
		c3.95,0.9,5.89,1.85,8.54,4.78c2.87,3.18,4.38,5.75,5.46,8.45c3.34-1,6.92-0.94,10.69,0.87c8.84,4.23,11.02,12.9,10.59,21.62
		c3.74,3.72,5.28,9.17,3.94,15.74c-1.53,7.54-4.78,14.16-11.03,18.88c-7.15,5.38-15.45,6.15-23.63,8.84
		c-10.05,3.32-17.8,9.05-25.11,16.65c-6.85,7.11-14.64,14.57-25.26,14.46c-5.66-0.06-10.76-2.35-14.89-6.15l-1.28-1.18l-0.95-1.46
		c-1.25-1.93-2.06-3.76-2.53-5.55c-1.77-0.22-3.59-0.76-5.57-1.77c-4-2.04-6.87-5.51-8.35-9.72l-0.51-1.45l-0.18-1.52
		c-0.61-5.28,0.63-10.42,3.77-14.73c0.63-0.86,1.24-1.61,1.85-2.27c-3.42-4.5-5.01-9.95-3.4-16.39l0.11-0.41
		c1.12-3.92,3.45-7.29,6.81-9.62c-0.23-2.26-0.04-4.74,0.66-7.55l0.41-1.65l0.81-1.5c1.76-3.28,4.47-5.88,7.89-7.38
		c3.12-1.37,6.2-1.64,9.31-1.22c0.05-0.45,0.12-0.94,0.21-1.46c0.78-4.37,3.1-8.12,6.54-10.9l2.09-1.7L795.87,406.1z"/>
	<path class="st11" d="M818.84,426.5c-4.13-2.13-6.59-5.48-9.78-6.86c-5.69-2.45-7.94-0.83-8.74-0.59
		c-4.77,3.87,2.09,9.08-1.88,15.05c-6.9,6.88-15.81-3.53-18.64,1.74c-1.93,7.78,7.83,9.33,6.03,12.54
		c-3.17,4.41-11.98-0.67-13.62,5.08c-1.86,7.38,11.07,10.15,12.14,14.45c-0.6,4.75-15.17,4.37-14.05,14.02
		c2.11,5.96,10.34-1.07,15.56,2.23c3.92,3.7-3.57,7.23-0.53,11.92c6.91,6.35,13.87-0.26,21.05-7.72c31-32.21,51.55-14.58,56.23-37.6
		c1.34-6.58-4.84-2.81-5.28-6.25c2.22-9.96,1.17-14.65-1.76-16.05c-2.84-1.36-9.04,7.93-11.33,6.17
		c-5.82-5.46-2.82-11.74-9.08-18.65c-1.64-0.56-2.88-3.07-7.03,7.67C825.79,429.78,823.11,428.69,818.84,426.5z"/>
	<path class="st12" d="M798.45,434.09c-6.9,6.88-15.81-3.53-18.64,1.74c-1.93,7.78,7.83,9.33,6.03,12.54
		c-3.17,4.41-11.98-0.67-13.62,5.08c-1.86,7.38,11.07,10.15,12.14,14.45c-0.6,4.75-15.17,4.37-14.05,14.02
		c2.11,5.96,10.35-1.07,15.56,2.23c3.92,3.7-3.57,7.23-0.53,11.92c6.91,6.35,13.87-0.26,21.05-7.72
		c10.14-10.53,19.15-15.73,26.87-18.77c-9.36,1.32-18.53-0.48-20.94-4.07c-2.42-3.59-0.63-9.16-2.65-12.12
		c-2.01-2.96-12.58-4.85-13.52-9.24C795.22,439.76,798.45,434.09,798.45,434.09z"/>
	<path class="st12" d="M892.73,523.72c-22.32,0.53-51.91-17.74-52.53-41.71c-28.9,13.73-53.41,53.51-48.38,93.82
		c4.44-3.11,8.87-6.23,13.3-9.34c-2.45-24.9,5.47-48.77,20.15-65.49c-12.36,24.34-13.68,43.86-12.55,60.25
		C839.96,543.96,868.19,531.94,892.73,523.72z"/>
	<path class="st2" d="M801.83,661.77c-7.56,4.94-16.03,7.01-23.4,0.15c-5.99-5.57-14.43-33.38-15.48-41.85
		c-1.74-14.04,7.04-27.03,17.97-34.98l7.21-5.25c7.05-6.83,16.03-13.99,24.39-18.58l11.21-6.16c9.86-6.7,23.41-12.89,32.2-14.04
		l0.94-0.6c9.88-6.2,22.21-11.1,34.26-14.84l-0.29-0.45l18.78-4.67c22.8-5.66,45.93-10.71,69.47-11.71
		c6.28-0.26,30.48,1.48,34.6,3.18c9,3.73,17.76,18.54,22.41,26.81c5.61,9.98,12.24,26.1,10.49,40c-6.37,9.15-21.08,5.43-30.42,2.99
		c-44.09,0.38-75.15,5.63-117.29,22.39c-15.55,6.19-23.48,10.96-38.21,18.79C839.31,634.32,822.58,648.23,801.83,661.77z"/>
	<path class="st11" d="M912.92,533.78c7.65,9.97,14.65,35.58,18.18,44.86c14.72-4.41,25-7,39.41-9.26
		c-0.91-17.75-6.96-31.81-13.5-42.7c13.25,11.33,17.39,26.93,21.68,41.95c12.51-1.46,22.79-1.42,32.05-0.58
		c0.36-9.77-8.33-33.16-15.24-42.78c12.32,9.99,18.3,27.58,22.29,43.26c7.48,1.01,12.25,2.13,15.79,2.9
		c-0.15-13.5-17.82-41.97-23.55-45.8C987.26,516.18,931.01,529.28,912.92,533.78z"/>
	<path class="st11" d="M864.14,552.04c-1.32,12.6,8.46,37.75,14.32,44.96c5.83-2.59,28.55-11.91,46.13-16.48
		c-1.15-5.64-13.3-41.62-15.58-45.68C893.03,538.79,875.48,544.93,864.14,552.04z"/>
	<path class="st12" d="M837.97,619.94c11.17-7.31,30.21-17.32,33.28-19.21c-7.39-16.3-10.87-28.97-13.35-46.14
		c-3.83,0.44-23.77,8.2-33.23,16.73C823.87,582.45,832.15,610.1,837.97,619.94z"/>
	<path class="st12" d="M819.12,573.63c0.66,16.31,5.43,35.61,13.26,49.97c0.76,1.4-9.69,7.07-15.31,10.58
		c-5.62,3.51-7.04,4.52-8.9,2.75c-1.87-1.77-8.57-12.15-11.74-25.56c-3.17-13.41-0.25-20.28-0.25-20.28S807.89,579.8,819.12,573.63z
		"/>
	<path class="st12" d="M788.97,596.14c0,0-0.1,12.47,3.12,23.64c3.22,11.16,9.77,20.83,10.39,23.79c0.63,2.96-4.78,4.58-8.12,6.76
		c-3.34,2.18-5.09,3.01-6.62,1.58c-1.53-1.42-10.19-25.17-11.22-33.51C775.49,610.05,781.57,601.52,788.97,596.14z"/>
	<path class="st2" d="M1477,1022.14c9.52,9.97,20.12,25.01,19.67,38.45c-0.43,12.68-5.77,22.2-15.04,30.7
		c-14.61,13.38-38.36,23.49-56.61,30.56c-29.65,11.49-97.82,33.97-128.01,15.92c-17.36-10.38-19.59-35.26-16.52-53.83l-63.21-212.12
		l13.68-2.84c14.39-3.29,29.81-9.8,42.29,2.4c3.14,3.07,5.88,6.47,8.13,10.13c1.18-8.54,3.61-20.28,8.06-26.66l9.18-13.17
		l10.74,11.51c3.34,3.22,7.6,2.87,11.38,0.6c5.88-3.54,11.24-10.48,12.55-17.33l2.41-14.92l14.35,4.73
		c6.58,2.06,17.64,2.72,21.65-4.21l4.83-8.34l9.23,2.17c5.09,1.11,13.09,1.49,18.04-0.15l12.85-4.27L1477,1022.14L1477,1022.14z
		 M1287.97,914.54c-0.92,8.76-2.17,19.35,2.85,25.29c1.05,1.25,3.66,3,5.37,2.17c1.04-0.51,0.74-4.19,0.64-4.95
		C1295.63,928.28,1291.67,921.51,1287.97,914.54z"/>
	<path class="st7" d="M1407.9,828.07l57.53,200.84c0,0,18.7,18.16,18.26,31.25c-0.44,13.09-7.33,27.88-63.36,49.59
		c-56.03,21.71-99.96,26.87-116.66,16.88c-16.7-9.99-9.85-43.4-9.85-43.4l-60.07-201.58l0.09-0.02c12.25-2.8,23.36-7.78,30.33-0.97
		c6.96,6.8,11.65,16,11.38,26.56c-0.27,10.56-5.26,28.44,5.35,40.99c10.61,12.54,31.64,8,28.78-12.92
		c-2.86-20.93-17.87-30.8-15.83-48.87c2.03-18.07,6.24-24.14,6.24-24.14s11.47,12.18,27.34,2.64c15.87-9.54,18.66-26.29,18.66-26.29
		s26.11,8.49,36.85-10.06C1382.93,828.58,1396.94,831.72,1407.9,828.07z"/>
	<path class="st13" d="M1477.67,1076.6c-7.31,9.26-23.21,19.92-57.33,33.14c-42.61,16.51-78.22,23.45-100.18,21.43
		c0,0-0.61-2.87,8.07-14.67c8.68-11.81,64.78-36.68,86.36-40.79c21.58-4.11,33.11-5.6,42.24-4.76
		C1465.97,1071.81,1474.77,1070.1,1477.67,1076.6z"/>
	<path class="st14" d="M1410.08,885.59c0,0-8.59-0.49-20.78-0.44l45.02,162.45c14.21-3.52,22.04,0.07,22.04,0.07
		C1441.61,995.06,1424.82,938.19,1410.08,885.59L1410.08,885.59z M1374.67,885.48l48.83,164.93l0,0c-8.18,2.21-18.22,5.1-30.34,8.87
		c-44.94,13.98-81.59,40.35-81.59,40.35s-3.11-13.75-4.69-21.9c-1.58-8.14-52.9-174.04-52.9-174.04s2.9,1.04,10.09,1.09
		c7.19,0.05,35.82-4,65.62-13.04C1342.69,887.78,1359.67,886.11,1374.67,885.48z"/>
	<path class="st2" d="M1430.37,1005.87c3.18,12.64,2.34,20.34-0.46,24.02c-0.96,1.27-2.19,2-3.55,2.22
		c-1.5,0.24-3.22-0.07-5.01-0.89c-5.65-2.6-11.48-9.86-13.82-20.47c-2.97-13.48-37.34-115.65-37.43-115.95
		c6.62,28.48,28.86,103.36,31.9,117.16c2.75,12.47,9.93,21.17,16.98,24.41c2.81,1.29,5.66,1.77,8.29,1.33
		c2.77-0.46,5.24-1.89,7.14-4.39c3.74-4.93,5.1-14.29,1.44-28.83c-3.36-13.34-35.76-112.09-35.84-112.38
		C1403.31,915.16,1427.03,992.59,1430.37,1005.87z"/>
	<path class="st2" d="M1383.22,1021.96c3.18,12.64,2.34,20.34-0.46,24.02c-2.2,2.9-11.57,4.66-14.61,3.26
		c-5.65-2.6-11.48-9.86-13.82-20.47c-2.97-13.48-37.34-115.65-37.43-115.95c6.62,28.48,28.86,103.36,31.9,117.16
		c2.75,12.47,9.94,21.16,16.98,24.4c5.51,2.54,17.62,0.09,21.47-4.99c3.74-4.93,5.1-14.29,1.44-28.83
		c-3.35-13.34-35.76-112.09-35.84-112.38C1356.17,931.25,1379.88,1008.68,1383.22,1021.96z"/>
	<path class="st2" d="M1331.07,1040.27c3.18,12.64,2.34,20.34-0.46,24.02c-0.96,1.27-2.19,2-3.55,2.22
		c-1.5,0.25-3.22-0.07-5.01-0.89c-5.65-2.6-11.48-9.86-13.82-20.47c-2.97-13.48-37.34-115.65-37.43-115.95
		c6.62,28.48,28.86,103.36,31.9,117.16c2.75,12.47,9.94,21.17,16.98,24.41c2.81,1.29,5.66,1.77,8.29,1.33
		c2.77-0.46,5.24-1.89,7.13-4.39c3.74-4.93,5.1-14.29,1.45-28.83c-3.36-13.35-35.76-112.09-35.84-112.38
		C1304.02,949.56,1327.73,1026.99,1331.07,1040.27z"/>
	<path class="st2" d="M1220.05,822.64c-0.34-11.47,4.33-22.99,13.37-30.4c8.61-7.05,19.95-9.05,30.76-7.4
		c0.06-0.19,0.11-0.38,0.17-0.56c4.06-12.92,13.99-21.57,26.43-26.29c15.07-5.71,31.94-3.25,44.48,6.07
		c18.16-12.95,43.59-9.87,57.21,8.46c8.49-0.26,17.17,2.21,24.11,6.91c11.93,8.07,17.06,21.17,15.23,35.3
		c-2.91,22.38-24.91,28.27-44.05,26.15c-8.69,8.94-21.6,12.16-34.08,10.91c-4.43,9.41-12.04,17.83-20.41,22.87
		c-8.18,4.91-17.96,6.4-26.79,4.1c-0.66,3.41-1.11,6.77-1.36,8.92c-0.33,2.89,0.04,5.49,0.95,8.24c1.64,4.96,4.73,10.02,7.11,14.7
		c3.81,7.48,6.59,14.75,7.74,23.13c4.26,31.2-30.12,43.79-48.71,21.79c-6.9-8.17-9.37-18.01-9.44-28.5
		c-0.04-6.92,1.23-13.4,1.41-20.11c0.18-7.03-3-13.31-8.01-18.2c-2.24-1.04-16.97,3.32-19.81,3.97c-6.2,1.42-12.53,0.81-18.24-2.04
		c-13.39-6.66-19.29-23.03-18.06-37.23C1201.26,839.68,1208.58,828.53,1220.05,822.64z"/>
	<path class="st7" d="M1382.93,828.58c0,0,34.62,7.78,37.62-15.3c3-23.08-19.23-32.59-33.89-28.47
		c-10.54-22.25-38.09-21.99-51.51-5.08c0,0-15.58-20.49-40.33-11.12c-24.74,9.38-20.67,31.23-20.67,31.23s-19.65-10.18-33.51,1.18
		c-13.87,11.37-7.84,29.11-7.84,29.11c-33.29,6.77-24,57.23,1.06,51.5c12.25-2.8,23.36-7.78,30.33-0.97
		c6.96,6.8,11.65,16,11.38,26.56c-0.27,10.56-5.26,28.44,5.35,40.99c10.61,12.54,31.64,8,28.78-12.92
		c-2.86-20.93-17.87-30.8-15.83-48.87c2.03-18.07,6.24-24.14,6.24-24.14s11.47,12.18,27.34,2.64c15.87-9.54,18.66-26.29,18.66-26.29
		S1372.19,847.13,1382.93,828.58z"/>
	<path class="st13" d="M1382.93,828.58c0,0,34.62,7.78,37.62-15.3c1.24-9.56-1.85-16.8-6.93-21.69l-2.85,1.34
		c0,0,2.76,12.67-7.43,19.62c-10.19,6.95-32.36,2.95-32.36,2.95s-4.06,10.31-18.5,11.06c-14.44,0.74-17.78,0.1-17.78,0.1
		s0.69,15.28-13.07,18.61c-13.76,3.33-25.74-1.26-25.74-1.26s-3.25,10.79-16.28,15.86c-13.03,5.07-26.05-2.98-34.36,1.13
		c-7.2,3.56-20.26,13.74-32.79,5.01c2.86,10.28,10.68,18.09,21.39,15.65c12.25-2.8,23.36-7.78,30.33-0.97
		c6.96,6.8,11.65,16,11.38,26.56c-0.27,10.56-5.26,28.44,5.35,40.99c10.61,12.54,31.64,8,28.78-12.92
		c-2.86-20.93-17.87-30.8-15.83-48.87c2.03-18.07,6.24-24.14,6.24-24.14s11.47,12.18,27.34,2.64c15.87-9.54,18.66-26.29,18.66-26.29
		S1372.19,847.13,1382.93,828.58z"/>
	<path class="st2" d="M1384.86,1058.34c-13.8,4.53-71.62,24.04-77.86,46.85c20.58-13.71,51.19-29.59,80.37-39.16
		c26.78-8.78,55-16.9,77.69-16.82C1440.46,1039.43,1409.07,1050.4,1384.86,1058.34z"/>
	<path class="st2" d="M1391.58,1078.39c-11.23,3.69-58.27,19.56-63.35,38.12c16.75-11.15,41.65-24.08,65.39-31.86
		c21.79-7.15,44.75-13.75,63.21-13.69C1436.81,1063.01,1411.28,1071.93,1391.58,1078.39z"/>
	<path class="st2" d="M1369.32,798.99c0.78,0.8,2.06,0.83,2.86,0.05c0.81-0.78,0.83-2.06,0.05-2.86c-0.02-0.02-7.64-7.97-17.19-6.7
		c-9.61,1.27-12.52,7.32-12.52,7.34c-0.51,0.99-0.12,2.21,0.87,2.72c0.99,0.51,2.21,0.12,2.72-0.87c0-0.01,1.99-4.19,9.46-5.18
		C1363.1,792.5,1369.3,798.97,1369.32,798.99z"/>
	<path class="st2" d="M1270.9,839.19c1.09,0.26,2.17-0.42,2.43-1.51c0.26-1.09-0.42-2.18-1.51-2.43c-0.03-0.01-10.72-2.6-18.08,3.62
		c-7.42,6.26-6.6,12.94-6.6,12.96c0.12,1.11,1.12,1.92,2.23,1.79c1.11-0.12,1.92-1.12,1.8-2.23c0-0.01-0.57-4.59,5.18-9.43
		C1262.15,837.07,1270.88,839.18,1270.9,839.19z"/>
	<path class="st2" d="M1317.22,818.1c0.93,0.62,2.18,0.37,2.8-0.56c0.62-0.93,0.37-2.18-0.56-2.8c-0.02-0.02-9.27-6.04-18.28-2.65
		c-9.08,3.42-10.54,9.99-10.55,10.01c-0.26,1.09,0.4,2.18,1.49,2.45c1.09,0.26,2.18-0.4,2.45-1.49c0-0.01,0.99-4.52,8.03-7.17
		C1309.71,813.2,1317.2,818.08,1317.22,818.1z"/>
	<path class="st2" d="M1463.83,987.68c0.13-15.14-15.72-87.36-22.79-101.14c-0.78-0.28-1.61-0.38-2.4-0.1l-12.12,6.62l-15.68-54.75
		l8.9-2.9c7.47-2.43,16.55-4.08,24.32-4.71c18.69-1.52,34.8,8.71,44.08,24.55c3.95,6.74,6.97,18.87,8.98,26.49
		c3.47,13.15,6.5,26.47,9.38,39.76c2.98,13.71,5.79,27.47,8.37,41.27c1.42,7.61,3.61,17.55,3.95,25.23
		c0.77,17.06-1.06,29.74-15.12,41.57c-6.74,5.67-15.76,11.98-23.93,15.55l-1.03,0.45c-5.41-8.97-13.31-16.64-13.31-16.64
		l-10.74-37.49l4.29-0.99C1460.2,990.11,1462.8,988.93,1463.83,987.68z"/>
	<path class="st7" d="M1434.59,874.11c2.88-0.93,8.78-1.92,15.13,2.41c8.91,6.09,29.88,105.66,26.74,114.77
		c-1.2,3.48-3.58,6.01-6.07,7.81l6.6,23.03c1.92,2.01,3.88,4.22,5.79,6.59c3.53-2.18,7.9-5.19,12.56-9.11
		c11.2-9.42,11.02-19.59,10.5-31.05c-0.52-11.46-20.92-113.11-28.92-126.76c-7.99-13.64-20.33-19.11-31.82-18.17
		c-7.62,0.62-14.53,2.23-18.32,3.24L1434.59,874.11z"/>
	<path class="st13" d="M1434.59,874.11c2.87-0.93,8.78-1.92,15.13,2.42c1.97,1.35,4.53,7.28,7.3,15.8
		c1.78-7.51,3.63-19.02-0.08-24.19c-5.75-8.02-21.17-6.99-21.17-6.99l-3.9-15.49c-2,0.43-3.73,0.87-5.07,1.22L1434.59,874.11z"/>
	<path class="st13" d="M1470.94,948.58c4.16,20.87,6.78,39.07,5.52,42.71c-1.2,3.48-3.58,6.01-6.07,7.81l6.6,23.03
		c1.92,2.01,3.88,4.22,5.79,6.59c3.53-2.18,7.9-5.19,12.56-9.11c11.2-9.42,11.02-19.59,10.5-31.05c-0.12-2.69-1.34-10.37-3.24-20.73
		c-12.18,0.27-23.8-2.71-25.52-7.01c-2.54-6.34,6.11-16.41,6.11-16.41l-4.64-1.55L1470.94,948.58z"/>
	<path class="st2" d="M1433.24,929.33c-0.4-0.34-0.79-0.69-1.16-1.04c-9.02-8.71-8.6-21.05-4.31-31.98
		c4.39-11.16,13.54-20.53,23.19-27.39c11.32-8.05,28.84-16.29,43.07-14.53c66.42,4.55,88.84,108.04,17.34,167.11l-22.14,2.91
		c9.24-7.74,9.14-13.37,10.64-24.81c-15.7-0.22-40.56-4.72-49.14-16.48c-5.26-7.21-8.28-16.55-7.04-25.18
		c-1.89-1.93-3.53-4.01-4.81-5.97C1434.33,944.94,1432.55,937.16,1433.24,929.33z"/>
	<path class="st5" d="M1448.19,922.34c0,0-15.96-1.89-8.34-21.29c7.62-19.39,37.89-35.6,52.59-33.79
		c54.7,6.74,61.8,85.3,20.29,132.62c1.17-7.68,3.79-11.96,2.48-18.55c-10.07,1.34-44.04,7.78-54-5.87
		c-9.96-13.65-1.51-22.11-1.51-22.11C1456.34,952.93,1440.42,941.58,1448.19,922.34z"/>
	<path class="st6" d="M1532.96,965.56c-4.44,12.22-11.17,24.01-20.23,34.33c1.17-7.68,3.79-11.96,2.48-18.55
		c-10.07,1.34-44.04,7.78-54-5.87c-5.01-6.86-5.36-12.41-4.47-16.24l21.82-16.36l4.64,1.55c0,0-8.65,10.07-6.11,16.41
		c2.53,6.34,26.62,9.8,42.26,4.23C1524.47,963.23,1529.08,963.87,1532.96,965.56z"/>
	<path class="st2" d="M1445.95,921.79c11.43-13.52,29.15-23.49,44.68-20.65c-17.69,5.22-46.86,31.48-43.77,37.31
		C1440.22,940.89,1436.56,934.49,1445.95,921.79z"/>
	<path class="st2" d="M1456.94,952.13c9.53-10.35,31.56-16.97,45.83-16.03c-17.69,5.22-46.88,21.37-42.43,38.12
		C1454.51,973.77,1451.14,958.91,1456.94,952.13z"/>
	<path class="st2" d="M1319.18,894.01c2.07,0.13,3.9,1.1,5.16,2.55c1.28,1.46,2,3.39,1.86,5.46c-0.14,2.08-1.1,3.9-2.55,5.17
		c-1.46,1.27-3.39,1.99-5.46,1.85c-2.07-0.14-3.9-1.1-5.17-2.55c-1.27-1.45-1.99-3.39-1.85-5.46c0.13-2.07,1.1-3.89,2.55-5.16
		C1315.17,894.59,1317.1,893.87,1319.18,894.01L1319.18,894.01z M1321.92,898.7c-0.73-0.83-1.77-1.38-2.95-1.45
		c-1.18-0.08-2.28,0.33-3.11,1.05c-0.83,0.72-1.38,1.76-1.45,2.95c-0.08,1.18,0.33,2.28,1.05,3.11c0.73,0.82,1.77,1.37,2.95,1.45
		c1.18,0.08,2.29-0.33,3.11-1.05c0.82-0.73,1.37-1.77,1.45-2.95C1323.05,900.62,1322.64,899.52,1321.92,898.7z"/>
	<path class="st2" d="M1343.67,927.33c2.07,0.13,3.89,1.1,5.17,2.55c1.28,1.46,2,3.39,1.86,5.46c-0.14,2.07-1.1,3.9-2.55,5.17
		c-1.46,1.27-3.39,1.99-5.46,1.85c-2.07-0.14-3.9-1.1-5.17-2.55c-1.27-1.45-1.99-3.39-1.85-5.46c0.14-2.07,1.1-3.9,2.55-5.17
		C1339.66,927.92,1341.59,927.2,1343.67,927.33L1343.67,927.33z M1346.41,932.02c-0.73-0.83-1.77-1.37-2.95-1.45
		c-1.18-0.08-2.29,0.33-3.11,1.05c-0.83,0.72-1.38,1.76-1.45,2.95c-0.08,1.18,0.33,2.29,1.05,3.11c0.73,0.83,1.76,1.38,2.95,1.45
		c1.18,0.08,2.29-0.33,3.12-1.05c0.82-0.73,1.37-1.77,1.45-2.95C1347.54,933.95,1347.13,932.85,1346.41,932.02z"/>
	<path class="st2" d="M1357.16,879.36c2.07,0.14,3.89,1.1,5.16,2.55c1.28,1.46,1.99,3.39,1.86,5.46c-0.14,2.08-1.1,3.9-2.55,5.18
		c-1.46,1.27-3.39,1.99-5.46,1.85c-2.08-0.13-3.9-1.1-5.17-2.55c-1.27-1.45-1.99-3.38-1.85-5.46c0.14-2.07,1.1-3.89,2.55-5.17
		C1353.14,879.94,1355.08,879.22,1357.16,879.36L1357.16,879.36z M1359.9,884.04c-0.73-0.83-1.77-1.37-2.95-1.45
		c-1.18-0.08-2.28,0.33-3.11,1.06c-0.83,0.72-1.37,1.76-1.45,2.95c-0.08,1.18,0.33,2.29,1.06,3.11c0.72,0.82,1.76,1.37,2.94,1.45
		c1.19,0.08,2.29-0.33,3.11-1.05c0.82-0.73,1.37-1.77,1.45-2.95C1361.02,885.97,1360.61,884.87,1359.9,884.04z"/>
	<path class="st7" d="M1290.29,907.13c6.92,13.71,15.55,32.1,0.76,41.58c0,0,10.5,1.44,12.64-8.56
		C1305.83,930.16,1297,913.52,1290.29,907.13z"/>
	<path class="st2" d="M1035.04,1050.01c-78.75,28.08-56.33,91.95-131.18,98.96c-8.66,0.81-3.42-6.47-16.1-8.12
		C977.05,1138.73,944.21,1061.55,1035.04,1050.01z"/>
	<path class="st6" d="M921.13,1083.22c5.56,0,10.07,3.59,10.07,8.01s-4.51,8.01-10.07,8.01c-5.56,0-10.07-3.59-10.07-8.01
		S915.57,1083.22,921.13,1083.22z"/>
	<path class="st6" d="M1166.09,1004.85c4.3,0,7.79,2.78,7.79,6.19c0,3.42-3.49,6.2-7.79,6.2s-7.79-2.78-7.79-6.2
		C1158.31,1007.62,1161.79,1004.85,1166.09,1004.85z"/>
	<path class="st0" d="M1427.26,1479.87c8.8-5.36,17.6-12.02,25.21-20.18c28.5-30.56,41.96-65.52,41.96-65.52s8.42-5.28,4.5-10.62
		c-3.91-5.34-10.98,1.82-11.99,0.58c-1.01-1.24,7.89-8.19,5.12-12.36c-3.04-4.6-6.09-6.4-11.71-3.32c0,0-41.78-16.21-76.75-12.04
		c-3.4,0.4-6.89,2.78-9.75,1.48c-8.81-4.02-44.92-16.83-52.11-15.14c-11.04,11.49-27.88,35.79-38.08,45.41
		c-2.43,2.29,16.93,5.34,25.77,6.08C1365.69,1406,1402.25,1432.8,1427.26,1479.87z"/>
	<path class="st1" d="M1386.96,1355.07c-7.33-2.81-18.02-6.53-27.29-9.17l-4.21,1.91c0,0,4.61,5.52-3.96,12.99
		c-8.58,7.46-21.25,17.96-29.52,21.77c-8.28,3.8-16.59,3.9-16.59,3.9h0c-0.58,0.61-1.16,1.17-1.71,1.68
		c-2.18,2.06,13.24,4.74,22.8,5.79c5.95-6.5,16-16.87,23.27-21.23c10.97-6.58,37.48-17.31,37.48-17.31L1386.96,1355.07z"/>
	<path class="st1" d="M1427.26,1479.87c8.8-5.36,17.6-12.02,25.21-20.18c23.98-25.72,37.32-54.54,40.94-63.04l0,0l-19.09,3.64
		c0,0,0.62,4.04-1.44,10c-2.06,5.96-9.58,12.52-14.57,16.45c-5,3.93-24.62-12.39-24.62-12.39l-9.56,0.41c0,0,7.6,14.91,3.63,24.43
		c-2.24,5.36-8.31,13.64-13.19,19.85C1419.06,1465.49,1423.31,1472.43,1427.26,1479.87z"/>
	<path class="st2" d="M1425.6,1477.67c8.56-5.23,17.43-11.96,24.82-19.89c28.15-30.19,41.37-64.53,41.41-64.62
		c0.22-0.57,0.61-1.03,1.08-1.34c0.01-0.01,5.89-3.74,3.77-6.62c-1.23-1.67-4.01-0.27-5.85,0.66c-2.46,1.25-4.31,2.18-6.06,0.03
		c-1.77-2.17-0.23-4.16,1.77-6.7c1.6-2.05,3.14-4.98,2.49-5.96c1.07-3.75-5.35-5.08-7.33-2.33c-0.81,0.44-1.74,0.44-2.53,0.08
		c-2.9-1.1-42.21-15.75-75.24-11.81c-17.11,2.04-30.14,6.4-40.61,11.9c-10.48,5.49-18.47,12.13-25.45,18.72
		c-1.98,1.86-4.36,4.2-5.89,5.74c-1.99-0.66-4.77-0.91-6.75-1.47c2.03-2.14,5.9-5.58,8.81-8.33c7.28-6.86,15.63-13.81,26.67-19.6
		c11.04-5.78,15.32-10.11,28.78-13.52c46.8-9.08,84.44,7.72,91.5,10.32c7.17-3.34,20.64,2.6,14.46,14.21
		c10.11-2.1,13.64,13.61,5.03,20.91c-10.2,25.09-35.34,72.83-69.99,96.11C1429.66,1492.5,1426.49,1479.29,1425.6,1477.67z"/>
	<path class="st2" d="M1439.96,1373.03c3.04-1.66,6.49-1.94,9.6-1.03c3.11,0.92,5.87,3.01,7.53,6.05c1.67,3.05,1.94,6.5,1.03,9.6
		c-0.91,3.11-3,5.87-6.04,7.54c-3.05,1.67-6.5,1.94-9.6,1.03c-3.11-0.91-5.86-3-7.53-6.04c-1.67-3.04-1.94-6.5-1.04-9.6
		C1434.83,1377.45,1436.92,1374.71,1439.96,1373.03L1439.96,1373.03z M1448.51,1375.59c-2.17-0.63-4.59-0.43-6.75,0.74
		c-2.15,1.18-3.62,3.11-4.25,5.28c-0.64,2.18-0.44,4.62,0.74,6.76c1.17,2.15,3.11,3.62,5.28,4.25c2.18,0.64,4.6,0.45,6.75-0.73
		c2.15-1.18,3.63-3.11,4.26-5.28c0.64-2.18,0.45-4.6-0.74-6.76C1452.63,1377.69,1450.69,1376.22,1448.51,1375.59z"/>
	<path class="st2" d="M1468.76,1401.47c-0.39-10.54,6.84-22.19,12.81-30.54l-5.98-4.19
		C1469.61,1378.67,1465.55,1387.93,1468.76,1401.47z"/>
	<path class="st2" d="M1493.82,1392.25l-1.57,0.03c0,0-4.2,2.8-10.11,5.37c-5.91,2.57-8.55,2.77-8.55,2.77
		c6.21,0.87,16.88-0.16,22.33-3.16L1493.82,1392.25z"/>
	<path class="st2" d="M1472.75,1396.3c0,0,4.1-7.56,8.93-14.36c4.84-6.81,7.74-9.56,8.67-9.24c0.93,0.33-0.41,7.46-0.41,7.46
		l2.65,4.7C1492.6,1384.86,1484.57,1388.48,1472.75,1396.3z"/>
	<path class="st2" d="M1443.81,1380.11l0.13-0.07c-0.02,0.36,0.06,0.76,0.25,1.1c0.55,1,1.79,1.37,2.78,0.82
		c0.75-0.4,1.14-1.19,1.07-1.98c0.86,0.41,1.61,1.08,2.11,1.98c1.24,2.26,0.4,5.09-1.85,6.34c-2.26,1.23-5.09,0.4-6.33-1.85
		C1440.72,1384.18,1441.56,1381.35,1443.81,1380.11z"/>
	<path class="st2" d="M1378.59,1354.59c-7.49-2.62-18.17-6.11-24.29-6.95c-6.24-0.86-10.31-1.06-12.52-1.09
		c-3.28,9.82-16.29,23.17-26.22,33.37c-2.06,2.11-8.56,9.02-10.23,10.8c-3.67,2.77-11.6-1.15-10.31-3.55
		c9.35-8.69,36.94-33.01,39.79-48.8c17.15-0.48,46.61,8.69,57.71,13.69l5.08,3.53l-8.97,2.16c-13.55,3.26-24.35,7.51-34.92,13.52
		c-8.97,5.1-20.06,14.27-28.9,23.56c-1.98-0.66-3.96-1.28-5.93-1.83c9.91-10.75,21.42-21.25,31.52-27
		C1359.13,1361.04,1368.28,1357.51,1378.59,1354.59z"/>
	<path class="st2" d="M1421.01,1422.35c0,0-19.6-2.04-37.33,4.79c1.08,1.06,4.93,2.78,5.99,3.87
		C1398.83,1427.69,1409.38,1424.61,1421.01,1422.35L1421.01,1422.35z M1415.1,1464.02c5.32-7.12,9.72-17.14,12.66-24.82
		c0,0-7.85,11.05-15.21,19.43L1415.1,1464.02z"/>
	<path class="st2" d="M1409.51,1454.42c2.56-3.14,5.11-6.29,7.52-9.54c-3.07,2.56-6.05,5.1-8.92,7.66L1409.51,1454.42z"/>
	<path class="st2" d="M1405.04,1448.57c3.22-2.52,6.49-5.07,9.71-7.67c-3.43,1.97-7.08,4.11-10.74,6.37L1405.04,1448.57z"/>
	<path class="st2" d="M1400.67,1443.19c4.64-2.63,9.15-5.2,13.11-7.61c-4.15,1.68-9.11,3.81-14.31,6.18L1400.67,1443.19z"/>
	<path class="st2" d="M1395.4,1437.12c6.14-2.6,12.33-5.04,18.08-7.14c-5.82,0.96-12.68,2.9-19.71,5.36L1395.4,1437.12z"/>
	<path class="st2" d="M1366.49,1361.22c-7.33-2.81-15.87-5.36-24.83-7.96c9.93,1.24,21.96,3.14,30.91,5.88
		C1370.52,1359.74,1368.49,1360.44,1366.49,1361.22z"/>
	<path class="st2" d="M1352.52,1368.22c-5.03-1.65-10.42-3.24-15.97-4.85c6,0.75,12.75,1.74,19.14,3.01
		C1354.61,1366.98,1353.56,1367.59,1352.52,1368.22z"/>
	<path class="st2" d="M1341.85,1375.43c-4.64-1.48-9.55-2.94-14.59-4.39c5.34,0.66,11.29,1.52,17.04,2.6
		C1343.47,1374.24,1342.65,1374.84,1341.85,1375.43z"/>
	<path class="st2" d="M1333.39,1382.24c-4.16-1.31-8.51-2.59-12.98-3.88c4.69,0.58,9.86,1.32,14.95,2.22
		C1334.68,1381.14,1334.03,1381.7,1333.39,1382.24z"/>
	<path class="st2" d="M1327.1,1387.98c-3.62-1.12-7.36-2.22-11.19-3.33c4.02,0.49,8.39,1.1,12.76,1.84L1327.1,1387.98z"/>
	<path class="st2" d="M1418.29,1403.6c6.82,17.7,25.63,35.51,43.42,40.95c5.54,2.91,6.45-3.93,8.91-7.37
		c-36.05-8.86-50.89-36.96-54.31-71.65C1412.55,1377.58,1413.61,1391.44,1418.29,1403.6z"/>
	<path class="st7" d="M1617.47,1653.69c-161.24,151.73-378.4,244.73-617.28,244.73c-212.99,0-408.71-73.92-562.93-197.5
		c10.95-0.31,21.84-0.78,32.38-1.45c147.5,111.65,331.29,177.9,530.54,177.9c220.79,0,422.58-81.35,577.06-215.68
		C1589.98,1658.66,1603.95,1655.74,1617.47,1653.69z"/>
	<path class="st7" d="M197.74,1355.23l18.33,40.55l-19.23,8.69l-46.94-103.83l19.23-8.69l18.33,40.55l103.13-46.62l10.27,22.72
		L197.74,1355.23L197.74,1355.23z M105.67,1105.72l132.19-23.61l4.39,24.55l-56.65,10.12l12.21,68.35l56.65-10.12l4.39,24.55
		l-132.19,23.62l-4.38-24.55l54.58-9.75l-12.21-68.36l-54.58,9.75L105.67,1105.72L105.67,1105.72z M215.88,916.43l20.9,0.53
		l-2.55,100.68l-134.23-3.4l2.48-97.99l20.9,0.53l-1.85,73.06l34.9,0.88l1.64-64.82l20.52,0.52l-1.64,64.82l37.01,0.94
		L215.88,916.43L215.88,916.43z M128.67,773.04l6.81-23.99l108.87,30.91l19.17-67.54l20.3,5.76l-25.98,91.53L128.67,773.04
		L128.67,773.04z M320.46,581.89l-33.47,58.2l20.34,26.97l-12.81,22.29l-86.28-119.32l12.24-21.28l146.63,14.39l-13.01,22.61
		L320.46,581.89L320.46,581.89z M299.38,579.29l-63.51-7.31l38.36,51.05L299.38,579.29L299.38,579.29z M290.43,444.84l15.41-19.61
		l105.58,82.97l-15.41,19.61L290.43,444.84L290.43,444.84z M365.43,357.25l87.91,101.51l44.37-38.43
		c10.83-9.38,18.62-19.81,23.39-31.3c4.77-11.49,6.15-23.08,4.13-34.78c-2.02-11.71-7.38-22.58-16.09-32.64
		c-8.71-10.06-18.71-16.91-30.01-20.58c-11.29-3.67-22.97-3.96-35.02-0.88c-12.05,3.08-23.49,9.31-34.32,18.69L365.43,357.25
		L365.43,357.25z M483.02,405.13c7.45-6.45,12.76-13.54,15.94-21.29c3.19-7.75,4.02-15.58,2.5-23.48
		c-1.52-7.91-5.29-15.34-11.32-22.3c-6.02-6.96-12.84-11.76-20.45-14.39c-7.61-2.63-15.47-2.93-23.6-0.88
		c-8.12,2.04-15.91,6.29-23.35,12.74l-24.65,21.35l60.28,69.6L483.02,405.13L483.02,405.13z M563.44,292.74l45.73-26.3l9.94,17.3
		l-45.73,26.3L563.44,292.74L563.44,292.74z M758.79,197.4c7.8-0.08,14.68,1.89,20.62,5.88c5.95,4,10.27,9.99,12.97,17.99
		c3.73,11.02,2.37,20.97-4.08,29.84c-6.45,8.86-17.79,16.04-34.02,21.53l-63.23,21.4L648,166.84l59.6-20.17
		c15.02-5.08,27.58-6.06,37.69-2.93c10.11,3.13,16.9,9.84,20.38,20.14c2.13,6.3,2.56,12.36,1.3,18.19
		C765.7,187.91,762.97,193.01,758.79,197.4L758.79,197.4z M677.89,177.38l11.87,35.07l33.43-11.31c8.24-2.79,14.07-6.41,17.48-10.88
		c3.42-4.46,4.16-9.54,2.24-15.24c-1.97-5.81-5.66-9.46-11.09-10.93c-5.42-1.47-12.26-0.81-20.49,1.97L677.89,177.38L677.89,177.38z
		 M746.55,254.6c18.29-6.19,25.37-15.41,21.23-27.64c-4.14-12.23-15.36-15.26-33.65-9.07l-38.16,12.91l12.42,36.71L746.55,254.6
		L746.55,254.6z M940.49,202.31l-66.6,8.46l-9.22,32.49l-25.5,3.24l43.03-140.82l24.36-3.09l77.06,125.57l-25.88,3.29L940.49,202.31
		L940.49,202.31z M929.84,183.93l-32.52-55.04l-17.54,61.4L929.84,183.93L929.84,183.93z M1089.16,239.28
		c-13.45-1.71-25.22-6.2-35.32-13.48c-10.1-7.28-17.56-16.51-22.39-27.69c-4.83-11.19-6.42-23.31-4.76-36.38
		c1.66-13.07,6.26-24.41,13.79-34.02c7.54-9.61,17.11-16.68,28.7-21.21c11.6-4.52,24.12-5.93,37.56-4.22
		c10.91,1.38,20.63,4.56,29.16,9.51c8.53,4.95,15.44,11.43,20.73,19.45l-17.9,13c-8.32-11.63-19.52-18.34-33.6-20.13
		c-9.14-1.16-17.57-0.2-25.31,2.88c-7.74,3.07-14.09,7.9-19.06,14.5c-4.96,6.59-8.01,14.39-9.16,23.4
		c-1.15,9.01-0.14,17.32,3.02,24.94c3.16,7.62,8.1,13.89,14.82,18.8c6.72,4.92,14.66,7.95,23.79,9.11
		c14.08,1.79,26.61-1.97,37.59-11.28l14.05,17.25c-7.13,6.44-15.48,10.99-25.03,13.65C1110.3,240.03,1100.06,240.66,1089.16,239.28
		L1089.16,239.28z M1255.51,216.48l-27.18,13.89l-11.01,32.53l-23.62-7.99l43.04-127.19l23.62,7.99l-22.08,65.23l84.95-43.96
		l26.53,8.98l-72.67,38.8l32.9,89.5l-27.62-9.35L1255.51,216.48L1255.51,216.48z M1446.77,378.34
		c-11.05-7.86-19.3-17.38-24.77-28.56c-5.46-11.18-7.68-22.84-6.66-34.98c1.02-12.14,5.35-23.58,12.99-34.32
		c7.63-10.74,17.04-18.56,28.23-23.47c11.18-4.92,22.96-6.63,35.31-5.14c12.36,1.49,24.06,6.16,35.11,14.02
		c8.96,6.37,16.03,13.76,21.21,22.14c5.18,8.38,8.21,17.37,9.09,26.94l-21.91,3.01c-1.84-14.18-8.55-25.39-20.12-33.61
		c-7.5-5.34-15.39-8.47-23.67-9.42c-8.27-0.94-16.16,0.32-23.64,3.78c-7.49,3.47-13.86,8.9-19.12,16.3
		c-5.26,7.4-8.3,15.2-9.11,23.41c-0.82,8.21,0.58,16.07,4.18,23.58c3.61,7.5,9.16,13.92,16.66,19.26
		c11.57,8.22,24.39,10.83,38.46,7.81l4.24,21.85c-9.33,2.31-18.83,2.38-28.51,0.2C1465.05,388.99,1455.73,384.72,1446.77,378.34
		L1446.77,378.34z M1569.19,488.51c8.96,10.34,19.28,17.72,30.98,22.15c11.7,4.42,23.56,5.56,35.59,3.43
		c12.03-2.13,23.02-7.5,32.98-16.13c9.96-8.62,16.84-18.74,20.67-30.34c3.83-11.6,4.38-23.51,1.68-35.71
		c-2.71-12.21-8.54-23.48-17.5-33.82c-8.96-10.35-19.29-17.73-30.98-22.15c-11.7-4.42-23.59-5.54-35.66-3.37
		c-12.08,2.17-23.04,7.53-32.91,16.07c-9.86,8.54-16.72,18.64-20.6,30.28c-3.87,11.64-4.45,23.57-1.75,35.78
		C1554.39,466.89,1560.22,478.17,1569.19,488.51L1569.19,488.51z M1585.71,474.19c-5.86-6.77-9.61-14.17-11.26-22.23
		c-1.64-8.06-1.08-15.99,1.71-23.82c2.78-7.82,7.56-14.66,14.32-20.53c6.77-5.86,14.22-9.61,22.36-11.25
		c8.14-1.64,16.08-1.06,23.81,1.71c7.73,2.78,14.53,7.55,20.39,14.32c5.86,6.76,9.61,14.17,11.26,22.23
		c1.64,8.05,1.08,15.99-1.71,23.81c-2.78,7.82-7.55,14.67-14.32,20.53c-6.77,5.87-14.22,9.61-22.36,11.25
		c-8.14,1.64-16.08,1.07-23.81-1.7C1598.37,485.73,1591.58,480.96,1585.71,474.19L1585.71,474.19z M1706.13,696.82l79.14-40.74
		l-85.67-5.7l-5.07-9.9l44.42-72.32l-78.19,40.05l-10.84-21.17l119.52-61.21l9.36,18.27l-54.91,88.04l103.09,6.04l9.36,18.27
		l-119.43,61.38L1706.13,696.82L1706.13,696.82z M1878.8,803.84c2.62,11.34,3.03,21.65,1.23,30.92
		c-1.79,9.28-5.66,16.96-11.61,23.06c-5.94,6.1-13.71,10.25-23.31,12.47c-9.47,2.19-18.24,1.85-26.32-1.01
		c-8.07-2.86-14.96-8.07-20.63-15.62c-5.68-7.55-9.83-16.99-12.45-28.33l-6.81-29.53l-37.76,8.71l-5.61-24.3l130.84-30.2
		L1878.8,803.84L1878.8,803.84z M1806.02,819.46c2.45,10.59,6.54,18.12,12.3,22.56c5.75,4.45,12.8,5.71,21.15,3.78
		c8.35-1.93,14.13-6.15,17.35-12.67c3.22-6.52,3.61-15.07,1.16-25.67l-6.56-28.41l-51.96,11.99L1806.02,819.46L1806.02,819.46z
		 M1797.36,1022.78l-1.7-67.11l-31.4-12.45l-0.65-25.69l135.77,57.01l0.62,24.54l-132.71,64l-0.66-26.08L1797.36,1022.78
		L1797.36,1022.78z M1816.71,1014.04l58.04-26.79l-59.32-23.64L1816.71,1014.04L1816.71,1014.04z M1864.05,1255.06l-130.84-30.2
		l4.62-20l105.25-51.7l-88.6-20.45l5.56-24.11l130.84,30.2l-4.62,20l-105.25,51.7l88.6,20.45L1864.05,1255.06L1864.05,1255.06z
		 M1729.43,1357.49l-43.18-19.52l10.27-22.72l42.82,19.36l101.27-12.11l-10.99,24.3l-75.8,8.89l43.25,63.13l-10.11,22.37
		L1729.43,1357.49z"/>
</g>
</svg>
