<svg width="150" height="131" viewBox="0 0 150 131" fill="none" xmlns="http://www.w3.org/2000/svg">
<path d="M26.5753 1.75208C27.9174 2.95299 28.2538 4.61622 28.3868 6.34435C28.3881 7.20443 28.3087 8.06197 28.2359 8.91834C27.9399 12.4087 28.6845 15.0185 30.8476 17.8065C31.8003 18.9174 32.9093 19.721 34.1193 20.5248C34.0952 20.3893 34.0711 20.2538 34.0463 20.1141C33.6707 17.7273 34.3452 15.4925 35.7222 13.5395C37.4667 11.384 40.321 10.1599 43.0198 9.81404C43.4112 9.79354 43.8023 9.78126 44.1941 9.77036C46.845 9.69558 49.4382 9.36522 52.0553 8.95664C52.2756 8.92225 52.2756 8.92225 52.5003 8.88717C52.6495 8.86387 52.7987 8.84058 52.9525 8.81658C55.7281 8.38351 58.466 8.00193 61.2734 7.85291C66.8036 7.71722 66.8036 7.71723 71.3631 4.9949C73.5356 2.77334 73.5356 2.77334 75.0874 2.7073C76.8706 2.78757 78.1061 4.45637 79.2631 5.65607C81.4157 7.81211 84.945 7.64989 87.8079 7.7994C91.8118 8.00928 95.7467 8.57733 99.703 9.20782C101.36 9.47068 102.986 9.66266 104.665 9.69928C106.997 9.75645 109.127 10.0467 111.207 11.1718C111.337 11.2418 111.467 11.3118 111.601 11.3839C113.071 12.2218 114.082 13.2053 114.978 14.6414C115.039 14.7356 115.1 14.8297 115.162 14.9267C116.111 16.5796 116.21 18.6889 115.883 20.5248C118.608 18.6239 121.005 16.1852 121.767 12.8312C122.002 11.2438 121.846 9.69348 121.704 8.10395C121.532 5.89152 121.713 3.9413 123.053 2.10682C124.302 0.711388 126.074 0.265739 127.864 0.11623C129.341 0.0584865 130.768 0.25993 132.223 0.498674C132.414 0.529509 132.604 0.560343 132.8 0.592112C135.17 1.00332 136.99 1.5909 138.446 3.59241C139.598 5.38923 139.281 7.74045 139.234 9.78075C139.217 11.2823 139.343 12.8203 140.02 14.1889C140.441 14.329 140.752 14.3717 141.19 14.3992C141.332 14.4097 141.473 14.4201 141.619 14.4308C141.913 14.4515 142.207 14.4708 142.502 14.4885C144.947 14.6766 146.598 16.0059 148.167 17.8094C149.272 19.1971 150.156 20.5032 149.977 22.3351C149.888 22.8463 149.757 23.3372 149.609 23.8342C149.549 24.0383 149.549 24.0383 149.488 24.2464C148.553 27.275 147.092 30.1046 144.295 31.7778C142.352 32.7413 140.202 32.3869 138.19 31.8349C134.76 30.9722 130.807 31.6339 127.414 32.3576C127.277 32.3867 127.14 32.4158 126.999 32.4458C126.069 32.658 125.207 32.9702 124.331 33.3476C124.424 33.4713 124.424 33.4713 124.518 33.5975C126.081 35.7226 126.41 38.4308 126.648 40.9892C126.658 41.105 126.669 41.2208 126.68 41.34C126.689 41.4426 126.698 41.5451 126.707 41.6507C126.747 41.9591 126.815 42.25 126.896 42.5498C127.033 42.4534 127.17 42.3569 127.311 42.2576C128.048 41.7895 128.584 41.7249 129.46 41.7956C131.203 42.1882 132.539 43.5841 133.496 45.0295C136.204 49.3902 137.023 55.379 135.871 60.3513C134.99 63.9276 133.422 68.2648 130.118 70.2697C128.415 71.1721 126.743 71.3184 124.859 70.8731C123.707 70.5093 122.674 69.9233 121.614 69.3501C120.594 68.8046 119.568 68.3388 118.486 67.9314C118.352 67.8809 118.218 67.8304 118.08 67.7783C117.377 67.5167 117.377 67.5167 116.638 67.4411C116.735 67.4925 116.833 67.5438 116.933 67.5967C119.885 69.156 122.76 70.8191 125.608 72.5626C125.763 72.6576 125.918 72.7526 126.078 72.8504C126.367 73.0277 126.656 73.2056 126.944 73.3843C128.889 74.5819 130.75 75.5902 133.105 75.0616C134.159 74.7664 135.176 74.3636 136.186 73.945C138.037 73.1822 140.251 72.4453 142.265 72.9892C144.455 73.9361 147.145 75.2584 148.167 77.5485C148.753 79.1304 149.305 80.9723 149.072 82.6776C148.855 83.1396 148.855 83.1396 148.468 83.5827C148.383 83.6846 148.298 83.7865 148.211 83.8915C147.288 84.9154 146.197 85.5045 144.995 86.1401C144.552 86.3748 144.115 86.6172 143.679 86.8639C143.47 86.9794 143.47 86.9794 143.257 87.0972C142.685 87.4942 142.209 88.0482 141.982 88.7118C141.886 89.8118 142.194 90.6524 142.585 91.6724C142.646 91.836 142.706 91.9995 142.769 92.1681C142.895 92.5073 143.022 92.8462 143.149 93.1849C143.445 93.9704 143.731 94.759 144.018 95.5475C144.069 95.686 144.12 95.8245 144.172 95.9672C144.22 96.0957 144.267 96.2242 144.315 96.3566C144.356 96.4685 144.397 96.5804 144.44 96.6956C145.156 98.8068 144.59 101.137 143.673 103.098C142.898 104.667 141.962 106.266 140.27 106.96C138.654 107.476 137.043 107.624 135.353 107.616C135.162 107.615 134.97 107.615 134.773 107.614C128.969 107.545 128.969 107.545 127.162 105.754C127.03 105.607 127.03 105.607 126.896 105.457C126.759 105.305 126.759 105.305 126.62 105.15C125.456 103.754 124.559 102.04 124.602 100.186C124.646 99.7465 124.749 99.3296 124.869 98.9047C125.045 97.8711 124.918 96.8744 124.697 95.8592C124.672 95.7409 124.647 95.6225 124.622 95.5005C124.569 95.252 124.515 95.0037 124.461 94.7555C124.379 94.3803 124.301 94.0045 124.223 93.6285C123.771 91.5007 123.174 89.7806 121.318 88.4873C121.228 88.4244 121.139 88.3616 121.046 88.2968C119.673 87.344 118.271 86.4321 116.873 85.5156C116.575 85.3197 116.277 85.1238 115.979 84.9279C115.539 84.6391 115.099 84.3503 114.659 84.0618C113.891 83.5584 113.125 83.0534 112.36 82.5456C110.708 81.4521 109.035 80.4383 107.285 79.5096C107.339 79.6601 107.394 79.8106 107.451 79.9657C108.988 84.3075 110.701 90.4424 108.684 94.884C108.02 96.2731 108.02 96.2731 107.737 96.5564C107.72 96.9317 107.713 97.3035 107.711 97.6789C107.708 97.9219 107.704 98.1649 107.701 98.4079C107.699 98.6024 107.699 98.6024 107.696 98.8008C107.588 106.063 106.411 113.233 105.154 120.373C105.123 120.551 105.092 120.729 105.06 120.913C103.763 128.317 103.763 128.317 101.846 130.015C101.278 130.367 100.708 130.494 100.044 130.499C98.8655 130.171 98.2513 129.396 97.6298 128.387C95.8216 124.141 95.5251 119.273 94.9623 114.743C94.6194 111.985 94.1785 109.336 93.4058 106.664C93.3416 106.436 93.2776 106.208 93.2137 105.98C93.0796 105.503 92.9424 105.027 92.8024 104.552C92.1669 105.624 91.5696 106.702 91.0246 107.823C89.6942 110.559 89.6942 110.559 88.5879 111.359C87.9831 111.532 87.503 111.573 86.919 111.34C85.7845 110.5 85.157 108.937 84.5053 107.72C84.4178 107.843 84.3303 107.967 84.2401 108.095C84.1212 108.259 84.0021 108.423 83.883 108.587C83.7675 108.748 83.652 108.909 83.533 109.075C83.0524 109.642 82.6012 110.064 81.8559 110.208C80.6719 110.18 79.9808 109.85 79.0745 109.077C78.9687 109.242 78.8629 109.407 78.7539 109.577C78.372 110.107 78.0462 110.371 77.4151 110.586C76.7601 110.668 76.4459 110.632 75.8594 110.322C75.4878 110.011 75.3125 109.828 75.1522 109.379C75.0527 109.379 74.9531 109.379 74.8505 109.379C74.8038 109.51 74.8038 109.51 74.7562 109.643C74.4606 110.127 74.1428 110.322 73.6437 110.586C72.8943 110.695 72.3969 110.57 71.7697 110.177C71.3851 109.863 71.1726 109.508 70.9282 109.077C70.8464 109.141 70.7645 109.205 70.6802 109.27C70.5722 109.353 70.4643 109.435 70.3531 109.521C70.193 109.644 70.193 109.644 70.0296 109.77C69.544 110.105 69.1191 110.164 68.5428 110.181C68.3547 110.189 68.3547 110.189 68.1628 110.198C67.4029 110.076 66.9555 109.648 66.4697 109.075C66.3542 108.914 66.2387 108.753 66.1197 108.587C66.059 108.504 65.9984 108.42 65.9359 108.334C65.7883 108.13 65.6427 107.925 65.4974 107.72C65.4565 107.797 65.4155 107.875 65.3733 107.955C65.1838 108.311 64.9918 108.666 64.7997 109.021C64.7353 109.143 64.671 109.265 64.6047 109.39C63.6514 111.14 63.6514 111.14 62.7787 111.448C62.2162 111.569 61.8846 111.494 61.3395 111.293C60.1043 110.473 59.4585 108.839 58.8409 107.55C58.3401 106.513 57.8313 105.516 57.2003 104.552C55.9605 108.708 55.2641 112.762 54.737 117.065C53.4283 127.718 53.4283 127.718 51.3169 129.896C50.7355 130.336 50.2327 130.461 49.5067 130.499C48.5159 130.357 47.9797 129.918 47.3947 129.141C46.6587 128.001 46.2421 126.807 45.9056 125.504C45.8669 125.354 45.8283 125.205 45.7885 125.051C45.3141 123.157 44.9835 121.236 44.6561 119.312C44.603 119.001 44.5494 118.689 44.4956 118.378C43.8679 114.736 43.3023 111.089 42.869 107.418C42.856 107.309 42.8429 107.2 42.8295 107.088C42.588 105.063 42.4124 103.046 42.3881 101.005C42.3862 100.869 42.3843 100.733 42.3823 100.593C42.3734 99.9248 42.3698 99.2571 42.3756 98.5887C42.3745 97.1428 42.2475 96.2396 41.3604 95.0478C41.1453 94.5416 41.1453 94.5416 41.0116 94.1144C40.9655 93.9722 40.9194 93.8301 40.8719 93.6836C39.7196 89.2102 41.0641 83.6975 42.7181 79.5096C42.1861 79.8035 41.6553 80.0995 41.1247 80.3959C40.9049 80.5172 40.9049 80.5172 40.6807 80.641C39.6311 81.2291 38.6276 81.8715 37.6316 82.5445C36.8879 83.0468 36.1373 83.5385 35.3869 84.0306C35.1014 84.2182 34.8158 84.4057 34.5304 84.5933C34.0933 84.8805 33.6562 85.1674 33.2189 85.4541C28.5908 88.137 28.5908 88.137 26.0471 92.5457C26.0134 92.7118 25.9796 92.8779 25.9448 93.049C25.8889 93.3084 25.8889 93.3084 25.8319 93.5731C25.7589 93.9129 25.687 94.2529 25.6162 94.5931C25.5365 94.9717 25.4524 95.3484 25.3632 95.7249C25.0737 96.9684 24.9424 98.0038 25.2282 99.2529C25.6206 101.079 25.0314 102.743 24.0497 104.278C22.6047 106.33 21.2802 106.853 18.8487 107.325C15.8222 107.817 11.6267 108.221 8.88863 106.551C8.58986 106.311 8.58986 106.311 8.32292 106.06C8.23327 105.981 8.14362 105.901 8.05126 105.819C6.34178 104.098 5.36245 101.205 5.22094 98.8381C5.23522 97.1377 5.92841 95.5665 6.51264 93.9918C6.57468 93.8234 6.63671 93.655 6.70062 93.4816C7.04416 92.5514 7.39279 91.6234 7.74774 90.6975C8.04149 89.9158 8.19666 89.2054 7.91101 88.4019C7.29678 87.2621 6.16412 86.7302 5.04945 86.1626C3.46122 85.3524 1.76022 84.3361 0.930962 82.6776C0.708657 80.6854 1.24938 78.2547 2.40181 76.6151C3.77598 74.9186 6.05936 73.4424 8.17206 72.8719C8.58126 72.8573 8.97167 72.8551 9.37891 72.8719C9.54129 72.8745 9.70366 72.877 9.87096 72.8796C11.928 73.0368 13.7919 73.8819 15.6843 74.6513C16.5625 74.9817 17.3583 75.1835 18.2983 75.2008C18.476 75.2068 18.6538 75.2128 18.8369 75.2191C20.4783 75.101 21.9588 74.1231 23.3048 73.2585C23.65 73.041 23.996 72.8249 24.342 72.6085C24.4285 72.5542 24.515 72.4999 24.6042 72.4439C27.4539 70.6574 30.4146 69.0534 33.3651 67.4411C32.8 67.4411 32.3493 67.6215 31.8282 67.8183C31.7215 67.8584 31.6147 67.8986 31.5047 67.94C30.4272 68.3565 29.4093 68.8738 28.383 69.4012C26.1619 70.5337 23.9954 71.5311 21.4344 70.9574C18.9149 70.114 17.2857 68.1399 16.1156 65.835C15.2232 63.9688 14.4976 62.0712 14.0555 60.0492C14.0003 59.8047 14.0003 59.8047 13.9441 59.5553C13.0764 54.7741 13.8994 48.8712 16.6954 44.8033C17.6546 43.4931 18.8556 42.1073 20.5423 41.7956C21.3864 41.7306 22.0546 41.872 22.8051 42.2481C22.9047 42.3477 23.0042 42.4473 23.1068 42.5498C23.1234 42.4198 23.1399 42.2897 23.1569 42.1556C23.2228 41.6482 23.2909 41.1411 23.3608 40.6342C23.3927 40.402 23.4242 40.1698 23.4551 39.9374C23.748 37.7653 24.1025 35.6256 25.349 33.7731C25.5472 33.5098 25.5472 33.5098 25.5205 33.1968C20.7542 31.6543 15.3506 30.8132 10.4443 32.152C8.89971 32.5417 7.14233 32.4864 5.70886 31.7795C2.4947 29.8482 1.06369 26.3889 0.157234 22.9038C-0.150792 21.5708 -0.0156058 20.6784 0.645749 19.47C1.12772 18.7033 1.68087 18.0269 2.28867 17.3569C2.41993 17.2114 2.55119 17.0659 2.68643 16.9161C4.58781 14.9089 6.38036 14.5108 9.04891 14.3769C9.53278 14.359 9.53278 14.359 9.98234 14.1889C10.806 12.5178 10.79 10.7017 10.746 8.89005C10.6916 6.38982 10.7327 4.33866 12.5186 2.42798C15.6735 -0.512797 23.2679 -0.83553 26.5753 1.75208ZM32.6108 37.8733C32.6108 38.6698 32.6108 39.4663 32.6108 40.287C32.7788 40.1501 32.9468 40.0132 33.1199 39.8721C33.2144 39.7951 33.3089 39.7181 33.4063 39.6388C33.7195 39.3574 33.7195 39.3574 33.9685 38.7784C33.5204 38.4797 33.0724 38.181 32.6108 37.8733ZM116.628 38.3259C116.462 38.4519 116.462 38.4519 116.293 38.5804C116.208 38.6458 116.122 38.7111 116.034 38.7784C116.407 39.504 116.703 39.7132 117.392 40.287C117.392 39.4905 117.392 38.694 117.392 37.8733C117.098 37.8733 116.852 38.1556 116.628 38.3259Z" fill="#FDFDFD"/>
<path d="M26.5753 1.75208C27.9174 2.95299 28.2538 4.61622 28.3868 6.34435C28.3881 7.20443 28.3087 8.06197 28.2359 8.91834C27.9399 12.4087 28.6845 15.0185 30.8476 17.8065C31.8003 18.9174 32.9093 19.721 34.1193 20.5248C34.0952 20.3893 34.0711 20.2538 34.0463 20.1141C33.6707 17.7273 34.3452 15.4925 35.7222 13.5395C37.4667 11.384 40.321 10.1599 43.0198 9.81404C43.4112 9.79354 43.8023 9.78126 44.1941 9.77036C46.845 9.69558 49.4382 9.36522 52.0553 8.95664C52.2756 8.92225 52.2756 8.92225 52.5003 8.88717C52.6495 8.86387 52.7987 8.84058 52.9525 8.81658C55.7281 8.38351 58.466 8.00193 61.2734 7.85291C66.8036 7.71722 66.8036 7.71723 71.3631 4.9949C73.5356 2.77334 73.5356 2.77334 75.0874 2.7073C76.8706 2.78757 78.1061 4.45637 79.2631 5.65607C81.4157 7.81211 84.945 7.64989 87.8079 7.7994C91.8118 8.00928 95.7467 8.57733 99.703 9.20782C101.36 9.47068 102.986 9.66266 104.665 9.69928C106.997 9.75645 109.127 10.0467 111.207 11.1718C111.337 11.2418 111.467 11.3118 111.601 11.3839C113.071 12.2218 114.082 13.2053 114.978 14.6414C115.039 14.7356 115.1 14.8297 115.162 14.9267C116.111 16.5796 116.21 18.6889 115.883 20.5248C118.608 18.6239 121.005 16.1852 121.767 12.8312C122.002 11.2438 121.846 9.69348 121.704 8.10395C121.532 5.89152 121.713 3.9413 123.053 2.10682C124.302 0.711388 126.074 0.265739 127.864 0.11623C129.341 0.0584865 130.768 0.25993 132.223 0.498674C132.414 0.529509 132.604 0.560343 132.8 0.592112C135.17 1.00332 136.99 1.5909 138.446 3.59241C139.598 5.38923 139.281 7.74045 139.234 9.78075C139.217 11.2823 139.343 12.8203 140.02 14.1889C140.441 14.329 140.752 14.3717 141.19 14.3992C141.332 14.4097 141.473 14.4201 141.619 14.4308C141.913 14.4515 142.207 14.4708 142.502 14.4885C144.947 14.6766 146.598 16.0059 148.167 17.8094C149.272 19.1971 150.156 20.5032 149.977 22.3351C149.888 22.8463 149.757 23.3372 149.609 23.8342C149.549 24.0383 149.549 24.0383 149.488 24.2464C148.553 27.275 147.092 30.1046 144.295 31.7778C142.352 32.7413 140.202 32.3869 138.19 31.8349C134.76 30.9722 130.807 31.6339 127.414 32.3576C127.277 32.3867 127.14 32.4158 126.999 32.4458C126.069 32.658 125.207 32.9702 124.331 33.3476C124.424 33.4713 124.424 33.4713 124.518 33.5975C126.081 35.7226 126.41 38.4308 126.648 40.9892C126.658 41.105 126.669 41.2208 126.68 41.34C126.689 41.4426 126.698 41.5451 126.707 41.6507C126.747 41.9591 126.815 42.25 126.896 42.5498C127.033 42.4534 127.17 42.3569 127.311 42.2576C128.048 41.7895 128.584 41.7249 129.46 41.7956C131.203 42.1882 132.539 43.5841 133.496 45.0295C136.204 49.3902 137.023 55.379 135.871 60.3513C134.99 63.9276 133.422 68.2648 130.118 70.2697C128.415 71.1721 126.743 71.3184 124.859 70.8731C123.707 70.5093 122.674 69.9233 121.614 69.3501C120.594 68.8046 119.568 68.3388 118.486 67.9314C118.352 67.8809 118.218 67.8304 118.08 67.7783C117.377 67.5167 117.377 67.5167 116.638 67.4411C116.735 67.4925 116.833 67.5438 116.933 67.5967C119.885 69.156 122.76 70.8191 125.608 72.5626C125.763 72.6576 125.918 72.7526 126.078 72.8504C126.367 73.0277 126.656 73.2056 126.944 73.3843C128.889 74.5819 130.75 75.5902 133.105 75.0616C134.159 74.7664 135.176 74.3636 136.186 73.945C138.037 73.1822 140.251 72.4453 142.265 72.9892C144.455 73.9361 147.145 75.2584 148.167 77.5485C148.753 79.1304 149.305 80.9723 149.072 82.6776C148.855 83.1396 148.855 83.1396 148.468 83.5827C148.383 83.6846 148.298 83.7865 148.211 83.8915C147.288 84.9154 146.197 85.5045 144.995 86.1401C144.552 86.3748 144.115 86.6172 143.679 86.8639C143.47 86.9794 143.47 86.9794 143.257 87.0972C142.685 87.4942 142.209 88.0482 141.982 88.7118C141.886 89.8118 142.194 90.6524 142.585 91.6724C142.646 91.836 142.706 91.9995 142.769 92.1681C142.895 92.5073 143.022 92.8462 143.149 93.1849C143.445 93.9704 143.731 94.759 144.018 95.5475C144.069 95.686 144.12 95.8245 144.172 95.9672C144.22 96.0957 144.267 96.2242 144.315 96.3566C144.356 96.4685 144.397 96.5804 144.44 96.6956C145.156 98.8068 144.59 101.137 143.673 103.098C142.898 104.667 141.962 106.266 140.27 106.96C138.654 107.476 137.043 107.624 135.353 107.616C135.162 107.615 134.97 107.615 134.773 107.614C128.969 107.545 128.969 107.545 127.162 105.754C127.03 105.607 127.03 105.607 126.896 105.457C126.759 105.305 126.759 105.305 126.62 105.15C125.456 103.754 124.559 102.04 124.602 100.186C124.646 99.7465 124.749 99.3296 124.869 98.9047C125.045 97.8711 124.918 96.8744 124.697 95.8592C124.672 95.7409 124.647 95.6225 124.622 95.5005C124.569 95.252 124.515 95.0037 124.461 94.7555C124.379 94.3803 124.301 94.0045 124.223 93.6285C123.771 91.5007 123.174 89.7806 121.318 88.4873C121.228 88.4244 121.139 88.3616 121.046 88.2968C119.673 87.344 118.271 86.4321 116.873 85.5156C116.575 85.3197 116.277 85.1238 115.979 84.9279C115.539 84.6391 115.099 84.3503 114.659 84.0618C113.891 83.5584 113.125 83.0534 112.36 82.5456C110.708 81.4521 109.035 80.4383 107.285 79.5096C107.339 79.6601 107.394 79.8106 107.451 79.9657C108.988 84.3075 110.701 90.4424 108.684 94.884C108.02 96.2731 108.02 96.2731 107.737 96.5564C107.72 96.9317 107.713 97.3035 107.711 97.6789C107.708 97.9219 107.704 98.1649 107.701 98.4079C107.699 98.6024 107.699 98.6024 107.696 98.8008C107.588 106.063 106.411 113.233 105.154 120.373C105.123 120.551 105.092 120.729 105.06 120.913C103.763 128.317 103.763 128.317 101.846 130.015C101.278 130.367 100.708 130.494 100.044 130.499C98.8655 130.171 98.2513 129.396 97.6298 128.387C95.8216 124.141 95.5251 119.273 94.9623 114.743C94.6194 111.985 94.1785 109.336 93.4058 106.664C93.3416 106.436 93.2776 106.208 93.2137 105.98C93.0796 105.503 92.9424 105.027 92.8024 104.552C92.1669 105.624 91.5696 106.702 91.0246 107.823C89.6942 110.559 89.6942 110.559 88.5879 111.359C87.9831 111.532 87.503 111.573 86.919 111.34C85.7845 110.5 85.157 108.937 84.5053 107.72C84.4178 107.843 84.3303 107.967 84.2401 108.095C84.1212 108.259 84.0021 108.423 83.883 108.587C83.7675 108.748 83.652 108.909 83.533 109.075C83.0524 109.642 82.6012 110.064 81.8559 110.208C80.6719 110.18 79.9808 109.85 79.0745 109.077C78.9687 109.242 78.8629 109.407 78.7539 109.577C78.372 110.107 78.0462 110.371 77.4151 110.586C76.7601 110.668 76.4459 110.632 75.8594 110.322C75.4878 110.011 75.3125 109.828 75.1522 109.379C75.0527 109.379 74.9531 109.379 74.8505 109.379C74.8038 109.51 74.8038 109.51 74.7562 109.643C74.4606 110.127 74.1428 110.322 73.6437 110.586C72.8943 110.695 72.3969 110.57 71.7697 110.177C71.3851 109.863 71.1726 109.508 70.9282 109.077C70.8464 109.141 70.7645 109.205 70.6802 109.27C70.5722 109.353 70.4643 109.435 70.3531 109.521C70.193 109.644 70.193 109.644 70.0296 109.77C69.544 110.105 69.1191 110.164 68.5428 110.181C68.3547 110.189 68.3547 110.189 68.1628 110.198C67.4029 110.076 66.9555 109.648 66.4697 109.075C66.3542 108.914 66.2387 108.753 66.1197 108.587C66.059 108.504 65.9984 108.42 65.9359 108.334C65.7883 108.13 65.6427 107.925 65.4974 107.72C65.4565 107.797 65.4155 107.875 65.3733 107.955C65.1838 108.311 64.9918 108.666 64.7997 109.021C64.7353 109.143 64.671 109.265 64.6047 109.39C63.6514 111.14 63.6514 111.14 62.7787 111.448C62.2162 111.569 61.8846 111.494 61.3395 111.293C60.1043 110.473 59.4585 108.839 58.8409 107.55C58.3401 106.513 57.8313 105.516 57.2003 104.552C55.9605 108.708 55.2641 112.762 54.737 117.065C53.4283 127.718 53.4283 127.718 51.3169 129.896C50.7355 130.336 50.2327 130.461 49.5067 130.499C48.5159 130.357 47.9797 129.918 47.3947 129.141C46.6587 128.001 46.2421 126.807 45.9056 125.504C45.8669 125.354 45.8283 125.205 45.7885 125.051C45.3141 123.157 44.9835 121.236 44.6561 119.312C44.603 119.001 44.5494 118.689 44.4956 118.378C43.8679 114.736 43.3023 111.089 42.869 107.418C42.856 107.309 42.8429 107.2 42.8295 107.088C42.588 105.063 42.4124 103.046 42.3881 101.005C42.3862 100.869 42.3843 100.733 42.3823 100.593C42.3734 99.9248 42.3698 99.2571 42.3756 98.5887C42.3745 97.1428 42.2475 96.2396 41.3604 95.0478C41.1453 94.5416 41.1453 94.5416 41.0116 94.1144C40.9655 93.9722 40.9194 93.8301 40.8719 93.6836C39.7196 89.2102 41.0641 83.6975 42.7181 79.5096C42.1861 79.8035 41.6553 80.0995 41.1247 80.3959C40.9049 80.5172 40.9049 80.5172 40.6807 80.641C39.6311 81.2291 38.6276 81.8715 37.6316 82.5445C36.8879 83.0468 36.1373 83.5385 35.3869 84.0306C35.1014 84.2182 34.8158 84.4057 34.5304 84.5933C34.0933 84.8805 33.6562 85.1674 33.2189 85.4541C28.5908 88.137 28.5908 88.137 26.0471 92.5457C26.0134 92.7118 25.9796 92.8779 25.9448 93.049C25.8889 93.3084 25.8889 93.3084 25.8319 93.5731C25.7589 93.9129 25.687 94.2529 25.6162 94.5931C25.5365 94.9717 25.4524 95.3484 25.3632 95.7249C25.0737 96.9684 24.9424 98.0038 25.2282 99.2529C25.6206 101.079 25.0314 102.743 24.0497 104.278C22.6047 106.33 21.2802 106.853 18.8487 107.325C15.8222 107.817 11.6267 108.221 8.88863 106.551C8.58986 106.311 8.58986 106.311 8.32292 106.06C8.23327 105.981 8.14362 105.901 8.05126 105.819C6.34178 104.098 5.36245 101.205 5.22094 98.8381C5.23522 97.1377 5.92841 95.5665 6.51264 93.9918C6.57468 93.8234 6.63671 93.655 6.70062 93.4816C7.04416 92.5514 7.39279 91.6234 7.74774 90.6975C8.04149 89.9158 8.19666 89.2054 7.91101 88.4019C7.29678 87.2621 6.16412 86.7302 5.04945 86.1626C3.46122 85.3524 1.76022 84.3361 0.930962 82.6776C0.708657 80.6854 1.24938 78.2547 2.40181 76.6151C3.77598 74.9186 6.05936 73.4424 8.17206 72.8719C8.58126 72.8573 8.97167 72.8551 9.37891 72.8719C9.54129 72.8745 9.70366 72.877 9.87096 72.8796C11.928 73.0368 13.7919 73.8819 15.6843 74.6513C16.5625 74.9817 17.3583 75.1835 18.2983 75.2008C18.476 75.2068 18.6538 75.2128 18.8369 75.2191C20.4783 75.101 21.9588 74.1231 23.3048 73.2585C23.65 73.041 23.996 72.8249 24.342 72.6085C24.4285 72.5542 24.515 72.4999 24.6042 72.4439C27.4539 70.6574 30.4146 69.0534 33.3651 67.4411C32.8 67.4411 32.3493 67.6215 31.8282 67.8183C31.7215 67.8584 31.6147 67.8986 31.5047 67.94C30.4272 68.3565 29.4093 68.8738 28.383 69.4012C26.1619 70.5337 23.9954 71.5311 21.4344 70.9574C18.9149 70.114 17.2857 68.1399 16.1156 65.835C15.2232 63.9688 14.4976 62.0712 14.0555 60.0492C14.0003 59.8047 14.0003 59.8047 13.9441 59.5553C13.0764 54.7741 13.8994 48.8712 16.6954 44.8033C17.6546 43.4931 18.8556 42.1073 20.5423 41.7956C21.3864 41.7306 22.0546 41.872 22.8051 42.2481C22.9047 42.3477 23.0042 42.4473 23.1068 42.5498C23.1234 42.4198 23.1399 42.2897 23.1569 42.1556C23.2228 41.6482 23.2909 41.1411 23.3608 40.6342C23.3927 40.402 23.4242 40.1698 23.4551 39.9374C23.748 37.7653 24.1025 35.6256 25.349 33.7731C25.5472 33.5098 25.5472 33.5098 25.5205 33.1968C20.7542 31.6543 15.3506 30.8132 10.4443 32.152C8.89971 32.5417 7.14233 32.4864 5.70886 31.7795C2.4947 29.8482 1.06369 26.3889 0.157234 22.9038C-0.150792 21.5708 -0.0156058 20.6784 0.645749 19.47C1.12772 18.7033 1.68087 18.0269 2.28867 17.3569C2.41993 17.2114 2.55119 17.0659 2.68643 16.9161C4.58781 14.9089 6.38036 14.5108 9.04891 14.3769C9.53278 14.359 9.53278 14.359 9.98234 14.1889C10.806 12.5178 10.79 10.7017 10.746 8.89005C10.6916 6.38982 10.7327 4.33866 12.5186 2.42798C15.6735 -0.512797 23.2679 -0.83553 26.5753 1.75208ZM73.8134 5.52407C73.1828 6.19442 72.5347 6.80575 71.8334 7.40035C71.7564 7.46996 71.6794 7.53958 71.6 7.61131C68.8106 10.0858 63.9349 9.75326 60.4343 9.95547C57.5604 10.124 54.7335 10.5325 51.9015 11.0398C49.8878 11.3995 47.912 11.6174 45.866 11.6673C42.7818 11.7455 40.1007 12.1884 37.764 14.411C36.622 15.7472 36.2002 17.3167 36.1912 19.0363C36.2328 19.4846 36.3452 19.8162 36.533 20.2231C36.8287 20.2319 36.8287 20.2319 37.1365 20.0723C37.2844 19.7083 37.3937 19.3741 37.4947 18.9974C37.8386 17.8712 38.1462 17.1123 39.2013 16.5295C40.5359 15.8977 41.8245 15.5832 43.2962 15.9567C44.3723 16.3568 45.1365 16.9625 45.6251 18.0174C46.1653 19.956 45.5639 21.8148 44.6793 23.542C43.9295 26.5677 44.4263 30.3004 45.9062 33.0347C46.2462 33.5946 46.6213 34.1212 47.0058 34.6511C47.7005 35.6898 48.0422 36.7765 47.8472 38.0242C47.4666 39.3956 46.2899 40.2269 45.1053 40.8981C44.9217 40.9999 44.7378 41.1014 44.5537 41.2024C43.7738 41.6331 43.0949 42.1265 42.4164 42.7007C42.3165 42.7806 42.2165 42.8605 42.1135 42.9429C41.1114 43.7702 40.3485 44.7887 39.5454 45.8033C38.8923 46.5899 38.3072 47.1555 37.2873 47.3772C36.1027 47.4849 35.1751 47.5074 34.1193 46.9247C34.0198 46.9247 33.9202 46.9247 33.8176 46.9247C33.8176 46.8251 33.8176 46.7255 33.8176 46.623C34.6141 46.623 35.4107 46.623 36.2313 46.623C35.8305 46.3558 35.5377 46.2297 35.0905 46.0761C33.4566 45.4278 32.0762 44.0689 31.2295 42.5357C30.5497 40.8769 30.5971 39.033 30.5922 37.2725C30.5907 36.9639 30.5857 36.6556 30.5801 36.3471C30.5789 36.1656 30.5776 35.9842 30.5763 35.7973C30.4625 35.0804 30.1079 34.7257 29.5559 34.281C29.003 34.0423 28.5201 33.9863 27.9342 34.1019C26.852 34.7079 26.349 35.9118 26.0052 37.0648C25.7166 38.1539 25.5524 39.2337 25.4357 40.353C25.4169 40.5222 25.3981 40.6914 25.3788 40.8657C25.2752 41.8138 25.1852 42.7623 25.1031 43.7124C24.743 47.8344 24.743 47.8344 23.2388 49.1781C22.5467 49.7514 22.1045 49.8503 21.2087 49.8452C20.844 49.7909 20.844 49.7909 20.4574 49.4327C20.1385 48.8504 20.0545 48.4775 20.0048 47.811C19.9859 47.563 19.9859 47.563 19.9665 47.3101C19.9574 47.1829 19.9483 47.0557 19.9388 46.9247C20.0882 46.9247 20.2375 46.9247 20.3914 46.9247C20.4188 47.0174 20.4463 47.1102 20.4745 47.2058C20.5314 47.3887 20.5314 47.3887 20.5894 47.5752C20.6262 47.696 20.6629 47.8168 20.7008 47.9412C20.8532 48.3043 20.985 48.4961 21.2966 48.7349C21.8746 48.7349 22.1422 48.6308 22.5977 48.273C23.0026 47.7721 23.4044 47.2573 23.5594 46.623C23.2792 45.6297 22.5222 44.8475 21.8245 44.115C21.4461 43.8701 21.4461 43.8701 20.9477 43.8887C19.4311 44.3514 18.5081 45.5949 17.7874 46.9453C16.9473 48.594 16.4011 50.2475 16.0166 52.0538C15.9796 52.215 15.9427 52.3762 15.9046 52.5423C14.9838 57.3042 16.3007 62.4896 18.8829 66.536C19.322 67.1576 19.8198 67.6926 20.3914 68.1954C20.4908 68.2835 20.5902 68.3716 20.6925 68.4623C21.7558 69.2147 23.226 69.1319 24.4645 68.9497C25.2179 68.7369 25.8916 68.4181 26.5765 68.0445C26.6718 67.9928 26.7671 67.9411 26.8653 67.8879C27.014 67.807 27.014 67.807 27.1658 67.7246C27.3747 67.6111 27.5837 67.4978 27.7928 67.3846C27.8985 67.3271 28.0041 67.2696 28.113 67.2103C30.0927 66.1565 32.252 65.4307 34.421 64.8766C33.2672 63.7103 32.0484 62.6271 30.7699 61.5996C30.4847 61.3674 30.2034 61.1303 29.926 60.8889C27.5499 58.8307 24.8858 57.1077 21.6607 57.1416C20.6695 57.221 20.0818 57.5905 19.4203 58.3143C18.8768 58.966 18.8124 59.6566 18.821 60.4852C19.0581 62.2827 20.0257 64.4918 21.4557 65.6332C21.9882 65.9027 22.5274 65.8527 23.1068 65.7817C22.8447 66.163 22.6272 66.3584 22.1699 66.457C21.2936 66.5082 20.7272 66.3485 20.0608 65.7746C19.1148 64.753 18.6278 63.44 18.1286 62.1612C18.073 62.0449 18.0173 61.9286 17.96 61.8088C17.6168 60.7729 17.6042 59.1464 18.0626 58.1352C18.7195 57.1084 19.7093 56.5128 20.844 56.1269C21.3283 56.041 21.7954 56.026 22.2865 56.0326C22.4174 56.0339 22.5483 56.0351 22.6832 56.0364C24.0049 56.082 25.0998 56.4465 26.2748 57.032C26.3661 57.0773 26.4575 57.1225 26.5515 57.169C27.9338 57.8715 29.1531 58.7654 30.3479 59.7475C30.4302 59.815 30.5125 59.8826 30.5973 59.9522C31.4658 60.6693 32.3123 61.4052 33.1388 62.1706C35.8972 64.6822 38.8966 66.3776 42.7276 66.4323C42.8817 66.4388 42.8817 66.4388 43.039 66.4455C43.8082 66.4551 44.2507 66.2839 44.8301 65.7817C44.9895 64.9981 44.879 64.5749 44.453 63.9054C44.281 63.673 44.1048 63.4436 43.925 63.2171C43.8427 63.1084 43.7605 62.9997 43.6757 62.8877C41.8787 60.6818 39.1952 59.4485 36.6738 58.2721C35.3367 57.6474 34.0968 57.0169 32.9125 56.1269C32.7818 56.0295 32.6511 55.9321 32.5165 55.8317C30.3907 54.1888 28.5598 52.1174 27.9719 49.4232C27.8988 48.3812 27.8631 47.3479 28.0851 46.3213C28.1846 46.3213 28.2842 46.3213 28.3868 46.3213C28.4016 46.4418 28.4164 46.5624 28.4316 46.6866C28.8253 49.5784 29.9456 51.8259 32.0073 53.8641C32.1675 54.0265 32.1675 54.0265 32.3309 54.1923C34.1064 55.8864 36.3744 56.9047 38.5745 57.9243C40.0187 58.6004 41.3804 59.3509 42.6144 60.3697C42.7379 60.4716 42.8614 60.5735 42.9886 60.6785C43.0985 60.7695 43.2084 60.8605 43.3216 60.9543C43.4771 61.0725 43.6327 61.1908 43.793 61.3126C44.4191 61.8842 44.9194 62.5451 45.4335 63.2171C45.8133 62.6475 45.9571 62.0895 46.1407 61.4352C46.1945 61.2553 46.1945 61.2553 46.2494 61.0719C46.4476 60.3691 46.5275 59.8663 46.3387 59.144C46.3029 58.9873 46.2671 58.8306 46.2303 58.6691C46.1519 58.3453 46.0733 58.0216 45.9945 57.6979C45.5459 55.5669 45.3377 52.9815 46.3387 50.9978C46.441 50.7471 46.542 50.4958 46.6404 50.2435C45.8817 50.4603 45.5909 50.8382 45.1318 51.4504C45.0821 51.5499 45.0323 51.6495 44.981 51.7521C45.0448 50.9008 45.3651 50.2984 45.8861 49.6401C46.3509 49.2445 46.6433 49.0613 47.2438 48.9612C47.8583 49.0636 48.1382 49.2171 48.6015 49.6401C49.2227 50.7322 49.2901 51.7841 49.2615 53.0155C49.2612 53.2523 49.2612 53.2523 49.2609 53.494C49.2415 55.2439 48.9549 56.7387 48.2621 58.3426C46.928 61.6135 46.4288 65.0037 46.037 68.4971C46.0199 68.6481 46.0028 68.7992 45.9852 68.9548C45.843 70.2424 45.7355 71.5249 45.6922 72.8197C45.5998 75.5027 45.2066 78.1593 44.3776 80.7165C43.0436 84.9948 41.4591 90.183 43.3498 94.5009C43.9831 95.6735 44.9518 96.1468 46.1725 96.5776C49.0998 97.3887 52.0936 97.2524 54.8084 95.8245C55.11 95.6526 55.11 95.6526 55.3901 95.3495C55.2803 93.7118 53.9044 92.4015 52.8255 91.2764C52.7335 91.1766 52.6415 91.0769 52.5468 90.9741C52.016 90.4143 51.4762 90.0035 50.8043 89.6235C50.5627 89.4661 50.5627 89.4661 50.4118 89.1644C52.7213 89.7225 54.3571 90.9463 55.6823 92.9181C56.134 93.6638 56.497 94.4021 56.8043 95.2175C57.5633 97.1148 59.2794 98.4308 61.0978 99.2506C62.4281 99.7301 63.6317 99.9379 65.0449 99.9506C66.1398 99.9605 67.0991 100.048 68.148 100.378C68.9634 100.602 69.7206 100.523 70.5322 100.328C71.3037 100.156 72.0557 100.148 72.8422 100.149C72.9641 100.149 73.086 100.148 73.2116 100.148C73.7661 100.153 74.2844 100.182 74.8346 100.264C75.3071 100.363 75.3071 100.363 75.7556 100.177C76.1349 100.158 76.5079 100.148 76.8871 100.149C76.9953 100.149 77.1036 100.148 77.2151 100.148C77.9806 100.156 78.6905 100.254 79.4404 100.41C80.4183 100.583 81.3184 100.553 82.2649 100.253C83.1312 100.007 83.9304 99.973 84.8259 99.9695C87.4905 99.9009 89.8084 99.2071 91.803 97.3578C92.5467 96.5725 92.9744 95.7287 93.4058 94.7461C94.5362 92.2855 96.1021 90.323 98.6858 89.3153C98.9859 89.2564 99.2876 89.2035 99.5909 89.1644C99.2878 89.4822 98.9806 89.7356 98.6198 89.9847C97.3263 90.9524 96.2195 92.0917 95.3387 93.445C95.2822 93.531 95.2257 93.6171 95.1675 93.7057C94.8316 94.2486 94.6768 94.7157 94.6127 95.3495C96.6996 96.9672 99.296 97.1994 101.854 97.0089C103.431 96.7899 105.269 96.3597 106.295 95.0667C108.119 92.3116 107.551 88.6662 106.944 85.6048C106.669 84.3487 106.315 83.1139 105.956 81.8797C105.877 81.5996 105.797 81.3195 105.718 81.0394C105.652 80.8097 105.584 80.5805 105.516 80.3516C104.84 78.0902 104.535 75.8983 104.373 73.5468C104.306 72.5847 104.227 71.6235 104.149 70.6621C104.134 70.474 104.119 70.2858 104.103 70.0919C103.762 65.9334 103.219 61.8303 101.57 57.9691C100.893 56.3492 100.743 54.7594 100.741 53.0155C100.738 52.8564 100.734 52.6974 100.73 52.5335C100.726 51.4714 100.87 50.5737 101.401 49.6401C101.865 49.2171 102.144 49.0636 102.759 48.9612C103.456 49.0774 103.896 49.361 104.336 49.917C104.736 50.5166 104.967 51.0202 105.022 51.7521C104.965 51.6685 104.909 51.5848 104.85 51.4987C104.773 51.3894 104.696 51.2801 104.616 51.1675C104.541 51.059 104.466 50.9505 104.388 50.8387C104.073 50.4979 103.8 50.3851 103.362 50.2435C103.415 50.3672 103.468 50.4909 103.522 50.6183C103.591 50.7809 103.659 50.9434 103.73 51.1109C103.798 51.2719 103.867 51.433 103.937 51.5989C104.799 53.7802 104.349 56.752 103.639 58.9278C103.399 59.9161 103.792 60.8795 104.051 61.8406C104.086 61.9732 104.121 62.1058 104.158 62.2425C104.244 62.5675 104.331 62.8923 104.418 63.2171C104.841 62.8033 105.235 62.3921 105.597 61.9254C107.606 59.6209 110.588 58.2999 113.294 57.0247C116.713 55.401 119.659 52.9685 121.013 49.3384C121.498 47.8589 121.498 47.8589 121.616 46.3213C121.716 46.3213 121.815 46.3213 121.918 46.3213C122.388 48.4952 121.908 50.658 120.714 52.5187C118.357 55.7636 115.09 57.527 111.518 59.1629C110.434 59.6621 109.453 60.2425 108.491 60.9543C108.351 61.0562 108.21 61.1581 108.065 61.2631C106.923 62.1371 105.824 63.272 105.173 64.5749C105.09 65.37 105.09 65.37 105.371 66.074C106.459 66.7595 108.379 66.444 109.576 66.206C112.813 65.417 115.076 63.7501 117.467 61.5483C119.31 59.8621 121.341 58.3169 123.539 57.1263C123.628 57.0778 123.717 57.0292 123.809 56.9792C125.031 56.3383 126.164 56.0382 127.546 56.042C127.685 56.0424 127.824 56.0428 127.966 56.0432C129.267 56.0783 130.234 56.3823 131.229 57.2619C131.968 58.0769 132.264 58.9566 132.261 60.0397C132.26 60.1515 132.26 60.2632 132.26 60.3784C132.22 61.6023 131.808 62.5851 131.271 63.6697C131.197 63.8274 131.123 63.9851 131.046 64.1476C130.541 65.1565 129.964 66.0162 128.857 66.3851C128.174 66.4619 127.669 66.5175 127.113 66.0834C127.041 65.9838 126.97 65.8843 126.896 65.7817C127.076 65.7941 127.257 65.8066 127.443 65.8194C128.131 65.8146 128.48 65.6375 129.008 65.1783C130.147 63.9916 131.159 61.8617 131.167 60.2094C131.143 59.2741 130.924 58.6467 130.252 57.9749C129 57.1079 127.961 57.0446 126.443 57.1829C125.849 57.3145 125.331 57.5225 124.784 57.7863C124.631 57.8596 124.478 57.9329 124.32 58.0085C121.726 59.3323 119.592 61.2554 117.452 63.2001C116.848 63.7325 116.216 64.2302 115.582 64.7257C116.068 65.0496 116.528 65.1881 117.081 65.348C119.356 66.0393 121.493 66.9542 123.58 68.0926C125.123 68.932 126.506 69.176 128.254 68.9497C128.867 68.7521 129.284 68.4724 129.762 68.0445C129.874 67.9471 129.986 67.8497 130.101 67.7493C133.066 64.8154 134.303 59.7472 134.335 55.712C134.344 51.9837 133.347 47.5115 130.653 44.7638C130.062 44.2434 129.602 43.9341 128.791 43.8604C127.974 44.1614 127.57 44.7423 127.047 45.4161C126.972 45.4964 126.897 45.5767 126.82 45.6595C126.606 45.8892 126.606 45.8892 126.443 46.3213C126.551 47.2354 126.952 47.8421 127.65 48.4332C127.75 48.5328 127.849 48.6324 127.952 48.7349C128.399 48.757 128.399 48.757 128.857 48.5841C129.299 48.058 129.531 47.6078 129.611 46.9247C129.711 46.9745 129.81 47.0242 129.913 47.0755C130.017 48.6974 130.017 48.6974 129.63 49.2818C129.205 49.7574 128.941 49.8301 128.32 49.8758C127.46 49.8646 127.031 49.5429 126.439 48.943C124.664 46.8021 124.815 43.4633 124.603 40.821C124.431 38.7259 124.194 36.1466 122.672 34.5545C122.069 34.1399 121.588 33.9832 120.862 34.1019C120.276 34.4223 119.875 34.7517 119.504 35.3087C119.456 35.7717 119.456 35.7717 119.457 36.3017C119.454 36.5037 119.45 36.7057 119.446 36.9078C119.442 37.2228 119.438 37.5378 119.435 37.8528C119.406 40.4737 119.064 42.6049 117.207 44.5681C116.102 45.6119 114.952 46.171 113.47 46.4721C113.47 46.5219 113.47 46.5717 113.47 46.623C114.366 46.623 115.262 46.623 116.185 46.623C116.185 46.7225 116.185 46.8221 116.185 46.9247C115.97 46.9947 115.97 46.9947 115.751 47.0661C115.301 47.2074 115.301 47.2074 114.978 47.3772C112.282 47.5655 112.282 47.5655 111.358 46.7738C110.825 46.2446 110.335 45.6866 109.849 45.1144C109.655 44.8942 109.46 44.6742 109.265 44.4544C109 44.1521 108.746 43.8475 108.5 43.5298C107.591 42.4265 106.373 41.7558 105.154 41.0507C103.835 40.2826 102.662 39.5361 102.155 38.0242C101.929 36.6496 102.423 35.405 103.202 34.2852C103.305 34.15 103.407 34.0149 103.513 33.8756C105.177 31.6769 105.525 29.0051 105.54 26.3234C105.542 26.144 105.543 25.9646 105.545 25.7798C105.535 24.7468 105.423 23.8913 105.022 22.9385C104.965 22.7929 104.909 22.6472 104.851 22.4972C104.777 22.3189 104.777 22.3189 104.701 22.1371C104.159 20.8313 104.012 19.3214 104.399 17.9455C104.87 16.9219 105.498 16.4266 106.493 15.952C108.101 15.6117 109.573 15.9135 111.007 16.6745C112.11 17.3966 112.409 18.4348 112.707 19.671C112.76 19.8034 112.812 19.9358 112.866 20.0723C113.172 20.2193 113.172 20.2193 113.47 20.2231C114.06 18.9216 113.845 17.5777 113.357 16.2732C112.56 14.4825 111.263 13.3306 109.465 12.5772C109.293 12.5117 109.121 12.4461 108.944 12.3786C108.791 12.3177 108.638 12.2569 108.48 12.1942C107.176 11.7633 105.941 11.7379 104.579 11.7186C102.667 11.6904 100.819 11.4956 98.9309 11.2C98.8003 11.1797 98.6697 11.1594 98.5351 11.1385C97.3568 10.954 96.1803 10.7615 95.0081 10.5412C92.5054 10.081 89.9937 9.95234 87.4556 9.81983C80.0447 9.42919 80.0447 9.42919 77.6249 6.87235C77.2094 6.4379 76.7681 6.04924 76.3096 5.66137C76.0574 5.43922 76.0574 5.43922 75.7368 5.0715C75.4599 4.79838 75.4599 4.79838 75.0297 4.77804C74.4029 4.85331 74.2335 5.06197 73.8134 5.52407ZM32.6108 37.8733C32.6108 38.6698 32.6108 39.4663 32.6108 40.287C32.7788 40.1501 32.9468 40.0132 33.1199 39.8721C33.2144 39.7951 33.3089 39.7181 33.4063 39.6388C33.7195 39.3574 33.7195 39.3574 33.9685 38.7784C33.5204 38.4797 33.0724 38.181 32.6108 37.8733ZM116.628 38.3259C116.462 38.4519 116.462 38.4519 116.293 38.5804C116.208 38.6458 116.122 38.7111 116.034 38.7784C116.407 39.504 116.703 39.7132 117.392 40.287C117.392 39.4905 117.392 38.694 117.392 37.8733C117.098 37.8733 116.852 38.1556 116.628 38.3259Z" fill="#020202"/>
<path d="M73.3004 43.0396C73.393 43.1091 73.4856 43.1786 73.581 43.2502C74.0364 43.5788 74.345 43.7471 74.9056 43.8511C75.6588 43.7198 76.1777 43.374 76.8078 42.9548C78.2912 41.9903 79.3593 41.4581 81.1826 41.6442C83.7364 42.2037 85.7483 43.9096 87.2169 46.0191C89.5883 49.7429 90.7018 53.8869 91.0525 58.2638C91.2829 61.1248 91.8341 63.8562 92.5555 66.6313C92.703 67.2019 92.8449 67.7739 92.9871 68.3458C93.0346 68.5356 93.082 68.7254 93.1309 68.9209C93.1706 69.0796 93.2102 69.2383 93.2511 69.4018C93.2807 69.505 93.3102 69.6083 93.3407 69.7147C93.8394 72.0786 92.9964 74.8902 91.7826 76.9322C91.5306 77.3008 91.2669 77.6518 90.9883 78.0006C90.9173 78.0961 90.8463 78.1915 90.7732 78.2899C89.7285 79.6229 87.9821 80.7013 86.3117 81.0177C84.7616 81.1647 83.7333 80.9368 82.4949 80.0012C79.6959 77.5116 78.6935 72.6192 78.0146 69.1001C77.9151 69.1001 77.8155 69.1001 77.7129 69.1001C77.7016 69.2378 77.7016 69.2378 77.69 69.3784C77.2584 74.5509 77.2584 74.5509 76.1855 75.8132C75.66 76.2335 75.2402 76.252 74.5827 76.2404C74.2432 76.1903 74.2432 76.1903 73.8189 75.898C72.411 73.9269 72.4736 71.4272 72.2821 69.1001C72.1825 69.1001 72.083 69.1001 71.9804 69.1001C71.9532 69.2215 71.9532 69.2215 71.9255 69.3454C69.9782 77.9725 69.9782 77.9725 67.153 80.2634C66.041 80.961 64.9869 81.1382 63.6833 81.0177C61.3083 80.4405 59.5484 78.9585 58.2525 76.9446C56.499 73.9657 56.2697 70.892 57.1107 67.6096C57.2706 67.0135 57.4505 66.4247 57.6449 65.839C58.0565 64.4838 58.3452 63.1158 58.5636 61.7175C58.6022 61.4739 58.6022 61.4739 58.6416 61.2253C58.8614 59.7956 59.0005 58.3641 59.1267 56.9237C59.5519 52.1747 61.2501 46.6284 65.041 43.4545C67.8315 41.4352 70.3997 40.9977 73.3004 43.0396Z" fill="black"/>
<path d="M113.64 68.1352C113.744 68.1903 113.848 68.2454 113.955 68.3022C114.292 68.4819 114.629 68.6629 114.965 68.8441C115.2 68.9695 115.434 69.0948 115.669 69.22C116.242 69.5267 116.815 69.8346 117.388 70.1429C117.796 70.3623 118.205 70.5801 118.613 70.7982C120.461 71.7898 122.271 72.8437 124.076 73.9107C124.885 74.3889 125.696 74.8644 126.511 75.3339C126.676 75.4295 126.842 75.5252 127.012 75.6237C129.05 76.7344 130.857 77.032 133.117 76.5337C133.306 76.494 133.306 76.494 133.499 76.4536C133.896 76.3699 134.293 76.2842 134.69 76.1984C135.089 76.1134 135.487 76.029 135.886 75.9448C136.133 75.8926 136.379 75.8399 136.625 75.7866C139.682 75.1325 141.891 75.6932 144.543 77.2449C144.543 77.3943 144.543 77.5436 144.543 77.6975C144.247 77.9065 143.936 78.0623 143.615 78.229C143.298 78.438 143.298 78.438 143.222 78.8537C143.204 79.0281 143.204 79.0281 143.185 79.2061C143.296 79.1734 143.407 79.1407 143.522 79.1071C143.669 79.0651 143.816 79.023 143.968 78.9798C144.113 78.9378 144.258 78.8958 144.408 78.8525C144.822 78.7585 145.176 78.7349 145.599 78.7535C145.728 79.4362 145.783 80.0954 145.797 80.79C145.802 80.9814 145.808 81.1727 145.814 81.3699C145.715 82.2205 145.255 82.7618 144.656 83.3452C144.565 83.434 144.473 83.5229 144.38 83.6145C144.091 83.8816 143.796 84.1371 143.496 84.3917C142.925 84.8827 142.433 85.4224 141.942 85.9922C141.712 86.2559 141.475 86.5048 141.224 86.7489C140.697 85.1675 141.28 83.5803 141.744 82.0583C141.844 81.7143 141.917 81.369 141.978 81.0163C141.622 81.0729 141.425 81.112 141.177 81.3823C139.512 84.1663 139.239 86.8211 139.983 89.9584C140.262 91.0223 140.573 92.0683 140.925 93.1108C140.964 93.2288 141.004 93.3469 141.045 93.4685C141.208 93.9539 141.372 94.4391 141.54 94.9232C142.186 96.7974 142.535 98.302 141.997 100.26C141.971 100.365 141.945 100.47 141.917 100.578C141.718 101.34 141.718 101.34 141.375 101.684C141.378 101.587 141.381 101.491 141.384 101.391C141.527 98.2665 141.527 98.2665 140.049 95.6182C139.407 95.0977 138.66 94.7698 137.905 94.4425C137.905 94.5919 137.905 94.7412 137.905 94.8951C137.994 94.9367 138.082 94.9783 138.174 95.0212C139.297 95.6103 139.854 96.4297 140.271 97.5976C140.634 98.8934 140.788 100.932 140.204 102.163C139.758 102.82 139.219 103.386 138.659 103.946C138.567 104.041 138.474 104.135 138.378 104.233C137.351 105.201 136.124 105.208 134.775 105.2C134.549 105.2 134.549 105.2 134.318 105.199C133.295 105.183 132.29 105.11 131.277 104.965C131.096 104.94 131.096 104.94 130.912 104.915C129.648 104.71 128.708 104.244 127.9 103.242C127.216 102.292 126.569 101.356 126.655 100.143C127.198 97.5096 128.81 95.5315 130.815 93.8391C130.088 93.9093 129.612 94.0169 129.023 94.452C128.896 94.5457 128.769 94.6394 128.639 94.736C128.124 95.1465 127.634 95.5789 127.151 96.0259C126.893 96.2528 126.893 96.2528 126.742 96.2528C126.724 96.1544 126.705 96.0559 126.687 95.9545C126.089 91.7667 126.089 91.7667 124.177 88.1066C124.079 87.9926 123.981 87.8787 123.88 87.7613C122.061 85.7987 119.637 84.3947 117.389 82.9775C117.254 82.8923 117.12 82.8072 116.982 82.7194C114.399 81.0806 111.77 79.5312 109.115 78.0116C108.947 77.9148 108.779 77.8181 108.606 77.7184C108.281 77.5315 107.956 77.3455 107.63 77.1606C107.485 77.0772 107.341 76.9938 107.192 76.9079C107.063 76.8344 106.934 76.7609 106.802 76.6853C106.711 76.621 106.62 76.5568 106.527 76.4906C106.527 76.3911 106.527 76.2915 106.527 76.1889C106.655 76.2387 106.782 76.2885 106.914 76.3398C107.464 76.4999 107.918 76.5134 108.488 76.4906C108.008 75.9406 107.383 75.6914 106.738 75.374C106.376 75.1329 106.376 75.1329 106.282 74.8517C106.19 74.3299 106.153 73.8037 106.112 73.2761C106.102 73.1549 106.092 73.0336 106.082 72.9087C106.061 72.6527 106.041 72.3967 106.021 72.1407C105.99 71.75 105.958 71.3594 105.926 70.9688C105.906 70.7196 105.886 70.4704 105.866 70.2213C105.857 70.105 105.848 69.9887 105.838 69.8688C105.794 69.309 105.762 68.7551 105.773 68.1935C108.029 68.0539 109.807 68.2505 111.896 69.1132C112.555 69.3603 113.237 69.5295 113.919 69.7021C113.819 69.658 113.719 69.6139 113.617 69.5684C113.167 69.3688 112.718 69.1678 112.269 68.9667C112.112 68.8973 111.955 68.8278 111.793 68.7563C111.644 68.6892 111.495 68.6221 111.341 68.553C111.203 68.4914 111.064 68.4298 110.922 68.3663C110.6 68.1935 110.6 68.1935 110.449 67.8918C110.659 67.811 110.87 67.733 111.081 67.6561C111.198 67.6124 111.315 67.5686 111.436 67.5235C112.266 67.335 112.927 67.7496 113.64 68.1352Z" fill="#FDFDFD"/>
<path d="M38.8231 67.6074C39.0954 67.74 39.0954 67.74 39.5479 68.0417C37.7377 68.9469 37.7377 68.9469 35.9274 69.852C36.0555 69.8017 36.1835 69.7515 36.3155 69.6997C39.0184 68.6567 41.2886 67.9574 44.2245 68.1926C44.1636 69.1082 44.1018 70.0237 44.0394 70.9392C44.0183 71.2507 43.9974 71.5623 43.9767 71.8738C43.9469 72.3213 43.9163 72.7688 43.8856 73.2162C43.8765 73.3558 43.8674 73.4953 43.858 73.6391C43.8444 73.8339 43.8444 73.8339 43.8306 74.0326C43.8229 74.1468 43.8152 74.261 43.8072 74.3787C43.7719 74.6794 43.7719 74.6794 43.6211 75.132C43.2687 75.3598 42.9235 75.5648 42.5556 75.7637C42.4556 75.8192 42.3555 75.8747 42.2524 75.9319C42.0053 76.0688 41.7573 76.204 41.5091 76.3388C41.5091 76.3886 41.5091 76.4384 41.5091 76.4897C42.2367 76.5188 42.7908 76.4531 43.4702 76.188C43.2751 76.7734 43.0825 76.8133 42.5462 77.1002C42.3003 77.2337 42.3003 77.2337 42.0494 77.3699C41.9615 77.4169 41.8735 77.4639 41.7829 77.5123C41.3158 77.7623 40.8515 78.0173 40.3871 78.2723C40.2917 78.3245 40.1963 78.3768 40.0981 78.4306C30.8559 82.9882 30.8559 82.9882 24.5649 90.4511C24.5311 90.5701 24.4972 90.689 24.4623 90.8116C24.4251 90.9381 24.388 91.0647 24.3497 91.1951C23.8794 92.8562 23.5676 94.5552 23.2555 96.2518C23.0651 96.1111 22.875 95.97 22.685 95.8287C22.5792 95.7502 22.4733 95.6717 22.3642 95.5907C22.0703 95.3635 21.7947 95.1257 21.5206 94.8753C20.815 94.2617 20.1287 93.8382 19.1823 93.8382C19.36 93.9916 19.36 93.9916 19.5412 94.1481C21.3214 95.713 23.1836 97.9172 23.3497 100.4C23.3217 101.724 22.3927 103.079 21.464 103.974C19.7419 105.292 17.0168 105.175 14.9395 105.2C14.8092 105.202 14.6788 105.205 14.5445 105.208C12.8355 105.206 11.9148 104.523 10.7415 103.349C9.57796 102.107 9.43305 100.957 9.48512 99.3096C9.5702 97.7147 9.97976 96.5239 11.1345 95.4074C11.7193 94.8941 11.7193 94.8941 12.0921 94.8941C12.0921 94.7448 12.0921 94.5954 12.0921 94.4416C10.6018 95.0876 9.55968 95.7416 8.85812 97.2418C8.39194 98.6344 8.57492 100.234 8.62241 101.683C8.2048 101.158 8.05468 100.749 7.91527 100.089C7.87735 99.9179 7.83943 99.7466 7.80036 99.5701C7.57303 98.1714 7.74761 96.973 8.20166 95.6425C8.27592 95.4148 8.27592 95.4148 8.35169 95.1825C8.50879 94.7022 8.66915 94.223 8.82983 93.7439C8.9888 93.2635 9.14707 92.7828 9.30474 92.302C9.40258 92.0043 9.50125 91.7069 9.60092 91.4099C10.0982 89.911 10.3338 88.584 10.329 87.0025C10.3326 86.7646 10.3326 86.7646 10.3363 86.5219C10.3373 84.9702 10.0625 83.5582 9.29183 82.2034C9.15619 81.9601 9.15619 81.9601 9.01781 81.7119C8.79055 81.3114 8.79055 81.3114 8.47155 81.0154C8.3222 81.0154 8.17285 81.0154 8.01898 81.0154C8.09923 81.4794 8.21231 81.924 8.34957 82.3737C9.13842 84.9757 9.13842 84.9757 8.92412 86.2953C8.82455 86.4447 8.72499 86.594 8.62241 86.7479C8.53665 86.6404 8.45089 86.5328 8.36253 86.422C7.49831 85.3501 6.62025 84.3826 5.577 83.4856C5.04195 83.0242 4.56709 82.5595 4.24757 81.9205C4.23276 81.5562 4.228 81.1914 4.22872 80.8268C4.22833 80.63 4.22794 80.4332 4.22754 80.2304C4.24533 79.722 4.3009 79.251 4.39843 78.7525C5.22936 78.8416 6.00487 78.9889 6.81213 79.2051C6.69151 78.6273 6.51009 78.3877 6.05785 77.9982C5.81048 77.8408 5.55988 77.6881 5.30357 77.5457C5.7863 76.9938 6.32285 76.7003 6.98184 76.4048C7.08261 76.3591 7.18338 76.3134 7.2872 76.2663C9.93045 75.0897 12.1704 75.4826 14.9201 76.1178C15.1865 76.1792 15.1865 76.1792 15.4584 76.2418C15.808 76.3234 16.1572 76.4068 16.5058 76.4924C20.4509 77.4196 23.2784 75.4901 26.5449 73.5572C28.1394 72.6149 29.7576 71.7237 31.3923 70.8528C32.0647 70.494 32.7354 70.132 33.4063 69.7702C34.0399 69.4286 34.6734 69.0871 35.3083 68.7481C35.642 68.5672 35.9721 68.3834 36.3013 68.1948C36.5605 68.0488 36.5605 68.0488 36.8249 67.8997C36.9812 67.81 37.1374 67.7202 37.2985 67.6277C37.8704 67.3811 38.2424 67.4157 38.8231 67.6074Z" fill="#FDFDFD"/>
<path d="M25.2762 2.96883C25.9813 3.57172 26.3734 4.39393 26.4536 5.31123C26.4719 6.01615 26.4013 6.67088 26.2745 7.3637C25.8939 9.6998 26.0241 11.9372 26.7271 14.1899C26.779 14.3907 26.8302 14.5916 26.8779 14.7934C26.0407 14.1563 25.4419 13.4331 24.8229 12.592C24.4838 12.1103 24.4838 12.1103 24.0116 11.7762C24.4447 14.239 25.8826 16.0642 27.4015 17.9728C27.6054 18.2293 27.8066 18.4876 28.007 18.7469C30.7735 22.254 34.9182 23.8064 38.871 25.6173C39.0914 25.7189 39.0914 25.7189 39.3162 25.8225C40.0278 26.1496 40.7412 26.4682 41.4632 26.7717C41.5972 26.83 41.7312 26.8883 41.8693 26.9483C42.1192 27.057 42.3708 27.1621 42.6241 27.2627C42.9501 27.4071 43.2067 27.5286 43.4721 27.767C43.6219 28.1961 43.6234 28.5107 43.623 28.9738C43.5102 28.9429 43.3974 28.912 43.2812 28.8801C43.1326 28.8395 42.984 28.7989 42.831 28.757C42.6839 28.7167 42.5369 28.6765 42.3855 28.635C42.0444 28.5431 41.7031 28.4545 41.3601 28.3704C41.797 28.9933 42.1583 29.2404 42.8498 29.5396C43.7923 30.0703 44.029 30.6497 44.3095 31.6382C44.7647 33.1772 45.6396 34.5159 46.4573 35.8857C46.8152 36.5303 46.8847 37.1504 46.7909 37.8744C46.4128 38.6965 45.682 39.3647 44.8298 39.6846C44.0693 39.5457 43.6074 39.1487 43.0572 38.6381C41.0877 36.9145 38.7749 35.8161 36.442 34.6739C34.8921 33.9132 33.3974 33.1012 31.9316 32.189C26.2454 28.5978 26.2454 28.5978 19.7877 27.0127C19.6311 27.003 19.4746 26.9933 19.3133 26.9832C17.7881 26.9319 16.4417 27.2615 15.0106 27.7548C9.10918 29.7808 9.10918 29.7808 6.73978 29.0009C4.62256 27.8584 3.60644 24.6341 2.89176 22.487C2.68686 21.5894 2.58562 20.8635 3.07091 20.045C3.69307 19.1431 4.48477 18.7163 5.45632 18.2631C5.2323 18.1137 5.2323 18.1137 5.00375 17.9613C5.00375 17.812 5.00375 17.6626 5.00375 17.5088C6.04581 16.627 7.36796 16.5744 8.68087 16.4622C11.2004 16.2171 13.1331 15.5754 14.8094 13.5865C15.1563 13.1023 15.4483 12.6104 15.7145 12.078C15.7639 11.9792 15.8133 11.8804 15.8642 11.7786C16.2416 10.9089 16.2727 9.99812 16.318 9.06083C16.2666 9.17401 16.2153 9.28718 16.1624 9.40379C15.3911 11.0325 14.4963 12.4437 12.8483 13.2848C12.7487 13.2848 12.6491 13.2848 12.5466 13.2848C12.5666 13.1864 12.5866 13.088 12.6073 12.9866C12.6339 12.8548 12.6605 12.7229 12.688 12.5871C12.7274 12.3928 12.7274 12.3928 12.7675 12.1946C12.7942 12.0566 12.8208 11.9185 12.8483 11.7762C12.8873 11.5805 12.8873 11.5805 12.9271 11.3808C13.0144 10.763 13.0224 10.1612 13.0257 9.53815C13.0292 9.27847 13.0328 9.01879 13.0366 8.75912C13.0418 8.35363 13.0463 7.94821 13.0483 7.54269C13.0507 7.14862 13.0567 6.75475 13.0634 6.36074C13.0631 6.24111 13.0628 6.12149 13.0625 5.99824C13.0838 5.01609 13.349 4.18532 14.0551 3.47915C14.7471 3.44539 15.1555 3.73302 15.6768 4.14857C16.3816 4.80118 16.5599 5.40374 16.6197 6.34542C16.8131 5.43817 16.9506 4.71336 16.4971 3.88458C16.1894 3.4925 16.1894 3.4925 15.9031 3.21515C15.8409 3.15292 15.7787 3.09069 15.7145 3.02658C15.7145 2.92702 15.7145 2.82745 15.7145 2.72487C16.0979 2.62699 16.4813 2.52964 16.8648 2.43258C16.9724 2.40507 17.0799 2.37755 17.1907 2.3492C19.6915 1.71827 23.0527 1.42802 25.2762 2.96883Z" fill="#FDFDFD"/>
<path d="M128.892 1.91041C129.129 1.91029 129.129 1.91029 129.372 1.91016C130.863 1.93081 132.245 2.19294 133.682 2.57041C133.883 2.62094 134.084 2.67129 134.285 2.72127C134.054 3.24046 133.738 3.64021 133.38 4.07897C133.04 4.7582 133.222 5.62579 133.38 6.34182C133.386 6.24692 133.392 6.15202 133.398 6.05425C133.526 5.01016 133.871 4.50759 134.688 3.8521C135.106 3.58391 135.446 3.47555 135.944 3.47555C136.068 3.64159 136.19 3.80829 136.312 3.97526C136.38 4.06802 136.449 4.16078 136.519 4.25635C136.927 4.88084 136.875 5.52918 136.881 6.24635C136.886 6.50407 136.89 6.76178 136.894 7.01949C136.901 7.42325 136.906 7.82698 136.91 8.23076C136.926 9.6894 136.968 11.0483 137.357 12.4622C137.453 12.8286 137.453 12.8286 137.453 13.2812C135.964 12.9463 135.203 11.7851 134.431 10.5754C134.128 10.0844 133.876 9.60057 133.682 9.05723C133.762 11.4014 134.62 13.1578 136.317 14.7786C138.117 16.2535 140.417 16.4615 142.654 16.627C143.585 16.7062 144.214 16.984 144.996 17.5052C144.996 17.6545 144.996 17.8039 144.996 17.9577C144.772 18.1071 144.772 18.1071 144.543 18.2595C144.654 18.3143 144.765 18.3691 144.88 18.4256C145.759 18.8786 146.401 19.2451 146.957 20.0697C147.022 20.1662 147.088 20.2626 147.155 20.362C147.779 22.2335 146.264 24.7304 145.468 26.3741C144.834 27.6145 144.093 28.6645 142.733 29.1211C141.277 29.2584 139.889 29.0368 138.471 28.7251C138.281 28.6847 138.091 28.6443 137.895 28.6027C136.59 28.3163 135.341 27.9467 134.084 27.5006C130.887 26.4033 127.778 27.2538 124.781 28.5177C124.634 28.5794 124.634 28.5794 124.485 28.6423C122.149 29.6439 119.98 30.986 117.818 32.3132C116.548 33.0865 115.268 33.8125 113.936 34.4712C113.817 34.53 113.698 34.5888 113.576 34.6494C112.984 34.9413 112.39 35.23 111.794 35.5147C109.861 36.4489 108.208 37.6012 106.555 38.9733C106.206 39.2435 105.862 39.4749 105.472 39.681C104.686 39.5324 103.794 38.8625 103.324 38.2184C103.076 37.469 103.116 36.7912 103.436 36.0817C103.536 35.8847 103.64 35.6891 103.746 35.4948C103.828 35.3374 103.828 35.3374 103.911 35.1769C104.242 34.5481 104.6 33.941 104.972 33.3357C105.327 32.7551 105.542 32.2285 105.713 31.5695C105.95 30.6704 106.172 30.1159 106.956 29.6198C107.213 29.4767 107.477 29.3448 107.74 29.2136C108.182 28.9727 108.379 28.7901 108.639 28.3668C107.868 28.528 107.12 28.7034 106.377 28.9703C106.389 28.527 106.402 28.1821 106.528 27.7634C106.932 27.4359 106.932 27.4359 107.477 27.1865C107.576 27.1399 107.674 27.0934 107.776 27.0454C108.099 26.8937 108.426 26.7487 108.753 26.6037C108.979 26.4993 109.204 26.3945 109.43 26.2893C110.119 25.9698 110.812 25.6592 111.506 25.3497C111.715 25.2557 111.924 25.1617 112.134 25.0677C112.893 24.7269 113.652 24.3874 114.412 24.0498C117.627 22.6183 120.352 20.9367 122.518 18.1086C122.6 18.0028 122.682 17.897 122.767 17.788C124.904 15.0388 124.904 15.0388 125.988 11.7726C125.487 12.2428 125.062 12.7382 124.64 13.2812C124.176 13.8705 123.72 14.3408 123.122 14.7898C123.151 14.6984 123.18 14.607 123.21 14.5128C123.249 14.3864 123.289 14.26 123.329 14.1298C123.368 14.0073 123.406 13.8847 123.446 13.7585C123.781 12.5124 123.926 11.3477 123.914 10.0567C123.913 9.90406 123.913 9.75147 123.912 9.59425C123.901 8.66401 123.827 7.7823 123.644 6.86863C123.42 5.66037 123.537 4.68443 124.178 3.6264C125.349 2.16172 127.127 1.90802 128.892 1.91041Z" fill="#FDFDFD"/>
<path d="M93.8608 96.5566C94.582 96.7654 95.2139 97.0772 95.8732 97.4288C96.7523 97.8316 97.6524 97.9779 98.6033 98.0841C98.7137 98.0971 98.824 98.1101 98.9377 98.1235C99.2065 98.1552 99.4753 98.1857 99.7442 98.2161C100.118 102.573 100.082 106.929 100.067 111.299C100.063 112.276 100.062 113.253 100.061 114.23C100.057 116.133 100.052 118.036 100.046 119.939C100.411 118.126 100.747 116.329 100.911 114.486C100.925 114.336 100.925 114.336 100.939 114.184C101.152 111.81 101.16 109.441 101.142 107.059C101.139 106.617 101.138 106.175 101.138 105.733C101.134 103.224 101.087 100.721 100.951 98.2161C101.082 98.1978 101.082 98.1978 101.216 98.1791C103.192 97.923 103.192 97.923 105.067 97.2762C105.326 97.1601 105.326 97.1601 105.628 97.1601C105.688 101.24 105.396 105.212 104.883 109.257C104.864 109.408 104.844 109.56 104.825 109.716C104.618 111.332 104.393 112.941 104.098 114.543C103.963 115.281 103.839 116.02 103.714 116.759C103.587 117.506 103.459 118.252 103.331 118.997C103.265 119.38 103.201 119.763 103.136 120.147C102.036 126.685 102.036 126.685 100.498 128.387C99.7936 128.108 99.6334 127.683 99.3252 127.021C98.0207 123.882 97.7011 120.323 97.3099 116.976C96.8395 112.956 96.3025 108.976 95.0676 105.108C94.2253 102.434 93.535 99.5221 93.7099 96.7075C93.7597 96.6577 93.8095 96.6079 93.8608 96.5566Z" fill="#FBFBFB"/>
<path d="M55.8424 96.5566C55.9918 96.6064 56.1411 96.6562 56.295 96.7075C56.5032 100.045 55.4558 103.269 54.5263 106.432C53.5083 109.938 53.1036 113.55 52.7029 117.167C52.4561 119.38 52.1267 121.541 51.6185 123.711C51.5667 123.944 51.5151 124.177 51.4635 124.41C50.7411 127.573 50.7411 127.573 49.8082 128.387C49.1655 128.158 48.9462 127.751 48.6013 127.18C47.5575 124.803 47.2231 122.179 46.7911 119.638C46.7691 119.509 46.7472 119.38 46.7246 119.247C46.4503 117.634 46.1808 116.02 45.9167 114.406C45.8178 113.801 45.7177 113.197 45.6142 112.594C45.3618 111.117 45.1468 109.642 44.9714 108.154C44.9587 108.047 44.946 107.94 44.933 107.83C44.8456 107.09 44.7615 106.349 44.6791 105.608C44.6605 105.443 44.642 105.277 44.6229 105.107C44.336 102.458 44.3443 99.8206 44.3774 97.1601C44.5993 97.2365 44.5993 97.2365 44.8258 97.3145C46.2342 97.7848 47.5746 98.0737 49.0539 98.2161C49.0698 99.1509 49.0548 100.074 48.9802 101.006C48.8541 102.831 48.8692 104.662 48.8668 106.49C48.8661 106.91 48.8641 107.33 48.8606 107.75C48.7668 113.93 48.7668 113.93 49.959 119.939C49.9584 119.741 49.9577 119.542 49.957 119.337C49.9508 117.441 49.9463 115.544 49.9434 113.647C49.9418 112.673 49.9397 111.699 49.9363 110.724C49.9072 102.335 49.9072 102.335 50.2607 98.2161C50.3518 98.2046 50.4429 98.1931 50.5367 98.1812C53.1328 97.8538 53.1328 97.8538 55.4847 96.7499C55.6028 96.6861 55.7208 96.6224 55.8424 96.5566Z" fill="#FBFBFB"/>
<path d="M84.9582 27.1611C85.0577 27.1611 85.1573 27.1611 85.2599 27.1611C85.274 27.2592 85.2882 27.3573 85.3028 27.4584C86.2954 34.0599 89.1234 40.4233 92.8115 45.9522C95.228 49.5749 96.4138 53.5204 96.896 57.8223C97.2294 60.7769 97.5727 63.7026 98.4604 66.5499C98.7379 67.4442 98.987 68.3466 99.2366 69.249C99.3157 69.5348 99.3956 69.8204 99.4756 70.106C99.9491 71.8172 100.249 73.3528 100.251 75.1334C100.257 75.3848 100.257 75.3848 100.262 75.6414C100.267 76.9411 100.114 78.0534 99.1925 79.0227C99.0752 79.1331 98.9578 79.2436 98.8369 79.3574C98.8393 79.2154 98.8417 79.0735 98.8441 78.9272C98.9368 75.2666 98.9368 75.2666 98.3844 71.6637C98.3406 71.4735 98.2969 71.2833 98.2518 71.0874C97.9817 69.9336 97.655 68.7955 97.3284 67.6566C97.2894 67.5202 97.2503 67.3837 97.2101 67.2432C97.0447 66.6662 96.8782 66.0899 96.7049 65.5151C96.0272 63.1723 95.7305 60.7179 95.5087 58.2941C95.3894 56.9965 95.1985 55.7387 94.9147 54.4661C94.8908 54.356 94.867 54.2458 94.8424 54.1324C94.1236 50.8871 92.6352 48.1863 90.8416 45.4147C88.9397 42.4704 87.4325 39.3253 86.165 36.0616C86.0948 35.8832 86.0948 35.8832 86.0231 35.7012C85.0428 33.1886 84.2348 30.3351 84.6565 27.6137C84.756 27.4644 84.8556 27.315 84.9582 27.1611Z" fill="#090909"/>
<path d="M64.7447 27.1611C65.1973 27.312 65.1973 27.312 65.3482 27.6137C65.7461 34.1309 62.2633 40.9946 58.6584 46.2488C55.6495 50.6632 54.8199 55.2305 54.2184 60.4567C54.0181 62.1796 53.7434 63.807 53.2797 65.4786C53.2088 65.7691 53.138 66.0597 53.0683 66.3505C52.8193 67.3854 52.5266 68.4022 52.2142 69.4197C51.6065 71.4055 51.1376 73.3809 51.1529 75.4681C51.1533 75.6363 51.1533 75.6363 51.1536 75.8079C51.1544 76.1614 51.1563 76.5148 51.1582 76.8683C51.159 77.1099 51.1597 77.3515 51.1603 77.5931C51.162 78.1812 51.1646 78.7693 51.1677 79.3574C50.2029 78.451 49.8064 77.5434 49.7192 76.2218C49.7134 75.9062 49.7125 75.5905 49.7157 75.2748C49.7167 75.1048 49.7178 74.9348 49.7189 74.7597C49.7657 72.8998 50.2013 71.1793 50.7151 69.4009C50.7936 69.121 50.872 68.8411 50.9502 68.5611C51.0987 68.0348 51.2494 67.5093 51.4022 66.9842C52.1617 64.3706 52.6675 61.8319 52.962 59.1244C53.5677 53.5866 55.0494 49.1858 58.0953 44.5178C60.0278 41.487 61.5253 38.2142 62.7836 34.8548C62.8705 34.6248 62.8705 34.6248 62.9592 34.3901C63.8391 32.0263 64.3508 29.6496 64.7447 27.1611Z" fill="#090909"/>
<path d="M33.0026 33.6868C34.0738 34.4022 35.0375 35.219 36.0068 36.0628C38.2255 37.9863 40.6286 39.2891 43.3186 40.4359C43.0923 40.747 43.0923 40.747 42.7152 41.0393C41.8136 41.0318 41.1298 40.7727 40.3392 40.3605C40.2337 40.3063 40.1283 40.2522 40.0197 40.1964C39.1303 39.7261 38.343 39.1658 37.5567 38.5382C36.9774 38.0824 36.3846 37.6439 35.7946 37.2019C35.5997 37.0548 35.5997 37.0548 35.4008 36.9048C34.8209 36.4687 34.24 36.0372 33.6408 35.6279C32.1437 34.605 32.1437 34.605 31.6084 33.8359C31.0278 33.0167 30.2502 32.5593 29.289 32.2897C29.0071 32.2891 28.7251 32.2949 28.4434 32.305C27.3932 32.326 26.5487 32.043 25.5741 31.6768C25.4034 31.6154 25.2327 31.554 25.0569 31.4908C24.1739 31.1708 23.2993 30.8328 22.4284 30.4815C20.2186 29.5921 18.0765 29.3463 15.7119 29.2725C19.36 25.312 29.6349 31.5512 33.0026 33.6868Z" fill="#F6F6F6"/>
<path d="M134.135 28.9717C134.184 29.0713 134.234 29.1708 134.285 29.2734C134.202 29.2748 134.119 29.2763 134.033 29.2777C130.881 29.3443 128.289 30.1504 125.378 31.2864C124.703 31.5464 124.028 31.8022 123.346 32.0419C123.208 32.0906 123.07 32.1394 122.927 32.1896C122.47 32.3025 122.082 32.2999 121.613 32.2717C120.546 32.2396 119.758 32.5711 118.898 33.1957C118.55 33.5865 118.243 33.9965 117.929 34.4149C117.311 35.1142 116.555 35.5706 115.779 36.0785C115.099 36.5249 114.458 37.0146 113.816 37.514C109.532 40.8213 109.532 40.8213 107.65 41.0968C107.163 41.0219 107.008 40.789 106.679 40.4368C106.816 40.3761 106.816 40.3761 106.957 40.3142C109.697 39.0894 112.033 37.7309 114.304 35.7573C115.924 34.3534 117.602 33.2798 119.501 32.2906C119.603 32.2373 119.705 32.184 119.81 32.1292C120.505 31.7673 121.208 31.4226 121.915 31.0837C122.025 31.0303 122.135 30.9768 122.248 30.9218C126.02 29.0991 130.037 27.2898 134.135 28.9717Z" fill="#F6F6F6"/>
<path d="M91.1433 99.2666C91.2927 99.3164 91.442 99.3662 91.5959 99.4175C91.6086 99.6562 91.6171 99.8951 91.6242 100.134C91.6321 100.334 91.6321 100.334 91.6401 100.537C91.5214 101.987 91.024 103.266 90.3796 104.556C90.3076 104.703 90.2356 104.851 90.1614 105.003C89.462 106.425 88.7261 107.828 87.9754 109.223C87.8758 109.223 87.7762 109.223 87.6737 109.223C87.0176 108.064 86.4131 106.909 85.9482 105.659C85.9111 105.559 85.8739 105.459 85.8356 105.357C85.4672 104.333 85.3903 103.464 85.4014 102.387C85.4021 102.261 85.4027 102.135 85.4034 102.005C85.4052 101.696 85.4079 101.386 85.4108 101.077C86.3069 101.002 86.3069 101.002 87.2211 100.926C87.2267 101.169 87.2324 101.411 87.2382 101.661C87.2926 103.568 87.4166 105.397 87.8245 107.262C88.0853 107.001 88.0042 106.646 88.0125 106.29C88.0171 106.119 88.0217 105.948 88.0265 105.772C88.0314 105.588 88.0363 105.405 88.0414 105.216C88.0626 104.659 88.0853 104.102 88.1082 103.546C88.1234 103.118 88.1301 102.691 88.1339 102.263C88.1532 101.678 88.1993 101.171 88.4279 100.624C89.0384 100.155 89.6631 99.9513 90.3891 99.7192C90.525 99.6346 90.6609 99.55 90.801 99.4628C90.914 99.3981 91.0269 99.3333 91.1433 99.2666Z" fill="#F8F8F8"/>
<path d="M58.4032 99.2666C59.0107 99.3762 59.5294 99.6648 60.072 99.9455C60.8043 100.324 60.8043 100.324 61.5712 100.624C61.8415 102.338 61.9272 104.038 61.9721 105.772C61.9793 106.028 61.9793 106.028 61.9866 106.29C61.9902 106.445 61.9938 106.599 61.9975 106.758C61.9847 107.105 61.9847 107.105 62.1746 107.262C62.6351 105.156 62.728 103.077 62.778 100.926C63.3754 100.976 63.9728 101.026 64.5883 101.077C64.6558 104.136 63.8563 106.578 62.3254 109.223C62.2259 109.223 62.1263 109.223 62.0237 109.223C58.2823 102.083 58.2823 102.083 58.4032 99.2666Z" fill="#F8F8F8"/>
<path d="M78.807 83.4648C81.5737 84.2738 84.3395 84.7193 87.2219 84.7866C87.1721 84.9359 87.1223 85.0853 87.0711 85.2391C84.2637 86.5927 80.1081 85.4003 77.3149 84.4925C75.5877 83.9472 74.0086 84.0696 72.306 84.598C69.6 85.436 65.6475 86.5474 62.9341 85.2391C62.8843 85.0898 62.8345 84.9405 62.7832 84.7866C62.9499 84.7827 63.1165 84.7788 63.2882 84.7748C66.6315 84.6664 69.7335 83.915 72.9248 82.9438C74.9897 82.3597 76.8135 82.8776 78.807 83.4648Z" fill="#0A0A0A"/>
<path d="M66.4009 101.23C66.7992 101.28 67.1974 101.33 67.6078 101.381C67.6134 101.564 67.619 101.746 67.6249 101.934C67.6825 103.46 67.8265 104.876 68.2112 106.36C68.261 106.36 68.3108 106.36 68.362 106.36C68.3746 106.195 68.3746 106.195 68.3874 106.028C68.4256 105.529 68.4646 105.03 68.5035 104.53C68.5166 104.358 68.5297 104.186 68.5433 104.008C68.5564 103.841 68.5695 103.674 68.583 103.502C68.6008 103.272 68.6008 103.272 68.6189 103.037C68.6645 102.581 68.7343 102.134 68.8146 101.683C69.2129 101.683 69.6111 101.683 70.0215 101.683C70.4866 103.612 70.2618 105.633 69.418 107.416C69.0904 107.856 69.0904 107.856 68.8146 108.17C68.4522 108.112 68.2561 108.065 67.9951 107.799C67.7824 107.494 67.5702 107.188 67.3626 106.878C67.2887 106.774 67.2148 106.669 67.1387 106.562C66.3282 105.374 66.2009 104.325 66.2218 102.909C66.2219 102.78 66.222 102.651 66.2221 102.519C66.2288 101.575 66.2288 101.575 66.4009 101.23Z" fill="#F5F5F5"/>
<path d="M83.6038 101.23C84.0969 102.217 83.8736 104.138 83.6321 105.19C83.2338 106.298 82.3619 107.254 81.6426 108.17C81.1827 108.082 81.0625 108.045 80.7375 107.68C79.7044 105.941 79.5067 103.636 79.9832 101.683C80.3815 101.683 80.7797 101.683 81.1901 101.683C81.442 103.342 81.5697 104.986 81.6426 106.661C82.3489 104.989 82.3265 103.169 82.3969 101.381C82.8333 101.257 83.1342 101.23 83.6038 101.23Z" fill="#F5F5F5"/>
<path d="M46.79 14.4932C47.5197 14.6353 47.9584 15.0031 48.4495 15.5492C49.2161 16.7694 49.5645 18.0106 49.562 19.4431C49.5621 19.6278 49.5621 19.6278 49.5623 19.8161C49.5386 21.1664 49.3625 22.7743 48.7512 23.9971C48.6909 25.3663 48.6307 26.7537 49.0529 28.0702C49.1118 28.2907 49.1118 28.2907 49.1719 28.5157C49.7661 30.5388 50.8015 32.3905 51.7683 34.2553C51.3157 34.2553 51.3157 34.2553 51.0777 34.055C49.9135 32.7167 49.1872 31.2772 48.5532 29.6354C48.5022 29.5041 48.4513 29.3728 48.3988 29.2375C47.4745 26.7577 47.5354 24.5759 48.2697 22.0684C48.8108 20.2062 48.844 18.2366 47.9321 16.495C47.5239 15.7775 47.5239 15.7775 46.988 15.1573C46.79 14.9457 46.79 14.9457 46.79 14.4932Z" fill="#111111"/>
<path d="M103.211 14.4932C103.119 14.9945 102.944 15.2868 102.626 15.6812C101.509 17.1292 101.169 18.7218 101.4 20.5274C101.568 21.3867 101.768 22.2384 101.983 23.0868C102.419 24.86 102.449 26.4183 101.9 28.1645C101.838 28.37 101.838 28.37 101.775 28.5796C101.473 29.5556 101.133 30.4887 100.646 31.3891C100.565 31.5404 100.485 31.6916 100.402 31.8475C99.8717 32.7987 99.2915 33.6235 98.5341 34.4062C98.4346 34.3564 98.335 34.3066 98.2324 34.2553C98.2871 34.1499 98.3418 34.0446 98.3981 33.936C99.6988 31.4575 99.6988 31.4575 100.759 28.8716C100.811 28.7245 100.811 28.7245 100.863 28.5744C101.539 26.517 101.426 24.2659 100.793 22.2222C100.231 20.3545 100.223 18.0653 101.099 16.3034C101.571 15.5195 102.22 14.4932 103.211 14.4932Z" fill="#101010"/>
<path d="M29.7468 35.6133C29.6754 36.0179 29.5901 36.3826 29.4427 36.7671C28.8425 38.8106 29.3772 41.0968 30.2842 42.9581C30.8436 43.9295 31.6442 44.6665 32.4622 45.4189C32.4124 45.5185 32.3626 45.6181 32.3113 45.7206C31.174 45.6723 30.3749 45.1763 29.603 44.3488C28.1451 42.4473 27.7153 39.9177 27.9365 37.5744C28.1648 36.7122 28.7781 35.6133 29.7468 35.6133Z" fill="#0B0B0B"/>
<path d="M120.256 35.6133C120.994 35.824 121.32 36.2076 121.765 36.8201C122.519 38.3062 122.103 40.3712 121.644 41.8915C121.112 43.3886 120.456 44.5953 119.06 45.4236C118.599 45.6393 118.197 45.689 117.691 45.7206C117.691 45.2681 117.691 45.2681 117.99 44.9522C118.121 44.8324 118.253 44.7126 118.389 44.5892C119.948 43.0656 120.711 41.0983 120.771 38.9236C120.772 38.8051 120.773 38.6865 120.775 38.5644C120.777 38.3958 120.777 38.3958 120.779 38.2238C120.767 37.4454 120.579 36.9213 120.256 36.2167C120.256 36.0176 120.256 35.8184 120.256 35.6133Z" fill="#0B0B0B"/>
<path d="M71.6828 101.387C71.8819 101.387 72.0811 101.387 72.2862 101.387C72.2991 101.504 72.3121 101.621 72.3254 101.741C72.3845 102.277 72.4438 102.812 72.5031 103.348C72.5234 103.532 72.5437 103.716 72.5647 103.906C72.6667 104.827 72.7713 105.747 72.8897 106.667C72.9892 106.667 73.0888 106.667 73.1914 106.667C73.1898 106.571 73.1882 106.475 73.1866 106.377C73.1362 102.868 73.1362 102.868 73.4931 101.387C73.6922 101.387 73.8913 101.387 74.0965 101.387C74.8399 103.617 74.1119 106.414 73.1914 108.477C73.0918 108.477 72.9922 108.477 72.8897 108.477C72.7435 108.154 72.5993 107.83 72.4559 107.506C72.3352 107.235 72.3352 107.235 72.212 106.96C71.6972 105.684 71.6425 104.478 71.6639 103.112C71.6653 102.946 71.6667 102.779 71.6681 102.607C71.6716 102.2 71.6765 101.794 71.6828 101.387Z" fill="#F3F3F3"/>
<path d="M75.9036 101.387C76.1027 101.387 76.3018 101.387 76.507 101.387C76.9257 103.125 76.838 104.891 76.8087 106.667C76.9083 106.667 77.0078 106.667 77.1104 106.667C77.1233 106.539 77.1363 106.411 77.1496 106.279C77.198 105.802 77.2466 105.325 77.2955 104.847C77.3165 104.641 77.3374 104.435 77.3582 104.229C77.3883 103.932 77.4188 103.635 77.4493 103.337C77.4674 103.159 77.4856 102.98 77.5043 102.796C77.5594 102.323 77.6311 101.856 77.7138 101.387C77.913 101.387 78.1121 101.387 78.3173 101.387C78.3651 104.007 78.2349 106.087 77.1104 108.477C77.0109 108.477 76.9113 108.477 76.8087 108.477C75.8927 106.417 75.1602 103.617 75.9036 101.387Z" fill="#F5F5F5"/>
<path d="M115.731 70.7578C116.391 70.8393 116.871 70.9957 117.449 71.3218C117.602 71.4072 117.754 71.4927 117.911 71.5808C118.073 71.6733 118.234 71.7657 118.4 71.8609C118.651 72.0037 118.651 72.0037 118.907 72.1493C126.679 76.5971 126.679 76.5971 127.197 78.1498C126.491 77.9388 125.866 77.6452 125.229 77.2829C125.126 77.2245 125.022 77.166 124.916 77.1058C123.599 76.3466 122.34 75.4976 121.08 74.6495C120.661 74.368 120.242 74.0877 119.822 73.8076C115.968 71.2303 115.968 71.2303 115.731 70.7578Z" fill="#0A0A0A"/>
<path d="M34.2668 70.9083C32.9756 72.0246 31.5519 72.9393 30.1262 73.8718C29.7159 74.1403 29.3064 74.41 28.897 74.68C24.6079 77.5004 24.6079 77.5004 23.1035 78.1494C23.0039 78.0996 22.9043 78.0498 22.8018 77.9985C23.4111 77.2201 24.0509 76.6391 24.8666 76.0845C24.9779 76.0076 25.0892 75.9307 25.2038 75.8515C27.3827 74.3586 29.6375 72.9987 31.9452 71.7151C32.1919 71.5759 32.4365 71.4328 32.6792 71.2865C32.7982 71.216 32.9173 71.1454 33.0399 71.0727C33.1983 70.9764 33.1983 70.9764 33.3598 70.8782C33.7268 70.7322 33.9016 70.7761 34.2668 70.9083Z" fill="#0A0A0A"/>
<path d="M51.3153 41.042C51.4148 41.042 51.5144 41.042 51.617 41.042C51.6063 41.4894 51.572 41.8257 51.2704 42.1716C50.5712 42.7738 49.858 43.1473 49.0147 43.5123C47.2171 44.3298 45.3119 45.4364 44.2816 47.1923C44.2131 47.3034 44.1447 47.4144 44.0742 47.5288C43.9746 47.5288 43.875 47.5288 43.7725 47.5288C43.8292 46.451 44.4032 45.5427 45.1496 44.7922C46.6127 43.5677 48.3584 42.7182 50.072 41.902C50.5629 41.6644 50.9459 41.4435 51.3153 41.042Z" fill="#101010"/>
<path d="M98.3818 41.042C98.7693 41.2286 99.1055 41.4239 99.4661 41.6643C100.098 42.0679 100.765 42.3652 101.446 42.6731C103.419 43.5746 105.347 44.86 106.226 46.9254C106.226 47.1245 106.226 47.3236 106.226 47.5288C106.127 47.5288 106.027 47.5288 105.925 47.5288C105.74 47.3072 105.74 47.3072 105.529 47.0008C104.159 45.1357 102.338 44.0972 100.276 43.1354C99.6051 42.8152 99.0721 42.4629 98.5327 41.9471C98.4007 41.4474 98.4007 41.4474 98.3818 41.042Z" fill="#0F0F0F"/>
<path d="M6.66016 18.4082C7.81958 18.691 8.49501 19.3585 9.11157 20.3505C9.80408 21.5293 10.0491 22.5136 10.0167 23.8767C10.0159 24.0101 10.0152 24.1435 10.0143 24.281C10.0073 24.8647 9.98803 25.3868 9.82814 25.951C9.60412 25.8763 9.60412 25.8763 9.37557 25.8002C9.35904 25.6687 9.34251 25.5372 9.32548 25.4018C9.00806 23.0173 8.60437 20.1812 6.66016 18.5591C6.66016 18.5093 6.66016 18.4595 6.66016 18.4082Z" fill="#0C0C0C"/>
<path d="M96.572 84.1895C96.6715 84.1895 96.7711 84.1895 96.8737 84.1895C96.9959 85.3143 96.5658 86.1841 95.8766 87.064C94.9725 88.0303 93.7369 88.6739 92.3993 88.7328C92.0296 88.7339 91.6614 88.7285 91.292 88.7151C91.292 88.5658 91.292 88.4164 91.292 88.2626C91.4252 88.2221 91.5584 88.1817 91.6957 88.14C93.8343 87.4417 95.1832 86.3624 96.4211 84.4912C96.4709 84.3916 96.5207 84.292 96.572 84.1895Z" fill="#0C0C0C"/>
<path d="M143.038 18.4082C143.138 18.458 143.237 18.5078 143.34 18.5591C143.274 18.609 143.209 18.659 143.141 18.7105C141.249 20.3447 140.917 23.4764 140.625 25.8002C140.401 25.8748 140.401 25.8748 140.172 25.951C139.894 24.2255 139.729 22.3866 140.625 20.8219C140.692 20.7029 140.76 20.5839 140.829 20.4613C141.374 19.5786 142.028 18.7448 143.038 18.4082Z" fill="#0A0A0A"/>
<path d="M53.124 84.1895C53.2236 84.1895 53.3231 84.1895 53.4257 84.1895C53.6365 84.4875 53.8335 84.7869 54.0291 85.0946C55.0823 86.6708 56.3301 87.465 58.1022 88.1117C58.354 88.2116 58.6055 88.3119 58.8565 88.4134C58.5033 88.7667 58.4311 88.7597 57.9514 88.7623C56.4238 88.7206 55.2973 88.162 54.2218 87.1011C53.5533 86.3702 53.1439 85.6631 53.0957 84.6515C53.105 84.499 53.1144 84.3465 53.124 84.1895Z" fill="#0A0A0A"/>
<path d="M22.9567 7.09863C23.0563 7.09863 23.1559 7.09863 23.2584 7.09863C23.5265 7.56049 23.5964 7.88917 23.5896 8.42098C23.5886 8.55516 23.5877 8.68934 23.5867 8.82759C23.5841 8.96643 23.5816 9.10528 23.579 9.24833C23.5776 9.38951 23.5763 9.53069 23.5749 9.67615C23.5713 10.0239 23.5664 10.3715 23.5602 10.7192C23.4606 10.7192 23.361 10.7192 23.2584 10.7192C22.81 9.96868 22.7434 9.41585 22.7682 8.56948C22.7689 8.46097 22.7697 8.35246 22.7705 8.24066C22.7824 7.44729 22.7824 7.44729 22.9567 7.09863Z" fill="#060606"/>
<path d="M126.746 7.09863C126.846 7.09863 126.945 7.09863 127.048 7.09863C127.428 7.858 127.312 9.23276 127.097 10.0474C126.972 10.3326 126.972 10.3326 126.746 10.7192C126.647 10.7192 126.547 10.7192 126.444 10.7192C126.436 10.2289 126.43 9.73866 126.426 9.24833C126.423 9.10949 126.42 8.97064 126.418 8.82759C126.417 8.69341 126.416 8.55923 126.415 8.42098C126.413 8.29774 126.412 8.1745 126.41 8.04752C126.448 7.66904 126.556 7.42539 126.746 7.09863Z" fill="#050505"/>
<path d="M112.716 25.9529C112.668 26.4057 112.568 26.5536 112.236 26.8769C111.501 27.3668 110.879 27.5033 110.001 27.4615C110.663 26.5515 111.513 25.8025 112.716 25.9529Z" fill="#080808"/>
<path d="M37.2891 25.957C38.197 26.0138 38.8408 26.2887 39.5519 26.8622C39.709 27.0585 39.8616 27.2587 40.0045 27.4656C38.8191 27.4187 38.1425 27.263 37.2891 26.4096C37.2891 26.2603 37.2891 26.1109 37.2891 25.957Z" fill="#070707"/>
<path d="M46.3402 50.2441C46.4397 50.2939 46.5393 50.3437 46.6419 50.395C46.4345 50.6967 46.4345 50.6967 46.1893 50.9984C46.0898 50.9984 45.9902 50.9984 45.8876 50.9984C45.6822 51.1434 45.4805 51.2939 45.2842 51.451C45.5091 50.8785 45.8509 50.6046 46.3402 50.2441Z" fill="#D9D9D9"/>
<path d="M73.0419 104.854C73.0917 104.854 73.1415 104.854 73.1928 104.854C73.1928 105.451 73.1928 106.048 73.1928 106.664C73.0932 106.664 72.9937 106.664 72.8911 106.664C72.8413 106.415 72.7915 106.166 72.7402 105.91C72.8398 105.91 72.9394 105.91 73.0419 105.91C73.0419 105.561 73.0419 105.213 73.0419 104.854Z" fill="#3B3B3B"/>
</svg>
